M48
; DRILL file {KiCad 9.0.7} date 2026-03-10T13:56:19+0800
; FORMAT={-:-/ absolute / metric / decimal}
; #@! TF.CreationDate,2026-03-10T13:56:19+08:00
; #@! TF.GenerationSoftware,Kicad,Pcbnew,9.0.7
; #@! TF.FileFunction,NonPlated,1,2,NPTH
FMAT,2
METRIC
; #@! TA.AperFunction,NonPlated,NPTH,ComponentDrill
T1C0.650
; #@! TA.AperFunction,NonPlated,NPTH,ComponentDrill
T2C1.600
; #@! TA.AperFunction,NonPlated,NPTH,ComponentDrill
T3C1.900
; #@! TA.AperFunction,NonPlated,NPTH,ComponentDrill
T4C2.200
; #@! TA.AperFunction,NonPlated,NPTH,ComponentDrill
T5C3.050
; #@! TA.AperFunction,NonPlated,NPTH,ComponentDrill
T6C5.050
; #@! TA.AperFunction,NonPlated,NPTH,ComponentDrill
T7C6.400
%
G90
G05
T1
X155.542Y-41.917
X161.322Y-41.917
T2
X64.797Y-125.247
X93.892Y-125.367
X102.082Y-97.979
X120.492Y-136.717
X137.992Y-189.817
X177.932Y-189.829
X187.322Y-157.268
X192.932Y-126.228
X194.432Y-98.079
X210.98Y-173.999
X213.932Y-146.158
X219.492Y-114.698
X242.782Y-146.158
X248.462Y-114.578
X271.992Y-151.318
X277.432Y-119.978
T3
X64.297Y-120.097
X75.297Y-120.097
X93.392Y-120.217
X101.582Y-92.829
X104.392Y-120.217
X112.582Y-92.829
X119.992Y-131.567
X130.992Y-131.567
X137.492Y-184.667
X148.492Y-184.667
X177.432Y-184.679
X186.822Y-152.118
X188.432Y-184.679
X192.432Y-121.078
X193.932Y-92.929
X197.822Y-152.118
X203.432Y-121.078
X204.932Y-92.929
X210.48Y-168.849
X213.432Y-141.008
X218.992Y-109.548
X221.48Y-168.849
X224.432Y-141.008
X229.992Y-109.548
X242.282Y-141.008
X247.962Y-109.428
X253.282Y-141.008
X258.962Y-109.428
X271.492Y-146.168
X276.932Y-114.828
X282.492Y-146.168
X287.932Y-114.828
T4
X60.432Y-56.917
X73.432Y-197.917
X146.932Y-43.917
X301.432Y-43.917
X301.432Y-197.917
T5
X69.797Y-114.197
X74.797Y-116.297
X98.892Y-114.317
X103.892Y-116.417
X107.082Y-86.929
X112.082Y-89.029
X125.492Y-125.667
X130.492Y-127.767
X142.992Y-178.767
X147.992Y-180.867
X182.932Y-178.779
X187.932Y-180.879
X192.322Y-146.218
X197.322Y-148.318
X197.932Y-115.178
X199.432Y-87.029
X202.932Y-117.278
X204.432Y-89.129
X215.98Y-162.949
X218.932Y-135.108
X220.98Y-165.049
X223.932Y-137.208
X224.492Y-103.648
X229.492Y-105.748
X247.782Y-135.108
X252.782Y-137.208
X253.462Y-103.528
X258.462Y-105.628
X276.992Y-140.268
X281.992Y-142.368
X282.432Y-108.928
X287.432Y-111.028
T6
X69.797Y-120.097
X98.892Y-120.217
X107.082Y-92.829
X125.492Y-131.567
X142.992Y-184.667
X182.932Y-184.679
X192.322Y-152.118
X197.932Y-121.078
X199.432Y-92.929
X215.98Y-168.849
X218.932Y-141.008
X224.492Y-109.548
X247.782Y-141.008
X253.462Y-109.428
X276.992Y-146.168
X282.432Y-114.828
T7
X60.432Y-43.917
X60.432Y-197.917
X143.532Y-86.317
X145.782Y-149.517
X173.032Y-43.917
X314.432Y-43.917
X314.432Y-197.917
M30
