G04 #@! TF.GenerationSoftware,KiCad,Pcbnew,9.0.7*
G04 #@! TF.CreationDate,2026-03-10T13:56:11+08:00*
G04 #@! TF.ProjectId,Flatbox-rev8,466c6174-626f-4782-9d72-6576382e6b69,rev?*
G04 #@! TF.SameCoordinates,Original*
G04 #@! TF.FileFunction,AssemblyDrawing,Bot*
%FSLAX46Y46*%
G04 Gerber Fmt 4.6, Leading zero omitted, Abs format (unit mm)*
G04 Created by KiCad (PCBNEW 9.0.7) date 2026-03-10 13:56:11*
%MOMM*%
%LPD*%
G01*
G04 APERTURE LIST*
%ADD10C,0.150000*%
%ADD11C,0.130000*%
%ADD12C,0.100000*%
G04 APERTURE END LIST*
D10*
X217401227Y-65221377D02*
X217972655Y-65221377D01*
X217686941Y-65221377D02*
X217686941Y-64221377D01*
X217686941Y-64221377D02*
X217782179Y-64364234D01*
X217782179Y-64364234D02*
X217877417Y-64459472D01*
X217877417Y-64459472D02*
X217972655Y-64507091D01*
X216782179Y-64221377D02*
X216686941Y-64221377D01*
X216686941Y-64221377D02*
X216591703Y-64268996D01*
X216591703Y-64268996D02*
X216544084Y-64316615D01*
X216544084Y-64316615D02*
X216496465Y-64411853D01*
X216496465Y-64411853D02*
X216448846Y-64602329D01*
X216448846Y-64602329D02*
X216448846Y-64840424D01*
X216448846Y-64840424D02*
X216496465Y-65030900D01*
X216496465Y-65030900D02*
X216544084Y-65126138D01*
X216544084Y-65126138D02*
X216591703Y-65173758D01*
X216591703Y-65173758D02*
X216686941Y-65221377D01*
X216686941Y-65221377D02*
X216782179Y-65221377D01*
X216782179Y-65221377D02*
X216877417Y-65173758D01*
X216877417Y-65173758D02*
X216925036Y-65126138D01*
X216925036Y-65126138D02*
X216972655Y-65030900D01*
X216972655Y-65030900D02*
X217020274Y-64840424D01*
X217020274Y-64840424D02*
X217020274Y-64602329D01*
X217020274Y-64602329D02*
X216972655Y-64411853D01*
X216972655Y-64411853D02*
X216925036Y-64316615D01*
X216925036Y-64316615D02*
X216877417Y-64268996D01*
X216877417Y-64268996D02*
X216782179Y-64221377D01*
X215829798Y-64221377D02*
X215734560Y-64221377D01*
X215734560Y-64221377D02*
X215639322Y-64268996D01*
X215639322Y-64268996D02*
X215591703Y-64316615D01*
X215591703Y-64316615D02*
X215544084Y-64411853D01*
X215544084Y-64411853D02*
X215496465Y-64602329D01*
X215496465Y-64602329D02*
X215496465Y-64840424D01*
X215496465Y-64840424D02*
X215544084Y-65030900D01*
X215544084Y-65030900D02*
X215591703Y-65126138D01*
X215591703Y-65126138D02*
X215639322Y-65173758D01*
X215639322Y-65173758D02*
X215734560Y-65221377D01*
X215734560Y-65221377D02*
X215829798Y-65221377D01*
X215829798Y-65221377D02*
X215925036Y-65173758D01*
X215925036Y-65173758D02*
X215972655Y-65126138D01*
X215972655Y-65126138D02*
X216020274Y-65030900D01*
X216020274Y-65030900D02*
X216067893Y-64840424D01*
X216067893Y-64840424D02*
X216067893Y-64602329D01*
X216067893Y-64602329D02*
X216020274Y-64411853D01*
X216020274Y-64411853D02*
X215972655Y-64316615D01*
X215972655Y-64316615D02*
X215925036Y-64268996D01*
X215925036Y-64268996D02*
X215829798Y-64221377D01*
X214639322Y-64554710D02*
X214639322Y-65221377D01*
X215067893Y-64554710D02*
X215067893Y-65078519D01*
X215067893Y-65078519D02*
X215020274Y-65173758D01*
X215020274Y-65173758D02*
X214925036Y-65221377D01*
X214925036Y-65221377D02*
X214782179Y-65221377D01*
X214782179Y-65221377D02*
X214686941Y-65173758D01*
X214686941Y-65173758D02*
X214639322Y-65126138D01*
D11*
X216847894Y-62733094D02*
X216889798Y-62774999D01*
X216889798Y-62774999D02*
X217015513Y-62816903D01*
X217015513Y-62816903D02*
X217099322Y-62816903D01*
X217099322Y-62816903D02*
X217225036Y-62774999D01*
X217225036Y-62774999D02*
X217308846Y-62691189D01*
X217308846Y-62691189D02*
X217350751Y-62607379D01*
X217350751Y-62607379D02*
X217392655Y-62439760D01*
X217392655Y-62439760D02*
X217392655Y-62314046D01*
X217392655Y-62314046D02*
X217350751Y-62146427D01*
X217350751Y-62146427D02*
X217308846Y-62062618D01*
X217308846Y-62062618D02*
X217225036Y-61978808D01*
X217225036Y-61978808D02*
X217099322Y-61936903D01*
X217099322Y-61936903D02*
X217015513Y-61936903D01*
X217015513Y-61936903D02*
X216889798Y-61978808D01*
X216889798Y-61978808D02*
X216847894Y-62020713D01*
X216009798Y-62816903D02*
X216512655Y-62816903D01*
X216261227Y-62816903D02*
X216261227Y-61936903D01*
X216261227Y-61936903D02*
X216345036Y-62062618D01*
X216345036Y-62062618D02*
X216428846Y-62146427D01*
X216428846Y-62146427D02*
X216512655Y-62188332D01*
X215590751Y-62816903D02*
X215423132Y-62816903D01*
X215423132Y-62816903D02*
X215339322Y-62774999D01*
X215339322Y-62774999D02*
X215297418Y-62733094D01*
X215297418Y-62733094D02*
X215213608Y-62607379D01*
X215213608Y-62607379D02*
X215171703Y-62439760D01*
X215171703Y-62439760D02*
X215171703Y-62104522D01*
X215171703Y-62104522D02*
X215213608Y-62020713D01*
X215213608Y-62020713D02*
X215255513Y-61978808D01*
X215255513Y-61978808D02*
X215339322Y-61936903D01*
X215339322Y-61936903D02*
X215506941Y-61936903D01*
X215506941Y-61936903D02*
X215590751Y-61978808D01*
X215590751Y-61978808D02*
X215632656Y-62020713D01*
X215632656Y-62020713D02*
X215674560Y-62104522D01*
X215674560Y-62104522D02*
X215674560Y-62314046D01*
X215674560Y-62314046D02*
X215632656Y-62397856D01*
X215632656Y-62397856D02*
X215590751Y-62439760D01*
X215590751Y-62439760D02*
X215506941Y-62481665D01*
X215506941Y-62481665D02*
X215339322Y-62481665D01*
X215339322Y-62481665D02*
X215255513Y-62439760D01*
X215255513Y-62439760D02*
X215213608Y-62397856D01*
X215213608Y-62397856D02*
X215171703Y-62314046D01*
D10*
X238876999Y-60345129D02*
X239686522Y-60345129D01*
X239686522Y-60345129D02*
X239781760Y-60392748D01*
X239781760Y-60392748D02*
X239829380Y-60440367D01*
X239829380Y-60440367D02*
X239876999Y-60535605D01*
X239876999Y-60535605D02*
X239876999Y-60726081D01*
X239876999Y-60726081D02*
X239829380Y-60821319D01*
X239829380Y-60821319D02*
X239781760Y-60868938D01*
X239781760Y-60868938D02*
X239686522Y-60916557D01*
X239686522Y-60916557D02*
X238876999Y-60916557D01*
X239829380Y-61345129D02*
X239876999Y-61487986D01*
X239876999Y-61487986D02*
X239876999Y-61726081D01*
X239876999Y-61726081D02*
X239829380Y-61821319D01*
X239829380Y-61821319D02*
X239781760Y-61868938D01*
X239781760Y-61868938D02*
X239686522Y-61916557D01*
X239686522Y-61916557D02*
X239591284Y-61916557D01*
X239591284Y-61916557D02*
X239496046Y-61868938D01*
X239496046Y-61868938D02*
X239448427Y-61821319D01*
X239448427Y-61821319D02*
X239400808Y-61726081D01*
X239400808Y-61726081D02*
X239353189Y-61535605D01*
X239353189Y-61535605D02*
X239305570Y-61440367D01*
X239305570Y-61440367D02*
X239257951Y-61392748D01*
X239257951Y-61392748D02*
X239162713Y-61345129D01*
X239162713Y-61345129D02*
X239067475Y-61345129D01*
X239067475Y-61345129D02*
X238972237Y-61392748D01*
X238972237Y-61392748D02*
X238924618Y-61440367D01*
X238924618Y-61440367D02*
X238876999Y-61535605D01*
X238876999Y-61535605D02*
X238876999Y-61773700D01*
X238876999Y-61773700D02*
X238924618Y-61916557D01*
X239353189Y-62678462D02*
X239400808Y-62821319D01*
X239400808Y-62821319D02*
X239448427Y-62868938D01*
X239448427Y-62868938D02*
X239543665Y-62916557D01*
X239543665Y-62916557D02*
X239686522Y-62916557D01*
X239686522Y-62916557D02*
X239781760Y-62868938D01*
X239781760Y-62868938D02*
X239829380Y-62821319D01*
X239829380Y-62821319D02*
X239876999Y-62726081D01*
X239876999Y-62726081D02*
X239876999Y-62345129D01*
X239876999Y-62345129D02*
X238876999Y-62345129D01*
X238876999Y-62345129D02*
X238876999Y-62678462D01*
X238876999Y-62678462D02*
X238924618Y-62773700D01*
X238924618Y-62773700D02*
X238972237Y-62821319D01*
X238972237Y-62821319D02*
X239067475Y-62868938D01*
X239067475Y-62868938D02*
X239162713Y-62868938D01*
X239162713Y-62868938D02*
X239257951Y-62821319D01*
X239257951Y-62821319D02*
X239305570Y-62773700D01*
X239305570Y-62773700D02*
X239353189Y-62678462D01*
X239353189Y-62678462D02*
X239353189Y-62345129D01*
X239972237Y-63107034D02*
X239972237Y-63868938D01*
X239591284Y-64059415D02*
X239591284Y-64535605D01*
X239876999Y-63964177D02*
X238876999Y-64297510D01*
X238876999Y-64297510D02*
X239876999Y-64630843D01*
X228076999Y-60678463D02*
X228886522Y-60678463D01*
X228886522Y-60678463D02*
X228981760Y-60726082D01*
X228981760Y-60726082D02*
X229029380Y-60773701D01*
X229029380Y-60773701D02*
X229076999Y-60868939D01*
X229076999Y-60868939D02*
X229076999Y-61059415D01*
X229076999Y-61059415D02*
X229029380Y-61154653D01*
X229029380Y-61154653D02*
X228981760Y-61202272D01*
X228981760Y-61202272D02*
X228886522Y-61249891D01*
X228886522Y-61249891D02*
X228076999Y-61249891D01*
X229029380Y-61678463D02*
X229076999Y-61821320D01*
X229076999Y-61821320D02*
X229076999Y-62059415D01*
X229076999Y-62059415D02*
X229029380Y-62154653D01*
X229029380Y-62154653D02*
X228981760Y-62202272D01*
X228981760Y-62202272D02*
X228886522Y-62249891D01*
X228886522Y-62249891D02*
X228791284Y-62249891D01*
X228791284Y-62249891D02*
X228696046Y-62202272D01*
X228696046Y-62202272D02*
X228648427Y-62154653D01*
X228648427Y-62154653D02*
X228600808Y-62059415D01*
X228600808Y-62059415D02*
X228553189Y-61868939D01*
X228553189Y-61868939D02*
X228505570Y-61773701D01*
X228505570Y-61773701D02*
X228457951Y-61726082D01*
X228457951Y-61726082D02*
X228362713Y-61678463D01*
X228362713Y-61678463D02*
X228267475Y-61678463D01*
X228267475Y-61678463D02*
X228172237Y-61726082D01*
X228172237Y-61726082D02*
X228124618Y-61773701D01*
X228124618Y-61773701D02*
X228076999Y-61868939D01*
X228076999Y-61868939D02*
X228076999Y-62107034D01*
X228076999Y-62107034D02*
X228124618Y-62249891D01*
X228553189Y-63011796D02*
X228600808Y-63154653D01*
X228600808Y-63154653D02*
X228648427Y-63202272D01*
X228648427Y-63202272D02*
X228743665Y-63249891D01*
X228743665Y-63249891D02*
X228886522Y-63249891D01*
X228886522Y-63249891D02*
X228981760Y-63202272D01*
X228981760Y-63202272D02*
X229029380Y-63154653D01*
X229029380Y-63154653D02*
X229076999Y-63059415D01*
X229076999Y-63059415D02*
X229076999Y-62678463D01*
X229076999Y-62678463D02*
X228076999Y-62678463D01*
X228076999Y-62678463D02*
X228076999Y-63011796D01*
X228076999Y-63011796D02*
X228124618Y-63107034D01*
X228124618Y-63107034D02*
X228172237Y-63154653D01*
X228172237Y-63154653D02*
X228267475Y-63202272D01*
X228267475Y-63202272D02*
X228362713Y-63202272D01*
X228362713Y-63202272D02*
X228457951Y-63154653D01*
X228457951Y-63154653D02*
X228505570Y-63107034D01*
X228505570Y-63107034D02*
X228553189Y-63011796D01*
X228553189Y-63011796D02*
X228553189Y-62678463D01*
X228172237Y-63630844D02*
X228124618Y-63678463D01*
X228124618Y-63678463D02*
X228076999Y-63773701D01*
X228076999Y-63773701D02*
X228076999Y-64011796D01*
X228076999Y-64011796D02*
X228124618Y-64107034D01*
X228124618Y-64107034D02*
X228172237Y-64154653D01*
X228172237Y-64154653D02*
X228267475Y-64202272D01*
X228267475Y-64202272D02*
X228362713Y-64202272D01*
X228362713Y-64202272D02*
X228505570Y-64154653D01*
X228505570Y-64154653D02*
X229076999Y-63583225D01*
X229076999Y-63583225D02*
X229076999Y-64202272D01*
D12*
X96616758Y-112767250D02*
X97441758Y-111942250D01*
X97441758Y-111942250D02*
X100152758Y-111942250D01*
X97441758Y-116592250D02*
X96616758Y-115767250D01*
X100066758Y-116592250D02*
X97441758Y-116592250D01*
X100152758Y-111942250D02*
X100534758Y-112018250D01*
X100534758Y-112018250D02*
X100859758Y-112235250D01*
X100647758Y-116701250D02*
X100066758Y-116592250D01*
X100859758Y-112235250D02*
X101366758Y-112742250D01*
X101149758Y-117014250D02*
X100647758Y-116701250D01*
X101366758Y-112742250D02*
X101366758Y-112942250D01*
X101366758Y-112942250D02*
X101457758Y-113401250D01*
X101457758Y-113401250D02*
X101717758Y-113791250D01*
X101503758Y-117488250D02*
X101149758Y-117014250D01*
X101660758Y-118059250D02*
X101503758Y-117488250D01*
X101717758Y-113791250D02*
X102107758Y-114051250D01*
X101739758Y-118344250D02*
X101660758Y-118059250D01*
X101916758Y-118581250D02*
X101739758Y-118344250D01*
X102107758Y-114051250D02*
X102566758Y-114142250D01*
X102167758Y-118737250D02*
X101916758Y-118581250D01*
X102458758Y-118792250D02*
X102167758Y-118737250D01*
X102566758Y-114142250D02*
X105366758Y-114142250D01*
X105366758Y-114142250D02*
X105672758Y-114203250D01*
X105672758Y-114203250D02*
X105932758Y-114376250D01*
X105932758Y-114376250D02*
X106105758Y-114636250D01*
X106105758Y-114636250D02*
X106166758Y-114942250D01*
X106166758Y-117992250D02*
X106466758Y-117992250D01*
X106466758Y-117992250D02*
X106466758Y-118792250D01*
X106466758Y-118792250D02*
X102458758Y-118792250D01*
X123216758Y-124117250D02*
X124041758Y-123292250D01*
X124041758Y-123292250D02*
X126752758Y-123292250D01*
X124041758Y-127942250D02*
X123216758Y-127117250D01*
X126666758Y-127942250D02*
X124041758Y-127942250D01*
X126752758Y-123292250D02*
X127134758Y-123368250D01*
X127134758Y-123368250D02*
X127459758Y-123585250D01*
X127247758Y-128051250D02*
X126666758Y-127942250D01*
X127459758Y-123585250D02*
X127966758Y-124092250D01*
X127749758Y-128364250D02*
X127247758Y-128051250D01*
X127966758Y-124092250D02*
X127966758Y-124292250D01*
X127966758Y-124292250D02*
X128057758Y-124751250D01*
X128057758Y-124751250D02*
X128317758Y-125141250D01*
X128103758Y-128838250D02*
X127749758Y-128364250D01*
X128260758Y-129409250D02*
X128103758Y-128838250D01*
X128317758Y-125141250D02*
X128707758Y-125401250D01*
X128339758Y-129694250D02*
X128260758Y-129409250D01*
X128516758Y-129931250D02*
X128339758Y-129694250D01*
X128707758Y-125401250D02*
X129166758Y-125492250D01*
X128767758Y-130087250D02*
X128516758Y-129931250D01*
X129058758Y-130142250D02*
X128767758Y-130087250D01*
X129166758Y-125492250D02*
X131966758Y-125492250D01*
X131966758Y-125492250D02*
X132272758Y-125553250D01*
X132272758Y-125553250D02*
X132532758Y-125726250D01*
X132532758Y-125726250D02*
X132705758Y-125986250D01*
X132705758Y-125986250D02*
X132766758Y-126292250D01*
X132766758Y-129342250D02*
X133066758Y-129342250D01*
X133066758Y-129342250D02*
X133066758Y-130142250D01*
X133066758Y-130142250D02*
X129058758Y-130142250D01*
X140716758Y-177217250D02*
X141541758Y-176392250D01*
X141541758Y-176392250D02*
X144252758Y-176392250D01*
X141541758Y-181042250D02*
X140716758Y-180217250D01*
X144166758Y-181042250D02*
X141541758Y-181042250D01*
X144252758Y-176392250D02*
X144634758Y-176468250D01*
X144634758Y-176468250D02*
X144959758Y-176685250D01*
X144747758Y-181151250D02*
X144166758Y-181042250D01*
X144959758Y-176685250D02*
X145466758Y-177192250D01*
X145249758Y-181464250D02*
X144747758Y-181151250D01*
X145466758Y-177192250D02*
X145466758Y-177392250D01*
X145466758Y-177392250D02*
X145557758Y-177851250D01*
X145557758Y-177851250D02*
X145817758Y-178241250D01*
X145603758Y-181938250D02*
X145249758Y-181464250D01*
X145760758Y-182509250D02*
X145603758Y-181938250D01*
X145817758Y-178241250D02*
X146207758Y-178501250D01*
X145839758Y-182794250D02*
X145760758Y-182509250D01*
X146016758Y-183031250D02*
X145839758Y-182794250D01*
X146207758Y-178501250D02*
X146666758Y-178592250D01*
X146267758Y-183187250D02*
X146016758Y-183031250D01*
X146558758Y-183242250D02*
X146267758Y-183187250D01*
X146666758Y-178592250D02*
X149466758Y-178592250D01*
X149466758Y-178592250D02*
X149772758Y-178653250D01*
X149772758Y-178653250D02*
X150032758Y-178826250D01*
X150032758Y-178826250D02*
X150205758Y-179086250D01*
X150205758Y-179086250D02*
X150266758Y-179392250D01*
X150266758Y-182442250D02*
X150566758Y-182442250D01*
X150566758Y-182442250D02*
X150566758Y-183242250D01*
X150566758Y-183242250D02*
X146558758Y-183242250D01*
X195657180Y-113628118D02*
X196482180Y-112803118D01*
X196482180Y-112803118D02*
X199193180Y-112803118D01*
X196482180Y-117453118D02*
X195657180Y-116628118D01*
X199107180Y-117453118D02*
X196482180Y-117453118D01*
X199193180Y-112803118D02*
X199575180Y-112879118D01*
X199575180Y-112879118D02*
X199900180Y-113096118D01*
X199688180Y-117562118D02*
X199107180Y-117453118D01*
X199900180Y-113096118D02*
X200407180Y-113603118D01*
X200190180Y-117875118D02*
X199688180Y-117562118D01*
X200407180Y-113603118D02*
X200407180Y-113803118D01*
X200407180Y-113803118D02*
X200498180Y-114262118D01*
X200498180Y-114262118D02*
X200758180Y-114652118D01*
X200544180Y-118349118D02*
X200190180Y-117875118D01*
X200701180Y-118920118D02*
X200544180Y-118349118D01*
X200758180Y-114652118D02*
X201148180Y-114912118D01*
X200780180Y-119205118D02*
X200701180Y-118920118D01*
X200957180Y-119442118D02*
X200780180Y-119205118D01*
X201148180Y-114912118D02*
X201607180Y-115003118D01*
X201208180Y-119598118D02*
X200957180Y-119442118D01*
X201499180Y-119653118D02*
X201208180Y-119598118D01*
X201607180Y-115003118D02*
X204407180Y-115003118D01*
X204407180Y-115003118D02*
X204713180Y-115064118D01*
X204713180Y-115064118D02*
X204973180Y-115237118D01*
X204973180Y-115237118D02*
X205146180Y-115497118D01*
X205146180Y-115497118D02*
X205207180Y-115803118D01*
X205207180Y-118853118D02*
X205507180Y-118853118D01*
X205507180Y-118853118D02*
X205507180Y-119653118D01*
X205507180Y-119653118D02*
X201499180Y-119653118D01*
X222217180Y-102098118D02*
X223042180Y-101273118D01*
X223042180Y-101273118D02*
X225753180Y-101273118D01*
X223042180Y-105923118D02*
X222217180Y-105098118D01*
X225667180Y-105923118D02*
X223042180Y-105923118D01*
X225753180Y-101273118D02*
X226135180Y-101349118D01*
X226135180Y-101349118D02*
X226460180Y-101566118D01*
X226248180Y-106032118D02*
X225667180Y-105923118D01*
X226460180Y-101566118D02*
X226967180Y-102073118D01*
X226750180Y-106345118D02*
X226248180Y-106032118D01*
X226967180Y-102073118D02*
X226967180Y-102273118D01*
X226967180Y-102273118D02*
X227058180Y-102732118D01*
X227058180Y-102732118D02*
X227318180Y-103122118D01*
X227104180Y-106819118D02*
X226750180Y-106345118D01*
X227261180Y-107390118D02*
X227104180Y-106819118D01*
X227318180Y-103122118D02*
X227708180Y-103382118D01*
X227340180Y-107675118D02*
X227261180Y-107390118D01*
X227517180Y-107912118D02*
X227340180Y-107675118D01*
X227708180Y-103382118D02*
X228167180Y-103473118D01*
X227768180Y-108068118D02*
X227517180Y-107912118D01*
X228059180Y-108123118D02*
X227768180Y-108068118D01*
X228167180Y-103473118D02*
X230967180Y-103473118D01*
X230967180Y-103473118D02*
X231273180Y-103534118D01*
X231273180Y-103534118D02*
X231533180Y-103707118D01*
X231533180Y-103707118D02*
X231706180Y-103967118D01*
X231706180Y-103967118D02*
X231767180Y-104273118D01*
X231767180Y-107323118D02*
X232067180Y-107323118D01*
X232067180Y-107323118D02*
X232067180Y-108123118D01*
X232067180Y-108123118D02*
X228059180Y-108123118D01*
X251187180Y-101978118D02*
X252012180Y-101153118D01*
X252012180Y-101153118D02*
X254723180Y-101153118D01*
X252012180Y-105803118D02*
X251187180Y-104978118D01*
X254637180Y-105803118D02*
X252012180Y-105803118D01*
X254723180Y-101153118D02*
X255105180Y-101229118D01*
X255105180Y-101229118D02*
X255430180Y-101446118D01*
X255218180Y-105912118D02*
X254637180Y-105803118D01*
X255430180Y-101446118D02*
X255937180Y-101953118D01*
X255720180Y-106225118D02*
X255218180Y-105912118D01*
X255937180Y-101953118D02*
X255937180Y-102153118D01*
X255937180Y-102153118D02*
X256028180Y-102612118D01*
X256028180Y-102612118D02*
X256288180Y-103002118D01*
X256074180Y-106699118D02*
X255720180Y-106225118D01*
X256231180Y-107270118D02*
X256074180Y-106699118D01*
X256288180Y-103002118D02*
X256678180Y-103262118D01*
X256310180Y-107555118D02*
X256231180Y-107270118D01*
X256487180Y-107792118D02*
X256310180Y-107555118D01*
X256678180Y-103262118D02*
X257137180Y-103353118D01*
X256738180Y-107948118D02*
X256487180Y-107792118D01*
X257029180Y-108003118D02*
X256738180Y-107948118D01*
X257137180Y-103353118D02*
X259937180Y-103353118D01*
X259937180Y-103353118D02*
X260243180Y-103414118D01*
X260243180Y-103414118D02*
X260503180Y-103587118D01*
X260503180Y-103587118D02*
X260676180Y-103847118D01*
X260676180Y-103847118D02*
X260737180Y-104153118D01*
X260737180Y-107203118D02*
X261037180Y-107203118D01*
X261037180Y-107203118D02*
X261037180Y-108003118D01*
X261037180Y-108003118D02*
X257029180Y-108003118D01*
X280157180Y-107378118D02*
X280982180Y-106553118D01*
X280982180Y-106553118D02*
X283693180Y-106553118D01*
X280982180Y-111203118D02*
X280157180Y-110378118D01*
X283607180Y-111203118D02*
X280982180Y-111203118D01*
X283693180Y-106553118D02*
X284075180Y-106629118D01*
X284075180Y-106629118D02*
X284400180Y-106846118D01*
X284188180Y-111312118D02*
X283607180Y-111203118D01*
X284400180Y-106846118D02*
X284907180Y-107353118D01*
X284690180Y-111625118D02*
X284188180Y-111312118D01*
X284907180Y-107353118D02*
X284907180Y-107553118D01*
X284907180Y-107553118D02*
X284998180Y-108012118D01*
X284998180Y-108012118D02*
X285258180Y-108402118D01*
X285044180Y-112099118D02*
X284690180Y-111625118D01*
X285201180Y-112670118D02*
X285044180Y-112099118D01*
X285258180Y-108402118D02*
X285648180Y-108662118D01*
X285280180Y-112955118D02*
X285201180Y-112670118D01*
X285457180Y-113192118D02*
X285280180Y-112955118D01*
X285648180Y-108662118D02*
X286107180Y-108753118D01*
X285708180Y-113348118D02*
X285457180Y-113192118D01*
X285999180Y-113403118D02*
X285708180Y-113348118D01*
X286107180Y-108753118D02*
X288907180Y-108753118D01*
X288907180Y-108753118D02*
X289213180Y-108814118D01*
X289213180Y-108814118D02*
X289473180Y-108987118D01*
X289473180Y-108987118D02*
X289646180Y-109247118D01*
X289646180Y-109247118D02*
X289707180Y-109553118D01*
X289707180Y-112603118D02*
X290007180Y-112603118D01*
X290007180Y-112603118D02*
X290007180Y-113403118D01*
X290007180Y-113403118D02*
X285999180Y-113403118D01*
X190047180Y-144668118D02*
X190872180Y-143843118D01*
X190872180Y-143843118D02*
X193583180Y-143843118D01*
X190872180Y-148493118D02*
X190047180Y-147668118D01*
X193497180Y-148493118D02*
X190872180Y-148493118D01*
X193583180Y-143843118D02*
X193965180Y-143919118D01*
X193965180Y-143919118D02*
X194290180Y-144136118D01*
X194078180Y-148602118D02*
X193497180Y-148493118D01*
X194290180Y-144136118D02*
X194797180Y-144643118D01*
X194580180Y-148915118D02*
X194078180Y-148602118D01*
X194797180Y-144643118D02*
X194797180Y-144843118D01*
X194797180Y-144843118D02*
X194888180Y-145302118D01*
X194888180Y-145302118D02*
X195148180Y-145692118D01*
X194934180Y-149389118D02*
X194580180Y-148915118D01*
X195091180Y-149960118D02*
X194934180Y-149389118D01*
X195148180Y-145692118D02*
X195538180Y-145952118D01*
X195170180Y-150245118D02*
X195091180Y-149960118D01*
X195347180Y-150482118D02*
X195170180Y-150245118D01*
X195538180Y-145952118D02*
X195997180Y-146043118D01*
X195598180Y-150638118D02*
X195347180Y-150482118D01*
X195889180Y-150693118D02*
X195598180Y-150638118D01*
X195997180Y-146043118D02*
X198797180Y-146043118D01*
X198797180Y-146043118D02*
X199103180Y-146104118D01*
X199103180Y-146104118D02*
X199363180Y-146277118D01*
X199363180Y-146277118D02*
X199536180Y-146537118D01*
X199536180Y-146537118D02*
X199597180Y-146843118D01*
X199597180Y-149893118D02*
X199897180Y-149893118D01*
X199897180Y-149893118D02*
X199897180Y-150693118D01*
X199897180Y-150693118D02*
X195889180Y-150693118D01*
X216657180Y-133558118D02*
X217482180Y-132733118D01*
X217482180Y-132733118D02*
X220193180Y-132733118D01*
X217482180Y-137383118D02*
X216657180Y-136558118D01*
X220107180Y-137383118D02*
X217482180Y-137383118D01*
X220193180Y-132733118D02*
X220575180Y-132809118D01*
X220575180Y-132809118D02*
X220900180Y-133026118D01*
X220688180Y-137492118D02*
X220107180Y-137383118D01*
X220900180Y-133026118D02*
X221407180Y-133533118D01*
X221190180Y-137805118D02*
X220688180Y-137492118D01*
X221407180Y-133533118D02*
X221407180Y-133733118D01*
X221407180Y-133733118D02*
X221498180Y-134192118D01*
X221498180Y-134192118D02*
X221758180Y-134582118D01*
X221544180Y-138279118D02*
X221190180Y-137805118D01*
X221701180Y-138850118D02*
X221544180Y-138279118D01*
X221758180Y-134582118D02*
X222148180Y-134842118D01*
X221780180Y-139135118D02*
X221701180Y-138850118D01*
X221957180Y-139372118D02*
X221780180Y-139135118D01*
X222148180Y-134842118D02*
X222607180Y-134933118D01*
X222208180Y-139528118D02*
X221957180Y-139372118D01*
X222499180Y-139583118D02*
X222208180Y-139528118D01*
X222607180Y-134933118D02*
X225407180Y-134933118D01*
X225407180Y-134933118D02*
X225713180Y-134994118D01*
X225713180Y-134994118D02*
X225973180Y-135167118D01*
X225973180Y-135167118D02*
X226146180Y-135427118D01*
X226146180Y-135427118D02*
X226207180Y-135733118D01*
X226207180Y-138783118D02*
X226507180Y-138783118D01*
X226507180Y-138783118D02*
X226507180Y-139583118D01*
X226507180Y-139583118D02*
X222499180Y-139583118D01*
X245507180Y-133558118D02*
X246332180Y-132733118D01*
X246332180Y-132733118D02*
X249043180Y-132733118D01*
X246332180Y-137383118D02*
X245507180Y-136558118D01*
X248957180Y-137383118D02*
X246332180Y-137383118D01*
X249043180Y-132733118D02*
X249425180Y-132809118D01*
X249425180Y-132809118D02*
X249750180Y-133026118D01*
X249538180Y-137492118D02*
X248957180Y-137383118D01*
X249750180Y-133026118D02*
X250257180Y-133533118D01*
X250040180Y-137805118D02*
X249538180Y-137492118D01*
X250257180Y-133533118D02*
X250257180Y-133733118D01*
X250257180Y-133733118D02*
X250348180Y-134192118D01*
X250348180Y-134192118D02*
X250608180Y-134582118D01*
X250394180Y-138279118D02*
X250040180Y-137805118D01*
X250551180Y-138850118D02*
X250394180Y-138279118D01*
X250608180Y-134582118D02*
X250998180Y-134842118D01*
X250630180Y-139135118D02*
X250551180Y-138850118D01*
X250807180Y-139372118D02*
X250630180Y-139135118D01*
X250998180Y-134842118D02*
X251457180Y-134933118D01*
X251058180Y-139528118D02*
X250807180Y-139372118D01*
X251349180Y-139583118D02*
X251058180Y-139528118D01*
X251457180Y-134933118D02*
X254257180Y-134933118D01*
X254257180Y-134933118D02*
X254563180Y-134994118D01*
X254563180Y-134994118D02*
X254823180Y-135167118D01*
X254823180Y-135167118D02*
X254996180Y-135427118D01*
X254996180Y-135427118D02*
X255057180Y-135733118D01*
X255057180Y-138783118D02*
X255357180Y-138783118D01*
X255357180Y-138783118D02*
X255357180Y-139583118D01*
X255357180Y-139583118D02*
X251349180Y-139583118D01*
X274717180Y-138718118D02*
X275542180Y-137893118D01*
X275542180Y-137893118D02*
X278253180Y-137893118D01*
X275542180Y-142543118D02*
X274717180Y-141718118D01*
X278167180Y-142543118D02*
X275542180Y-142543118D01*
X278253180Y-137893118D02*
X278635180Y-137969118D01*
X278635180Y-137969118D02*
X278960180Y-138186118D01*
X278748180Y-142652118D02*
X278167180Y-142543118D01*
X278960180Y-138186118D02*
X279467180Y-138693118D01*
X279250180Y-142965118D02*
X278748180Y-142652118D01*
X279467180Y-138693118D02*
X279467180Y-138893118D01*
X279467180Y-138893118D02*
X279558180Y-139352118D01*
X279558180Y-139352118D02*
X279818180Y-139742118D01*
X279604180Y-143439118D02*
X279250180Y-142965118D01*
X279761180Y-144010118D02*
X279604180Y-143439118D01*
X279818180Y-139742118D02*
X280208180Y-140002118D01*
X279840180Y-144295118D02*
X279761180Y-144010118D01*
X280017180Y-144532118D02*
X279840180Y-144295118D01*
X280208180Y-140002118D02*
X280667180Y-140093118D01*
X280268180Y-144688118D02*
X280017180Y-144532118D01*
X280559180Y-144743118D02*
X280268180Y-144688118D01*
X280667180Y-140093118D02*
X283467180Y-140093118D01*
X283467180Y-140093118D02*
X283773180Y-140154118D01*
X283773180Y-140154118D02*
X284033180Y-140327118D01*
X284033180Y-140327118D02*
X284206180Y-140587118D01*
X284206180Y-140587118D02*
X284267180Y-140893118D01*
X284267180Y-143943118D02*
X284567180Y-143943118D01*
X284567180Y-143943118D02*
X284567180Y-144743118D01*
X284567180Y-144743118D02*
X280559180Y-144743118D01*
X67521758Y-112647250D02*
X68346758Y-111822250D01*
X68346758Y-111822250D02*
X71057758Y-111822250D01*
X68346758Y-116472250D02*
X67521758Y-115647250D01*
X70971758Y-116472250D02*
X68346758Y-116472250D01*
X71057758Y-111822250D02*
X71439758Y-111898250D01*
X71439758Y-111898250D02*
X71764758Y-112115250D01*
X71552758Y-116581250D02*
X70971758Y-116472250D01*
X71764758Y-112115250D02*
X72271758Y-112622250D01*
X72054758Y-116894250D02*
X71552758Y-116581250D01*
X72271758Y-112622250D02*
X72271758Y-112822250D01*
X72271758Y-112822250D02*
X72362758Y-113281250D01*
X72362758Y-113281250D02*
X72622758Y-113671250D01*
X72408758Y-117368250D02*
X72054758Y-116894250D01*
X72565758Y-117939250D02*
X72408758Y-117368250D01*
X72622758Y-113671250D02*
X73012758Y-113931250D01*
X72644758Y-118224250D02*
X72565758Y-117939250D01*
X72821758Y-118461250D02*
X72644758Y-118224250D01*
X73012758Y-113931250D02*
X73471758Y-114022250D01*
X73072758Y-118617250D02*
X72821758Y-118461250D01*
X73363758Y-118672250D02*
X73072758Y-118617250D01*
X73471758Y-114022250D02*
X76271758Y-114022250D01*
X76271758Y-114022250D02*
X76577758Y-114083250D01*
X76577758Y-114083250D02*
X76837758Y-114256250D01*
X76837758Y-114256250D02*
X77010758Y-114516250D01*
X77010758Y-114516250D02*
X77071758Y-114822250D01*
X77071758Y-117872250D02*
X77371758Y-117872250D01*
X77371758Y-117872250D02*
X77371758Y-118672250D01*
X77371758Y-118672250D02*
X73363758Y-118672250D01*
X180657180Y-177229118D02*
X181482180Y-176404118D01*
X181482180Y-176404118D02*
X184193180Y-176404118D01*
X181482180Y-181054118D02*
X180657180Y-180229118D01*
X184107180Y-181054118D02*
X181482180Y-181054118D01*
X184193180Y-176404118D02*
X184575180Y-176480118D01*
X184575180Y-176480118D02*
X184900180Y-176697118D01*
X184688180Y-181163118D02*
X184107180Y-181054118D01*
X184900180Y-176697118D02*
X185407180Y-177204118D01*
X185190180Y-181476118D02*
X184688180Y-181163118D01*
X185407180Y-177204118D02*
X185407180Y-177404118D01*
X185407180Y-177404118D02*
X185498180Y-177863118D01*
X185498180Y-177863118D02*
X185758180Y-178253118D01*
X185544180Y-181950118D02*
X185190180Y-181476118D01*
X185701180Y-182521118D02*
X185544180Y-181950118D01*
X185758180Y-178253118D02*
X186148180Y-178513118D01*
X185780180Y-182806118D02*
X185701180Y-182521118D01*
X185957180Y-183043118D02*
X185780180Y-182806118D01*
X186148180Y-178513118D02*
X186607180Y-178604118D01*
X186208180Y-183199118D02*
X185957180Y-183043118D01*
X186499180Y-183254118D02*
X186208180Y-183199118D01*
X186607180Y-178604118D02*
X189407180Y-178604118D01*
X189407180Y-178604118D02*
X189713180Y-178665118D01*
X189713180Y-178665118D02*
X189973180Y-178838118D01*
X189973180Y-178838118D02*
X190146180Y-179098118D01*
X190146180Y-179098118D02*
X190207180Y-179404118D01*
X190207180Y-182454118D02*
X190507180Y-182454118D01*
X190507180Y-182454118D02*
X190507180Y-183254118D01*
X190507180Y-183254118D02*
X186499180Y-183254118D01*
X104807180Y-85379118D02*
X105632180Y-84554118D01*
X105632180Y-84554118D02*
X108343180Y-84554118D01*
X105632180Y-89204118D02*
X104807180Y-88379118D01*
X108257180Y-89204118D02*
X105632180Y-89204118D01*
X108343180Y-84554118D02*
X108725180Y-84630118D01*
X108725180Y-84630118D02*
X109050180Y-84847118D01*
X108838180Y-89313118D02*
X108257180Y-89204118D01*
X109050180Y-84847118D02*
X109557180Y-85354118D01*
X109340180Y-89626118D02*
X108838180Y-89313118D01*
X109557180Y-85354118D02*
X109557180Y-85554118D01*
X109557180Y-85554118D02*
X109648180Y-86013118D01*
X109648180Y-86013118D02*
X109908180Y-86403118D01*
X109694180Y-90100118D02*
X109340180Y-89626118D01*
X109851180Y-90671118D02*
X109694180Y-90100118D01*
X109908180Y-86403118D02*
X110298180Y-86663118D01*
X109930180Y-90956118D02*
X109851180Y-90671118D01*
X110107180Y-91193118D02*
X109930180Y-90956118D01*
X110298180Y-86663118D02*
X110757180Y-86754118D01*
X110358180Y-91349118D02*
X110107180Y-91193118D01*
X110649180Y-91404118D02*
X110358180Y-91349118D01*
X110757180Y-86754118D02*
X113557180Y-86754118D01*
X113557180Y-86754118D02*
X113863180Y-86815118D01*
X113863180Y-86815118D02*
X114123180Y-86988118D01*
X114123180Y-86988118D02*
X114296180Y-87248118D01*
X114296180Y-87248118D02*
X114357180Y-87554118D01*
X114357180Y-90604118D02*
X114657180Y-90604118D01*
X114657180Y-90604118D02*
X114657180Y-91404118D01*
X114657180Y-91404118D02*
X110649180Y-91404118D01*
X197157180Y-85479118D02*
X197982180Y-84654118D01*
X197982180Y-84654118D02*
X200693180Y-84654118D01*
X197982180Y-89304118D02*
X197157180Y-88479118D01*
X200607180Y-89304118D02*
X197982180Y-89304118D01*
X200693180Y-84654118D02*
X201075180Y-84730118D01*
X201075180Y-84730118D02*
X201400180Y-84947118D01*
X201188180Y-89413118D02*
X200607180Y-89304118D01*
X201400180Y-84947118D02*
X201907180Y-85454118D01*
X201690180Y-89726118D02*
X201188180Y-89413118D01*
X201907180Y-85454118D02*
X201907180Y-85654118D01*
X201907180Y-85654118D02*
X201998180Y-86113118D01*
X201998180Y-86113118D02*
X202258180Y-86503118D01*
X202044180Y-90200118D02*
X201690180Y-89726118D01*
X202201180Y-90771118D02*
X202044180Y-90200118D01*
X202258180Y-86503118D02*
X202648180Y-86763118D01*
X202280180Y-91056118D02*
X202201180Y-90771118D01*
X202457180Y-91293118D02*
X202280180Y-91056118D01*
X202648180Y-86763118D02*
X203107180Y-86854118D01*
X202708180Y-91449118D02*
X202457180Y-91293118D01*
X202999180Y-91504118D02*
X202708180Y-91449118D01*
X203107180Y-86854118D02*
X205907180Y-86854118D01*
X205907180Y-86854118D02*
X206213180Y-86915118D01*
X206213180Y-86915118D02*
X206473180Y-87088118D01*
X206473180Y-87088118D02*
X206646180Y-87348118D01*
X206646180Y-87348118D02*
X206707180Y-87654118D01*
X206707180Y-90704118D02*
X207007180Y-90704118D01*
X207007180Y-90704118D02*
X207007180Y-91504118D01*
X207007180Y-91504118D02*
X202999180Y-91504118D01*
X213705005Y-161399123D02*
X214530005Y-160574123D01*
X214530005Y-160574123D02*
X217241005Y-160574123D01*
X214530005Y-165224123D02*
X213705005Y-164399123D01*
X217155005Y-165224123D02*
X214530005Y-165224123D01*
X217241005Y-160574123D02*
X217623005Y-160650123D01*
X217623005Y-160650123D02*
X217948005Y-160867123D01*
X217736005Y-165333123D02*
X217155005Y-165224123D01*
X217948005Y-160867123D02*
X218455005Y-161374123D01*
X218238005Y-165646123D02*
X217736005Y-165333123D01*
X218455005Y-161374123D02*
X218455005Y-161574123D01*
X218455005Y-161574123D02*
X218546005Y-162033123D01*
X218546005Y-162033123D02*
X218806005Y-162423123D01*
X218592005Y-166120123D02*
X218238005Y-165646123D01*
X218749005Y-166691123D02*
X218592005Y-166120123D01*
X218806005Y-162423123D02*
X219196005Y-162683123D01*
X218828005Y-166976123D02*
X218749005Y-166691123D01*
X219005005Y-167213123D02*
X218828005Y-166976123D01*
X219196005Y-162683123D02*
X219655005Y-162774123D01*
X219256005Y-167369123D02*
X219005005Y-167213123D01*
X219547005Y-167424123D02*
X219256005Y-167369123D01*
X219655005Y-162774123D02*
X222455005Y-162774123D01*
X222455005Y-162774123D02*
X222761005Y-162835123D01*
X222761005Y-162835123D02*
X223021005Y-163008123D01*
X223021005Y-163008123D02*
X223194005Y-163268123D01*
X223194005Y-163268123D02*
X223255005Y-163574123D01*
X223255005Y-166624123D02*
X223555005Y-166624123D01*
X223555005Y-166624123D02*
X223555005Y-167424123D01*
X223555005Y-167424123D02*
X219547005Y-167424123D01*
X214532180Y-61016558D02*
X217332180Y-61016558D01*
X214532180Y-63816558D02*
X214532180Y-61016558D01*
X217332180Y-61016558D02*
X218032180Y-61716558D01*
X218032180Y-61716558D02*
X218032180Y-63816558D01*
X218032180Y-63816558D02*
X214532180Y-63816558D01*
X222752180Y-58616558D02*
X222752180Y-59216558D01*
X222752180Y-58616558D02*
X223912180Y-58616558D01*
X222752180Y-59216558D02*
X223912180Y-59216558D01*
X222752180Y-61116558D02*
X222752180Y-61716558D01*
X222752180Y-61116558D02*
X223912180Y-61116558D01*
X222752180Y-61716558D02*
X223912180Y-61716558D01*
X222752180Y-63116558D02*
X222752180Y-63716558D01*
X222752180Y-63116558D02*
X223912180Y-63116558D01*
X222752180Y-63716558D02*
X223912180Y-63716558D01*
X222752180Y-65616558D02*
X222752180Y-66216558D01*
X222752180Y-65616558D02*
X223912180Y-65616558D01*
X222752180Y-66216558D02*
X223912180Y-66216558D01*
X223912180Y-55866558D02*
X223912180Y-68966558D01*
X223912180Y-68966558D02*
X237612180Y-68966558D01*
X237612180Y-55096558D02*
X237912180Y-55096558D01*
X237612180Y-55866558D02*
X223912180Y-55866558D01*
X237612180Y-55866558D02*
X237612180Y-55096558D01*
X237612180Y-69736558D02*
X237612180Y-68966558D01*
X237912180Y-55096558D02*
X237912180Y-69736558D01*
X237912180Y-69736558D02*
X237612180Y-69736558D01*
M02*
