G04 #@! TF.GenerationSoftware,KiCad,Pcbnew,9.0.7*
G04 #@! TF.CreationDate,2026-03-10T13:56:10+08:00*
G04 #@! TF.ProjectId,Flatbox-rev8,466c6174-626f-4782-9d72-6576382e6b69,rev?*
G04 #@! TF.SameCoordinates,Original*
G04 #@! TF.FileFunction,Soldermask,Bot*
G04 #@! TF.FilePolarity,Negative*
%FSLAX46Y46*%
G04 Gerber Fmt 4.6, Leading zero omitted, Abs format (unit mm)*
G04 Created by KiCad (PCBNEW 9.0.7) date 2026-03-10 13:56:10*
%MOMM*%
%LPD*%
G01*
G04 APERTURE LIST*
G04 Aperture macros list*
%AMRoundRect*
0 Rectangle with rounded corners*
0 $1 Rounding radius*
0 $2 $3 $4 $5 $6 $7 $8 $9 X,Y pos of 4 corners*
0 Add a 4 corners polygon primitive as box body*
4,1,4,$2,$3,$4,$5,$6,$7,$8,$9,$2,$3,0*
0 Add four circle primitives for the rounded corners*
1,1,$1+$1,$2,$3*
1,1,$1+$1,$4,$5*
1,1,$1+$1,$6,$7*
1,1,$1+$1,$8,$9*
0 Add four rect primitives between the rounded corners*
20,1,$1+$1,$2,$3,$4,$5,0*
20,1,$1+$1,$4,$5,$6,$7,0*
20,1,$1+$1,$6,$7,$8,$9,0*
20,1,$1+$1,$8,$9,$2,$3,0*%
G04 Aperture macros list end*
%ADD10C,2.300000*%
%ADD11C,2.000000*%
%ADD12C,3.450000*%
%ADD13C,5.450000*%
%ADD14RoundRect,0.290000X-1.185000X-1.160000X1.185000X-1.160000X1.185000X1.160000X-1.185000X1.160000X0*%
%ADD15C,6.800000*%
%ADD16C,1.050000*%
%ADD17O,1.400000X2.500000*%
%ADD18O,1.400000X2.000000*%
%ADD19C,2.600000*%
%ADD20C,2.400000*%
%ADD21RoundRect,0.325471X0.537029X1.049529X-0.537029X1.049529X-0.537029X-1.049529X0.537029X-1.049529X0*%
%ADD22RoundRect,0.200000X-1.500000X0.625000X-1.500000X-0.625000X1.500000X-0.625000X1.500000X0.625000X0*%
%ADD23C,3.400000*%
G04 APERTURE END LIST*
D10*
X93391758Y-120217250D03*
D11*
X93891758Y-125367250D03*
D12*
X98891758Y-114317250D03*
D13*
X98891758Y-120217250D03*
D12*
X103891758Y-116417250D03*
D10*
X104391758Y-120217250D03*
D14*
X95391758Y-114217250D03*
X107391758Y-116417250D03*
D10*
X119991758Y-131567250D03*
D11*
X120491758Y-136717250D03*
D12*
X125491758Y-125667250D03*
D13*
X125491758Y-131567250D03*
D12*
X130491758Y-127767250D03*
D10*
X130991758Y-131567250D03*
D14*
X121991758Y-125567250D03*
X133991758Y-127767250D03*
D10*
X137491758Y-184667250D03*
D11*
X137991758Y-189817250D03*
D12*
X142991758Y-178767250D03*
D13*
X142991758Y-184667250D03*
D12*
X147991758Y-180867250D03*
D10*
X148491758Y-184667250D03*
D14*
X139491758Y-178667250D03*
X151491758Y-180867250D03*
D10*
X192432180Y-121078118D03*
D11*
X192932180Y-126228118D03*
D12*
X197932180Y-115178118D03*
D13*
X197932180Y-121078118D03*
D12*
X202932180Y-117278118D03*
D10*
X203432180Y-121078118D03*
D14*
X194432180Y-115078118D03*
X206432180Y-117278118D03*
D10*
X218992180Y-109548118D03*
D11*
X219492180Y-114698118D03*
D12*
X224492180Y-103648118D03*
D13*
X224492180Y-109548118D03*
D12*
X229492180Y-105748118D03*
D10*
X229992180Y-109548118D03*
D14*
X220992180Y-103548118D03*
X232992180Y-105748118D03*
D10*
X247962180Y-109428118D03*
D11*
X248462180Y-114578118D03*
D12*
X253462180Y-103528118D03*
D13*
X253462180Y-109428118D03*
D12*
X258462180Y-105628118D03*
D10*
X258962180Y-109428118D03*
D14*
X249962180Y-103428118D03*
X261962180Y-105628118D03*
D10*
X276932180Y-114828118D03*
D11*
X277432180Y-119978118D03*
D12*
X282432180Y-108928118D03*
D13*
X282432180Y-114828118D03*
D12*
X287432180Y-111028118D03*
D10*
X287932180Y-114828118D03*
D14*
X278932180Y-108828118D03*
X290932180Y-111028118D03*
D10*
X186822180Y-152118118D03*
D11*
X187322180Y-157268118D03*
D12*
X192322180Y-146218118D03*
D13*
X192322180Y-152118118D03*
D12*
X197322180Y-148318118D03*
D10*
X197822180Y-152118118D03*
D14*
X188822180Y-146118118D03*
X200822180Y-148318118D03*
D10*
X213432180Y-141008118D03*
D11*
X213932180Y-146158118D03*
D12*
X218932180Y-135108118D03*
D13*
X218932180Y-141008118D03*
D12*
X223932180Y-137208118D03*
D10*
X224432180Y-141008118D03*
D14*
X215432180Y-135008118D03*
X227432180Y-137208118D03*
D10*
X242282180Y-141008118D03*
D11*
X242782180Y-146158118D03*
D12*
X247782180Y-135108118D03*
D13*
X247782180Y-141008118D03*
D12*
X252782180Y-137208118D03*
D10*
X253282180Y-141008118D03*
D14*
X244282180Y-135008118D03*
X256282180Y-137208118D03*
D10*
X271492180Y-146168118D03*
D11*
X271992180Y-151318118D03*
D12*
X276992180Y-140268118D03*
D13*
X276992180Y-146168118D03*
D12*
X281992180Y-142368118D03*
D10*
X282492180Y-146168118D03*
D14*
X273492180Y-140168118D03*
X285492180Y-142368118D03*
D15*
X60432180Y-43916558D03*
X60432180Y-197916558D03*
X314432180Y-197916558D03*
X314432180Y-43916558D03*
D10*
X64296758Y-120097250D03*
D11*
X64796758Y-125247250D03*
D12*
X69796758Y-114197250D03*
D13*
X69796758Y-120097250D03*
D12*
X74796758Y-116297250D03*
D10*
X75296758Y-120097250D03*
D14*
X66296758Y-114097250D03*
X78296758Y-116297250D03*
D15*
X173032180Y-43916558D03*
X145782180Y-149516558D03*
D16*
X161322180Y-41916558D03*
X155542180Y-41916558D03*
D17*
X162752180Y-42446558D03*
D18*
X162752180Y-38266558D03*
D17*
X154112180Y-42446558D03*
D18*
X154112180Y-38266558D03*
D19*
X301432180Y-43916558D03*
D10*
X177432180Y-184679118D03*
D11*
X177932180Y-189829118D03*
D12*
X182932180Y-178779118D03*
D13*
X182932180Y-184679118D03*
D12*
X187932180Y-180879118D03*
D10*
X188432180Y-184679118D03*
D14*
X179432180Y-178679118D03*
X191432180Y-180879118D03*
D11*
X78582180Y-47726558D03*
X78582180Y-45186558D03*
X78582180Y-42646558D03*
X78582180Y-40106558D03*
D19*
X60432180Y-56916558D03*
X301432180Y-197916558D03*
D20*
X225482180Y-47166558D03*
X225482180Y-40666558D03*
X229982180Y-47166558D03*
X229982180Y-40666558D03*
D10*
X101582180Y-92829118D03*
D11*
X102082180Y-97979118D03*
D12*
X107082180Y-86929118D03*
D13*
X107082180Y-92829118D03*
D12*
X112082180Y-89029118D03*
D10*
X112582180Y-92829118D03*
D14*
X103582180Y-86829118D03*
X115582180Y-89029118D03*
D10*
X193932180Y-92929118D03*
D11*
X194432180Y-98079118D03*
D12*
X199432180Y-87029118D03*
D13*
X199432180Y-92929118D03*
D12*
X204432180Y-89129118D03*
D10*
X204932180Y-92929118D03*
D14*
X195932180Y-86929118D03*
X207932180Y-89129118D03*
D20*
X258482180Y-47166558D03*
X258482180Y-40666558D03*
X262982180Y-47166558D03*
X262982180Y-40666558D03*
D19*
X73432180Y-197916558D03*
D20*
X268482180Y-47166558D03*
X268482180Y-40666558D03*
X272982180Y-47166558D03*
X272982180Y-40666558D03*
X235482180Y-47166558D03*
X235482180Y-40666558D03*
X239982180Y-47166558D03*
X239982180Y-40666558D03*
D10*
X210480005Y-168849123D03*
D11*
X210980005Y-173999123D03*
D12*
X215980005Y-162949123D03*
D13*
X215980005Y-168849123D03*
D12*
X220980005Y-165049123D03*
D10*
X221480005Y-168849123D03*
D14*
X212480005Y-162849123D03*
X224480005Y-165049123D03*
D15*
X143532180Y-86316558D03*
D20*
X215482180Y-47166558D03*
X215482180Y-40666558D03*
X219982180Y-47166558D03*
X219982180Y-40666558D03*
D19*
X146932180Y-43916558D03*
D20*
X248482180Y-47166558D03*
X248482180Y-40666558D03*
X252982180Y-47166558D03*
X252982180Y-40666558D03*
D21*
X217819680Y-62416558D03*
X214744680Y-62416558D03*
D22*
X223952180Y-58916558D03*
X223952180Y-61416558D03*
X223952180Y-63416558D03*
X223952180Y-65916558D03*
D23*
X227632180Y-55846558D03*
X227632180Y-68986558D03*
M02*
