%TF.GenerationSoftware,KiCad,Pcbnew,9.0.7*%
%TF.CreationDate,2026-03-10T13:56:19+08:00*%
%TF.ProjectId,Flatbox-rev8,466c6174-626f-4782-9d72-6576382e6b69,rev?*%
%TF.SameCoordinates,Original*%
%TF.FileFunction,Drillmap*%
%TF.FilePolarity,Positive*%
%FSLAX45Y45*%
G04 Gerber Fmt 4.5, Leading zero omitted, Abs format (unit mm)*
G04 Created by KiCad (PCBNEW 9.0.7) date 2026-03-10 13:56:19*
%MOMM*%
%LPD*%
G01*
G04 APERTURE LIST*
%ADD10C,0.050000*%
%ADD11C,0.200000*%
%ADD12C,0.100000*%
%ADD13C,0.160000*%
%ADD14C,0.190000*%
%ADD15C,0.220000*%
%ADD16C,0.305000*%
%ADD17C,0.505000*%
%ADD18C,0.640000*%
G04 APERTURE END LIST*
D10*
X5728218Y-3451656D02*
X31993218Y-3451656D01*
X32488218Y-3951656D02*
X32488218Y-20051656D01*
X31988218Y-20551656D02*
X5728218Y-20551656D01*
X5228218Y-20051656D02*
X5228218Y-3951656D01*
X5228218Y-3951656D02*
G75*
G02*
X5728218Y-3451656I500000J0D01*
G01*
X5728218Y-20551656D02*
G75*
G02*
X5228224Y-20051656I2J499996D01*
G01*
X32488218Y-20051656D02*
G75*
G02*
X31988218Y-20551658I-499998J-4D01*
G01*
X31988218Y-3451656D02*
G75*
G02*
X32488224Y-3951656I2J-500004D01*
G01*
D11*
D12*
X15521718Y-4159156D02*
X15586718Y-4224156D01*
X15586718Y-4159156D02*
X15521718Y-4224156D01*
X16099718Y-4159156D02*
X16164718Y-4224156D01*
X16164718Y-4159156D02*
X16099718Y-4224156D01*
D13*
X6559676Y-12524725D02*
G75*
G02*
X6399676Y-12524725I-80000J0D01*
G01*
X6399676Y-12524725D02*
G75*
G02*
X6559676Y-12524725I80000J0D01*
G01*
X9469176Y-12536725D02*
G75*
G02*
X9309176Y-12536725I-80000J0D01*
G01*
X9309176Y-12536725D02*
G75*
G02*
X9469176Y-12536725I80000J0D01*
G01*
X10288218Y-9797912D02*
G75*
G02*
X10128218Y-9797912I-80000J0D01*
G01*
X10128218Y-9797912D02*
G75*
G02*
X10288218Y-9797912I80000J0D01*
G01*
X12129176Y-13671725D02*
G75*
G02*
X11969176Y-13671725I-80000J0D01*
G01*
X11969176Y-13671725D02*
G75*
G02*
X12129176Y-13671725I80000J0D01*
G01*
X13879176Y-18981725D02*
G75*
G02*
X13719176Y-18981725I-80000J0D01*
G01*
X13719176Y-18981725D02*
G75*
G02*
X13879176Y-18981725I80000J0D01*
G01*
X17873218Y-18982912D02*
G75*
G02*
X17713218Y-18982912I-80000J0D01*
G01*
X17713218Y-18982912D02*
G75*
G02*
X17873218Y-18982912I80000J0D01*
G01*
X18812218Y-15726812D02*
G75*
G02*
X18652218Y-15726812I-80000J0D01*
G01*
X18652218Y-15726812D02*
G75*
G02*
X18812218Y-15726812I80000J0D01*
G01*
X19373218Y-12622812D02*
G75*
G02*
X19213218Y-12622812I-80000J0D01*
G01*
X19213218Y-12622812D02*
G75*
G02*
X19373218Y-12622812I80000J0D01*
G01*
X19523218Y-9807912D02*
G75*
G02*
X19363218Y-9807912I-80000J0D01*
G01*
X19363218Y-9807912D02*
G75*
G02*
X19523218Y-9807912I80000J0D01*
G01*
X21178001Y-17399912D02*
G75*
G02*
X21018001Y-17399912I-80000J0D01*
G01*
X21018001Y-17399912D02*
G75*
G02*
X21178001Y-17399912I80000J0D01*
G01*
X21473218Y-14615812D02*
G75*
G02*
X21313218Y-14615812I-80000J0D01*
G01*
X21313218Y-14615812D02*
G75*
G02*
X21473218Y-14615812I80000J0D01*
G01*
X22029218Y-11469812D02*
G75*
G02*
X21869218Y-11469812I-80000J0D01*
G01*
X21869218Y-11469812D02*
G75*
G02*
X22029218Y-11469812I80000J0D01*
G01*
X24358218Y-14615812D02*
G75*
G02*
X24198218Y-14615812I-80000J0D01*
G01*
X24198218Y-14615812D02*
G75*
G02*
X24358218Y-14615812I80000J0D01*
G01*
X24926218Y-11457812D02*
G75*
G02*
X24766218Y-11457812I-80000J0D01*
G01*
X24766218Y-11457812D02*
G75*
G02*
X24926218Y-11457812I80000J0D01*
G01*
X27279218Y-15131812D02*
G75*
G02*
X27119218Y-15131812I-80000J0D01*
G01*
X27119218Y-15131812D02*
G75*
G02*
X27279218Y-15131812I80000J0D01*
G01*
X27823218Y-11997812D02*
G75*
G02*
X27663218Y-11997812I-80000J0D01*
G01*
X27663218Y-11997812D02*
G75*
G02*
X27823218Y-11997812I80000J0D01*
G01*
D14*
X6429676Y-11914725D02*
X6429676Y-12104725D01*
X6334676Y-12009725D02*
X6524676Y-12009725D01*
X7529676Y-11914725D02*
X7529676Y-12104725D01*
X7434676Y-12009725D02*
X7624676Y-12009725D01*
X9339176Y-11926725D02*
X9339176Y-12116725D01*
X9244176Y-12021725D02*
X9434176Y-12021725D01*
X10158218Y-9187912D02*
X10158218Y-9377912D01*
X10063218Y-9282912D02*
X10253218Y-9282912D01*
X10439176Y-11926725D02*
X10439176Y-12116725D01*
X10344176Y-12021725D02*
X10534176Y-12021725D01*
X11258218Y-9187912D02*
X11258218Y-9377912D01*
X11163218Y-9282912D02*
X11353218Y-9282912D01*
X11999176Y-13061725D02*
X11999176Y-13251725D01*
X11904176Y-13156725D02*
X12094176Y-13156725D01*
X13099176Y-13061725D02*
X13099176Y-13251725D01*
X13004176Y-13156725D02*
X13194176Y-13156725D01*
X13749176Y-18371725D02*
X13749176Y-18561725D01*
X13654176Y-18466725D02*
X13844176Y-18466725D01*
X14849176Y-18371725D02*
X14849176Y-18561725D01*
X14754176Y-18466725D02*
X14944176Y-18466725D01*
X17743218Y-18372912D02*
X17743218Y-18562912D01*
X17648218Y-18467912D02*
X17838218Y-18467912D01*
X18682218Y-15116812D02*
X18682218Y-15306812D01*
X18587218Y-15211812D02*
X18777218Y-15211812D01*
X18843218Y-18372912D02*
X18843218Y-18562912D01*
X18748218Y-18467912D02*
X18938218Y-18467912D01*
X19243218Y-12012812D02*
X19243218Y-12202812D01*
X19148218Y-12107812D02*
X19338218Y-12107812D01*
X19393218Y-9197912D02*
X19393218Y-9387912D01*
X19298218Y-9292912D02*
X19488218Y-9292912D01*
X19782218Y-15116812D02*
X19782218Y-15306812D01*
X19687218Y-15211812D02*
X19877218Y-15211812D01*
X20343218Y-12012812D02*
X20343218Y-12202812D01*
X20248218Y-12107812D02*
X20438218Y-12107812D01*
X20493218Y-9197912D02*
X20493218Y-9387912D01*
X20398218Y-9292912D02*
X20588218Y-9292912D01*
X21048001Y-16789912D02*
X21048001Y-16979912D01*
X20953001Y-16884912D02*
X21143001Y-16884912D01*
X21343218Y-14005812D02*
X21343218Y-14195812D01*
X21248218Y-14100812D02*
X21438218Y-14100812D01*
X21899218Y-10859812D02*
X21899218Y-11049812D01*
X21804218Y-10954812D02*
X21994218Y-10954812D01*
X22148001Y-16789912D02*
X22148001Y-16979912D01*
X22053001Y-16884912D02*
X22243001Y-16884912D01*
X22443218Y-14005812D02*
X22443218Y-14195812D01*
X22348218Y-14100812D02*
X22538218Y-14100812D01*
X22999218Y-10859812D02*
X22999218Y-11049812D01*
X22904218Y-10954812D02*
X23094218Y-10954812D01*
X24228218Y-14005812D02*
X24228218Y-14195812D01*
X24133218Y-14100812D02*
X24323218Y-14100812D01*
X24796218Y-10847812D02*
X24796218Y-11037812D01*
X24701218Y-10942812D02*
X24891218Y-10942812D01*
X25328218Y-14005812D02*
X25328218Y-14195812D01*
X25233218Y-14100812D02*
X25423218Y-14100812D01*
X25896218Y-10847812D02*
X25896218Y-11037812D01*
X25801218Y-10942812D02*
X25991218Y-10942812D01*
X27149218Y-14521812D02*
X27149218Y-14711812D01*
X27054218Y-14616812D02*
X27244218Y-14616812D01*
X27693218Y-11387812D02*
X27693218Y-11577812D01*
X27598218Y-11482812D02*
X27788218Y-11482812D01*
X28249218Y-14521812D02*
X28249218Y-14711812D01*
X28154218Y-14616812D02*
X28344218Y-14616812D01*
X28793218Y-11387812D02*
X28793218Y-11577812D01*
X28698218Y-11482812D02*
X28888218Y-11482812D01*
D15*
X6121000Y-5769438D02*
X6121000Y-5613873D01*
X5965435Y-5613873D01*
X5965435Y-5769438D01*
X6121000Y-5769438D01*
X7421000Y-19869438D02*
X7421000Y-19713873D01*
X7265435Y-19713873D01*
X7265435Y-19869438D01*
X7421000Y-19869438D01*
X14771000Y-4469438D02*
X14771000Y-4313873D01*
X14615435Y-4313873D01*
X14615435Y-4469438D01*
X14771000Y-4469438D01*
X30221000Y-4469438D02*
X30221000Y-4313873D01*
X30065435Y-4313873D01*
X30065435Y-4469438D01*
X30221000Y-4469438D01*
X30221000Y-19869438D02*
X30221000Y-19713873D01*
X30065435Y-19713873D01*
X30065435Y-19869438D01*
X30221000Y-19869438D01*
D16*
X6979676Y-11572225D02*
X7132176Y-11419725D01*
X6979676Y-11267225D01*
X6827176Y-11419725D01*
X6979676Y-11572225D01*
X7479676Y-11782225D02*
X7632176Y-11629725D01*
X7479676Y-11477225D01*
X7327176Y-11629725D01*
X7479676Y-11782225D01*
X9889176Y-11584225D02*
X10041676Y-11431725D01*
X9889176Y-11279225D01*
X9736676Y-11431725D01*
X9889176Y-11584225D01*
X10389176Y-11794225D02*
X10541676Y-11641725D01*
X10389176Y-11489225D01*
X10236676Y-11641725D01*
X10389176Y-11794225D01*
X10708218Y-8845412D02*
X10860718Y-8692912D01*
X10708218Y-8540412D01*
X10555718Y-8692912D01*
X10708218Y-8845412D01*
X11208218Y-9055412D02*
X11360718Y-8902912D01*
X11208218Y-8750412D01*
X11055718Y-8902912D01*
X11208218Y-9055412D01*
X12549176Y-12719225D02*
X12701676Y-12566725D01*
X12549176Y-12414225D01*
X12396676Y-12566725D01*
X12549176Y-12719225D01*
X13049176Y-12929225D02*
X13201676Y-12776725D01*
X13049176Y-12624225D01*
X12896676Y-12776725D01*
X13049176Y-12929225D01*
X14299176Y-18029225D02*
X14451676Y-17876725D01*
X14299176Y-17724225D01*
X14146676Y-17876725D01*
X14299176Y-18029225D01*
X14799176Y-18239225D02*
X14951676Y-18086725D01*
X14799176Y-17934225D01*
X14646676Y-18086725D01*
X14799176Y-18239225D01*
X18293218Y-18030412D02*
X18445718Y-17877912D01*
X18293218Y-17725412D01*
X18140718Y-17877912D01*
X18293218Y-18030412D01*
X18793218Y-18240412D02*
X18945718Y-18087912D01*
X18793218Y-17935412D01*
X18640718Y-18087912D01*
X18793218Y-18240412D01*
X19232218Y-14774312D02*
X19384718Y-14621812D01*
X19232218Y-14469312D01*
X19079718Y-14621812D01*
X19232218Y-14774312D01*
X19732218Y-14984312D02*
X19884718Y-14831812D01*
X19732218Y-14679312D01*
X19579718Y-14831812D01*
X19732218Y-14984312D01*
X19793218Y-11670312D02*
X19945718Y-11517812D01*
X19793218Y-11365312D01*
X19640718Y-11517812D01*
X19793218Y-11670312D01*
X19943218Y-8855412D02*
X20095718Y-8702912D01*
X19943218Y-8550412D01*
X19790718Y-8702912D01*
X19943218Y-8855412D01*
X20293218Y-11880312D02*
X20445718Y-11727812D01*
X20293218Y-11575312D01*
X20140718Y-11727812D01*
X20293218Y-11880312D01*
X20443218Y-9065412D02*
X20595718Y-8912912D01*
X20443218Y-8760412D01*
X20290718Y-8912912D01*
X20443218Y-9065412D01*
X21598001Y-16447412D02*
X21750501Y-16294912D01*
X21598001Y-16142412D01*
X21445501Y-16294912D01*
X21598001Y-16447412D01*
X21893218Y-13663312D02*
X22045718Y-13510812D01*
X21893218Y-13358312D01*
X21740718Y-13510812D01*
X21893218Y-13663312D01*
X22098001Y-16657412D02*
X22250501Y-16504912D01*
X22098001Y-16352412D01*
X21945501Y-16504912D01*
X22098001Y-16657412D01*
X22393218Y-13873312D02*
X22545718Y-13720812D01*
X22393218Y-13568312D01*
X22240718Y-13720812D01*
X22393218Y-13873312D01*
X22449218Y-10517312D02*
X22601718Y-10364812D01*
X22449218Y-10212312D01*
X22296718Y-10364812D01*
X22449218Y-10517312D01*
X22949218Y-10727312D02*
X23101718Y-10574812D01*
X22949218Y-10422312D01*
X22796718Y-10574812D01*
X22949218Y-10727312D01*
X24778218Y-13663312D02*
X24930718Y-13510812D01*
X24778218Y-13358312D01*
X24625718Y-13510812D01*
X24778218Y-13663312D01*
X25278218Y-13873312D02*
X25430718Y-13720812D01*
X25278218Y-13568312D01*
X25125718Y-13720812D01*
X25278218Y-13873312D01*
X25346218Y-10505312D02*
X25498718Y-10352812D01*
X25346218Y-10200312D01*
X25193718Y-10352812D01*
X25346218Y-10505312D01*
X25846218Y-10715312D02*
X25998718Y-10562812D01*
X25846218Y-10410312D01*
X25693718Y-10562812D01*
X25846218Y-10715312D01*
X27699218Y-14179312D02*
X27851718Y-14026812D01*
X27699218Y-13874312D01*
X27546718Y-14026812D01*
X27699218Y-14179312D01*
X28199218Y-14389312D02*
X28351718Y-14236812D01*
X28199218Y-14084312D01*
X28046718Y-14236812D01*
X28199218Y-14389312D01*
X28243218Y-11045312D02*
X28395718Y-10892812D01*
X28243218Y-10740312D01*
X28090718Y-10892812D01*
X28243218Y-11045312D01*
X28743218Y-11255312D02*
X28895718Y-11102812D01*
X28743218Y-10950312D01*
X28590718Y-11102812D01*
X28743218Y-11255312D01*
D17*
X6727176Y-11757225D02*
X7232176Y-12262225D01*
X7232176Y-11757225D02*
X6727176Y-12262225D01*
X7232176Y-12009725D02*
G75*
G02*
X6727176Y-12009725I-252500J0D01*
G01*
X6727176Y-12009725D02*
G75*
G02*
X7232176Y-12009725I252500J0D01*
G01*
X9636676Y-11769225D02*
X10141676Y-12274225D01*
X10141676Y-11769225D02*
X9636676Y-12274225D01*
X10141676Y-12021725D02*
G75*
G02*
X9636676Y-12021725I-252500J0D01*
G01*
X9636676Y-12021725D02*
G75*
G02*
X10141676Y-12021725I252500J0D01*
G01*
X10455718Y-9030412D02*
X10960718Y-9535412D01*
X10960718Y-9030412D02*
X10455718Y-9535412D01*
X10960718Y-9282912D02*
G75*
G02*
X10455718Y-9282912I-252500J0D01*
G01*
X10455718Y-9282912D02*
G75*
G02*
X10960718Y-9282912I252500J0D01*
G01*
X12296676Y-12904225D02*
X12801676Y-13409225D01*
X12801676Y-12904225D02*
X12296676Y-13409225D01*
X12801676Y-13156725D02*
G75*
G02*
X12296676Y-13156725I-252500J0D01*
G01*
X12296676Y-13156725D02*
G75*
G02*
X12801676Y-13156725I252500J0D01*
G01*
X14046676Y-18214225D02*
X14551676Y-18719225D01*
X14551676Y-18214225D02*
X14046676Y-18719225D01*
X14551676Y-18466725D02*
G75*
G02*
X14046676Y-18466725I-252500J0D01*
G01*
X14046676Y-18466725D02*
G75*
G02*
X14551676Y-18466725I252500J0D01*
G01*
X18040718Y-18215412D02*
X18545718Y-18720412D01*
X18545718Y-18215412D02*
X18040718Y-18720412D01*
X18545718Y-18467912D02*
G75*
G02*
X18040718Y-18467912I-252500J0D01*
G01*
X18040718Y-18467912D02*
G75*
G02*
X18545718Y-18467912I252500J0D01*
G01*
X18979718Y-14959312D02*
X19484718Y-15464312D01*
X19484718Y-14959312D02*
X18979718Y-15464312D01*
X19484718Y-15211812D02*
G75*
G02*
X18979718Y-15211812I-252500J0D01*
G01*
X18979718Y-15211812D02*
G75*
G02*
X19484718Y-15211812I252500J0D01*
G01*
X19540718Y-11855312D02*
X20045718Y-12360312D01*
X20045718Y-11855312D02*
X19540718Y-12360312D01*
X20045718Y-12107812D02*
G75*
G02*
X19540718Y-12107812I-252500J0D01*
G01*
X19540718Y-12107812D02*
G75*
G02*
X20045718Y-12107812I252500J0D01*
G01*
X19690718Y-9040412D02*
X20195718Y-9545412D01*
X20195718Y-9040412D02*
X19690718Y-9545412D01*
X20195718Y-9292912D02*
G75*
G02*
X19690718Y-9292912I-252500J0D01*
G01*
X19690718Y-9292912D02*
G75*
G02*
X20195718Y-9292912I252500J0D01*
G01*
X21345501Y-16632412D02*
X21850501Y-17137412D01*
X21850501Y-16632412D02*
X21345501Y-17137412D01*
X21850501Y-16884912D02*
G75*
G02*
X21345501Y-16884912I-252500J0D01*
G01*
X21345501Y-16884912D02*
G75*
G02*
X21850501Y-16884912I252500J0D01*
G01*
X21640718Y-13848312D02*
X22145718Y-14353312D01*
X22145718Y-13848312D02*
X21640718Y-14353312D01*
X22145718Y-14100812D02*
G75*
G02*
X21640718Y-14100812I-252500J0D01*
G01*
X21640718Y-14100812D02*
G75*
G02*
X22145718Y-14100812I252500J0D01*
G01*
X22196718Y-10702312D02*
X22701718Y-11207312D01*
X22701718Y-10702312D02*
X22196718Y-11207312D01*
X22701718Y-10954812D02*
G75*
G02*
X22196718Y-10954812I-252500J0D01*
G01*
X22196718Y-10954812D02*
G75*
G02*
X22701718Y-10954812I252500J0D01*
G01*
X24525718Y-13848312D02*
X25030718Y-14353312D01*
X25030718Y-13848312D02*
X24525718Y-14353312D01*
X25030718Y-14100812D02*
G75*
G02*
X24525718Y-14100812I-252500J0D01*
G01*
X24525718Y-14100812D02*
G75*
G02*
X25030718Y-14100812I252500J0D01*
G01*
X25093718Y-10690312D02*
X25598718Y-11195312D01*
X25598718Y-10690312D02*
X25093718Y-11195312D01*
X25598718Y-10942812D02*
G75*
G02*
X25093718Y-10942812I-252500J0D01*
G01*
X25093718Y-10942812D02*
G75*
G02*
X25598718Y-10942812I252500J0D01*
G01*
X27446718Y-14364312D02*
X27951718Y-14869312D01*
X27951718Y-14364312D02*
X27446718Y-14869312D01*
X27951718Y-14616812D02*
G75*
G02*
X27446718Y-14616812I-252500J0D01*
G01*
X27446718Y-14616812D02*
G75*
G02*
X27951718Y-14616812I252500J0D01*
G01*
X27990718Y-11230312D02*
X28495718Y-11735312D01*
X28495718Y-11230312D02*
X27990718Y-11735312D01*
X28495718Y-11482812D02*
G75*
G02*
X27990718Y-11482812I-252500J0D01*
G01*
X27990718Y-11482812D02*
G75*
G02*
X28495718Y-11482812I252500J0D01*
G01*
D18*
X5723218Y-4071656D02*
X6363218Y-4711656D01*
X6363218Y-4071656D02*
X5723218Y-4711656D01*
X6043218Y-4071656D02*
X6043218Y-4711656D01*
X5723218Y-4391656D02*
X6363218Y-4391656D01*
X5723218Y-19471656D02*
X6363218Y-20111656D01*
X6363218Y-19471656D02*
X5723218Y-20111656D01*
X6043218Y-19471656D02*
X6043218Y-20111656D01*
X5723218Y-19791656D02*
X6363218Y-19791656D01*
X14033218Y-8311656D02*
X14673218Y-8951656D01*
X14673218Y-8311656D02*
X14033218Y-8951656D01*
X14353218Y-8311656D02*
X14353218Y-8951656D01*
X14033218Y-8631656D02*
X14673218Y-8631656D01*
X14258218Y-14631656D02*
X14898218Y-15271656D01*
X14898218Y-14631656D02*
X14258218Y-15271656D01*
X14578218Y-14631656D02*
X14578218Y-15271656D01*
X14258218Y-14951656D02*
X14898218Y-14951656D01*
X16983218Y-4071656D02*
X17623218Y-4711656D01*
X17623218Y-4071656D02*
X16983218Y-4711656D01*
X17303218Y-4071656D02*
X17303218Y-4711656D01*
X16983218Y-4391656D02*
X17623218Y-4391656D01*
X31123218Y-4071656D02*
X31763218Y-4711656D01*
X31763218Y-4071656D02*
X31123218Y-4711656D01*
X31443218Y-4071656D02*
X31443218Y-4711656D01*
X31123218Y-4391656D02*
X31763218Y-4391656D01*
X31123218Y-19471656D02*
X31763218Y-20111656D01*
X31763218Y-19471656D02*
X31123218Y-20111656D01*
X31443218Y-19471656D02*
X31443218Y-20111656D01*
X31123218Y-19791656D02*
X31763218Y-19791656D01*
D11*
X5486495Y-20865642D02*
X5486495Y-20665642D01*
X5486495Y-20665642D02*
X5534114Y-20665642D01*
X5534114Y-20665642D02*
X5562685Y-20675166D01*
X5562685Y-20675166D02*
X5581733Y-20694213D01*
X5581733Y-20694213D02*
X5591257Y-20713261D01*
X5591257Y-20713261D02*
X5600780Y-20751356D01*
X5600780Y-20751356D02*
X5600780Y-20779928D01*
X5600780Y-20779928D02*
X5591257Y-20818023D01*
X5591257Y-20818023D02*
X5581733Y-20837070D01*
X5581733Y-20837070D02*
X5562685Y-20856118D01*
X5562685Y-20856118D02*
X5534114Y-20865642D01*
X5534114Y-20865642D02*
X5486495Y-20865642D01*
X5686495Y-20865642D02*
X5686495Y-20732308D01*
X5686495Y-20770404D02*
X5696019Y-20751356D01*
X5696019Y-20751356D02*
X5705542Y-20741832D01*
X5705542Y-20741832D02*
X5724590Y-20732308D01*
X5724590Y-20732308D02*
X5743638Y-20732308D01*
X5810304Y-20865642D02*
X5810304Y-20732308D01*
X5810304Y-20665642D02*
X5800780Y-20675166D01*
X5800780Y-20675166D02*
X5810304Y-20684689D01*
X5810304Y-20684689D02*
X5819828Y-20675166D01*
X5819828Y-20675166D02*
X5810304Y-20665642D01*
X5810304Y-20665642D02*
X5810304Y-20684689D01*
X5934114Y-20865642D02*
X5915066Y-20856118D01*
X5915066Y-20856118D02*
X5905542Y-20837070D01*
X5905542Y-20837070D02*
X5905542Y-20665642D01*
X6038876Y-20865642D02*
X6019828Y-20856118D01*
X6019828Y-20856118D02*
X6010304Y-20837070D01*
X6010304Y-20837070D02*
X6010304Y-20665642D01*
X6267447Y-20865642D02*
X6267447Y-20665642D01*
X6267447Y-20665642D02*
X6334114Y-20808499D01*
X6334114Y-20808499D02*
X6400780Y-20665642D01*
X6400780Y-20665642D02*
X6400780Y-20865642D01*
X6581733Y-20865642D02*
X6581733Y-20760880D01*
X6581733Y-20760880D02*
X6572209Y-20741832D01*
X6572209Y-20741832D02*
X6553161Y-20732308D01*
X6553161Y-20732308D02*
X6515066Y-20732308D01*
X6515066Y-20732308D02*
X6496019Y-20741832D01*
X6581733Y-20856118D02*
X6562685Y-20865642D01*
X6562685Y-20865642D02*
X6515066Y-20865642D01*
X6515066Y-20865642D02*
X6496019Y-20856118D01*
X6496019Y-20856118D02*
X6486495Y-20837070D01*
X6486495Y-20837070D02*
X6486495Y-20818023D01*
X6486495Y-20818023D02*
X6496019Y-20798975D01*
X6496019Y-20798975D02*
X6515066Y-20789451D01*
X6515066Y-20789451D02*
X6562685Y-20789451D01*
X6562685Y-20789451D02*
X6581733Y-20779928D01*
X6676971Y-20732308D02*
X6676971Y-20932308D01*
X6676971Y-20741832D02*
X6696019Y-20732308D01*
X6696019Y-20732308D02*
X6734114Y-20732308D01*
X6734114Y-20732308D02*
X6753161Y-20741832D01*
X6753161Y-20741832D02*
X6762685Y-20751356D01*
X6762685Y-20751356D02*
X6772209Y-20770404D01*
X6772209Y-20770404D02*
X6772209Y-20827547D01*
X6772209Y-20827547D02*
X6762685Y-20846594D01*
X6762685Y-20846594D02*
X6753161Y-20856118D01*
X6753161Y-20856118D02*
X6734114Y-20865642D01*
X6734114Y-20865642D02*
X6696019Y-20865642D01*
X6696019Y-20865642D02*
X6676971Y-20856118D01*
X6857923Y-20846594D02*
X6867447Y-20856118D01*
X6867447Y-20856118D02*
X6857923Y-20865642D01*
X6857923Y-20865642D02*
X6848400Y-20856118D01*
X6848400Y-20856118D02*
X6857923Y-20846594D01*
X6857923Y-20846594D02*
X6857923Y-20865642D01*
X6857923Y-20741832D02*
X6867447Y-20751356D01*
X6867447Y-20751356D02*
X6857923Y-20760880D01*
X6857923Y-20760880D02*
X6848400Y-20751356D01*
X6848400Y-20751356D02*
X6857923Y-20741832D01*
X6857923Y-20741832D02*
X6857923Y-20760880D01*
D12*
X5160718Y-21161658D02*
X5225718Y-21226658D01*
X5225718Y-21161658D02*
X5160718Y-21226658D01*
D11*
X5524590Y-21085642D02*
X5543638Y-21085642D01*
X5543638Y-21085642D02*
X5562685Y-21095166D01*
X5562685Y-21095166D02*
X5572209Y-21104689D01*
X5572209Y-21104689D02*
X5581733Y-21123737D01*
X5581733Y-21123737D02*
X5591257Y-21161832D01*
X5591257Y-21161832D02*
X5591257Y-21209451D01*
X5591257Y-21209451D02*
X5581733Y-21247547D01*
X5581733Y-21247547D02*
X5572209Y-21266594D01*
X5572209Y-21266594D02*
X5562685Y-21276118D01*
X5562685Y-21276118D02*
X5543638Y-21285642D01*
X5543638Y-21285642D02*
X5524590Y-21285642D01*
X5524590Y-21285642D02*
X5505542Y-21276118D01*
X5505542Y-21276118D02*
X5496019Y-21266594D01*
X5496019Y-21266594D02*
X5486495Y-21247547D01*
X5486495Y-21247547D02*
X5476971Y-21209451D01*
X5476971Y-21209451D02*
X5476971Y-21161832D01*
X5476971Y-21161832D02*
X5486495Y-21123737D01*
X5486495Y-21123737D02*
X5496019Y-21104689D01*
X5496019Y-21104689D02*
X5505542Y-21095166D01*
X5505542Y-21095166D02*
X5524590Y-21085642D01*
X5676971Y-21266594D02*
X5686495Y-21276118D01*
X5686495Y-21276118D02*
X5676971Y-21285642D01*
X5676971Y-21285642D02*
X5667447Y-21276118D01*
X5667447Y-21276118D02*
X5676971Y-21266594D01*
X5676971Y-21266594D02*
X5676971Y-21285642D01*
X5857923Y-21085642D02*
X5819828Y-21085642D01*
X5819828Y-21085642D02*
X5800780Y-21095166D01*
X5800780Y-21095166D02*
X5791257Y-21104689D01*
X5791257Y-21104689D02*
X5772209Y-21133261D01*
X5772209Y-21133261D02*
X5762685Y-21171356D01*
X5762685Y-21171356D02*
X5762685Y-21247547D01*
X5762685Y-21247547D02*
X5772209Y-21266594D01*
X5772209Y-21266594D02*
X5781733Y-21276118D01*
X5781733Y-21276118D02*
X5800780Y-21285642D01*
X5800780Y-21285642D02*
X5838876Y-21285642D01*
X5838876Y-21285642D02*
X5857923Y-21276118D01*
X5857923Y-21276118D02*
X5867447Y-21266594D01*
X5867447Y-21266594D02*
X5876971Y-21247547D01*
X5876971Y-21247547D02*
X5876971Y-21199928D01*
X5876971Y-21199928D02*
X5867447Y-21180880D01*
X5867447Y-21180880D02*
X5857923Y-21171356D01*
X5857923Y-21171356D02*
X5838876Y-21161832D01*
X5838876Y-21161832D02*
X5800780Y-21161832D01*
X5800780Y-21161832D02*
X5781733Y-21171356D01*
X5781733Y-21171356D02*
X5772209Y-21180880D01*
X5772209Y-21180880D02*
X5762685Y-21199928D01*
X6057923Y-21085642D02*
X5962685Y-21085642D01*
X5962685Y-21085642D02*
X5953161Y-21180880D01*
X5953161Y-21180880D02*
X5962685Y-21171356D01*
X5962685Y-21171356D02*
X5981733Y-21161832D01*
X5981733Y-21161832D02*
X6029352Y-21161832D01*
X6029352Y-21161832D02*
X6048400Y-21171356D01*
X6048400Y-21171356D02*
X6057923Y-21180880D01*
X6057923Y-21180880D02*
X6067447Y-21199928D01*
X6067447Y-21199928D02*
X6067447Y-21247547D01*
X6067447Y-21247547D02*
X6057923Y-21266594D01*
X6057923Y-21266594D02*
X6048400Y-21276118D01*
X6048400Y-21276118D02*
X6029352Y-21285642D01*
X6029352Y-21285642D02*
X5981733Y-21285642D01*
X5981733Y-21285642D02*
X5962685Y-21276118D01*
X5962685Y-21276118D02*
X5953161Y-21266594D01*
X6191257Y-21085642D02*
X6210304Y-21085642D01*
X6210304Y-21085642D02*
X6229352Y-21095166D01*
X6229352Y-21095166D02*
X6238876Y-21104689D01*
X6238876Y-21104689D02*
X6248400Y-21123737D01*
X6248400Y-21123737D02*
X6257923Y-21161832D01*
X6257923Y-21161832D02*
X6257923Y-21209451D01*
X6257923Y-21209451D02*
X6248400Y-21247547D01*
X6248400Y-21247547D02*
X6238876Y-21266594D01*
X6238876Y-21266594D02*
X6229352Y-21276118D01*
X6229352Y-21276118D02*
X6210304Y-21285642D01*
X6210304Y-21285642D02*
X6191257Y-21285642D01*
X6191257Y-21285642D02*
X6172209Y-21276118D01*
X6172209Y-21276118D02*
X6162685Y-21266594D01*
X6162685Y-21266594D02*
X6153161Y-21247547D01*
X6153161Y-21247547D02*
X6143638Y-21209451D01*
X6143638Y-21209451D02*
X6143638Y-21161832D01*
X6143638Y-21161832D02*
X6153161Y-21123737D01*
X6153161Y-21123737D02*
X6162685Y-21104689D01*
X6162685Y-21104689D02*
X6172209Y-21095166D01*
X6172209Y-21095166D02*
X6191257Y-21085642D01*
X6343638Y-21285642D02*
X6343638Y-21152308D01*
X6343638Y-21171356D02*
X6353161Y-21161832D01*
X6353161Y-21161832D02*
X6372209Y-21152308D01*
X6372209Y-21152308D02*
X6400781Y-21152308D01*
X6400781Y-21152308D02*
X6419828Y-21161832D01*
X6419828Y-21161832D02*
X6429352Y-21180880D01*
X6429352Y-21180880D02*
X6429352Y-21285642D01*
X6429352Y-21180880D02*
X6438876Y-21161832D01*
X6438876Y-21161832D02*
X6457923Y-21152308D01*
X6457923Y-21152308D02*
X6486495Y-21152308D01*
X6486495Y-21152308D02*
X6505542Y-21161832D01*
X6505542Y-21161832D02*
X6515066Y-21180880D01*
X6515066Y-21180880D02*
X6515066Y-21285642D01*
X6610304Y-21285642D02*
X6610304Y-21152308D01*
X6610304Y-21171356D02*
X6619828Y-21161832D01*
X6619828Y-21161832D02*
X6638876Y-21152308D01*
X6638876Y-21152308D02*
X6667447Y-21152308D01*
X6667447Y-21152308D02*
X6686495Y-21161832D01*
X6686495Y-21161832D02*
X6696019Y-21180880D01*
X6696019Y-21180880D02*
X6696019Y-21285642D01*
X6696019Y-21180880D02*
X6705542Y-21161832D01*
X6705542Y-21161832D02*
X6724590Y-21152308D01*
X6724590Y-21152308D02*
X6753161Y-21152308D01*
X6753161Y-21152308D02*
X6772209Y-21161832D01*
X6772209Y-21161832D02*
X6781733Y-21180880D01*
X6781733Y-21180880D02*
X6781733Y-21285642D01*
X7172209Y-21076118D02*
X7000781Y-21333261D01*
X7429352Y-21085642D02*
X7448400Y-21085642D01*
X7448400Y-21085642D02*
X7467447Y-21095166D01*
X7467447Y-21095166D02*
X7476971Y-21104689D01*
X7476971Y-21104689D02*
X7486495Y-21123737D01*
X7486495Y-21123737D02*
X7496019Y-21161832D01*
X7496019Y-21161832D02*
X7496019Y-21209451D01*
X7496019Y-21209451D02*
X7486495Y-21247547D01*
X7486495Y-21247547D02*
X7476971Y-21266594D01*
X7476971Y-21266594D02*
X7467447Y-21276118D01*
X7467447Y-21276118D02*
X7448400Y-21285642D01*
X7448400Y-21285642D02*
X7429352Y-21285642D01*
X7429352Y-21285642D02*
X7410304Y-21276118D01*
X7410304Y-21276118D02*
X7400781Y-21266594D01*
X7400781Y-21266594D02*
X7391257Y-21247547D01*
X7391257Y-21247547D02*
X7381733Y-21209451D01*
X7381733Y-21209451D02*
X7381733Y-21161832D01*
X7381733Y-21161832D02*
X7391257Y-21123737D01*
X7391257Y-21123737D02*
X7400781Y-21104689D01*
X7400781Y-21104689D02*
X7410304Y-21095166D01*
X7410304Y-21095166D02*
X7429352Y-21085642D01*
X7581733Y-21266594D02*
X7591257Y-21276118D01*
X7591257Y-21276118D02*
X7581733Y-21285642D01*
X7581733Y-21285642D02*
X7572209Y-21276118D01*
X7572209Y-21276118D02*
X7581733Y-21266594D01*
X7581733Y-21266594D02*
X7581733Y-21285642D01*
X7715066Y-21085642D02*
X7734114Y-21085642D01*
X7734114Y-21085642D02*
X7753162Y-21095166D01*
X7753162Y-21095166D02*
X7762685Y-21104689D01*
X7762685Y-21104689D02*
X7772209Y-21123737D01*
X7772209Y-21123737D02*
X7781733Y-21161832D01*
X7781733Y-21161832D02*
X7781733Y-21209451D01*
X7781733Y-21209451D02*
X7772209Y-21247547D01*
X7772209Y-21247547D02*
X7762685Y-21266594D01*
X7762685Y-21266594D02*
X7753162Y-21276118D01*
X7753162Y-21276118D02*
X7734114Y-21285642D01*
X7734114Y-21285642D02*
X7715066Y-21285642D01*
X7715066Y-21285642D02*
X7696019Y-21276118D01*
X7696019Y-21276118D02*
X7686495Y-21266594D01*
X7686495Y-21266594D02*
X7676971Y-21247547D01*
X7676971Y-21247547D02*
X7667447Y-21209451D01*
X7667447Y-21209451D02*
X7667447Y-21161832D01*
X7667447Y-21161832D02*
X7676971Y-21123737D01*
X7676971Y-21123737D02*
X7686495Y-21104689D01*
X7686495Y-21104689D02*
X7696019Y-21095166D01*
X7696019Y-21095166D02*
X7715066Y-21085642D01*
X7857924Y-21104689D02*
X7867447Y-21095166D01*
X7867447Y-21095166D02*
X7886495Y-21085642D01*
X7886495Y-21085642D02*
X7934114Y-21085642D01*
X7934114Y-21085642D02*
X7953162Y-21095166D01*
X7953162Y-21095166D02*
X7962685Y-21104689D01*
X7962685Y-21104689D02*
X7972209Y-21123737D01*
X7972209Y-21123737D02*
X7972209Y-21142785D01*
X7972209Y-21142785D02*
X7962685Y-21171356D01*
X7962685Y-21171356D02*
X7848400Y-21285642D01*
X7848400Y-21285642D02*
X7972209Y-21285642D01*
X8153162Y-21085642D02*
X8057924Y-21085642D01*
X8057924Y-21085642D02*
X8048400Y-21180880D01*
X8048400Y-21180880D02*
X8057924Y-21171356D01*
X8057924Y-21171356D02*
X8076971Y-21161832D01*
X8076971Y-21161832D02*
X8124590Y-21161832D01*
X8124590Y-21161832D02*
X8143638Y-21171356D01*
X8143638Y-21171356D02*
X8153162Y-21180880D01*
X8153162Y-21180880D02*
X8162685Y-21199928D01*
X8162685Y-21199928D02*
X8162685Y-21247547D01*
X8162685Y-21247547D02*
X8153162Y-21266594D01*
X8153162Y-21266594D02*
X8143638Y-21276118D01*
X8143638Y-21276118D02*
X8124590Y-21285642D01*
X8124590Y-21285642D02*
X8076971Y-21285642D01*
X8076971Y-21285642D02*
X8057924Y-21276118D01*
X8057924Y-21276118D02*
X8048400Y-21266594D01*
X8334114Y-21085642D02*
X8296019Y-21085642D01*
X8296019Y-21085642D02*
X8276971Y-21095166D01*
X8276971Y-21095166D02*
X8267447Y-21104689D01*
X8267447Y-21104689D02*
X8248400Y-21133261D01*
X8248400Y-21133261D02*
X8238876Y-21171356D01*
X8238876Y-21171356D02*
X8238876Y-21247547D01*
X8238876Y-21247547D02*
X8248400Y-21266594D01*
X8248400Y-21266594D02*
X8257924Y-21276118D01*
X8257924Y-21276118D02*
X8276971Y-21285642D01*
X8276971Y-21285642D02*
X8315066Y-21285642D01*
X8315066Y-21285642D02*
X8334114Y-21276118D01*
X8334114Y-21276118D02*
X8343638Y-21266594D01*
X8343638Y-21266594D02*
X8353162Y-21247547D01*
X8353162Y-21247547D02*
X8353162Y-21199928D01*
X8353162Y-21199928D02*
X8343638Y-21180880D01*
X8343638Y-21180880D02*
X8334114Y-21171356D01*
X8334114Y-21171356D02*
X8315066Y-21161832D01*
X8315066Y-21161832D02*
X8276971Y-21161832D01*
X8276971Y-21161832D02*
X8257924Y-21171356D01*
X8257924Y-21171356D02*
X8248400Y-21180880D01*
X8248400Y-21180880D02*
X8238876Y-21199928D01*
X8429352Y-21085642D02*
X8429352Y-21123737D01*
X8505543Y-21085642D02*
X8505543Y-21123737D01*
X8800781Y-21361832D02*
X8791257Y-21352308D01*
X8791257Y-21352308D02*
X8772209Y-21323737D01*
X8772209Y-21323737D02*
X8762686Y-21304689D01*
X8762686Y-21304689D02*
X8753162Y-21276118D01*
X8753162Y-21276118D02*
X8743638Y-21228499D01*
X8743638Y-21228499D02*
X8743638Y-21190404D01*
X8743638Y-21190404D02*
X8753162Y-21142785D01*
X8753162Y-21142785D02*
X8762686Y-21114213D01*
X8762686Y-21114213D02*
X8772209Y-21095166D01*
X8772209Y-21095166D02*
X8791257Y-21066594D01*
X8791257Y-21066594D02*
X8800781Y-21057070D01*
X8867448Y-21104689D02*
X8876971Y-21095166D01*
X8876971Y-21095166D02*
X8896019Y-21085642D01*
X8896019Y-21085642D02*
X8943638Y-21085642D01*
X8943638Y-21085642D02*
X8962686Y-21095166D01*
X8962686Y-21095166D02*
X8972209Y-21104689D01*
X8972209Y-21104689D02*
X8981733Y-21123737D01*
X8981733Y-21123737D02*
X8981733Y-21142785D01*
X8981733Y-21142785D02*
X8972209Y-21171356D01*
X8972209Y-21171356D02*
X8857924Y-21285642D01*
X8857924Y-21285642D02*
X8981733Y-21285642D01*
X9219829Y-21285642D02*
X9219829Y-21085642D01*
X9305543Y-21285642D02*
X9305543Y-21180880D01*
X9305543Y-21180880D02*
X9296019Y-21161832D01*
X9296019Y-21161832D02*
X9276971Y-21152308D01*
X9276971Y-21152308D02*
X9248400Y-21152308D01*
X9248400Y-21152308D02*
X9229352Y-21161832D01*
X9229352Y-21161832D02*
X9219829Y-21171356D01*
X9429352Y-21285642D02*
X9410305Y-21276118D01*
X9410305Y-21276118D02*
X9400781Y-21266594D01*
X9400781Y-21266594D02*
X9391257Y-21247547D01*
X9391257Y-21247547D02*
X9391257Y-21190404D01*
X9391257Y-21190404D02*
X9400781Y-21171356D01*
X9400781Y-21171356D02*
X9410305Y-21161832D01*
X9410305Y-21161832D02*
X9429352Y-21152308D01*
X9429352Y-21152308D02*
X9457924Y-21152308D01*
X9457924Y-21152308D02*
X9476971Y-21161832D01*
X9476971Y-21161832D02*
X9486495Y-21171356D01*
X9486495Y-21171356D02*
X9496019Y-21190404D01*
X9496019Y-21190404D02*
X9496019Y-21247547D01*
X9496019Y-21247547D02*
X9486495Y-21266594D01*
X9486495Y-21266594D02*
X9476971Y-21276118D01*
X9476971Y-21276118D02*
X9457924Y-21285642D01*
X9457924Y-21285642D02*
X9429352Y-21285642D01*
X9610305Y-21285642D02*
X9591257Y-21276118D01*
X9591257Y-21276118D02*
X9581733Y-21257070D01*
X9581733Y-21257070D02*
X9581733Y-21085642D01*
X9762686Y-21276118D02*
X9743638Y-21285642D01*
X9743638Y-21285642D02*
X9705543Y-21285642D01*
X9705543Y-21285642D02*
X9686495Y-21276118D01*
X9686495Y-21276118D02*
X9676971Y-21257070D01*
X9676971Y-21257070D02*
X9676971Y-21180880D01*
X9676971Y-21180880D02*
X9686495Y-21161832D01*
X9686495Y-21161832D02*
X9705543Y-21152308D01*
X9705543Y-21152308D02*
X9743638Y-21152308D01*
X9743638Y-21152308D02*
X9762686Y-21161832D01*
X9762686Y-21161832D02*
X9772210Y-21180880D01*
X9772210Y-21180880D02*
X9772210Y-21199928D01*
X9772210Y-21199928D02*
X9676971Y-21218975D01*
X9848400Y-21276118D02*
X9867448Y-21285642D01*
X9867448Y-21285642D02*
X9905543Y-21285642D01*
X9905543Y-21285642D02*
X9924591Y-21276118D01*
X9924591Y-21276118D02*
X9934114Y-21257070D01*
X9934114Y-21257070D02*
X9934114Y-21247547D01*
X9934114Y-21247547D02*
X9924591Y-21228499D01*
X9924591Y-21228499D02*
X9905543Y-21218975D01*
X9905543Y-21218975D02*
X9876971Y-21218975D01*
X9876971Y-21218975D02*
X9857924Y-21209451D01*
X9857924Y-21209451D02*
X9848400Y-21190404D01*
X9848400Y-21190404D02*
X9848400Y-21180880D01*
X9848400Y-21180880D02*
X9857924Y-21161832D01*
X9857924Y-21161832D02*
X9876971Y-21152308D01*
X9876971Y-21152308D02*
X9905543Y-21152308D01*
X9905543Y-21152308D02*
X9924591Y-21161832D01*
X10000781Y-21361832D02*
X10010305Y-21352308D01*
X10010305Y-21352308D02*
X10029352Y-21323737D01*
X10029352Y-21323737D02*
X10038876Y-21304689D01*
X10038876Y-21304689D02*
X10048400Y-21276118D01*
X10048400Y-21276118D02*
X10057924Y-21228499D01*
X10057924Y-21228499D02*
X10057924Y-21190404D01*
X10057924Y-21190404D02*
X10048400Y-21142785D01*
X10048400Y-21142785D02*
X10038876Y-21114213D01*
X10038876Y-21114213D02*
X10029352Y-21095166D01*
X10029352Y-21095166D02*
X10010305Y-21066594D01*
X10010305Y-21066594D02*
X10000781Y-21057070D01*
X10362686Y-21361832D02*
X10353162Y-21352308D01*
X10353162Y-21352308D02*
X10334114Y-21323737D01*
X10334114Y-21323737D02*
X10324591Y-21304689D01*
X10324591Y-21304689D02*
X10315067Y-21276118D01*
X10315067Y-21276118D02*
X10305543Y-21228499D01*
X10305543Y-21228499D02*
X10305543Y-21190404D01*
X10305543Y-21190404D02*
X10315067Y-21142785D01*
X10315067Y-21142785D02*
X10324591Y-21114213D01*
X10324591Y-21114213D02*
X10334114Y-21095166D01*
X10334114Y-21095166D02*
X10353162Y-21066594D01*
X10353162Y-21066594D02*
X10362686Y-21057070D01*
X10438876Y-21152308D02*
X10438876Y-21285642D01*
X10438876Y-21171356D02*
X10448400Y-21161832D01*
X10448400Y-21161832D02*
X10467448Y-21152308D01*
X10467448Y-21152308D02*
X10496019Y-21152308D01*
X10496019Y-21152308D02*
X10515067Y-21161832D01*
X10515067Y-21161832D02*
X10524591Y-21180880D01*
X10524591Y-21180880D02*
X10524591Y-21285642D01*
X10648400Y-21285642D02*
X10629352Y-21276118D01*
X10629352Y-21276118D02*
X10619829Y-21266594D01*
X10619829Y-21266594D02*
X10610305Y-21247547D01*
X10610305Y-21247547D02*
X10610305Y-21190404D01*
X10610305Y-21190404D02*
X10619829Y-21171356D01*
X10619829Y-21171356D02*
X10629352Y-21161832D01*
X10629352Y-21161832D02*
X10648400Y-21152308D01*
X10648400Y-21152308D02*
X10676972Y-21152308D01*
X10676972Y-21152308D02*
X10696019Y-21161832D01*
X10696019Y-21161832D02*
X10705543Y-21171356D01*
X10705543Y-21171356D02*
X10715067Y-21190404D01*
X10715067Y-21190404D02*
X10715067Y-21247547D01*
X10715067Y-21247547D02*
X10705543Y-21266594D01*
X10705543Y-21266594D02*
X10696019Y-21276118D01*
X10696019Y-21276118D02*
X10676972Y-21285642D01*
X10676972Y-21285642D02*
X10648400Y-21285642D01*
X10772210Y-21152308D02*
X10848400Y-21152308D01*
X10800781Y-21085642D02*
X10800781Y-21257070D01*
X10800781Y-21257070D02*
X10810305Y-21276118D01*
X10810305Y-21276118D02*
X10829352Y-21285642D01*
X10829352Y-21285642D02*
X10848400Y-21285642D01*
X11067448Y-21152308D02*
X11067448Y-21352308D01*
X11067448Y-21161832D02*
X11086495Y-21152308D01*
X11086495Y-21152308D02*
X11124591Y-21152308D01*
X11124591Y-21152308D02*
X11143638Y-21161832D01*
X11143638Y-21161832D02*
X11153162Y-21171356D01*
X11153162Y-21171356D02*
X11162686Y-21190404D01*
X11162686Y-21190404D02*
X11162686Y-21247547D01*
X11162686Y-21247547D02*
X11153162Y-21266594D01*
X11153162Y-21266594D02*
X11143638Y-21276118D01*
X11143638Y-21276118D02*
X11124591Y-21285642D01*
X11124591Y-21285642D02*
X11086495Y-21285642D01*
X11086495Y-21285642D02*
X11067448Y-21276118D01*
X11276971Y-21285642D02*
X11257924Y-21276118D01*
X11257924Y-21276118D02*
X11248400Y-21257070D01*
X11248400Y-21257070D02*
X11248400Y-21085642D01*
X11438876Y-21285642D02*
X11438876Y-21180880D01*
X11438876Y-21180880D02*
X11429352Y-21161832D01*
X11429352Y-21161832D02*
X11410305Y-21152308D01*
X11410305Y-21152308D02*
X11372210Y-21152308D01*
X11372210Y-21152308D02*
X11353162Y-21161832D01*
X11438876Y-21276118D02*
X11419829Y-21285642D01*
X11419829Y-21285642D02*
X11372210Y-21285642D01*
X11372210Y-21285642D02*
X11353162Y-21276118D01*
X11353162Y-21276118D02*
X11343638Y-21257070D01*
X11343638Y-21257070D02*
X11343638Y-21238023D01*
X11343638Y-21238023D02*
X11353162Y-21218975D01*
X11353162Y-21218975D02*
X11372210Y-21209451D01*
X11372210Y-21209451D02*
X11419829Y-21209451D01*
X11419829Y-21209451D02*
X11438876Y-21199928D01*
X11505543Y-21152308D02*
X11581733Y-21152308D01*
X11534114Y-21085642D02*
X11534114Y-21257070D01*
X11534114Y-21257070D02*
X11543638Y-21276118D01*
X11543638Y-21276118D02*
X11562686Y-21285642D01*
X11562686Y-21285642D02*
X11581733Y-21285642D01*
X11724591Y-21276118D02*
X11705543Y-21285642D01*
X11705543Y-21285642D02*
X11667448Y-21285642D01*
X11667448Y-21285642D02*
X11648400Y-21276118D01*
X11648400Y-21276118D02*
X11638876Y-21257070D01*
X11638876Y-21257070D02*
X11638876Y-21180880D01*
X11638876Y-21180880D02*
X11648400Y-21161832D01*
X11648400Y-21161832D02*
X11667448Y-21152308D01*
X11667448Y-21152308D02*
X11705543Y-21152308D01*
X11705543Y-21152308D02*
X11724591Y-21161832D01*
X11724591Y-21161832D02*
X11734114Y-21180880D01*
X11734114Y-21180880D02*
X11734114Y-21199928D01*
X11734114Y-21199928D02*
X11638876Y-21218975D01*
X11905543Y-21285642D02*
X11905543Y-21085642D01*
X11905543Y-21276118D02*
X11886495Y-21285642D01*
X11886495Y-21285642D02*
X11848400Y-21285642D01*
X11848400Y-21285642D02*
X11829352Y-21276118D01*
X11829352Y-21276118D02*
X11819829Y-21266594D01*
X11819829Y-21266594D02*
X11810305Y-21247547D01*
X11810305Y-21247547D02*
X11810305Y-21190404D01*
X11810305Y-21190404D02*
X11819829Y-21171356D01*
X11819829Y-21171356D02*
X11829352Y-21161832D01*
X11829352Y-21161832D02*
X11848400Y-21152308D01*
X11848400Y-21152308D02*
X11886495Y-21152308D01*
X11886495Y-21152308D02*
X11905543Y-21161832D01*
X11981733Y-21361832D02*
X11991257Y-21352308D01*
X11991257Y-21352308D02*
X12010305Y-21323737D01*
X12010305Y-21323737D02*
X12019829Y-21304689D01*
X12019829Y-21304689D02*
X12029352Y-21276118D01*
X12029352Y-21276118D02*
X12038876Y-21228499D01*
X12038876Y-21228499D02*
X12038876Y-21190404D01*
X12038876Y-21190404D02*
X12029352Y-21142785D01*
X12029352Y-21142785D02*
X12019829Y-21114213D01*
X12019829Y-21114213D02*
X12010305Y-21095166D01*
X12010305Y-21095166D02*
X11991257Y-21066594D01*
X11991257Y-21066594D02*
X11981733Y-21057070D01*
D13*
X5225718Y-21458158D02*
G75*
G02*
X5065718Y-21458158I-80000J0D01*
G01*
X5065718Y-21458158D02*
G75*
G02*
X5225718Y-21458158I80000J0D01*
G01*
D11*
X5591257Y-21549642D02*
X5476971Y-21549642D01*
X5534114Y-21549642D02*
X5534114Y-21349642D01*
X5534114Y-21349642D02*
X5515066Y-21378213D01*
X5515066Y-21378213D02*
X5496019Y-21397261D01*
X5496019Y-21397261D02*
X5476971Y-21406785D01*
X5676971Y-21530594D02*
X5686495Y-21540118D01*
X5686495Y-21540118D02*
X5676971Y-21549642D01*
X5676971Y-21549642D02*
X5667447Y-21540118D01*
X5667447Y-21540118D02*
X5676971Y-21530594D01*
X5676971Y-21530594D02*
X5676971Y-21549642D01*
X5857923Y-21349642D02*
X5819828Y-21349642D01*
X5819828Y-21349642D02*
X5800780Y-21359166D01*
X5800780Y-21359166D02*
X5791257Y-21368689D01*
X5791257Y-21368689D02*
X5772209Y-21397261D01*
X5772209Y-21397261D02*
X5762685Y-21435356D01*
X5762685Y-21435356D02*
X5762685Y-21511547D01*
X5762685Y-21511547D02*
X5772209Y-21530594D01*
X5772209Y-21530594D02*
X5781733Y-21540118D01*
X5781733Y-21540118D02*
X5800780Y-21549642D01*
X5800780Y-21549642D02*
X5838876Y-21549642D01*
X5838876Y-21549642D02*
X5857923Y-21540118D01*
X5857923Y-21540118D02*
X5867447Y-21530594D01*
X5867447Y-21530594D02*
X5876971Y-21511547D01*
X5876971Y-21511547D02*
X5876971Y-21463928D01*
X5876971Y-21463928D02*
X5867447Y-21444880D01*
X5867447Y-21444880D02*
X5857923Y-21435356D01*
X5857923Y-21435356D02*
X5838876Y-21425832D01*
X5838876Y-21425832D02*
X5800780Y-21425832D01*
X5800780Y-21425832D02*
X5781733Y-21435356D01*
X5781733Y-21435356D02*
X5772209Y-21444880D01*
X5772209Y-21444880D02*
X5762685Y-21463928D01*
X6000780Y-21349642D02*
X6019828Y-21349642D01*
X6019828Y-21349642D02*
X6038876Y-21359166D01*
X6038876Y-21359166D02*
X6048400Y-21368689D01*
X6048400Y-21368689D02*
X6057923Y-21387737D01*
X6057923Y-21387737D02*
X6067447Y-21425832D01*
X6067447Y-21425832D02*
X6067447Y-21473451D01*
X6067447Y-21473451D02*
X6057923Y-21511547D01*
X6057923Y-21511547D02*
X6048400Y-21530594D01*
X6048400Y-21530594D02*
X6038876Y-21540118D01*
X6038876Y-21540118D02*
X6019828Y-21549642D01*
X6019828Y-21549642D02*
X6000780Y-21549642D01*
X6000780Y-21549642D02*
X5981733Y-21540118D01*
X5981733Y-21540118D02*
X5972209Y-21530594D01*
X5972209Y-21530594D02*
X5962685Y-21511547D01*
X5962685Y-21511547D02*
X5953161Y-21473451D01*
X5953161Y-21473451D02*
X5953161Y-21425832D01*
X5953161Y-21425832D02*
X5962685Y-21387737D01*
X5962685Y-21387737D02*
X5972209Y-21368689D01*
X5972209Y-21368689D02*
X5981733Y-21359166D01*
X5981733Y-21359166D02*
X6000780Y-21349642D01*
X6191257Y-21349642D02*
X6210304Y-21349642D01*
X6210304Y-21349642D02*
X6229352Y-21359166D01*
X6229352Y-21359166D02*
X6238876Y-21368689D01*
X6238876Y-21368689D02*
X6248400Y-21387737D01*
X6248400Y-21387737D02*
X6257923Y-21425832D01*
X6257923Y-21425832D02*
X6257923Y-21473451D01*
X6257923Y-21473451D02*
X6248400Y-21511547D01*
X6248400Y-21511547D02*
X6238876Y-21530594D01*
X6238876Y-21530594D02*
X6229352Y-21540118D01*
X6229352Y-21540118D02*
X6210304Y-21549642D01*
X6210304Y-21549642D02*
X6191257Y-21549642D01*
X6191257Y-21549642D02*
X6172209Y-21540118D01*
X6172209Y-21540118D02*
X6162685Y-21530594D01*
X6162685Y-21530594D02*
X6153161Y-21511547D01*
X6153161Y-21511547D02*
X6143638Y-21473451D01*
X6143638Y-21473451D02*
X6143638Y-21425832D01*
X6143638Y-21425832D02*
X6153161Y-21387737D01*
X6153161Y-21387737D02*
X6162685Y-21368689D01*
X6162685Y-21368689D02*
X6172209Y-21359166D01*
X6172209Y-21359166D02*
X6191257Y-21349642D01*
X6343638Y-21549642D02*
X6343638Y-21416308D01*
X6343638Y-21435356D02*
X6353161Y-21425832D01*
X6353161Y-21425832D02*
X6372209Y-21416308D01*
X6372209Y-21416308D02*
X6400781Y-21416308D01*
X6400781Y-21416308D02*
X6419828Y-21425832D01*
X6419828Y-21425832D02*
X6429352Y-21444880D01*
X6429352Y-21444880D02*
X6429352Y-21549642D01*
X6429352Y-21444880D02*
X6438876Y-21425832D01*
X6438876Y-21425832D02*
X6457923Y-21416308D01*
X6457923Y-21416308D02*
X6486495Y-21416308D01*
X6486495Y-21416308D02*
X6505542Y-21425832D01*
X6505542Y-21425832D02*
X6515066Y-21444880D01*
X6515066Y-21444880D02*
X6515066Y-21549642D01*
X6610304Y-21549642D02*
X6610304Y-21416308D01*
X6610304Y-21435356D02*
X6619828Y-21425832D01*
X6619828Y-21425832D02*
X6638876Y-21416308D01*
X6638876Y-21416308D02*
X6667447Y-21416308D01*
X6667447Y-21416308D02*
X6686495Y-21425832D01*
X6686495Y-21425832D02*
X6696019Y-21444880D01*
X6696019Y-21444880D02*
X6696019Y-21549642D01*
X6696019Y-21444880D02*
X6705542Y-21425832D01*
X6705542Y-21425832D02*
X6724590Y-21416308D01*
X6724590Y-21416308D02*
X6753161Y-21416308D01*
X6753161Y-21416308D02*
X6772209Y-21425832D01*
X6772209Y-21425832D02*
X6781733Y-21444880D01*
X6781733Y-21444880D02*
X6781733Y-21549642D01*
X7172209Y-21340118D02*
X7000781Y-21597261D01*
X7429352Y-21349642D02*
X7448400Y-21349642D01*
X7448400Y-21349642D02*
X7467447Y-21359166D01*
X7467447Y-21359166D02*
X7476971Y-21368689D01*
X7476971Y-21368689D02*
X7486495Y-21387737D01*
X7486495Y-21387737D02*
X7496019Y-21425832D01*
X7496019Y-21425832D02*
X7496019Y-21473451D01*
X7496019Y-21473451D02*
X7486495Y-21511547D01*
X7486495Y-21511547D02*
X7476971Y-21530594D01*
X7476971Y-21530594D02*
X7467447Y-21540118D01*
X7467447Y-21540118D02*
X7448400Y-21549642D01*
X7448400Y-21549642D02*
X7429352Y-21549642D01*
X7429352Y-21549642D02*
X7410304Y-21540118D01*
X7410304Y-21540118D02*
X7400781Y-21530594D01*
X7400781Y-21530594D02*
X7391257Y-21511547D01*
X7391257Y-21511547D02*
X7381733Y-21473451D01*
X7381733Y-21473451D02*
X7381733Y-21425832D01*
X7381733Y-21425832D02*
X7391257Y-21387737D01*
X7391257Y-21387737D02*
X7400781Y-21368689D01*
X7400781Y-21368689D02*
X7410304Y-21359166D01*
X7410304Y-21359166D02*
X7429352Y-21349642D01*
X7581733Y-21530594D02*
X7591257Y-21540118D01*
X7591257Y-21540118D02*
X7581733Y-21549642D01*
X7581733Y-21549642D02*
X7572209Y-21540118D01*
X7572209Y-21540118D02*
X7581733Y-21530594D01*
X7581733Y-21530594D02*
X7581733Y-21549642D01*
X7715066Y-21349642D02*
X7734114Y-21349642D01*
X7734114Y-21349642D02*
X7753162Y-21359166D01*
X7753162Y-21359166D02*
X7762685Y-21368689D01*
X7762685Y-21368689D02*
X7772209Y-21387737D01*
X7772209Y-21387737D02*
X7781733Y-21425832D01*
X7781733Y-21425832D02*
X7781733Y-21473451D01*
X7781733Y-21473451D02*
X7772209Y-21511547D01*
X7772209Y-21511547D02*
X7762685Y-21530594D01*
X7762685Y-21530594D02*
X7753162Y-21540118D01*
X7753162Y-21540118D02*
X7734114Y-21549642D01*
X7734114Y-21549642D02*
X7715066Y-21549642D01*
X7715066Y-21549642D02*
X7696019Y-21540118D01*
X7696019Y-21540118D02*
X7686495Y-21530594D01*
X7686495Y-21530594D02*
X7676971Y-21511547D01*
X7676971Y-21511547D02*
X7667447Y-21473451D01*
X7667447Y-21473451D02*
X7667447Y-21425832D01*
X7667447Y-21425832D02*
X7676971Y-21387737D01*
X7676971Y-21387737D02*
X7686495Y-21368689D01*
X7686495Y-21368689D02*
X7696019Y-21359166D01*
X7696019Y-21359166D02*
X7715066Y-21349642D01*
X7953162Y-21349642D02*
X7915066Y-21349642D01*
X7915066Y-21349642D02*
X7896019Y-21359166D01*
X7896019Y-21359166D02*
X7886495Y-21368689D01*
X7886495Y-21368689D02*
X7867447Y-21397261D01*
X7867447Y-21397261D02*
X7857924Y-21435356D01*
X7857924Y-21435356D02*
X7857924Y-21511547D01*
X7857924Y-21511547D02*
X7867447Y-21530594D01*
X7867447Y-21530594D02*
X7876971Y-21540118D01*
X7876971Y-21540118D02*
X7896019Y-21549642D01*
X7896019Y-21549642D02*
X7934114Y-21549642D01*
X7934114Y-21549642D02*
X7953162Y-21540118D01*
X7953162Y-21540118D02*
X7962685Y-21530594D01*
X7962685Y-21530594D02*
X7972209Y-21511547D01*
X7972209Y-21511547D02*
X7972209Y-21463928D01*
X7972209Y-21463928D02*
X7962685Y-21444880D01*
X7962685Y-21444880D02*
X7953162Y-21435356D01*
X7953162Y-21435356D02*
X7934114Y-21425832D01*
X7934114Y-21425832D02*
X7896019Y-21425832D01*
X7896019Y-21425832D02*
X7876971Y-21435356D01*
X7876971Y-21435356D02*
X7867447Y-21444880D01*
X7867447Y-21444880D02*
X7857924Y-21463928D01*
X8038876Y-21349642D02*
X8162685Y-21349642D01*
X8162685Y-21349642D02*
X8096019Y-21425832D01*
X8096019Y-21425832D02*
X8124590Y-21425832D01*
X8124590Y-21425832D02*
X8143638Y-21435356D01*
X8143638Y-21435356D02*
X8153162Y-21444880D01*
X8153162Y-21444880D02*
X8162685Y-21463928D01*
X8162685Y-21463928D02*
X8162685Y-21511547D01*
X8162685Y-21511547D02*
X8153162Y-21530594D01*
X8153162Y-21530594D02*
X8143638Y-21540118D01*
X8143638Y-21540118D02*
X8124590Y-21549642D01*
X8124590Y-21549642D02*
X8067447Y-21549642D01*
X8067447Y-21549642D02*
X8048400Y-21540118D01*
X8048400Y-21540118D02*
X8038876Y-21530594D01*
X8286495Y-21349642D02*
X8305543Y-21349642D01*
X8305543Y-21349642D02*
X8324590Y-21359166D01*
X8324590Y-21359166D02*
X8334114Y-21368689D01*
X8334114Y-21368689D02*
X8343638Y-21387737D01*
X8343638Y-21387737D02*
X8353162Y-21425832D01*
X8353162Y-21425832D02*
X8353162Y-21473451D01*
X8353162Y-21473451D02*
X8343638Y-21511547D01*
X8343638Y-21511547D02*
X8334114Y-21530594D01*
X8334114Y-21530594D02*
X8324590Y-21540118D01*
X8324590Y-21540118D02*
X8305543Y-21549642D01*
X8305543Y-21549642D02*
X8286495Y-21549642D01*
X8286495Y-21549642D02*
X8267447Y-21540118D01*
X8267447Y-21540118D02*
X8257924Y-21530594D01*
X8257924Y-21530594D02*
X8248400Y-21511547D01*
X8248400Y-21511547D02*
X8238876Y-21473451D01*
X8238876Y-21473451D02*
X8238876Y-21425832D01*
X8238876Y-21425832D02*
X8248400Y-21387737D01*
X8248400Y-21387737D02*
X8257924Y-21368689D01*
X8257924Y-21368689D02*
X8267447Y-21359166D01*
X8267447Y-21359166D02*
X8286495Y-21349642D01*
X8429352Y-21349642D02*
X8429352Y-21387737D01*
X8505543Y-21349642D02*
X8505543Y-21387737D01*
X8800781Y-21625832D02*
X8791257Y-21616308D01*
X8791257Y-21616308D02*
X8772209Y-21587737D01*
X8772209Y-21587737D02*
X8762686Y-21568689D01*
X8762686Y-21568689D02*
X8753162Y-21540118D01*
X8753162Y-21540118D02*
X8743638Y-21492499D01*
X8743638Y-21492499D02*
X8743638Y-21454404D01*
X8743638Y-21454404D02*
X8753162Y-21406785D01*
X8753162Y-21406785D02*
X8762686Y-21378213D01*
X8762686Y-21378213D02*
X8772209Y-21359166D01*
X8772209Y-21359166D02*
X8791257Y-21330594D01*
X8791257Y-21330594D02*
X8800781Y-21321070D01*
X8981733Y-21549642D02*
X8867448Y-21549642D01*
X8924590Y-21549642D02*
X8924590Y-21349642D01*
X8924590Y-21349642D02*
X8905543Y-21378213D01*
X8905543Y-21378213D02*
X8886495Y-21397261D01*
X8886495Y-21397261D02*
X8867448Y-21406785D01*
X9153162Y-21349642D02*
X9115067Y-21349642D01*
X9115067Y-21349642D02*
X9096019Y-21359166D01*
X9096019Y-21359166D02*
X9086495Y-21368689D01*
X9086495Y-21368689D02*
X9067448Y-21397261D01*
X9067448Y-21397261D02*
X9057924Y-21435356D01*
X9057924Y-21435356D02*
X9057924Y-21511547D01*
X9057924Y-21511547D02*
X9067448Y-21530594D01*
X9067448Y-21530594D02*
X9076971Y-21540118D01*
X9076971Y-21540118D02*
X9096019Y-21549642D01*
X9096019Y-21549642D02*
X9134114Y-21549642D01*
X9134114Y-21549642D02*
X9153162Y-21540118D01*
X9153162Y-21540118D02*
X9162686Y-21530594D01*
X9162686Y-21530594D02*
X9172209Y-21511547D01*
X9172209Y-21511547D02*
X9172209Y-21463928D01*
X9172209Y-21463928D02*
X9162686Y-21444880D01*
X9162686Y-21444880D02*
X9153162Y-21435356D01*
X9153162Y-21435356D02*
X9134114Y-21425832D01*
X9134114Y-21425832D02*
X9096019Y-21425832D01*
X9096019Y-21425832D02*
X9076971Y-21435356D01*
X9076971Y-21435356D02*
X9067448Y-21444880D01*
X9067448Y-21444880D02*
X9057924Y-21463928D01*
X9410305Y-21549642D02*
X9410305Y-21349642D01*
X9496019Y-21549642D02*
X9496019Y-21444880D01*
X9496019Y-21444880D02*
X9486495Y-21425832D01*
X9486495Y-21425832D02*
X9467448Y-21416308D01*
X9467448Y-21416308D02*
X9438876Y-21416308D01*
X9438876Y-21416308D02*
X9419829Y-21425832D01*
X9419829Y-21425832D02*
X9410305Y-21435356D01*
X9619829Y-21549642D02*
X9600781Y-21540118D01*
X9600781Y-21540118D02*
X9591257Y-21530594D01*
X9591257Y-21530594D02*
X9581733Y-21511547D01*
X9581733Y-21511547D02*
X9581733Y-21454404D01*
X9581733Y-21454404D02*
X9591257Y-21435356D01*
X9591257Y-21435356D02*
X9600781Y-21425832D01*
X9600781Y-21425832D02*
X9619829Y-21416308D01*
X9619829Y-21416308D02*
X9648400Y-21416308D01*
X9648400Y-21416308D02*
X9667448Y-21425832D01*
X9667448Y-21425832D02*
X9676971Y-21435356D01*
X9676971Y-21435356D02*
X9686495Y-21454404D01*
X9686495Y-21454404D02*
X9686495Y-21511547D01*
X9686495Y-21511547D02*
X9676971Y-21530594D01*
X9676971Y-21530594D02*
X9667448Y-21540118D01*
X9667448Y-21540118D02*
X9648400Y-21549642D01*
X9648400Y-21549642D02*
X9619829Y-21549642D01*
X9800781Y-21549642D02*
X9781733Y-21540118D01*
X9781733Y-21540118D02*
X9772210Y-21521070D01*
X9772210Y-21521070D02*
X9772210Y-21349642D01*
X9953162Y-21540118D02*
X9934114Y-21549642D01*
X9934114Y-21549642D02*
X9896019Y-21549642D01*
X9896019Y-21549642D02*
X9876971Y-21540118D01*
X9876971Y-21540118D02*
X9867448Y-21521070D01*
X9867448Y-21521070D02*
X9867448Y-21444880D01*
X9867448Y-21444880D02*
X9876971Y-21425832D01*
X9876971Y-21425832D02*
X9896019Y-21416308D01*
X9896019Y-21416308D02*
X9934114Y-21416308D01*
X9934114Y-21416308D02*
X9953162Y-21425832D01*
X9953162Y-21425832D02*
X9962686Y-21444880D01*
X9962686Y-21444880D02*
X9962686Y-21463928D01*
X9962686Y-21463928D02*
X9867448Y-21482975D01*
X10038876Y-21540118D02*
X10057924Y-21549642D01*
X10057924Y-21549642D02*
X10096019Y-21549642D01*
X10096019Y-21549642D02*
X10115067Y-21540118D01*
X10115067Y-21540118D02*
X10124591Y-21521070D01*
X10124591Y-21521070D02*
X10124591Y-21511547D01*
X10124591Y-21511547D02*
X10115067Y-21492499D01*
X10115067Y-21492499D02*
X10096019Y-21482975D01*
X10096019Y-21482975D02*
X10067448Y-21482975D01*
X10067448Y-21482975D02*
X10048400Y-21473451D01*
X10048400Y-21473451D02*
X10038876Y-21454404D01*
X10038876Y-21454404D02*
X10038876Y-21444880D01*
X10038876Y-21444880D02*
X10048400Y-21425832D01*
X10048400Y-21425832D02*
X10067448Y-21416308D01*
X10067448Y-21416308D02*
X10096019Y-21416308D01*
X10096019Y-21416308D02*
X10115067Y-21425832D01*
X10191257Y-21625832D02*
X10200781Y-21616308D01*
X10200781Y-21616308D02*
X10219829Y-21587737D01*
X10219829Y-21587737D02*
X10229352Y-21568689D01*
X10229352Y-21568689D02*
X10238876Y-21540118D01*
X10238876Y-21540118D02*
X10248400Y-21492499D01*
X10248400Y-21492499D02*
X10248400Y-21454404D01*
X10248400Y-21454404D02*
X10238876Y-21406785D01*
X10238876Y-21406785D02*
X10229352Y-21378213D01*
X10229352Y-21378213D02*
X10219829Y-21359166D01*
X10219829Y-21359166D02*
X10200781Y-21330594D01*
X10200781Y-21330594D02*
X10191257Y-21321070D01*
X10553162Y-21625832D02*
X10543638Y-21616308D01*
X10543638Y-21616308D02*
X10524591Y-21587737D01*
X10524591Y-21587737D02*
X10515067Y-21568689D01*
X10515067Y-21568689D02*
X10505543Y-21540118D01*
X10505543Y-21540118D02*
X10496019Y-21492499D01*
X10496019Y-21492499D02*
X10496019Y-21454404D01*
X10496019Y-21454404D02*
X10505543Y-21406785D01*
X10505543Y-21406785D02*
X10515067Y-21378213D01*
X10515067Y-21378213D02*
X10524591Y-21359166D01*
X10524591Y-21359166D02*
X10543638Y-21330594D01*
X10543638Y-21330594D02*
X10553162Y-21321070D01*
X10629352Y-21416308D02*
X10629352Y-21549642D01*
X10629352Y-21435356D02*
X10638876Y-21425832D01*
X10638876Y-21425832D02*
X10657924Y-21416308D01*
X10657924Y-21416308D02*
X10686495Y-21416308D01*
X10686495Y-21416308D02*
X10705543Y-21425832D01*
X10705543Y-21425832D02*
X10715067Y-21444880D01*
X10715067Y-21444880D02*
X10715067Y-21549642D01*
X10838876Y-21549642D02*
X10819829Y-21540118D01*
X10819829Y-21540118D02*
X10810305Y-21530594D01*
X10810305Y-21530594D02*
X10800781Y-21511547D01*
X10800781Y-21511547D02*
X10800781Y-21454404D01*
X10800781Y-21454404D02*
X10810305Y-21435356D01*
X10810305Y-21435356D02*
X10819829Y-21425832D01*
X10819829Y-21425832D02*
X10838876Y-21416308D01*
X10838876Y-21416308D02*
X10867448Y-21416308D01*
X10867448Y-21416308D02*
X10886495Y-21425832D01*
X10886495Y-21425832D02*
X10896019Y-21435356D01*
X10896019Y-21435356D02*
X10905543Y-21454404D01*
X10905543Y-21454404D02*
X10905543Y-21511547D01*
X10905543Y-21511547D02*
X10896019Y-21530594D01*
X10896019Y-21530594D02*
X10886495Y-21540118D01*
X10886495Y-21540118D02*
X10867448Y-21549642D01*
X10867448Y-21549642D02*
X10838876Y-21549642D01*
X10962686Y-21416308D02*
X11038876Y-21416308D01*
X10991257Y-21349642D02*
X10991257Y-21521070D01*
X10991257Y-21521070D02*
X11000781Y-21540118D01*
X11000781Y-21540118D02*
X11019829Y-21549642D01*
X11019829Y-21549642D02*
X11038876Y-21549642D01*
X11257924Y-21416308D02*
X11257924Y-21616308D01*
X11257924Y-21425832D02*
X11276971Y-21416308D01*
X11276971Y-21416308D02*
X11315067Y-21416308D01*
X11315067Y-21416308D02*
X11334114Y-21425832D01*
X11334114Y-21425832D02*
X11343638Y-21435356D01*
X11343638Y-21435356D02*
X11353162Y-21454404D01*
X11353162Y-21454404D02*
X11353162Y-21511547D01*
X11353162Y-21511547D02*
X11343638Y-21530594D01*
X11343638Y-21530594D02*
X11334114Y-21540118D01*
X11334114Y-21540118D02*
X11315067Y-21549642D01*
X11315067Y-21549642D02*
X11276971Y-21549642D01*
X11276971Y-21549642D02*
X11257924Y-21540118D01*
X11467448Y-21549642D02*
X11448400Y-21540118D01*
X11448400Y-21540118D02*
X11438876Y-21521070D01*
X11438876Y-21521070D02*
X11438876Y-21349642D01*
X11629352Y-21549642D02*
X11629352Y-21444880D01*
X11629352Y-21444880D02*
X11619829Y-21425832D01*
X11619829Y-21425832D02*
X11600781Y-21416308D01*
X11600781Y-21416308D02*
X11562686Y-21416308D01*
X11562686Y-21416308D02*
X11543638Y-21425832D01*
X11629352Y-21540118D02*
X11610305Y-21549642D01*
X11610305Y-21549642D02*
X11562686Y-21549642D01*
X11562686Y-21549642D02*
X11543638Y-21540118D01*
X11543638Y-21540118D02*
X11534114Y-21521070D01*
X11534114Y-21521070D02*
X11534114Y-21502023D01*
X11534114Y-21502023D02*
X11543638Y-21482975D01*
X11543638Y-21482975D02*
X11562686Y-21473451D01*
X11562686Y-21473451D02*
X11610305Y-21473451D01*
X11610305Y-21473451D02*
X11629352Y-21463928D01*
X11696019Y-21416308D02*
X11772210Y-21416308D01*
X11724591Y-21349642D02*
X11724591Y-21521070D01*
X11724591Y-21521070D02*
X11734114Y-21540118D01*
X11734114Y-21540118D02*
X11753162Y-21549642D01*
X11753162Y-21549642D02*
X11772210Y-21549642D01*
X11915067Y-21540118D02*
X11896019Y-21549642D01*
X11896019Y-21549642D02*
X11857924Y-21549642D01*
X11857924Y-21549642D02*
X11838876Y-21540118D01*
X11838876Y-21540118D02*
X11829352Y-21521070D01*
X11829352Y-21521070D02*
X11829352Y-21444880D01*
X11829352Y-21444880D02*
X11838876Y-21425832D01*
X11838876Y-21425832D02*
X11857924Y-21416308D01*
X11857924Y-21416308D02*
X11896019Y-21416308D01*
X11896019Y-21416308D02*
X11915067Y-21425832D01*
X11915067Y-21425832D02*
X11924591Y-21444880D01*
X11924591Y-21444880D02*
X11924591Y-21463928D01*
X11924591Y-21463928D02*
X11829352Y-21482975D01*
X12096019Y-21549642D02*
X12096019Y-21349642D01*
X12096019Y-21540118D02*
X12076972Y-21549642D01*
X12076972Y-21549642D02*
X12038876Y-21549642D01*
X12038876Y-21549642D02*
X12019829Y-21540118D01*
X12019829Y-21540118D02*
X12010305Y-21530594D01*
X12010305Y-21530594D02*
X12000781Y-21511547D01*
X12000781Y-21511547D02*
X12000781Y-21454404D01*
X12000781Y-21454404D02*
X12010305Y-21435356D01*
X12010305Y-21435356D02*
X12019829Y-21425832D01*
X12019829Y-21425832D02*
X12038876Y-21416308D01*
X12038876Y-21416308D02*
X12076972Y-21416308D01*
X12076972Y-21416308D02*
X12096019Y-21425832D01*
X12172210Y-21625832D02*
X12181733Y-21616308D01*
X12181733Y-21616308D02*
X12200781Y-21587737D01*
X12200781Y-21587737D02*
X12210305Y-21568689D01*
X12210305Y-21568689D02*
X12219829Y-21540118D01*
X12219829Y-21540118D02*
X12229352Y-21492499D01*
X12229352Y-21492499D02*
X12229352Y-21454404D01*
X12229352Y-21454404D02*
X12219829Y-21406785D01*
X12219829Y-21406785D02*
X12210305Y-21378213D01*
X12210305Y-21378213D02*
X12200781Y-21359166D01*
X12200781Y-21359166D02*
X12181733Y-21330594D01*
X12181733Y-21330594D02*
X12172210Y-21321070D01*
D14*
X5130718Y-21643158D02*
X5130718Y-21833158D01*
X5035718Y-21738158D02*
X5225718Y-21738158D01*
D11*
X5591257Y-21829642D02*
X5476971Y-21829642D01*
X5534114Y-21829642D02*
X5534114Y-21629642D01*
X5534114Y-21629642D02*
X5515066Y-21658213D01*
X5515066Y-21658213D02*
X5496019Y-21677261D01*
X5496019Y-21677261D02*
X5476971Y-21686785D01*
X5676971Y-21810594D02*
X5686495Y-21820118D01*
X5686495Y-21820118D02*
X5676971Y-21829642D01*
X5676971Y-21829642D02*
X5667447Y-21820118D01*
X5667447Y-21820118D02*
X5676971Y-21810594D01*
X5676971Y-21810594D02*
X5676971Y-21829642D01*
X5781733Y-21829642D02*
X5819828Y-21829642D01*
X5819828Y-21829642D02*
X5838876Y-21820118D01*
X5838876Y-21820118D02*
X5848400Y-21810594D01*
X5848400Y-21810594D02*
X5867447Y-21782023D01*
X5867447Y-21782023D02*
X5876971Y-21743928D01*
X5876971Y-21743928D02*
X5876971Y-21667737D01*
X5876971Y-21667737D02*
X5867447Y-21648689D01*
X5867447Y-21648689D02*
X5857923Y-21639166D01*
X5857923Y-21639166D02*
X5838876Y-21629642D01*
X5838876Y-21629642D02*
X5800780Y-21629642D01*
X5800780Y-21629642D02*
X5781733Y-21639166D01*
X5781733Y-21639166D02*
X5772209Y-21648689D01*
X5772209Y-21648689D02*
X5762685Y-21667737D01*
X5762685Y-21667737D02*
X5762685Y-21715356D01*
X5762685Y-21715356D02*
X5772209Y-21734404D01*
X5772209Y-21734404D02*
X5781733Y-21743928D01*
X5781733Y-21743928D02*
X5800780Y-21753451D01*
X5800780Y-21753451D02*
X5838876Y-21753451D01*
X5838876Y-21753451D02*
X5857923Y-21743928D01*
X5857923Y-21743928D02*
X5867447Y-21734404D01*
X5867447Y-21734404D02*
X5876971Y-21715356D01*
X6000780Y-21629642D02*
X6019828Y-21629642D01*
X6019828Y-21629642D02*
X6038876Y-21639166D01*
X6038876Y-21639166D02*
X6048400Y-21648689D01*
X6048400Y-21648689D02*
X6057923Y-21667737D01*
X6057923Y-21667737D02*
X6067447Y-21705832D01*
X6067447Y-21705832D02*
X6067447Y-21753451D01*
X6067447Y-21753451D02*
X6057923Y-21791547D01*
X6057923Y-21791547D02*
X6048400Y-21810594D01*
X6048400Y-21810594D02*
X6038876Y-21820118D01*
X6038876Y-21820118D02*
X6019828Y-21829642D01*
X6019828Y-21829642D02*
X6000780Y-21829642D01*
X6000780Y-21829642D02*
X5981733Y-21820118D01*
X5981733Y-21820118D02*
X5972209Y-21810594D01*
X5972209Y-21810594D02*
X5962685Y-21791547D01*
X5962685Y-21791547D02*
X5953161Y-21753451D01*
X5953161Y-21753451D02*
X5953161Y-21705832D01*
X5953161Y-21705832D02*
X5962685Y-21667737D01*
X5962685Y-21667737D02*
X5972209Y-21648689D01*
X5972209Y-21648689D02*
X5981733Y-21639166D01*
X5981733Y-21639166D02*
X6000780Y-21629642D01*
X6191257Y-21629642D02*
X6210304Y-21629642D01*
X6210304Y-21629642D02*
X6229352Y-21639166D01*
X6229352Y-21639166D02*
X6238876Y-21648689D01*
X6238876Y-21648689D02*
X6248400Y-21667737D01*
X6248400Y-21667737D02*
X6257923Y-21705832D01*
X6257923Y-21705832D02*
X6257923Y-21753451D01*
X6257923Y-21753451D02*
X6248400Y-21791547D01*
X6248400Y-21791547D02*
X6238876Y-21810594D01*
X6238876Y-21810594D02*
X6229352Y-21820118D01*
X6229352Y-21820118D02*
X6210304Y-21829642D01*
X6210304Y-21829642D02*
X6191257Y-21829642D01*
X6191257Y-21829642D02*
X6172209Y-21820118D01*
X6172209Y-21820118D02*
X6162685Y-21810594D01*
X6162685Y-21810594D02*
X6153161Y-21791547D01*
X6153161Y-21791547D02*
X6143638Y-21753451D01*
X6143638Y-21753451D02*
X6143638Y-21705832D01*
X6143638Y-21705832D02*
X6153161Y-21667737D01*
X6153161Y-21667737D02*
X6162685Y-21648689D01*
X6162685Y-21648689D02*
X6172209Y-21639166D01*
X6172209Y-21639166D02*
X6191257Y-21629642D01*
X6343638Y-21829642D02*
X6343638Y-21696308D01*
X6343638Y-21715356D02*
X6353161Y-21705832D01*
X6353161Y-21705832D02*
X6372209Y-21696308D01*
X6372209Y-21696308D02*
X6400781Y-21696308D01*
X6400781Y-21696308D02*
X6419828Y-21705832D01*
X6419828Y-21705832D02*
X6429352Y-21724880D01*
X6429352Y-21724880D02*
X6429352Y-21829642D01*
X6429352Y-21724880D02*
X6438876Y-21705832D01*
X6438876Y-21705832D02*
X6457923Y-21696308D01*
X6457923Y-21696308D02*
X6486495Y-21696308D01*
X6486495Y-21696308D02*
X6505542Y-21705832D01*
X6505542Y-21705832D02*
X6515066Y-21724880D01*
X6515066Y-21724880D02*
X6515066Y-21829642D01*
X6610304Y-21829642D02*
X6610304Y-21696308D01*
X6610304Y-21715356D02*
X6619828Y-21705832D01*
X6619828Y-21705832D02*
X6638876Y-21696308D01*
X6638876Y-21696308D02*
X6667447Y-21696308D01*
X6667447Y-21696308D02*
X6686495Y-21705832D01*
X6686495Y-21705832D02*
X6696019Y-21724880D01*
X6696019Y-21724880D02*
X6696019Y-21829642D01*
X6696019Y-21724880D02*
X6705542Y-21705832D01*
X6705542Y-21705832D02*
X6724590Y-21696308D01*
X6724590Y-21696308D02*
X6753161Y-21696308D01*
X6753161Y-21696308D02*
X6772209Y-21705832D01*
X6772209Y-21705832D02*
X6781733Y-21724880D01*
X6781733Y-21724880D02*
X6781733Y-21829642D01*
X7172209Y-21620118D02*
X7000781Y-21877261D01*
X7429352Y-21629642D02*
X7448400Y-21629642D01*
X7448400Y-21629642D02*
X7467447Y-21639166D01*
X7467447Y-21639166D02*
X7476971Y-21648689D01*
X7476971Y-21648689D02*
X7486495Y-21667737D01*
X7486495Y-21667737D02*
X7496019Y-21705832D01*
X7496019Y-21705832D02*
X7496019Y-21753451D01*
X7496019Y-21753451D02*
X7486495Y-21791547D01*
X7486495Y-21791547D02*
X7476971Y-21810594D01*
X7476971Y-21810594D02*
X7467447Y-21820118D01*
X7467447Y-21820118D02*
X7448400Y-21829642D01*
X7448400Y-21829642D02*
X7429352Y-21829642D01*
X7429352Y-21829642D02*
X7410304Y-21820118D01*
X7410304Y-21820118D02*
X7400781Y-21810594D01*
X7400781Y-21810594D02*
X7391257Y-21791547D01*
X7391257Y-21791547D02*
X7381733Y-21753451D01*
X7381733Y-21753451D02*
X7381733Y-21705832D01*
X7381733Y-21705832D02*
X7391257Y-21667737D01*
X7391257Y-21667737D02*
X7400781Y-21648689D01*
X7400781Y-21648689D02*
X7410304Y-21639166D01*
X7410304Y-21639166D02*
X7429352Y-21629642D01*
X7581733Y-21810594D02*
X7591257Y-21820118D01*
X7591257Y-21820118D02*
X7581733Y-21829642D01*
X7581733Y-21829642D02*
X7572209Y-21820118D01*
X7572209Y-21820118D02*
X7581733Y-21810594D01*
X7581733Y-21810594D02*
X7581733Y-21829642D01*
X7715066Y-21629642D02*
X7734114Y-21629642D01*
X7734114Y-21629642D02*
X7753162Y-21639166D01*
X7753162Y-21639166D02*
X7762685Y-21648689D01*
X7762685Y-21648689D02*
X7772209Y-21667737D01*
X7772209Y-21667737D02*
X7781733Y-21705832D01*
X7781733Y-21705832D02*
X7781733Y-21753451D01*
X7781733Y-21753451D02*
X7772209Y-21791547D01*
X7772209Y-21791547D02*
X7762685Y-21810594D01*
X7762685Y-21810594D02*
X7753162Y-21820118D01*
X7753162Y-21820118D02*
X7734114Y-21829642D01*
X7734114Y-21829642D02*
X7715066Y-21829642D01*
X7715066Y-21829642D02*
X7696019Y-21820118D01*
X7696019Y-21820118D02*
X7686495Y-21810594D01*
X7686495Y-21810594D02*
X7676971Y-21791547D01*
X7676971Y-21791547D02*
X7667447Y-21753451D01*
X7667447Y-21753451D02*
X7667447Y-21705832D01*
X7667447Y-21705832D02*
X7676971Y-21667737D01*
X7676971Y-21667737D02*
X7686495Y-21648689D01*
X7686495Y-21648689D02*
X7696019Y-21639166D01*
X7696019Y-21639166D02*
X7715066Y-21629642D01*
X7848400Y-21629642D02*
X7981733Y-21629642D01*
X7981733Y-21629642D02*
X7896019Y-21829642D01*
X8143638Y-21696308D02*
X8143638Y-21829642D01*
X8096019Y-21620118D02*
X8048400Y-21762975D01*
X8048400Y-21762975D02*
X8172209Y-21762975D01*
X8276971Y-21715356D02*
X8257924Y-21705832D01*
X8257924Y-21705832D02*
X8248400Y-21696308D01*
X8248400Y-21696308D02*
X8238876Y-21677261D01*
X8238876Y-21677261D02*
X8238876Y-21667737D01*
X8238876Y-21667737D02*
X8248400Y-21648689D01*
X8248400Y-21648689D02*
X8257924Y-21639166D01*
X8257924Y-21639166D02*
X8276971Y-21629642D01*
X8276971Y-21629642D02*
X8315066Y-21629642D01*
X8315066Y-21629642D02*
X8334114Y-21639166D01*
X8334114Y-21639166D02*
X8343638Y-21648689D01*
X8343638Y-21648689D02*
X8353162Y-21667737D01*
X8353162Y-21667737D02*
X8353162Y-21677261D01*
X8353162Y-21677261D02*
X8343638Y-21696308D01*
X8343638Y-21696308D02*
X8334114Y-21705832D01*
X8334114Y-21705832D02*
X8315066Y-21715356D01*
X8315066Y-21715356D02*
X8276971Y-21715356D01*
X8276971Y-21715356D02*
X8257924Y-21724880D01*
X8257924Y-21724880D02*
X8248400Y-21734404D01*
X8248400Y-21734404D02*
X8238876Y-21753451D01*
X8238876Y-21753451D02*
X8238876Y-21791547D01*
X8238876Y-21791547D02*
X8248400Y-21810594D01*
X8248400Y-21810594D02*
X8257924Y-21820118D01*
X8257924Y-21820118D02*
X8276971Y-21829642D01*
X8276971Y-21829642D02*
X8315066Y-21829642D01*
X8315066Y-21829642D02*
X8334114Y-21820118D01*
X8334114Y-21820118D02*
X8343638Y-21810594D01*
X8343638Y-21810594D02*
X8353162Y-21791547D01*
X8353162Y-21791547D02*
X8353162Y-21753451D01*
X8353162Y-21753451D02*
X8343638Y-21734404D01*
X8343638Y-21734404D02*
X8334114Y-21724880D01*
X8334114Y-21724880D02*
X8315066Y-21715356D01*
X8429352Y-21629642D02*
X8429352Y-21667737D01*
X8505543Y-21629642D02*
X8505543Y-21667737D01*
X8800781Y-21905832D02*
X8791257Y-21896308D01*
X8791257Y-21896308D02*
X8772209Y-21867737D01*
X8772209Y-21867737D02*
X8762686Y-21848689D01*
X8762686Y-21848689D02*
X8753162Y-21820118D01*
X8753162Y-21820118D02*
X8743638Y-21772499D01*
X8743638Y-21772499D02*
X8743638Y-21734404D01*
X8743638Y-21734404D02*
X8753162Y-21686785D01*
X8753162Y-21686785D02*
X8762686Y-21658213D01*
X8762686Y-21658213D02*
X8772209Y-21639166D01*
X8772209Y-21639166D02*
X8791257Y-21610594D01*
X8791257Y-21610594D02*
X8800781Y-21601070D01*
X8857924Y-21629642D02*
X8981733Y-21629642D01*
X8981733Y-21629642D02*
X8915067Y-21705832D01*
X8915067Y-21705832D02*
X8943638Y-21705832D01*
X8943638Y-21705832D02*
X8962686Y-21715356D01*
X8962686Y-21715356D02*
X8972209Y-21724880D01*
X8972209Y-21724880D02*
X8981733Y-21743928D01*
X8981733Y-21743928D02*
X8981733Y-21791547D01*
X8981733Y-21791547D02*
X8972209Y-21810594D01*
X8972209Y-21810594D02*
X8962686Y-21820118D01*
X8962686Y-21820118D02*
X8943638Y-21829642D01*
X8943638Y-21829642D02*
X8886495Y-21829642D01*
X8886495Y-21829642D02*
X8867448Y-21820118D01*
X8867448Y-21820118D02*
X8857924Y-21810594D01*
X9057924Y-21648689D02*
X9067448Y-21639166D01*
X9067448Y-21639166D02*
X9086495Y-21629642D01*
X9086495Y-21629642D02*
X9134114Y-21629642D01*
X9134114Y-21629642D02*
X9153162Y-21639166D01*
X9153162Y-21639166D02*
X9162686Y-21648689D01*
X9162686Y-21648689D02*
X9172209Y-21667737D01*
X9172209Y-21667737D02*
X9172209Y-21686785D01*
X9172209Y-21686785D02*
X9162686Y-21715356D01*
X9162686Y-21715356D02*
X9048400Y-21829642D01*
X9048400Y-21829642D02*
X9172209Y-21829642D01*
X9410305Y-21829642D02*
X9410305Y-21629642D01*
X9496019Y-21829642D02*
X9496019Y-21724880D01*
X9496019Y-21724880D02*
X9486495Y-21705832D01*
X9486495Y-21705832D02*
X9467448Y-21696308D01*
X9467448Y-21696308D02*
X9438876Y-21696308D01*
X9438876Y-21696308D02*
X9419829Y-21705832D01*
X9419829Y-21705832D02*
X9410305Y-21715356D01*
X9619829Y-21829642D02*
X9600781Y-21820118D01*
X9600781Y-21820118D02*
X9591257Y-21810594D01*
X9591257Y-21810594D02*
X9581733Y-21791547D01*
X9581733Y-21791547D02*
X9581733Y-21734404D01*
X9581733Y-21734404D02*
X9591257Y-21715356D01*
X9591257Y-21715356D02*
X9600781Y-21705832D01*
X9600781Y-21705832D02*
X9619829Y-21696308D01*
X9619829Y-21696308D02*
X9648400Y-21696308D01*
X9648400Y-21696308D02*
X9667448Y-21705832D01*
X9667448Y-21705832D02*
X9676971Y-21715356D01*
X9676971Y-21715356D02*
X9686495Y-21734404D01*
X9686495Y-21734404D02*
X9686495Y-21791547D01*
X9686495Y-21791547D02*
X9676971Y-21810594D01*
X9676971Y-21810594D02*
X9667448Y-21820118D01*
X9667448Y-21820118D02*
X9648400Y-21829642D01*
X9648400Y-21829642D02*
X9619829Y-21829642D01*
X9800781Y-21829642D02*
X9781733Y-21820118D01*
X9781733Y-21820118D02*
X9772210Y-21801070D01*
X9772210Y-21801070D02*
X9772210Y-21629642D01*
X9953162Y-21820118D02*
X9934114Y-21829642D01*
X9934114Y-21829642D02*
X9896019Y-21829642D01*
X9896019Y-21829642D02*
X9876971Y-21820118D01*
X9876971Y-21820118D02*
X9867448Y-21801070D01*
X9867448Y-21801070D02*
X9867448Y-21724880D01*
X9867448Y-21724880D02*
X9876971Y-21705832D01*
X9876971Y-21705832D02*
X9896019Y-21696308D01*
X9896019Y-21696308D02*
X9934114Y-21696308D01*
X9934114Y-21696308D02*
X9953162Y-21705832D01*
X9953162Y-21705832D02*
X9962686Y-21724880D01*
X9962686Y-21724880D02*
X9962686Y-21743928D01*
X9962686Y-21743928D02*
X9867448Y-21762975D01*
X10038876Y-21820118D02*
X10057924Y-21829642D01*
X10057924Y-21829642D02*
X10096019Y-21829642D01*
X10096019Y-21829642D02*
X10115067Y-21820118D01*
X10115067Y-21820118D02*
X10124591Y-21801070D01*
X10124591Y-21801070D02*
X10124591Y-21791547D01*
X10124591Y-21791547D02*
X10115067Y-21772499D01*
X10115067Y-21772499D02*
X10096019Y-21762975D01*
X10096019Y-21762975D02*
X10067448Y-21762975D01*
X10067448Y-21762975D02*
X10048400Y-21753451D01*
X10048400Y-21753451D02*
X10038876Y-21734404D01*
X10038876Y-21734404D02*
X10038876Y-21724880D01*
X10038876Y-21724880D02*
X10048400Y-21705832D01*
X10048400Y-21705832D02*
X10067448Y-21696308D01*
X10067448Y-21696308D02*
X10096019Y-21696308D01*
X10096019Y-21696308D02*
X10115067Y-21705832D01*
X10191257Y-21905832D02*
X10200781Y-21896308D01*
X10200781Y-21896308D02*
X10219829Y-21867737D01*
X10219829Y-21867737D02*
X10229352Y-21848689D01*
X10229352Y-21848689D02*
X10238876Y-21820118D01*
X10238876Y-21820118D02*
X10248400Y-21772499D01*
X10248400Y-21772499D02*
X10248400Y-21734404D01*
X10248400Y-21734404D02*
X10238876Y-21686785D01*
X10238876Y-21686785D02*
X10229352Y-21658213D01*
X10229352Y-21658213D02*
X10219829Y-21639166D01*
X10219829Y-21639166D02*
X10200781Y-21610594D01*
X10200781Y-21610594D02*
X10191257Y-21601070D01*
X10553162Y-21905832D02*
X10543638Y-21896308D01*
X10543638Y-21896308D02*
X10524591Y-21867737D01*
X10524591Y-21867737D02*
X10515067Y-21848689D01*
X10515067Y-21848689D02*
X10505543Y-21820118D01*
X10505543Y-21820118D02*
X10496019Y-21772499D01*
X10496019Y-21772499D02*
X10496019Y-21734404D01*
X10496019Y-21734404D02*
X10505543Y-21686785D01*
X10505543Y-21686785D02*
X10515067Y-21658213D01*
X10515067Y-21658213D02*
X10524591Y-21639166D01*
X10524591Y-21639166D02*
X10543638Y-21610594D01*
X10543638Y-21610594D02*
X10553162Y-21601070D01*
X10629352Y-21696308D02*
X10629352Y-21829642D01*
X10629352Y-21715356D02*
X10638876Y-21705832D01*
X10638876Y-21705832D02*
X10657924Y-21696308D01*
X10657924Y-21696308D02*
X10686495Y-21696308D01*
X10686495Y-21696308D02*
X10705543Y-21705832D01*
X10705543Y-21705832D02*
X10715067Y-21724880D01*
X10715067Y-21724880D02*
X10715067Y-21829642D01*
X10838876Y-21829642D02*
X10819829Y-21820118D01*
X10819829Y-21820118D02*
X10810305Y-21810594D01*
X10810305Y-21810594D02*
X10800781Y-21791547D01*
X10800781Y-21791547D02*
X10800781Y-21734404D01*
X10800781Y-21734404D02*
X10810305Y-21715356D01*
X10810305Y-21715356D02*
X10819829Y-21705832D01*
X10819829Y-21705832D02*
X10838876Y-21696308D01*
X10838876Y-21696308D02*
X10867448Y-21696308D01*
X10867448Y-21696308D02*
X10886495Y-21705832D01*
X10886495Y-21705832D02*
X10896019Y-21715356D01*
X10896019Y-21715356D02*
X10905543Y-21734404D01*
X10905543Y-21734404D02*
X10905543Y-21791547D01*
X10905543Y-21791547D02*
X10896019Y-21810594D01*
X10896019Y-21810594D02*
X10886495Y-21820118D01*
X10886495Y-21820118D02*
X10867448Y-21829642D01*
X10867448Y-21829642D02*
X10838876Y-21829642D01*
X10962686Y-21696308D02*
X11038876Y-21696308D01*
X10991257Y-21629642D02*
X10991257Y-21801070D01*
X10991257Y-21801070D02*
X11000781Y-21820118D01*
X11000781Y-21820118D02*
X11019829Y-21829642D01*
X11019829Y-21829642D02*
X11038876Y-21829642D01*
X11257924Y-21696308D02*
X11257924Y-21896308D01*
X11257924Y-21705832D02*
X11276971Y-21696308D01*
X11276971Y-21696308D02*
X11315067Y-21696308D01*
X11315067Y-21696308D02*
X11334114Y-21705832D01*
X11334114Y-21705832D02*
X11343638Y-21715356D01*
X11343638Y-21715356D02*
X11353162Y-21734404D01*
X11353162Y-21734404D02*
X11353162Y-21791547D01*
X11353162Y-21791547D02*
X11343638Y-21810594D01*
X11343638Y-21810594D02*
X11334114Y-21820118D01*
X11334114Y-21820118D02*
X11315067Y-21829642D01*
X11315067Y-21829642D02*
X11276971Y-21829642D01*
X11276971Y-21829642D02*
X11257924Y-21820118D01*
X11467448Y-21829642D02*
X11448400Y-21820118D01*
X11448400Y-21820118D02*
X11438876Y-21801070D01*
X11438876Y-21801070D02*
X11438876Y-21629642D01*
X11629352Y-21829642D02*
X11629352Y-21724880D01*
X11629352Y-21724880D02*
X11619829Y-21705832D01*
X11619829Y-21705832D02*
X11600781Y-21696308D01*
X11600781Y-21696308D02*
X11562686Y-21696308D01*
X11562686Y-21696308D02*
X11543638Y-21705832D01*
X11629352Y-21820118D02*
X11610305Y-21829642D01*
X11610305Y-21829642D02*
X11562686Y-21829642D01*
X11562686Y-21829642D02*
X11543638Y-21820118D01*
X11543638Y-21820118D02*
X11534114Y-21801070D01*
X11534114Y-21801070D02*
X11534114Y-21782023D01*
X11534114Y-21782023D02*
X11543638Y-21762975D01*
X11543638Y-21762975D02*
X11562686Y-21753451D01*
X11562686Y-21753451D02*
X11610305Y-21753451D01*
X11610305Y-21753451D02*
X11629352Y-21743928D01*
X11696019Y-21696308D02*
X11772210Y-21696308D01*
X11724591Y-21629642D02*
X11724591Y-21801070D01*
X11724591Y-21801070D02*
X11734114Y-21820118D01*
X11734114Y-21820118D02*
X11753162Y-21829642D01*
X11753162Y-21829642D02*
X11772210Y-21829642D01*
X11915067Y-21820118D02*
X11896019Y-21829642D01*
X11896019Y-21829642D02*
X11857924Y-21829642D01*
X11857924Y-21829642D02*
X11838876Y-21820118D01*
X11838876Y-21820118D02*
X11829352Y-21801070D01*
X11829352Y-21801070D02*
X11829352Y-21724880D01*
X11829352Y-21724880D02*
X11838876Y-21705832D01*
X11838876Y-21705832D02*
X11857924Y-21696308D01*
X11857924Y-21696308D02*
X11896019Y-21696308D01*
X11896019Y-21696308D02*
X11915067Y-21705832D01*
X11915067Y-21705832D02*
X11924591Y-21724880D01*
X11924591Y-21724880D02*
X11924591Y-21743928D01*
X11924591Y-21743928D02*
X11829352Y-21762975D01*
X12096019Y-21829642D02*
X12096019Y-21629642D01*
X12096019Y-21820118D02*
X12076972Y-21829642D01*
X12076972Y-21829642D02*
X12038876Y-21829642D01*
X12038876Y-21829642D02*
X12019829Y-21820118D01*
X12019829Y-21820118D02*
X12010305Y-21810594D01*
X12010305Y-21810594D02*
X12000781Y-21791547D01*
X12000781Y-21791547D02*
X12000781Y-21734404D01*
X12000781Y-21734404D02*
X12010305Y-21715356D01*
X12010305Y-21715356D02*
X12019829Y-21705832D01*
X12019829Y-21705832D02*
X12038876Y-21696308D01*
X12038876Y-21696308D02*
X12076972Y-21696308D01*
X12076972Y-21696308D02*
X12096019Y-21705832D01*
X12172210Y-21905832D02*
X12181733Y-21896308D01*
X12181733Y-21896308D02*
X12200781Y-21867737D01*
X12200781Y-21867737D02*
X12210305Y-21848689D01*
X12210305Y-21848689D02*
X12219829Y-21820118D01*
X12219829Y-21820118D02*
X12229352Y-21772499D01*
X12229352Y-21772499D02*
X12229352Y-21734404D01*
X12229352Y-21734404D02*
X12219829Y-21686785D01*
X12219829Y-21686785D02*
X12210305Y-21658213D01*
X12210305Y-21658213D02*
X12200781Y-21639166D01*
X12200781Y-21639166D02*
X12181733Y-21610594D01*
X12181733Y-21610594D02*
X12172210Y-21601070D01*
X5196429Y-22118869D02*
X5196429Y-21977447D01*
X5055007Y-21977447D01*
X5055007Y-22118869D01*
X5196429Y-22118869D01*
X5476971Y-21958689D02*
X5486495Y-21949166D01*
X5486495Y-21949166D02*
X5505542Y-21939642D01*
X5505542Y-21939642D02*
X5553162Y-21939642D01*
X5553162Y-21939642D02*
X5572209Y-21949166D01*
X5572209Y-21949166D02*
X5581733Y-21958689D01*
X5581733Y-21958689D02*
X5591257Y-21977737D01*
X5591257Y-21977737D02*
X5591257Y-21996785D01*
X5591257Y-21996785D02*
X5581733Y-22025356D01*
X5581733Y-22025356D02*
X5467447Y-22139642D01*
X5467447Y-22139642D02*
X5591257Y-22139642D01*
X5676971Y-22120594D02*
X5686495Y-22130118D01*
X5686495Y-22130118D02*
X5676971Y-22139642D01*
X5676971Y-22139642D02*
X5667447Y-22130118D01*
X5667447Y-22130118D02*
X5676971Y-22120594D01*
X5676971Y-22120594D02*
X5676971Y-22139642D01*
X5762685Y-21958689D02*
X5772209Y-21949166D01*
X5772209Y-21949166D02*
X5791257Y-21939642D01*
X5791257Y-21939642D02*
X5838876Y-21939642D01*
X5838876Y-21939642D02*
X5857923Y-21949166D01*
X5857923Y-21949166D02*
X5867447Y-21958689D01*
X5867447Y-21958689D02*
X5876971Y-21977737D01*
X5876971Y-21977737D02*
X5876971Y-21996785D01*
X5876971Y-21996785D02*
X5867447Y-22025356D01*
X5867447Y-22025356D02*
X5753161Y-22139642D01*
X5753161Y-22139642D02*
X5876971Y-22139642D01*
X6000780Y-21939642D02*
X6019828Y-21939642D01*
X6019828Y-21939642D02*
X6038876Y-21949166D01*
X6038876Y-21949166D02*
X6048400Y-21958689D01*
X6048400Y-21958689D02*
X6057923Y-21977737D01*
X6057923Y-21977737D02*
X6067447Y-22015832D01*
X6067447Y-22015832D02*
X6067447Y-22063451D01*
X6067447Y-22063451D02*
X6057923Y-22101547D01*
X6057923Y-22101547D02*
X6048400Y-22120594D01*
X6048400Y-22120594D02*
X6038876Y-22130118D01*
X6038876Y-22130118D02*
X6019828Y-22139642D01*
X6019828Y-22139642D02*
X6000780Y-22139642D01*
X6000780Y-22139642D02*
X5981733Y-22130118D01*
X5981733Y-22130118D02*
X5972209Y-22120594D01*
X5972209Y-22120594D02*
X5962685Y-22101547D01*
X5962685Y-22101547D02*
X5953161Y-22063451D01*
X5953161Y-22063451D02*
X5953161Y-22015832D01*
X5953161Y-22015832D02*
X5962685Y-21977737D01*
X5962685Y-21977737D02*
X5972209Y-21958689D01*
X5972209Y-21958689D02*
X5981733Y-21949166D01*
X5981733Y-21949166D02*
X6000780Y-21939642D01*
X6191257Y-21939642D02*
X6210304Y-21939642D01*
X6210304Y-21939642D02*
X6229352Y-21949166D01*
X6229352Y-21949166D02*
X6238876Y-21958689D01*
X6238876Y-21958689D02*
X6248400Y-21977737D01*
X6248400Y-21977737D02*
X6257923Y-22015832D01*
X6257923Y-22015832D02*
X6257923Y-22063451D01*
X6257923Y-22063451D02*
X6248400Y-22101547D01*
X6248400Y-22101547D02*
X6238876Y-22120594D01*
X6238876Y-22120594D02*
X6229352Y-22130118D01*
X6229352Y-22130118D02*
X6210304Y-22139642D01*
X6210304Y-22139642D02*
X6191257Y-22139642D01*
X6191257Y-22139642D02*
X6172209Y-22130118D01*
X6172209Y-22130118D02*
X6162685Y-22120594D01*
X6162685Y-22120594D02*
X6153161Y-22101547D01*
X6153161Y-22101547D02*
X6143638Y-22063451D01*
X6143638Y-22063451D02*
X6143638Y-22015832D01*
X6143638Y-22015832D02*
X6153161Y-21977737D01*
X6153161Y-21977737D02*
X6162685Y-21958689D01*
X6162685Y-21958689D02*
X6172209Y-21949166D01*
X6172209Y-21949166D02*
X6191257Y-21939642D01*
X6343638Y-22139642D02*
X6343638Y-22006308D01*
X6343638Y-22025356D02*
X6353161Y-22015832D01*
X6353161Y-22015832D02*
X6372209Y-22006308D01*
X6372209Y-22006308D02*
X6400781Y-22006308D01*
X6400781Y-22006308D02*
X6419828Y-22015832D01*
X6419828Y-22015832D02*
X6429352Y-22034880D01*
X6429352Y-22034880D02*
X6429352Y-22139642D01*
X6429352Y-22034880D02*
X6438876Y-22015832D01*
X6438876Y-22015832D02*
X6457923Y-22006308D01*
X6457923Y-22006308D02*
X6486495Y-22006308D01*
X6486495Y-22006308D02*
X6505542Y-22015832D01*
X6505542Y-22015832D02*
X6515066Y-22034880D01*
X6515066Y-22034880D02*
X6515066Y-22139642D01*
X6610304Y-22139642D02*
X6610304Y-22006308D01*
X6610304Y-22025356D02*
X6619828Y-22015832D01*
X6619828Y-22015832D02*
X6638876Y-22006308D01*
X6638876Y-22006308D02*
X6667447Y-22006308D01*
X6667447Y-22006308D02*
X6686495Y-22015832D01*
X6686495Y-22015832D02*
X6696019Y-22034880D01*
X6696019Y-22034880D02*
X6696019Y-22139642D01*
X6696019Y-22034880D02*
X6705542Y-22015832D01*
X6705542Y-22015832D02*
X6724590Y-22006308D01*
X6724590Y-22006308D02*
X6753161Y-22006308D01*
X6753161Y-22006308D02*
X6772209Y-22015832D01*
X6772209Y-22015832D02*
X6781733Y-22034880D01*
X6781733Y-22034880D02*
X6781733Y-22139642D01*
X7172209Y-21930118D02*
X7000781Y-22187261D01*
X7429352Y-21939642D02*
X7448400Y-21939642D01*
X7448400Y-21939642D02*
X7467447Y-21949166D01*
X7467447Y-21949166D02*
X7476971Y-21958689D01*
X7476971Y-21958689D02*
X7486495Y-21977737D01*
X7486495Y-21977737D02*
X7496019Y-22015832D01*
X7496019Y-22015832D02*
X7496019Y-22063451D01*
X7496019Y-22063451D02*
X7486495Y-22101547D01*
X7486495Y-22101547D02*
X7476971Y-22120594D01*
X7476971Y-22120594D02*
X7467447Y-22130118D01*
X7467447Y-22130118D02*
X7448400Y-22139642D01*
X7448400Y-22139642D02*
X7429352Y-22139642D01*
X7429352Y-22139642D02*
X7410304Y-22130118D01*
X7410304Y-22130118D02*
X7400781Y-22120594D01*
X7400781Y-22120594D02*
X7391257Y-22101547D01*
X7391257Y-22101547D02*
X7381733Y-22063451D01*
X7381733Y-22063451D02*
X7381733Y-22015832D01*
X7381733Y-22015832D02*
X7391257Y-21977737D01*
X7391257Y-21977737D02*
X7400781Y-21958689D01*
X7400781Y-21958689D02*
X7410304Y-21949166D01*
X7410304Y-21949166D02*
X7429352Y-21939642D01*
X7581733Y-22120594D02*
X7591257Y-22130118D01*
X7591257Y-22130118D02*
X7581733Y-22139642D01*
X7581733Y-22139642D02*
X7572209Y-22130118D01*
X7572209Y-22130118D02*
X7581733Y-22120594D01*
X7581733Y-22120594D02*
X7581733Y-22139642D01*
X7715066Y-21939642D02*
X7734114Y-21939642D01*
X7734114Y-21939642D02*
X7753162Y-21949166D01*
X7753162Y-21949166D02*
X7762685Y-21958689D01*
X7762685Y-21958689D02*
X7772209Y-21977737D01*
X7772209Y-21977737D02*
X7781733Y-22015832D01*
X7781733Y-22015832D02*
X7781733Y-22063451D01*
X7781733Y-22063451D02*
X7772209Y-22101547D01*
X7772209Y-22101547D02*
X7762685Y-22120594D01*
X7762685Y-22120594D02*
X7753162Y-22130118D01*
X7753162Y-22130118D02*
X7734114Y-22139642D01*
X7734114Y-22139642D02*
X7715066Y-22139642D01*
X7715066Y-22139642D02*
X7696019Y-22130118D01*
X7696019Y-22130118D02*
X7686495Y-22120594D01*
X7686495Y-22120594D02*
X7676971Y-22101547D01*
X7676971Y-22101547D02*
X7667447Y-22063451D01*
X7667447Y-22063451D02*
X7667447Y-22015832D01*
X7667447Y-22015832D02*
X7676971Y-21977737D01*
X7676971Y-21977737D02*
X7686495Y-21958689D01*
X7686495Y-21958689D02*
X7696019Y-21949166D01*
X7696019Y-21949166D02*
X7715066Y-21939642D01*
X7896019Y-22025356D02*
X7876971Y-22015832D01*
X7876971Y-22015832D02*
X7867447Y-22006308D01*
X7867447Y-22006308D02*
X7857924Y-21987261D01*
X7857924Y-21987261D02*
X7857924Y-21977737D01*
X7857924Y-21977737D02*
X7867447Y-21958689D01*
X7867447Y-21958689D02*
X7876971Y-21949166D01*
X7876971Y-21949166D02*
X7896019Y-21939642D01*
X7896019Y-21939642D02*
X7934114Y-21939642D01*
X7934114Y-21939642D02*
X7953162Y-21949166D01*
X7953162Y-21949166D02*
X7962685Y-21958689D01*
X7962685Y-21958689D02*
X7972209Y-21977737D01*
X7972209Y-21977737D02*
X7972209Y-21987261D01*
X7972209Y-21987261D02*
X7962685Y-22006308D01*
X7962685Y-22006308D02*
X7953162Y-22015832D01*
X7953162Y-22015832D02*
X7934114Y-22025356D01*
X7934114Y-22025356D02*
X7896019Y-22025356D01*
X7896019Y-22025356D02*
X7876971Y-22034880D01*
X7876971Y-22034880D02*
X7867447Y-22044404D01*
X7867447Y-22044404D02*
X7857924Y-22063451D01*
X7857924Y-22063451D02*
X7857924Y-22101547D01*
X7857924Y-22101547D02*
X7867447Y-22120594D01*
X7867447Y-22120594D02*
X7876971Y-22130118D01*
X7876971Y-22130118D02*
X7896019Y-22139642D01*
X7896019Y-22139642D02*
X7934114Y-22139642D01*
X7934114Y-22139642D02*
X7953162Y-22130118D01*
X7953162Y-22130118D02*
X7962685Y-22120594D01*
X7962685Y-22120594D02*
X7972209Y-22101547D01*
X7972209Y-22101547D02*
X7972209Y-22063451D01*
X7972209Y-22063451D02*
X7962685Y-22044404D01*
X7962685Y-22044404D02*
X7953162Y-22034880D01*
X7953162Y-22034880D02*
X7934114Y-22025356D01*
X8143638Y-21939642D02*
X8105543Y-21939642D01*
X8105543Y-21939642D02*
X8086495Y-21949166D01*
X8086495Y-21949166D02*
X8076971Y-21958689D01*
X8076971Y-21958689D02*
X8057924Y-21987261D01*
X8057924Y-21987261D02*
X8048400Y-22025356D01*
X8048400Y-22025356D02*
X8048400Y-22101547D01*
X8048400Y-22101547D02*
X8057924Y-22120594D01*
X8057924Y-22120594D02*
X8067447Y-22130118D01*
X8067447Y-22130118D02*
X8086495Y-22139642D01*
X8086495Y-22139642D02*
X8124590Y-22139642D01*
X8124590Y-22139642D02*
X8143638Y-22130118D01*
X8143638Y-22130118D02*
X8153162Y-22120594D01*
X8153162Y-22120594D02*
X8162685Y-22101547D01*
X8162685Y-22101547D02*
X8162685Y-22053928D01*
X8162685Y-22053928D02*
X8153162Y-22034880D01*
X8153162Y-22034880D02*
X8143638Y-22025356D01*
X8143638Y-22025356D02*
X8124590Y-22015832D01*
X8124590Y-22015832D02*
X8086495Y-22015832D01*
X8086495Y-22015832D02*
X8067447Y-22025356D01*
X8067447Y-22025356D02*
X8057924Y-22034880D01*
X8057924Y-22034880D02*
X8048400Y-22053928D01*
X8334114Y-21939642D02*
X8296019Y-21939642D01*
X8296019Y-21939642D02*
X8276971Y-21949166D01*
X8276971Y-21949166D02*
X8267447Y-21958689D01*
X8267447Y-21958689D02*
X8248400Y-21987261D01*
X8248400Y-21987261D02*
X8238876Y-22025356D01*
X8238876Y-22025356D02*
X8238876Y-22101547D01*
X8238876Y-22101547D02*
X8248400Y-22120594D01*
X8248400Y-22120594D02*
X8257924Y-22130118D01*
X8257924Y-22130118D02*
X8276971Y-22139642D01*
X8276971Y-22139642D02*
X8315066Y-22139642D01*
X8315066Y-22139642D02*
X8334114Y-22130118D01*
X8334114Y-22130118D02*
X8343638Y-22120594D01*
X8343638Y-22120594D02*
X8353162Y-22101547D01*
X8353162Y-22101547D02*
X8353162Y-22053928D01*
X8353162Y-22053928D02*
X8343638Y-22034880D01*
X8343638Y-22034880D02*
X8334114Y-22025356D01*
X8334114Y-22025356D02*
X8315066Y-22015832D01*
X8315066Y-22015832D02*
X8276971Y-22015832D01*
X8276971Y-22015832D02*
X8257924Y-22025356D01*
X8257924Y-22025356D02*
X8248400Y-22034880D01*
X8248400Y-22034880D02*
X8238876Y-22053928D01*
X8429352Y-21939642D02*
X8429352Y-21977737D01*
X8505543Y-21939642D02*
X8505543Y-21977737D01*
X8800781Y-22215832D02*
X8791257Y-22206308D01*
X8791257Y-22206308D02*
X8772209Y-22177737D01*
X8772209Y-22177737D02*
X8762686Y-22158689D01*
X8762686Y-22158689D02*
X8753162Y-22130118D01*
X8753162Y-22130118D02*
X8743638Y-22082499D01*
X8743638Y-22082499D02*
X8743638Y-22044404D01*
X8743638Y-22044404D02*
X8753162Y-21996785D01*
X8753162Y-21996785D02*
X8762686Y-21968213D01*
X8762686Y-21968213D02*
X8772209Y-21949166D01*
X8772209Y-21949166D02*
X8791257Y-21920594D01*
X8791257Y-21920594D02*
X8800781Y-21911070D01*
X8972209Y-21939642D02*
X8876971Y-21939642D01*
X8876971Y-21939642D02*
X8867448Y-22034880D01*
X8867448Y-22034880D02*
X8876971Y-22025356D01*
X8876971Y-22025356D02*
X8896019Y-22015832D01*
X8896019Y-22015832D02*
X8943638Y-22015832D01*
X8943638Y-22015832D02*
X8962686Y-22025356D01*
X8962686Y-22025356D02*
X8972209Y-22034880D01*
X8972209Y-22034880D02*
X8981733Y-22053928D01*
X8981733Y-22053928D02*
X8981733Y-22101547D01*
X8981733Y-22101547D02*
X8972209Y-22120594D01*
X8972209Y-22120594D02*
X8962686Y-22130118D01*
X8962686Y-22130118D02*
X8943638Y-22139642D01*
X8943638Y-22139642D02*
X8896019Y-22139642D01*
X8896019Y-22139642D02*
X8876971Y-22130118D01*
X8876971Y-22130118D02*
X8867448Y-22120594D01*
X9219829Y-22139642D02*
X9219829Y-21939642D01*
X9305543Y-22139642D02*
X9305543Y-22034880D01*
X9305543Y-22034880D02*
X9296019Y-22015832D01*
X9296019Y-22015832D02*
X9276971Y-22006308D01*
X9276971Y-22006308D02*
X9248400Y-22006308D01*
X9248400Y-22006308D02*
X9229352Y-22015832D01*
X9229352Y-22015832D02*
X9219829Y-22025356D01*
X9429352Y-22139642D02*
X9410305Y-22130118D01*
X9410305Y-22130118D02*
X9400781Y-22120594D01*
X9400781Y-22120594D02*
X9391257Y-22101547D01*
X9391257Y-22101547D02*
X9391257Y-22044404D01*
X9391257Y-22044404D02*
X9400781Y-22025356D01*
X9400781Y-22025356D02*
X9410305Y-22015832D01*
X9410305Y-22015832D02*
X9429352Y-22006308D01*
X9429352Y-22006308D02*
X9457924Y-22006308D01*
X9457924Y-22006308D02*
X9476971Y-22015832D01*
X9476971Y-22015832D02*
X9486495Y-22025356D01*
X9486495Y-22025356D02*
X9496019Y-22044404D01*
X9496019Y-22044404D02*
X9496019Y-22101547D01*
X9496019Y-22101547D02*
X9486495Y-22120594D01*
X9486495Y-22120594D02*
X9476971Y-22130118D01*
X9476971Y-22130118D02*
X9457924Y-22139642D01*
X9457924Y-22139642D02*
X9429352Y-22139642D01*
X9610305Y-22139642D02*
X9591257Y-22130118D01*
X9591257Y-22130118D02*
X9581733Y-22111070D01*
X9581733Y-22111070D02*
X9581733Y-21939642D01*
X9762686Y-22130118D02*
X9743638Y-22139642D01*
X9743638Y-22139642D02*
X9705543Y-22139642D01*
X9705543Y-22139642D02*
X9686495Y-22130118D01*
X9686495Y-22130118D02*
X9676971Y-22111070D01*
X9676971Y-22111070D02*
X9676971Y-22034880D01*
X9676971Y-22034880D02*
X9686495Y-22015832D01*
X9686495Y-22015832D02*
X9705543Y-22006308D01*
X9705543Y-22006308D02*
X9743638Y-22006308D01*
X9743638Y-22006308D02*
X9762686Y-22015832D01*
X9762686Y-22015832D02*
X9772210Y-22034880D01*
X9772210Y-22034880D02*
X9772210Y-22053928D01*
X9772210Y-22053928D02*
X9676971Y-22072975D01*
X9848400Y-22130118D02*
X9867448Y-22139642D01*
X9867448Y-22139642D02*
X9905543Y-22139642D01*
X9905543Y-22139642D02*
X9924591Y-22130118D01*
X9924591Y-22130118D02*
X9934114Y-22111070D01*
X9934114Y-22111070D02*
X9934114Y-22101547D01*
X9934114Y-22101547D02*
X9924591Y-22082499D01*
X9924591Y-22082499D02*
X9905543Y-22072975D01*
X9905543Y-22072975D02*
X9876971Y-22072975D01*
X9876971Y-22072975D02*
X9857924Y-22063451D01*
X9857924Y-22063451D02*
X9848400Y-22044404D01*
X9848400Y-22044404D02*
X9848400Y-22034880D01*
X9848400Y-22034880D02*
X9857924Y-22015832D01*
X9857924Y-22015832D02*
X9876971Y-22006308D01*
X9876971Y-22006308D02*
X9905543Y-22006308D01*
X9905543Y-22006308D02*
X9924591Y-22015832D01*
X10000781Y-22215832D02*
X10010305Y-22206308D01*
X10010305Y-22206308D02*
X10029352Y-22177737D01*
X10029352Y-22177737D02*
X10038876Y-22158689D01*
X10038876Y-22158689D02*
X10048400Y-22130118D01*
X10048400Y-22130118D02*
X10057924Y-22082499D01*
X10057924Y-22082499D02*
X10057924Y-22044404D01*
X10057924Y-22044404D02*
X10048400Y-21996785D01*
X10048400Y-21996785D02*
X10038876Y-21968213D01*
X10038876Y-21968213D02*
X10029352Y-21949166D01*
X10029352Y-21949166D02*
X10010305Y-21920594D01*
X10010305Y-21920594D02*
X10000781Y-21911070D01*
X10362686Y-22215832D02*
X10353162Y-22206308D01*
X10353162Y-22206308D02*
X10334114Y-22177737D01*
X10334114Y-22177737D02*
X10324591Y-22158689D01*
X10324591Y-22158689D02*
X10315067Y-22130118D01*
X10315067Y-22130118D02*
X10305543Y-22082499D01*
X10305543Y-22082499D02*
X10305543Y-22044404D01*
X10305543Y-22044404D02*
X10315067Y-21996785D01*
X10315067Y-21996785D02*
X10324591Y-21968213D01*
X10324591Y-21968213D02*
X10334114Y-21949166D01*
X10334114Y-21949166D02*
X10353162Y-21920594D01*
X10353162Y-21920594D02*
X10362686Y-21911070D01*
X10438876Y-22006308D02*
X10438876Y-22139642D01*
X10438876Y-22025356D02*
X10448400Y-22015832D01*
X10448400Y-22015832D02*
X10467448Y-22006308D01*
X10467448Y-22006308D02*
X10496019Y-22006308D01*
X10496019Y-22006308D02*
X10515067Y-22015832D01*
X10515067Y-22015832D02*
X10524591Y-22034880D01*
X10524591Y-22034880D02*
X10524591Y-22139642D01*
X10648400Y-22139642D02*
X10629352Y-22130118D01*
X10629352Y-22130118D02*
X10619829Y-22120594D01*
X10619829Y-22120594D02*
X10610305Y-22101547D01*
X10610305Y-22101547D02*
X10610305Y-22044404D01*
X10610305Y-22044404D02*
X10619829Y-22025356D01*
X10619829Y-22025356D02*
X10629352Y-22015832D01*
X10629352Y-22015832D02*
X10648400Y-22006308D01*
X10648400Y-22006308D02*
X10676972Y-22006308D01*
X10676972Y-22006308D02*
X10696019Y-22015832D01*
X10696019Y-22015832D02*
X10705543Y-22025356D01*
X10705543Y-22025356D02*
X10715067Y-22044404D01*
X10715067Y-22044404D02*
X10715067Y-22101547D01*
X10715067Y-22101547D02*
X10705543Y-22120594D01*
X10705543Y-22120594D02*
X10696019Y-22130118D01*
X10696019Y-22130118D02*
X10676972Y-22139642D01*
X10676972Y-22139642D02*
X10648400Y-22139642D01*
X10772210Y-22006308D02*
X10848400Y-22006308D01*
X10800781Y-21939642D02*
X10800781Y-22111070D01*
X10800781Y-22111070D02*
X10810305Y-22130118D01*
X10810305Y-22130118D02*
X10829352Y-22139642D01*
X10829352Y-22139642D02*
X10848400Y-22139642D01*
X11067448Y-22006308D02*
X11067448Y-22206308D01*
X11067448Y-22015832D02*
X11086495Y-22006308D01*
X11086495Y-22006308D02*
X11124591Y-22006308D01*
X11124591Y-22006308D02*
X11143638Y-22015832D01*
X11143638Y-22015832D02*
X11153162Y-22025356D01*
X11153162Y-22025356D02*
X11162686Y-22044404D01*
X11162686Y-22044404D02*
X11162686Y-22101547D01*
X11162686Y-22101547D02*
X11153162Y-22120594D01*
X11153162Y-22120594D02*
X11143638Y-22130118D01*
X11143638Y-22130118D02*
X11124591Y-22139642D01*
X11124591Y-22139642D02*
X11086495Y-22139642D01*
X11086495Y-22139642D02*
X11067448Y-22130118D01*
X11276971Y-22139642D02*
X11257924Y-22130118D01*
X11257924Y-22130118D02*
X11248400Y-22111070D01*
X11248400Y-22111070D02*
X11248400Y-21939642D01*
X11438876Y-22139642D02*
X11438876Y-22034880D01*
X11438876Y-22034880D02*
X11429352Y-22015832D01*
X11429352Y-22015832D02*
X11410305Y-22006308D01*
X11410305Y-22006308D02*
X11372210Y-22006308D01*
X11372210Y-22006308D02*
X11353162Y-22015832D01*
X11438876Y-22130118D02*
X11419829Y-22139642D01*
X11419829Y-22139642D02*
X11372210Y-22139642D01*
X11372210Y-22139642D02*
X11353162Y-22130118D01*
X11353162Y-22130118D02*
X11343638Y-22111070D01*
X11343638Y-22111070D02*
X11343638Y-22092023D01*
X11343638Y-22092023D02*
X11353162Y-22072975D01*
X11353162Y-22072975D02*
X11372210Y-22063451D01*
X11372210Y-22063451D02*
X11419829Y-22063451D01*
X11419829Y-22063451D02*
X11438876Y-22053928D01*
X11505543Y-22006308D02*
X11581733Y-22006308D01*
X11534114Y-21939642D02*
X11534114Y-22111070D01*
X11534114Y-22111070D02*
X11543638Y-22130118D01*
X11543638Y-22130118D02*
X11562686Y-22139642D01*
X11562686Y-22139642D02*
X11581733Y-22139642D01*
X11724591Y-22130118D02*
X11705543Y-22139642D01*
X11705543Y-22139642D02*
X11667448Y-22139642D01*
X11667448Y-22139642D02*
X11648400Y-22130118D01*
X11648400Y-22130118D02*
X11638876Y-22111070D01*
X11638876Y-22111070D02*
X11638876Y-22034880D01*
X11638876Y-22034880D02*
X11648400Y-22015832D01*
X11648400Y-22015832D02*
X11667448Y-22006308D01*
X11667448Y-22006308D02*
X11705543Y-22006308D01*
X11705543Y-22006308D02*
X11724591Y-22015832D01*
X11724591Y-22015832D02*
X11734114Y-22034880D01*
X11734114Y-22034880D02*
X11734114Y-22053928D01*
X11734114Y-22053928D02*
X11638876Y-22072975D01*
X11905543Y-22139642D02*
X11905543Y-21939642D01*
X11905543Y-22130118D02*
X11886495Y-22139642D01*
X11886495Y-22139642D02*
X11848400Y-22139642D01*
X11848400Y-22139642D02*
X11829352Y-22130118D01*
X11829352Y-22130118D02*
X11819829Y-22120594D01*
X11819829Y-22120594D02*
X11810305Y-22101547D01*
X11810305Y-22101547D02*
X11810305Y-22044404D01*
X11810305Y-22044404D02*
X11819829Y-22025356D01*
X11819829Y-22025356D02*
X11829352Y-22015832D01*
X11829352Y-22015832D02*
X11848400Y-22006308D01*
X11848400Y-22006308D02*
X11886495Y-22006308D01*
X11886495Y-22006308D02*
X11905543Y-22015832D01*
X11981733Y-22215832D02*
X11991257Y-22206308D01*
X11991257Y-22206308D02*
X12010305Y-22177737D01*
X12010305Y-22177737D02*
X12019829Y-22158689D01*
X12019829Y-22158689D02*
X12029352Y-22130118D01*
X12029352Y-22130118D02*
X12038876Y-22082499D01*
X12038876Y-22082499D02*
X12038876Y-22044404D01*
X12038876Y-22044404D02*
X12029352Y-21996785D01*
X12029352Y-21996785D02*
X12019829Y-21968213D01*
X12019829Y-21968213D02*
X12010305Y-21949166D01*
X12010305Y-21949166D02*
X11991257Y-21920594D01*
X11991257Y-21920594D02*
X11981733Y-21911070D01*
X5125718Y-22468158D02*
X5225718Y-22368158D01*
X5125718Y-22268158D01*
X5025718Y-22368158D01*
X5125718Y-22468158D01*
X5467447Y-22259642D02*
X5591257Y-22259642D01*
X5591257Y-22259642D02*
X5524590Y-22335832D01*
X5524590Y-22335832D02*
X5553162Y-22335832D01*
X5553162Y-22335832D02*
X5572209Y-22345356D01*
X5572209Y-22345356D02*
X5581733Y-22354880D01*
X5581733Y-22354880D02*
X5591257Y-22373927D01*
X5591257Y-22373927D02*
X5591257Y-22421546D01*
X5591257Y-22421546D02*
X5581733Y-22440594D01*
X5581733Y-22440594D02*
X5572209Y-22450118D01*
X5572209Y-22450118D02*
X5553162Y-22459642D01*
X5553162Y-22459642D02*
X5496019Y-22459642D01*
X5496019Y-22459642D02*
X5476971Y-22450118D01*
X5476971Y-22450118D02*
X5467447Y-22440594D01*
X5676971Y-22440594D02*
X5686495Y-22450118D01*
X5686495Y-22450118D02*
X5676971Y-22459642D01*
X5676971Y-22459642D02*
X5667447Y-22450118D01*
X5667447Y-22450118D02*
X5676971Y-22440594D01*
X5676971Y-22440594D02*
X5676971Y-22459642D01*
X5810304Y-22259642D02*
X5829352Y-22259642D01*
X5829352Y-22259642D02*
X5848400Y-22269166D01*
X5848400Y-22269166D02*
X5857923Y-22278689D01*
X5857923Y-22278689D02*
X5867447Y-22297737D01*
X5867447Y-22297737D02*
X5876971Y-22335832D01*
X5876971Y-22335832D02*
X5876971Y-22383451D01*
X5876971Y-22383451D02*
X5867447Y-22421546D01*
X5867447Y-22421546D02*
X5857923Y-22440594D01*
X5857923Y-22440594D02*
X5848400Y-22450118D01*
X5848400Y-22450118D02*
X5829352Y-22459642D01*
X5829352Y-22459642D02*
X5810304Y-22459642D01*
X5810304Y-22459642D02*
X5791257Y-22450118D01*
X5791257Y-22450118D02*
X5781733Y-22440594D01*
X5781733Y-22440594D02*
X5772209Y-22421546D01*
X5772209Y-22421546D02*
X5762685Y-22383451D01*
X5762685Y-22383451D02*
X5762685Y-22335832D01*
X5762685Y-22335832D02*
X5772209Y-22297737D01*
X5772209Y-22297737D02*
X5781733Y-22278689D01*
X5781733Y-22278689D02*
X5791257Y-22269166D01*
X5791257Y-22269166D02*
X5810304Y-22259642D01*
X6057923Y-22259642D02*
X5962685Y-22259642D01*
X5962685Y-22259642D02*
X5953161Y-22354880D01*
X5953161Y-22354880D02*
X5962685Y-22345356D01*
X5962685Y-22345356D02*
X5981733Y-22335832D01*
X5981733Y-22335832D02*
X6029352Y-22335832D01*
X6029352Y-22335832D02*
X6048400Y-22345356D01*
X6048400Y-22345356D02*
X6057923Y-22354880D01*
X6057923Y-22354880D02*
X6067447Y-22373927D01*
X6067447Y-22373927D02*
X6067447Y-22421546D01*
X6067447Y-22421546D02*
X6057923Y-22440594D01*
X6057923Y-22440594D02*
X6048400Y-22450118D01*
X6048400Y-22450118D02*
X6029352Y-22459642D01*
X6029352Y-22459642D02*
X5981733Y-22459642D01*
X5981733Y-22459642D02*
X5962685Y-22450118D01*
X5962685Y-22450118D02*
X5953161Y-22440594D01*
X6191257Y-22259642D02*
X6210304Y-22259642D01*
X6210304Y-22259642D02*
X6229352Y-22269166D01*
X6229352Y-22269166D02*
X6238876Y-22278689D01*
X6238876Y-22278689D02*
X6248400Y-22297737D01*
X6248400Y-22297737D02*
X6257923Y-22335832D01*
X6257923Y-22335832D02*
X6257923Y-22383451D01*
X6257923Y-22383451D02*
X6248400Y-22421546D01*
X6248400Y-22421546D02*
X6238876Y-22440594D01*
X6238876Y-22440594D02*
X6229352Y-22450118D01*
X6229352Y-22450118D02*
X6210304Y-22459642D01*
X6210304Y-22459642D02*
X6191257Y-22459642D01*
X6191257Y-22459642D02*
X6172209Y-22450118D01*
X6172209Y-22450118D02*
X6162685Y-22440594D01*
X6162685Y-22440594D02*
X6153161Y-22421546D01*
X6153161Y-22421546D02*
X6143638Y-22383451D01*
X6143638Y-22383451D02*
X6143638Y-22335832D01*
X6143638Y-22335832D02*
X6153161Y-22297737D01*
X6153161Y-22297737D02*
X6162685Y-22278689D01*
X6162685Y-22278689D02*
X6172209Y-22269166D01*
X6172209Y-22269166D02*
X6191257Y-22259642D01*
X6343638Y-22459642D02*
X6343638Y-22326308D01*
X6343638Y-22345356D02*
X6353161Y-22335832D01*
X6353161Y-22335832D02*
X6372209Y-22326308D01*
X6372209Y-22326308D02*
X6400781Y-22326308D01*
X6400781Y-22326308D02*
X6419828Y-22335832D01*
X6419828Y-22335832D02*
X6429352Y-22354880D01*
X6429352Y-22354880D02*
X6429352Y-22459642D01*
X6429352Y-22354880D02*
X6438876Y-22335832D01*
X6438876Y-22335832D02*
X6457923Y-22326308D01*
X6457923Y-22326308D02*
X6486495Y-22326308D01*
X6486495Y-22326308D02*
X6505542Y-22335832D01*
X6505542Y-22335832D02*
X6515066Y-22354880D01*
X6515066Y-22354880D02*
X6515066Y-22459642D01*
X6610304Y-22459642D02*
X6610304Y-22326308D01*
X6610304Y-22345356D02*
X6619828Y-22335832D01*
X6619828Y-22335832D02*
X6638876Y-22326308D01*
X6638876Y-22326308D02*
X6667447Y-22326308D01*
X6667447Y-22326308D02*
X6686495Y-22335832D01*
X6686495Y-22335832D02*
X6696019Y-22354880D01*
X6696019Y-22354880D02*
X6696019Y-22459642D01*
X6696019Y-22354880D02*
X6705542Y-22335832D01*
X6705542Y-22335832D02*
X6724590Y-22326308D01*
X6724590Y-22326308D02*
X6753161Y-22326308D01*
X6753161Y-22326308D02*
X6772209Y-22335832D01*
X6772209Y-22335832D02*
X6781733Y-22354880D01*
X6781733Y-22354880D02*
X6781733Y-22459642D01*
X7172209Y-22250118D02*
X7000781Y-22507261D01*
X7429352Y-22259642D02*
X7448400Y-22259642D01*
X7448400Y-22259642D02*
X7467447Y-22269166D01*
X7467447Y-22269166D02*
X7476971Y-22278689D01*
X7476971Y-22278689D02*
X7486495Y-22297737D01*
X7486495Y-22297737D02*
X7496019Y-22335832D01*
X7496019Y-22335832D02*
X7496019Y-22383451D01*
X7496019Y-22383451D02*
X7486495Y-22421546D01*
X7486495Y-22421546D02*
X7476971Y-22440594D01*
X7476971Y-22440594D02*
X7467447Y-22450118D01*
X7467447Y-22450118D02*
X7448400Y-22459642D01*
X7448400Y-22459642D02*
X7429352Y-22459642D01*
X7429352Y-22459642D02*
X7410304Y-22450118D01*
X7410304Y-22450118D02*
X7400781Y-22440594D01*
X7400781Y-22440594D02*
X7391257Y-22421546D01*
X7391257Y-22421546D02*
X7381733Y-22383451D01*
X7381733Y-22383451D02*
X7381733Y-22335832D01*
X7381733Y-22335832D02*
X7391257Y-22297737D01*
X7391257Y-22297737D02*
X7400781Y-22278689D01*
X7400781Y-22278689D02*
X7410304Y-22269166D01*
X7410304Y-22269166D02*
X7429352Y-22259642D01*
X7581733Y-22440594D02*
X7591257Y-22450118D01*
X7591257Y-22450118D02*
X7581733Y-22459642D01*
X7581733Y-22459642D02*
X7572209Y-22450118D01*
X7572209Y-22450118D02*
X7581733Y-22440594D01*
X7581733Y-22440594D02*
X7581733Y-22459642D01*
X7781733Y-22459642D02*
X7667447Y-22459642D01*
X7724590Y-22459642D02*
X7724590Y-22259642D01*
X7724590Y-22259642D02*
X7705543Y-22288213D01*
X7705543Y-22288213D02*
X7686495Y-22307261D01*
X7686495Y-22307261D02*
X7667447Y-22316785D01*
X7857924Y-22278689D02*
X7867447Y-22269166D01*
X7867447Y-22269166D02*
X7886495Y-22259642D01*
X7886495Y-22259642D02*
X7934114Y-22259642D01*
X7934114Y-22259642D02*
X7953162Y-22269166D01*
X7953162Y-22269166D02*
X7962685Y-22278689D01*
X7962685Y-22278689D02*
X7972209Y-22297737D01*
X7972209Y-22297737D02*
X7972209Y-22316785D01*
X7972209Y-22316785D02*
X7962685Y-22345356D01*
X7962685Y-22345356D02*
X7848400Y-22459642D01*
X7848400Y-22459642D02*
X7972209Y-22459642D01*
X8096019Y-22259642D02*
X8115066Y-22259642D01*
X8115066Y-22259642D02*
X8134114Y-22269166D01*
X8134114Y-22269166D02*
X8143638Y-22278689D01*
X8143638Y-22278689D02*
X8153162Y-22297737D01*
X8153162Y-22297737D02*
X8162685Y-22335832D01*
X8162685Y-22335832D02*
X8162685Y-22383451D01*
X8162685Y-22383451D02*
X8153162Y-22421546D01*
X8153162Y-22421546D02*
X8143638Y-22440594D01*
X8143638Y-22440594D02*
X8134114Y-22450118D01*
X8134114Y-22450118D02*
X8115066Y-22459642D01*
X8115066Y-22459642D02*
X8096019Y-22459642D01*
X8096019Y-22459642D02*
X8076971Y-22450118D01*
X8076971Y-22450118D02*
X8067447Y-22440594D01*
X8067447Y-22440594D02*
X8057924Y-22421546D01*
X8057924Y-22421546D02*
X8048400Y-22383451D01*
X8048400Y-22383451D02*
X8048400Y-22335832D01*
X8048400Y-22335832D02*
X8057924Y-22297737D01*
X8057924Y-22297737D02*
X8067447Y-22278689D01*
X8067447Y-22278689D02*
X8076971Y-22269166D01*
X8076971Y-22269166D02*
X8096019Y-22259642D01*
X8353162Y-22459642D02*
X8238876Y-22459642D01*
X8296019Y-22459642D02*
X8296019Y-22259642D01*
X8296019Y-22259642D02*
X8276971Y-22288213D01*
X8276971Y-22288213D02*
X8257924Y-22307261D01*
X8257924Y-22307261D02*
X8238876Y-22316785D01*
X8429352Y-22259642D02*
X8429352Y-22297737D01*
X8505543Y-22259642D02*
X8505543Y-22297737D01*
X8800781Y-22535832D02*
X8791257Y-22526308D01*
X8791257Y-22526308D02*
X8772209Y-22497737D01*
X8772209Y-22497737D02*
X8762686Y-22478689D01*
X8762686Y-22478689D02*
X8753162Y-22450118D01*
X8753162Y-22450118D02*
X8743638Y-22402499D01*
X8743638Y-22402499D02*
X8743638Y-22364404D01*
X8743638Y-22364404D02*
X8753162Y-22316785D01*
X8753162Y-22316785D02*
X8762686Y-22288213D01*
X8762686Y-22288213D02*
X8772209Y-22269166D01*
X8772209Y-22269166D02*
X8791257Y-22240594D01*
X8791257Y-22240594D02*
X8800781Y-22231070D01*
X8857924Y-22259642D02*
X8981733Y-22259642D01*
X8981733Y-22259642D02*
X8915067Y-22335832D01*
X8915067Y-22335832D02*
X8943638Y-22335832D01*
X8943638Y-22335832D02*
X8962686Y-22345356D01*
X8962686Y-22345356D02*
X8972209Y-22354880D01*
X8972209Y-22354880D02*
X8981733Y-22373927D01*
X8981733Y-22373927D02*
X8981733Y-22421546D01*
X8981733Y-22421546D02*
X8972209Y-22440594D01*
X8972209Y-22440594D02*
X8962686Y-22450118D01*
X8962686Y-22450118D02*
X8943638Y-22459642D01*
X8943638Y-22459642D02*
X8886495Y-22459642D01*
X8886495Y-22459642D02*
X8867448Y-22450118D01*
X8867448Y-22450118D02*
X8857924Y-22440594D01*
X9057924Y-22278689D02*
X9067448Y-22269166D01*
X9067448Y-22269166D02*
X9086495Y-22259642D01*
X9086495Y-22259642D02*
X9134114Y-22259642D01*
X9134114Y-22259642D02*
X9153162Y-22269166D01*
X9153162Y-22269166D02*
X9162686Y-22278689D01*
X9162686Y-22278689D02*
X9172209Y-22297737D01*
X9172209Y-22297737D02*
X9172209Y-22316785D01*
X9172209Y-22316785D02*
X9162686Y-22345356D01*
X9162686Y-22345356D02*
X9048400Y-22459642D01*
X9048400Y-22459642D02*
X9172209Y-22459642D01*
X9410305Y-22459642D02*
X9410305Y-22259642D01*
X9496019Y-22459642D02*
X9496019Y-22354880D01*
X9496019Y-22354880D02*
X9486495Y-22335832D01*
X9486495Y-22335832D02*
X9467448Y-22326308D01*
X9467448Y-22326308D02*
X9438876Y-22326308D01*
X9438876Y-22326308D02*
X9419829Y-22335832D01*
X9419829Y-22335832D02*
X9410305Y-22345356D01*
X9619829Y-22459642D02*
X9600781Y-22450118D01*
X9600781Y-22450118D02*
X9591257Y-22440594D01*
X9591257Y-22440594D02*
X9581733Y-22421546D01*
X9581733Y-22421546D02*
X9581733Y-22364404D01*
X9581733Y-22364404D02*
X9591257Y-22345356D01*
X9591257Y-22345356D02*
X9600781Y-22335832D01*
X9600781Y-22335832D02*
X9619829Y-22326308D01*
X9619829Y-22326308D02*
X9648400Y-22326308D01*
X9648400Y-22326308D02*
X9667448Y-22335832D01*
X9667448Y-22335832D02*
X9676971Y-22345356D01*
X9676971Y-22345356D02*
X9686495Y-22364404D01*
X9686495Y-22364404D02*
X9686495Y-22421546D01*
X9686495Y-22421546D02*
X9676971Y-22440594D01*
X9676971Y-22440594D02*
X9667448Y-22450118D01*
X9667448Y-22450118D02*
X9648400Y-22459642D01*
X9648400Y-22459642D02*
X9619829Y-22459642D01*
X9800781Y-22459642D02*
X9781733Y-22450118D01*
X9781733Y-22450118D02*
X9772210Y-22431070D01*
X9772210Y-22431070D02*
X9772210Y-22259642D01*
X9953162Y-22450118D02*
X9934114Y-22459642D01*
X9934114Y-22459642D02*
X9896019Y-22459642D01*
X9896019Y-22459642D02*
X9876971Y-22450118D01*
X9876971Y-22450118D02*
X9867448Y-22431070D01*
X9867448Y-22431070D02*
X9867448Y-22354880D01*
X9867448Y-22354880D02*
X9876971Y-22335832D01*
X9876971Y-22335832D02*
X9896019Y-22326308D01*
X9896019Y-22326308D02*
X9934114Y-22326308D01*
X9934114Y-22326308D02*
X9953162Y-22335832D01*
X9953162Y-22335832D02*
X9962686Y-22354880D01*
X9962686Y-22354880D02*
X9962686Y-22373927D01*
X9962686Y-22373927D02*
X9867448Y-22392975D01*
X10038876Y-22450118D02*
X10057924Y-22459642D01*
X10057924Y-22459642D02*
X10096019Y-22459642D01*
X10096019Y-22459642D02*
X10115067Y-22450118D01*
X10115067Y-22450118D02*
X10124591Y-22431070D01*
X10124591Y-22431070D02*
X10124591Y-22421546D01*
X10124591Y-22421546D02*
X10115067Y-22402499D01*
X10115067Y-22402499D02*
X10096019Y-22392975D01*
X10096019Y-22392975D02*
X10067448Y-22392975D01*
X10067448Y-22392975D02*
X10048400Y-22383451D01*
X10048400Y-22383451D02*
X10038876Y-22364404D01*
X10038876Y-22364404D02*
X10038876Y-22354880D01*
X10038876Y-22354880D02*
X10048400Y-22335832D01*
X10048400Y-22335832D02*
X10067448Y-22326308D01*
X10067448Y-22326308D02*
X10096019Y-22326308D01*
X10096019Y-22326308D02*
X10115067Y-22335832D01*
X10191257Y-22535832D02*
X10200781Y-22526308D01*
X10200781Y-22526308D02*
X10219829Y-22497737D01*
X10219829Y-22497737D02*
X10229352Y-22478689D01*
X10229352Y-22478689D02*
X10238876Y-22450118D01*
X10238876Y-22450118D02*
X10248400Y-22402499D01*
X10248400Y-22402499D02*
X10248400Y-22364404D01*
X10248400Y-22364404D02*
X10238876Y-22316785D01*
X10238876Y-22316785D02*
X10229352Y-22288213D01*
X10229352Y-22288213D02*
X10219829Y-22269166D01*
X10219829Y-22269166D02*
X10200781Y-22240594D01*
X10200781Y-22240594D02*
X10191257Y-22231070D01*
X10553162Y-22535832D02*
X10543638Y-22526308D01*
X10543638Y-22526308D02*
X10524591Y-22497737D01*
X10524591Y-22497737D02*
X10515067Y-22478689D01*
X10515067Y-22478689D02*
X10505543Y-22450118D01*
X10505543Y-22450118D02*
X10496019Y-22402499D01*
X10496019Y-22402499D02*
X10496019Y-22364404D01*
X10496019Y-22364404D02*
X10505543Y-22316785D01*
X10505543Y-22316785D02*
X10515067Y-22288213D01*
X10515067Y-22288213D02*
X10524591Y-22269166D01*
X10524591Y-22269166D02*
X10543638Y-22240594D01*
X10543638Y-22240594D02*
X10553162Y-22231070D01*
X10629352Y-22326308D02*
X10629352Y-22459642D01*
X10629352Y-22345356D02*
X10638876Y-22335832D01*
X10638876Y-22335832D02*
X10657924Y-22326308D01*
X10657924Y-22326308D02*
X10686495Y-22326308D01*
X10686495Y-22326308D02*
X10705543Y-22335832D01*
X10705543Y-22335832D02*
X10715067Y-22354880D01*
X10715067Y-22354880D02*
X10715067Y-22459642D01*
X10838876Y-22459642D02*
X10819829Y-22450118D01*
X10819829Y-22450118D02*
X10810305Y-22440594D01*
X10810305Y-22440594D02*
X10800781Y-22421546D01*
X10800781Y-22421546D02*
X10800781Y-22364404D01*
X10800781Y-22364404D02*
X10810305Y-22345356D01*
X10810305Y-22345356D02*
X10819829Y-22335832D01*
X10819829Y-22335832D02*
X10838876Y-22326308D01*
X10838876Y-22326308D02*
X10867448Y-22326308D01*
X10867448Y-22326308D02*
X10886495Y-22335832D01*
X10886495Y-22335832D02*
X10896019Y-22345356D01*
X10896019Y-22345356D02*
X10905543Y-22364404D01*
X10905543Y-22364404D02*
X10905543Y-22421546D01*
X10905543Y-22421546D02*
X10896019Y-22440594D01*
X10896019Y-22440594D02*
X10886495Y-22450118D01*
X10886495Y-22450118D02*
X10867448Y-22459642D01*
X10867448Y-22459642D02*
X10838876Y-22459642D01*
X10962686Y-22326308D02*
X11038876Y-22326308D01*
X10991257Y-22259642D02*
X10991257Y-22431070D01*
X10991257Y-22431070D02*
X11000781Y-22450118D01*
X11000781Y-22450118D02*
X11019829Y-22459642D01*
X11019829Y-22459642D02*
X11038876Y-22459642D01*
X11257924Y-22326308D02*
X11257924Y-22526308D01*
X11257924Y-22335832D02*
X11276971Y-22326308D01*
X11276971Y-22326308D02*
X11315067Y-22326308D01*
X11315067Y-22326308D02*
X11334114Y-22335832D01*
X11334114Y-22335832D02*
X11343638Y-22345356D01*
X11343638Y-22345356D02*
X11353162Y-22364404D01*
X11353162Y-22364404D02*
X11353162Y-22421546D01*
X11353162Y-22421546D02*
X11343638Y-22440594D01*
X11343638Y-22440594D02*
X11334114Y-22450118D01*
X11334114Y-22450118D02*
X11315067Y-22459642D01*
X11315067Y-22459642D02*
X11276971Y-22459642D01*
X11276971Y-22459642D02*
X11257924Y-22450118D01*
X11467448Y-22459642D02*
X11448400Y-22450118D01*
X11448400Y-22450118D02*
X11438876Y-22431070D01*
X11438876Y-22431070D02*
X11438876Y-22259642D01*
X11629352Y-22459642D02*
X11629352Y-22354880D01*
X11629352Y-22354880D02*
X11619829Y-22335832D01*
X11619829Y-22335832D02*
X11600781Y-22326308D01*
X11600781Y-22326308D02*
X11562686Y-22326308D01*
X11562686Y-22326308D02*
X11543638Y-22335832D01*
X11629352Y-22450118D02*
X11610305Y-22459642D01*
X11610305Y-22459642D02*
X11562686Y-22459642D01*
X11562686Y-22459642D02*
X11543638Y-22450118D01*
X11543638Y-22450118D02*
X11534114Y-22431070D01*
X11534114Y-22431070D02*
X11534114Y-22412023D01*
X11534114Y-22412023D02*
X11543638Y-22392975D01*
X11543638Y-22392975D02*
X11562686Y-22383451D01*
X11562686Y-22383451D02*
X11610305Y-22383451D01*
X11610305Y-22383451D02*
X11629352Y-22373927D01*
X11696019Y-22326308D02*
X11772210Y-22326308D01*
X11724591Y-22259642D02*
X11724591Y-22431070D01*
X11724591Y-22431070D02*
X11734114Y-22450118D01*
X11734114Y-22450118D02*
X11753162Y-22459642D01*
X11753162Y-22459642D02*
X11772210Y-22459642D01*
X11915067Y-22450118D02*
X11896019Y-22459642D01*
X11896019Y-22459642D02*
X11857924Y-22459642D01*
X11857924Y-22459642D02*
X11838876Y-22450118D01*
X11838876Y-22450118D02*
X11829352Y-22431070D01*
X11829352Y-22431070D02*
X11829352Y-22354880D01*
X11829352Y-22354880D02*
X11838876Y-22335832D01*
X11838876Y-22335832D02*
X11857924Y-22326308D01*
X11857924Y-22326308D02*
X11896019Y-22326308D01*
X11896019Y-22326308D02*
X11915067Y-22335832D01*
X11915067Y-22335832D02*
X11924591Y-22354880D01*
X11924591Y-22354880D02*
X11924591Y-22373927D01*
X11924591Y-22373927D02*
X11829352Y-22392975D01*
X12096019Y-22459642D02*
X12096019Y-22259642D01*
X12096019Y-22450118D02*
X12076972Y-22459642D01*
X12076972Y-22459642D02*
X12038876Y-22459642D01*
X12038876Y-22459642D02*
X12019829Y-22450118D01*
X12019829Y-22450118D02*
X12010305Y-22440594D01*
X12010305Y-22440594D02*
X12000781Y-22421546D01*
X12000781Y-22421546D02*
X12000781Y-22364404D01*
X12000781Y-22364404D02*
X12010305Y-22345356D01*
X12010305Y-22345356D02*
X12019829Y-22335832D01*
X12019829Y-22335832D02*
X12038876Y-22326308D01*
X12038876Y-22326308D02*
X12076972Y-22326308D01*
X12076972Y-22326308D02*
X12096019Y-22335832D01*
X12172210Y-22535832D02*
X12181733Y-22526308D01*
X12181733Y-22526308D02*
X12200781Y-22497737D01*
X12200781Y-22497737D02*
X12210305Y-22478689D01*
X12210305Y-22478689D02*
X12219829Y-22450118D01*
X12219829Y-22450118D02*
X12229352Y-22402499D01*
X12229352Y-22402499D02*
X12229352Y-22364404D01*
X12229352Y-22364404D02*
X12219829Y-22316785D01*
X12219829Y-22316785D02*
X12210305Y-22288213D01*
X12210305Y-22288213D02*
X12200781Y-22269166D01*
X12200781Y-22269166D02*
X12181733Y-22240594D01*
X12181733Y-22240594D02*
X12172210Y-22231070D01*
X5025718Y-22588158D02*
X5225718Y-22788158D01*
X5225718Y-22588158D02*
X5025718Y-22788158D01*
X5225718Y-22688158D02*
G75*
G02*
X5025718Y-22688158I-100000J0D01*
G01*
X5025718Y-22688158D02*
G75*
G02*
X5225718Y-22688158I100000J0D01*
G01*
X5581733Y-22579642D02*
X5486495Y-22579642D01*
X5486495Y-22579642D02*
X5476971Y-22674880D01*
X5476971Y-22674880D02*
X5486495Y-22665356D01*
X5486495Y-22665356D02*
X5505542Y-22655832D01*
X5505542Y-22655832D02*
X5553162Y-22655832D01*
X5553162Y-22655832D02*
X5572209Y-22665356D01*
X5572209Y-22665356D02*
X5581733Y-22674880D01*
X5581733Y-22674880D02*
X5591257Y-22693927D01*
X5591257Y-22693927D02*
X5591257Y-22741546D01*
X5591257Y-22741546D02*
X5581733Y-22760594D01*
X5581733Y-22760594D02*
X5572209Y-22770118D01*
X5572209Y-22770118D02*
X5553162Y-22779642D01*
X5553162Y-22779642D02*
X5505542Y-22779642D01*
X5505542Y-22779642D02*
X5486495Y-22770118D01*
X5486495Y-22770118D02*
X5476971Y-22760594D01*
X5676971Y-22760594D02*
X5686495Y-22770118D01*
X5686495Y-22770118D02*
X5676971Y-22779642D01*
X5676971Y-22779642D02*
X5667447Y-22770118D01*
X5667447Y-22770118D02*
X5676971Y-22760594D01*
X5676971Y-22760594D02*
X5676971Y-22779642D01*
X5810304Y-22579642D02*
X5829352Y-22579642D01*
X5829352Y-22579642D02*
X5848400Y-22589166D01*
X5848400Y-22589166D02*
X5857923Y-22598689D01*
X5857923Y-22598689D02*
X5867447Y-22617737D01*
X5867447Y-22617737D02*
X5876971Y-22655832D01*
X5876971Y-22655832D02*
X5876971Y-22703451D01*
X5876971Y-22703451D02*
X5867447Y-22741546D01*
X5867447Y-22741546D02*
X5857923Y-22760594D01*
X5857923Y-22760594D02*
X5848400Y-22770118D01*
X5848400Y-22770118D02*
X5829352Y-22779642D01*
X5829352Y-22779642D02*
X5810304Y-22779642D01*
X5810304Y-22779642D02*
X5791257Y-22770118D01*
X5791257Y-22770118D02*
X5781733Y-22760594D01*
X5781733Y-22760594D02*
X5772209Y-22741546D01*
X5772209Y-22741546D02*
X5762685Y-22703451D01*
X5762685Y-22703451D02*
X5762685Y-22655832D01*
X5762685Y-22655832D02*
X5772209Y-22617737D01*
X5772209Y-22617737D02*
X5781733Y-22598689D01*
X5781733Y-22598689D02*
X5791257Y-22589166D01*
X5791257Y-22589166D02*
X5810304Y-22579642D01*
X6057923Y-22579642D02*
X5962685Y-22579642D01*
X5962685Y-22579642D02*
X5953161Y-22674880D01*
X5953161Y-22674880D02*
X5962685Y-22665356D01*
X5962685Y-22665356D02*
X5981733Y-22655832D01*
X5981733Y-22655832D02*
X6029352Y-22655832D01*
X6029352Y-22655832D02*
X6048400Y-22665356D01*
X6048400Y-22665356D02*
X6057923Y-22674880D01*
X6057923Y-22674880D02*
X6067447Y-22693927D01*
X6067447Y-22693927D02*
X6067447Y-22741546D01*
X6067447Y-22741546D02*
X6057923Y-22760594D01*
X6057923Y-22760594D02*
X6048400Y-22770118D01*
X6048400Y-22770118D02*
X6029352Y-22779642D01*
X6029352Y-22779642D02*
X5981733Y-22779642D01*
X5981733Y-22779642D02*
X5962685Y-22770118D01*
X5962685Y-22770118D02*
X5953161Y-22760594D01*
X6191257Y-22579642D02*
X6210304Y-22579642D01*
X6210304Y-22579642D02*
X6229352Y-22589166D01*
X6229352Y-22589166D02*
X6238876Y-22598689D01*
X6238876Y-22598689D02*
X6248400Y-22617737D01*
X6248400Y-22617737D02*
X6257923Y-22655832D01*
X6257923Y-22655832D02*
X6257923Y-22703451D01*
X6257923Y-22703451D02*
X6248400Y-22741546D01*
X6248400Y-22741546D02*
X6238876Y-22760594D01*
X6238876Y-22760594D02*
X6229352Y-22770118D01*
X6229352Y-22770118D02*
X6210304Y-22779642D01*
X6210304Y-22779642D02*
X6191257Y-22779642D01*
X6191257Y-22779642D02*
X6172209Y-22770118D01*
X6172209Y-22770118D02*
X6162685Y-22760594D01*
X6162685Y-22760594D02*
X6153161Y-22741546D01*
X6153161Y-22741546D02*
X6143638Y-22703451D01*
X6143638Y-22703451D02*
X6143638Y-22655832D01*
X6143638Y-22655832D02*
X6153161Y-22617737D01*
X6153161Y-22617737D02*
X6162685Y-22598689D01*
X6162685Y-22598689D02*
X6172209Y-22589166D01*
X6172209Y-22589166D02*
X6191257Y-22579642D01*
X6343638Y-22779642D02*
X6343638Y-22646308D01*
X6343638Y-22665356D02*
X6353161Y-22655832D01*
X6353161Y-22655832D02*
X6372209Y-22646308D01*
X6372209Y-22646308D02*
X6400781Y-22646308D01*
X6400781Y-22646308D02*
X6419828Y-22655832D01*
X6419828Y-22655832D02*
X6429352Y-22674880D01*
X6429352Y-22674880D02*
X6429352Y-22779642D01*
X6429352Y-22674880D02*
X6438876Y-22655832D01*
X6438876Y-22655832D02*
X6457923Y-22646308D01*
X6457923Y-22646308D02*
X6486495Y-22646308D01*
X6486495Y-22646308D02*
X6505542Y-22655832D01*
X6505542Y-22655832D02*
X6515066Y-22674880D01*
X6515066Y-22674880D02*
X6515066Y-22779642D01*
X6610304Y-22779642D02*
X6610304Y-22646308D01*
X6610304Y-22665356D02*
X6619828Y-22655832D01*
X6619828Y-22655832D02*
X6638876Y-22646308D01*
X6638876Y-22646308D02*
X6667447Y-22646308D01*
X6667447Y-22646308D02*
X6686495Y-22655832D01*
X6686495Y-22655832D02*
X6696019Y-22674880D01*
X6696019Y-22674880D02*
X6696019Y-22779642D01*
X6696019Y-22674880D02*
X6705542Y-22655832D01*
X6705542Y-22655832D02*
X6724590Y-22646308D01*
X6724590Y-22646308D02*
X6753161Y-22646308D01*
X6753161Y-22646308D02*
X6772209Y-22655832D01*
X6772209Y-22655832D02*
X6781733Y-22674880D01*
X6781733Y-22674880D02*
X6781733Y-22779642D01*
X7172209Y-22570118D02*
X7000781Y-22827261D01*
X7429352Y-22579642D02*
X7448400Y-22579642D01*
X7448400Y-22579642D02*
X7467447Y-22589166D01*
X7467447Y-22589166D02*
X7476971Y-22598689D01*
X7476971Y-22598689D02*
X7486495Y-22617737D01*
X7486495Y-22617737D02*
X7496019Y-22655832D01*
X7496019Y-22655832D02*
X7496019Y-22703451D01*
X7496019Y-22703451D02*
X7486495Y-22741546D01*
X7486495Y-22741546D02*
X7476971Y-22760594D01*
X7476971Y-22760594D02*
X7467447Y-22770118D01*
X7467447Y-22770118D02*
X7448400Y-22779642D01*
X7448400Y-22779642D02*
X7429352Y-22779642D01*
X7429352Y-22779642D02*
X7410304Y-22770118D01*
X7410304Y-22770118D02*
X7400781Y-22760594D01*
X7400781Y-22760594D02*
X7391257Y-22741546D01*
X7391257Y-22741546D02*
X7381733Y-22703451D01*
X7381733Y-22703451D02*
X7381733Y-22655832D01*
X7381733Y-22655832D02*
X7391257Y-22617737D01*
X7391257Y-22617737D02*
X7400781Y-22598689D01*
X7400781Y-22598689D02*
X7410304Y-22589166D01*
X7410304Y-22589166D02*
X7429352Y-22579642D01*
X7581733Y-22760594D02*
X7591257Y-22770118D01*
X7591257Y-22770118D02*
X7581733Y-22779642D01*
X7581733Y-22779642D02*
X7572209Y-22770118D01*
X7572209Y-22770118D02*
X7581733Y-22760594D01*
X7581733Y-22760594D02*
X7581733Y-22779642D01*
X7781733Y-22779642D02*
X7667447Y-22779642D01*
X7724590Y-22779642D02*
X7724590Y-22579642D01*
X7724590Y-22579642D02*
X7705543Y-22608213D01*
X7705543Y-22608213D02*
X7686495Y-22627261D01*
X7686495Y-22627261D02*
X7667447Y-22636785D01*
X7876971Y-22779642D02*
X7915066Y-22779642D01*
X7915066Y-22779642D02*
X7934114Y-22770118D01*
X7934114Y-22770118D02*
X7943638Y-22760594D01*
X7943638Y-22760594D02*
X7962685Y-22732023D01*
X7962685Y-22732023D02*
X7972209Y-22693927D01*
X7972209Y-22693927D02*
X7972209Y-22617737D01*
X7972209Y-22617737D02*
X7962685Y-22598689D01*
X7962685Y-22598689D02*
X7953162Y-22589166D01*
X7953162Y-22589166D02*
X7934114Y-22579642D01*
X7934114Y-22579642D02*
X7896019Y-22579642D01*
X7896019Y-22579642D02*
X7876971Y-22589166D01*
X7876971Y-22589166D02*
X7867447Y-22598689D01*
X7867447Y-22598689D02*
X7857924Y-22617737D01*
X7857924Y-22617737D02*
X7857924Y-22665356D01*
X7857924Y-22665356D02*
X7867447Y-22684404D01*
X7867447Y-22684404D02*
X7876971Y-22693927D01*
X7876971Y-22693927D02*
X7896019Y-22703451D01*
X7896019Y-22703451D02*
X7934114Y-22703451D01*
X7934114Y-22703451D02*
X7953162Y-22693927D01*
X7953162Y-22693927D02*
X7962685Y-22684404D01*
X7962685Y-22684404D02*
X7972209Y-22665356D01*
X8086495Y-22665356D02*
X8067447Y-22655832D01*
X8067447Y-22655832D02*
X8057924Y-22646308D01*
X8057924Y-22646308D02*
X8048400Y-22627261D01*
X8048400Y-22627261D02*
X8048400Y-22617737D01*
X8048400Y-22617737D02*
X8057924Y-22598689D01*
X8057924Y-22598689D02*
X8067447Y-22589166D01*
X8067447Y-22589166D02*
X8086495Y-22579642D01*
X8086495Y-22579642D02*
X8124590Y-22579642D01*
X8124590Y-22579642D02*
X8143638Y-22589166D01*
X8143638Y-22589166D02*
X8153162Y-22598689D01*
X8153162Y-22598689D02*
X8162685Y-22617737D01*
X8162685Y-22617737D02*
X8162685Y-22627261D01*
X8162685Y-22627261D02*
X8153162Y-22646308D01*
X8153162Y-22646308D02*
X8143638Y-22655832D01*
X8143638Y-22655832D02*
X8124590Y-22665356D01*
X8124590Y-22665356D02*
X8086495Y-22665356D01*
X8086495Y-22665356D02*
X8067447Y-22674880D01*
X8067447Y-22674880D02*
X8057924Y-22684404D01*
X8057924Y-22684404D02*
X8048400Y-22703451D01*
X8048400Y-22703451D02*
X8048400Y-22741546D01*
X8048400Y-22741546D02*
X8057924Y-22760594D01*
X8057924Y-22760594D02*
X8067447Y-22770118D01*
X8067447Y-22770118D02*
X8086495Y-22779642D01*
X8086495Y-22779642D02*
X8124590Y-22779642D01*
X8124590Y-22779642D02*
X8143638Y-22770118D01*
X8143638Y-22770118D02*
X8153162Y-22760594D01*
X8153162Y-22760594D02*
X8162685Y-22741546D01*
X8162685Y-22741546D02*
X8162685Y-22703451D01*
X8162685Y-22703451D02*
X8153162Y-22684404D01*
X8153162Y-22684404D02*
X8143638Y-22674880D01*
X8143638Y-22674880D02*
X8124590Y-22665356D01*
X8276971Y-22665356D02*
X8257924Y-22655832D01*
X8257924Y-22655832D02*
X8248400Y-22646308D01*
X8248400Y-22646308D02*
X8238876Y-22627261D01*
X8238876Y-22627261D02*
X8238876Y-22617737D01*
X8238876Y-22617737D02*
X8248400Y-22598689D01*
X8248400Y-22598689D02*
X8257924Y-22589166D01*
X8257924Y-22589166D02*
X8276971Y-22579642D01*
X8276971Y-22579642D02*
X8315066Y-22579642D01*
X8315066Y-22579642D02*
X8334114Y-22589166D01*
X8334114Y-22589166D02*
X8343638Y-22598689D01*
X8343638Y-22598689D02*
X8353162Y-22617737D01*
X8353162Y-22617737D02*
X8353162Y-22627261D01*
X8353162Y-22627261D02*
X8343638Y-22646308D01*
X8343638Y-22646308D02*
X8334114Y-22655832D01*
X8334114Y-22655832D02*
X8315066Y-22665356D01*
X8315066Y-22665356D02*
X8276971Y-22665356D01*
X8276971Y-22665356D02*
X8257924Y-22674880D01*
X8257924Y-22674880D02*
X8248400Y-22684404D01*
X8248400Y-22684404D02*
X8238876Y-22703451D01*
X8238876Y-22703451D02*
X8238876Y-22741546D01*
X8238876Y-22741546D02*
X8248400Y-22760594D01*
X8248400Y-22760594D02*
X8257924Y-22770118D01*
X8257924Y-22770118D02*
X8276971Y-22779642D01*
X8276971Y-22779642D02*
X8315066Y-22779642D01*
X8315066Y-22779642D02*
X8334114Y-22770118D01*
X8334114Y-22770118D02*
X8343638Y-22760594D01*
X8343638Y-22760594D02*
X8353162Y-22741546D01*
X8353162Y-22741546D02*
X8353162Y-22703451D01*
X8353162Y-22703451D02*
X8343638Y-22684404D01*
X8343638Y-22684404D02*
X8334114Y-22674880D01*
X8334114Y-22674880D02*
X8315066Y-22665356D01*
X8429352Y-22579642D02*
X8429352Y-22617737D01*
X8505543Y-22579642D02*
X8505543Y-22617737D01*
X8800781Y-22855832D02*
X8791257Y-22846308D01*
X8791257Y-22846308D02*
X8772209Y-22817737D01*
X8772209Y-22817737D02*
X8762686Y-22798689D01*
X8762686Y-22798689D02*
X8753162Y-22770118D01*
X8753162Y-22770118D02*
X8743638Y-22722499D01*
X8743638Y-22722499D02*
X8743638Y-22684404D01*
X8743638Y-22684404D02*
X8753162Y-22636785D01*
X8753162Y-22636785D02*
X8762686Y-22608213D01*
X8762686Y-22608213D02*
X8772209Y-22589166D01*
X8772209Y-22589166D02*
X8791257Y-22560594D01*
X8791257Y-22560594D02*
X8800781Y-22551070D01*
X8981733Y-22779642D02*
X8867448Y-22779642D01*
X8924590Y-22779642D02*
X8924590Y-22579642D01*
X8924590Y-22579642D02*
X8905543Y-22608213D01*
X8905543Y-22608213D02*
X8886495Y-22627261D01*
X8886495Y-22627261D02*
X8867448Y-22636785D01*
X9153162Y-22579642D02*
X9115067Y-22579642D01*
X9115067Y-22579642D02*
X9096019Y-22589166D01*
X9096019Y-22589166D02*
X9086495Y-22598689D01*
X9086495Y-22598689D02*
X9067448Y-22627261D01*
X9067448Y-22627261D02*
X9057924Y-22665356D01*
X9057924Y-22665356D02*
X9057924Y-22741546D01*
X9057924Y-22741546D02*
X9067448Y-22760594D01*
X9067448Y-22760594D02*
X9076971Y-22770118D01*
X9076971Y-22770118D02*
X9096019Y-22779642D01*
X9096019Y-22779642D02*
X9134114Y-22779642D01*
X9134114Y-22779642D02*
X9153162Y-22770118D01*
X9153162Y-22770118D02*
X9162686Y-22760594D01*
X9162686Y-22760594D02*
X9172209Y-22741546D01*
X9172209Y-22741546D02*
X9172209Y-22693927D01*
X9172209Y-22693927D02*
X9162686Y-22674880D01*
X9162686Y-22674880D02*
X9153162Y-22665356D01*
X9153162Y-22665356D02*
X9134114Y-22655832D01*
X9134114Y-22655832D02*
X9096019Y-22655832D01*
X9096019Y-22655832D02*
X9076971Y-22665356D01*
X9076971Y-22665356D02*
X9067448Y-22674880D01*
X9067448Y-22674880D02*
X9057924Y-22693927D01*
X9410305Y-22779642D02*
X9410305Y-22579642D01*
X9496019Y-22779642D02*
X9496019Y-22674880D01*
X9496019Y-22674880D02*
X9486495Y-22655832D01*
X9486495Y-22655832D02*
X9467448Y-22646308D01*
X9467448Y-22646308D02*
X9438876Y-22646308D01*
X9438876Y-22646308D02*
X9419829Y-22655832D01*
X9419829Y-22655832D02*
X9410305Y-22665356D01*
X9619829Y-22779642D02*
X9600781Y-22770118D01*
X9600781Y-22770118D02*
X9591257Y-22760594D01*
X9591257Y-22760594D02*
X9581733Y-22741546D01*
X9581733Y-22741546D02*
X9581733Y-22684404D01*
X9581733Y-22684404D02*
X9591257Y-22665356D01*
X9591257Y-22665356D02*
X9600781Y-22655832D01*
X9600781Y-22655832D02*
X9619829Y-22646308D01*
X9619829Y-22646308D02*
X9648400Y-22646308D01*
X9648400Y-22646308D02*
X9667448Y-22655832D01*
X9667448Y-22655832D02*
X9676971Y-22665356D01*
X9676971Y-22665356D02*
X9686495Y-22684404D01*
X9686495Y-22684404D02*
X9686495Y-22741546D01*
X9686495Y-22741546D02*
X9676971Y-22760594D01*
X9676971Y-22760594D02*
X9667448Y-22770118D01*
X9667448Y-22770118D02*
X9648400Y-22779642D01*
X9648400Y-22779642D02*
X9619829Y-22779642D01*
X9800781Y-22779642D02*
X9781733Y-22770118D01*
X9781733Y-22770118D02*
X9772210Y-22751070D01*
X9772210Y-22751070D02*
X9772210Y-22579642D01*
X9953162Y-22770118D02*
X9934114Y-22779642D01*
X9934114Y-22779642D02*
X9896019Y-22779642D01*
X9896019Y-22779642D02*
X9876971Y-22770118D01*
X9876971Y-22770118D02*
X9867448Y-22751070D01*
X9867448Y-22751070D02*
X9867448Y-22674880D01*
X9867448Y-22674880D02*
X9876971Y-22655832D01*
X9876971Y-22655832D02*
X9896019Y-22646308D01*
X9896019Y-22646308D02*
X9934114Y-22646308D01*
X9934114Y-22646308D02*
X9953162Y-22655832D01*
X9953162Y-22655832D02*
X9962686Y-22674880D01*
X9962686Y-22674880D02*
X9962686Y-22693927D01*
X9962686Y-22693927D02*
X9867448Y-22712975D01*
X10038876Y-22770118D02*
X10057924Y-22779642D01*
X10057924Y-22779642D02*
X10096019Y-22779642D01*
X10096019Y-22779642D02*
X10115067Y-22770118D01*
X10115067Y-22770118D02*
X10124591Y-22751070D01*
X10124591Y-22751070D02*
X10124591Y-22741546D01*
X10124591Y-22741546D02*
X10115067Y-22722499D01*
X10115067Y-22722499D02*
X10096019Y-22712975D01*
X10096019Y-22712975D02*
X10067448Y-22712975D01*
X10067448Y-22712975D02*
X10048400Y-22703451D01*
X10048400Y-22703451D02*
X10038876Y-22684404D01*
X10038876Y-22684404D02*
X10038876Y-22674880D01*
X10038876Y-22674880D02*
X10048400Y-22655832D01*
X10048400Y-22655832D02*
X10067448Y-22646308D01*
X10067448Y-22646308D02*
X10096019Y-22646308D01*
X10096019Y-22646308D02*
X10115067Y-22655832D01*
X10191257Y-22855832D02*
X10200781Y-22846308D01*
X10200781Y-22846308D02*
X10219829Y-22817737D01*
X10219829Y-22817737D02*
X10229352Y-22798689D01*
X10229352Y-22798689D02*
X10238876Y-22770118D01*
X10238876Y-22770118D02*
X10248400Y-22722499D01*
X10248400Y-22722499D02*
X10248400Y-22684404D01*
X10248400Y-22684404D02*
X10238876Y-22636785D01*
X10238876Y-22636785D02*
X10229352Y-22608213D01*
X10229352Y-22608213D02*
X10219829Y-22589166D01*
X10219829Y-22589166D02*
X10200781Y-22560594D01*
X10200781Y-22560594D02*
X10191257Y-22551070D01*
X10553162Y-22855832D02*
X10543638Y-22846308D01*
X10543638Y-22846308D02*
X10524591Y-22817737D01*
X10524591Y-22817737D02*
X10515067Y-22798689D01*
X10515067Y-22798689D02*
X10505543Y-22770118D01*
X10505543Y-22770118D02*
X10496019Y-22722499D01*
X10496019Y-22722499D02*
X10496019Y-22684404D01*
X10496019Y-22684404D02*
X10505543Y-22636785D01*
X10505543Y-22636785D02*
X10515067Y-22608213D01*
X10515067Y-22608213D02*
X10524591Y-22589166D01*
X10524591Y-22589166D02*
X10543638Y-22560594D01*
X10543638Y-22560594D02*
X10553162Y-22551070D01*
X10629352Y-22646308D02*
X10629352Y-22779642D01*
X10629352Y-22665356D02*
X10638876Y-22655832D01*
X10638876Y-22655832D02*
X10657924Y-22646308D01*
X10657924Y-22646308D02*
X10686495Y-22646308D01*
X10686495Y-22646308D02*
X10705543Y-22655832D01*
X10705543Y-22655832D02*
X10715067Y-22674880D01*
X10715067Y-22674880D02*
X10715067Y-22779642D01*
X10838876Y-22779642D02*
X10819829Y-22770118D01*
X10819829Y-22770118D02*
X10810305Y-22760594D01*
X10810305Y-22760594D02*
X10800781Y-22741546D01*
X10800781Y-22741546D02*
X10800781Y-22684404D01*
X10800781Y-22684404D02*
X10810305Y-22665356D01*
X10810305Y-22665356D02*
X10819829Y-22655832D01*
X10819829Y-22655832D02*
X10838876Y-22646308D01*
X10838876Y-22646308D02*
X10867448Y-22646308D01*
X10867448Y-22646308D02*
X10886495Y-22655832D01*
X10886495Y-22655832D02*
X10896019Y-22665356D01*
X10896019Y-22665356D02*
X10905543Y-22684404D01*
X10905543Y-22684404D02*
X10905543Y-22741546D01*
X10905543Y-22741546D02*
X10896019Y-22760594D01*
X10896019Y-22760594D02*
X10886495Y-22770118D01*
X10886495Y-22770118D02*
X10867448Y-22779642D01*
X10867448Y-22779642D02*
X10838876Y-22779642D01*
X10962686Y-22646308D02*
X11038876Y-22646308D01*
X10991257Y-22579642D02*
X10991257Y-22751070D01*
X10991257Y-22751070D02*
X11000781Y-22770118D01*
X11000781Y-22770118D02*
X11019829Y-22779642D01*
X11019829Y-22779642D02*
X11038876Y-22779642D01*
X11257924Y-22646308D02*
X11257924Y-22846308D01*
X11257924Y-22655832D02*
X11276971Y-22646308D01*
X11276971Y-22646308D02*
X11315067Y-22646308D01*
X11315067Y-22646308D02*
X11334114Y-22655832D01*
X11334114Y-22655832D02*
X11343638Y-22665356D01*
X11343638Y-22665356D02*
X11353162Y-22684404D01*
X11353162Y-22684404D02*
X11353162Y-22741546D01*
X11353162Y-22741546D02*
X11343638Y-22760594D01*
X11343638Y-22760594D02*
X11334114Y-22770118D01*
X11334114Y-22770118D02*
X11315067Y-22779642D01*
X11315067Y-22779642D02*
X11276971Y-22779642D01*
X11276971Y-22779642D02*
X11257924Y-22770118D01*
X11467448Y-22779642D02*
X11448400Y-22770118D01*
X11448400Y-22770118D02*
X11438876Y-22751070D01*
X11438876Y-22751070D02*
X11438876Y-22579642D01*
X11629352Y-22779642D02*
X11629352Y-22674880D01*
X11629352Y-22674880D02*
X11619829Y-22655832D01*
X11619829Y-22655832D02*
X11600781Y-22646308D01*
X11600781Y-22646308D02*
X11562686Y-22646308D01*
X11562686Y-22646308D02*
X11543638Y-22655832D01*
X11629352Y-22770118D02*
X11610305Y-22779642D01*
X11610305Y-22779642D02*
X11562686Y-22779642D01*
X11562686Y-22779642D02*
X11543638Y-22770118D01*
X11543638Y-22770118D02*
X11534114Y-22751070D01*
X11534114Y-22751070D02*
X11534114Y-22732023D01*
X11534114Y-22732023D02*
X11543638Y-22712975D01*
X11543638Y-22712975D02*
X11562686Y-22703451D01*
X11562686Y-22703451D02*
X11610305Y-22703451D01*
X11610305Y-22703451D02*
X11629352Y-22693927D01*
X11696019Y-22646308D02*
X11772210Y-22646308D01*
X11724591Y-22579642D02*
X11724591Y-22751070D01*
X11724591Y-22751070D02*
X11734114Y-22770118D01*
X11734114Y-22770118D02*
X11753162Y-22779642D01*
X11753162Y-22779642D02*
X11772210Y-22779642D01*
X11915067Y-22770118D02*
X11896019Y-22779642D01*
X11896019Y-22779642D02*
X11857924Y-22779642D01*
X11857924Y-22779642D02*
X11838876Y-22770118D01*
X11838876Y-22770118D02*
X11829352Y-22751070D01*
X11829352Y-22751070D02*
X11829352Y-22674880D01*
X11829352Y-22674880D02*
X11838876Y-22655832D01*
X11838876Y-22655832D02*
X11857924Y-22646308D01*
X11857924Y-22646308D02*
X11896019Y-22646308D01*
X11896019Y-22646308D02*
X11915067Y-22655832D01*
X11915067Y-22655832D02*
X11924591Y-22674880D01*
X11924591Y-22674880D02*
X11924591Y-22693927D01*
X11924591Y-22693927D02*
X11829352Y-22712975D01*
X12096019Y-22779642D02*
X12096019Y-22579642D01*
X12096019Y-22770118D02*
X12076972Y-22779642D01*
X12076972Y-22779642D02*
X12038876Y-22779642D01*
X12038876Y-22779642D02*
X12019829Y-22770118D01*
X12019829Y-22770118D02*
X12010305Y-22760594D01*
X12010305Y-22760594D02*
X12000781Y-22741546D01*
X12000781Y-22741546D02*
X12000781Y-22684404D01*
X12000781Y-22684404D02*
X12010305Y-22665356D01*
X12010305Y-22665356D02*
X12019829Y-22655832D01*
X12019829Y-22655832D02*
X12038876Y-22646308D01*
X12038876Y-22646308D02*
X12076972Y-22646308D01*
X12076972Y-22646308D02*
X12096019Y-22655832D01*
X12172210Y-22855832D02*
X12181733Y-22846308D01*
X12181733Y-22846308D02*
X12200781Y-22817737D01*
X12200781Y-22817737D02*
X12210305Y-22798689D01*
X12210305Y-22798689D02*
X12219829Y-22770118D01*
X12219829Y-22770118D02*
X12229352Y-22722499D01*
X12229352Y-22722499D02*
X12229352Y-22684404D01*
X12229352Y-22684404D02*
X12219829Y-22636785D01*
X12219829Y-22636785D02*
X12210305Y-22608213D01*
X12210305Y-22608213D02*
X12200781Y-22589166D01*
X12200781Y-22589166D02*
X12181733Y-22560594D01*
X12181733Y-22560594D02*
X12172210Y-22551070D01*
X5025718Y-22908158D02*
X5225718Y-23108158D01*
X5225718Y-22908158D02*
X5025718Y-23108158D01*
X5125718Y-22908158D02*
X5125718Y-23108158D01*
X5025718Y-23008158D02*
X5225718Y-23008158D01*
X5572209Y-22899642D02*
X5534114Y-22899642D01*
X5534114Y-22899642D02*
X5515066Y-22909166D01*
X5515066Y-22909166D02*
X5505542Y-22918689D01*
X5505542Y-22918689D02*
X5486495Y-22947261D01*
X5486495Y-22947261D02*
X5476971Y-22985356D01*
X5476971Y-22985356D02*
X5476971Y-23061546D01*
X5476971Y-23061546D02*
X5486495Y-23080594D01*
X5486495Y-23080594D02*
X5496019Y-23090118D01*
X5496019Y-23090118D02*
X5515066Y-23099642D01*
X5515066Y-23099642D02*
X5553162Y-23099642D01*
X5553162Y-23099642D02*
X5572209Y-23090118D01*
X5572209Y-23090118D02*
X5581733Y-23080594D01*
X5581733Y-23080594D02*
X5591257Y-23061546D01*
X5591257Y-23061546D02*
X5591257Y-23013927D01*
X5591257Y-23013927D02*
X5581733Y-22994880D01*
X5581733Y-22994880D02*
X5572209Y-22985356D01*
X5572209Y-22985356D02*
X5553162Y-22975832D01*
X5553162Y-22975832D02*
X5515066Y-22975832D01*
X5515066Y-22975832D02*
X5496019Y-22985356D01*
X5496019Y-22985356D02*
X5486495Y-22994880D01*
X5486495Y-22994880D02*
X5476971Y-23013927D01*
X5676971Y-23080594D02*
X5686495Y-23090118D01*
X5686495Y-23090118D02*
X5676971Y-23099642D01*
X5676971Y-23099642D02*
X5667447Y-23090118D01*
X5667447Y-23090118D02*
X5676971Y-23080594D01*
X5676971Y-23080594D02*
X5676971Y-23099642D01*
X5857923Y-22966308D02*
X5857923Y-23099642D01*
X5810304Y-22890118D02*
X5762685Y-23032975D01*
X5762685Y-23032975D02*
X5886495Y-23032975D01*
X6000780Y-22899642D02*
X6019828Y-22899642D01*
X6019828Y-22899642D02*
X6038876Y-22909166D01*
X6038876Y-22909166D02*
X6048400Y-22918689D01*
X6048400Y-22918689D02*
X6057923Y-22937737D01*
X6057923Y-22937737D02*
X6067447Y-22975832D01*
X6067447Y-22975832D02*
X6067447Y-23023451D01*
X6067447Y-23023451D02*
X6057923Y-23061546D01*
X6057923Y-23061546D02*
X6048400Y-23080594D01*
X6048400Y-23080594D02*
X6038876Y-23090118D01*
X6038876Y-23090118D02*
X6019828Y-23099642D01*
X6019828Y-23099642D02*
X6000780Y-23099642D01*
X6000780Y-23099642D02*
X5981733Y-23090118D01*
X5981733Y-23090118D02*
X5972209Y-23080594D01*
X5972209Y-23080594D02*
X5962685Y-23061546D01*
X5962685Y-23061546D02*
X5953161Y-23023451D01*
X5953161Y-23023451D02*
X5953161Y-22975832D01*
X5953161Y-22975832D02*
X5962685Y-22937737D01*
X5962685Y-22937737D02*
X5972209Y-22918689D01*
X5972209Y-22918689D02*
X5981733Y-22909166D01*
X5981733Y-22909166D02*
X6000780Y-22899642D01*
X6191257Y-22899642D02*
X6210304Y-22899642D01*
X6210304Y-22899642D02*
X6229352Y-22909166D01*
X6229352Y-22909166D02*
X6238876Y-22918689D01*
X6238876Y-22918689D02*
X6248400Y-22937737D01*
X6248400Y-22937737D02*
X6257923Y-22975832D01*
X6257923Y-22975832D02*
X6257923Y-23023451D01*
X6257923Y-23023451D02*
X6248400Y-23061546D01*
X6248400Y-23061546D02*
X6238876Y-23080594D01*
X6238876Y-23080594D02*
X6229352Y-23090118D01*
X6229352Y-23090118D02*
X6210304Y-23099642D01*
X6210304Y-23099642D02*
X6191257Y-23099642D01*
X6191257Y-23099642D02*
X6172209Y-23090118D01*
X6172209Y-23090118D02*
X6162685Y-23080594D01*
X6162685Y-23080594D02*
X6153161Y-23061546D01*
X6153161Y-23061546D02*
X6143638Y-23023451D01*
X6143638Y-23023451D02*
X6143638Y-22975832D01*
X6143638Y-22975832D02*
X6153161Y-22937737D01*
X6153161Y-22937737D02*
X6162685Y-22918689D01*
X6162685Y-22918689D02*
X6172209Y-22909166D01*
X6172209Y-22909166D02*
X6191257Y-22899642D01*
X6343638Y-23099642D02*
X6343638Y-22966308D01*
X6343638Y-22985356D02*
X6353161Y-22975832D01*
X6353161Y-22975832D02*
X6372209Y-22966308D01*
X6372209Y-22966308D02*
X6400781Y-22966308D01*
X6400781Y-22966308D02*
X6419828Y-22975832D01*
X6419828Y-22975832D02*
X6429352Y-22994880D01*
X6429352Y-22994880D02*
X6429352Y-23099642D01*
X6429352Y-22994880D02*
X6438876Y-22975832D01*
X6438876Y-22975832D02*
X6457923Y-22966308D01*
X6457923Y-22966308D02*
X6486495Y-22966308D01*
X6486495Y-22966308D02*
X6505542Y-22975832D01*
X6505542Y-22975832D02*
X6515066Y-22994880D01*
X6515066Y-22994880D02*
X6515066Y-23099642D01*
X6610304Y-23099642D02*
X6610304Y-22966308D01*
X6610304Y-22985356D02*
X6619828Y-22975832D01*
X6619828Y-22975832D02*
X6638876Y-22966308D01*
X6638876Y-22966308D02*
X6667447Y-22966308D01*
X6667447Y-22966308D02*
X6686495Y-22975832D01*
X6686495Y-22975832D02*
X6696019Y-22994880D01*
X6696019Y-22994880D02*
X6696019Y-23099642D01*
X6696019Y-22994880D02*
X6705542Y-22975832D01*
X6705542Y-22975832D02*
X6724590Y-22966308D01*
X6724590Y-22966308D02*
X6753161Y-22966308D01*
X6753161Y-22966308D02*
X6772209Y-22975832D01*
X6772209Y-22975832D02*
X6781733Y-22994880D01*
X6781733Y-22994880D02*
X6781733Y-23099642D01*
X7172209Y-22890118D02*
X7000781Y-23147261D01*
X7429352Y-22899642D02*
X7448400Y-22899642D01*
X7448400Y-22899642D02*
X7467447Y-22909166D01*
X7467447Y-22909166D02*
X7476971Y-22918689D01*
X7476971Y-22918689D02*
X7486495Y-22937737D01*
X7486495Y-22937737D02*
X7496019Y-22975832D01*
X7496019Y-22975832D02*
X7496019Y-23023451D01*
X7496019Y-23023451D02*
X7486495Y-23061546D01*
X7486495Y-23061546D02*
X7476971Y-23080594D01*
X7476971Y-23080594D02*
X7467447Y-23090118D01*
X7467447Y-23090118D02*
X7448400Y-23099642D01*
X7448400Y-23099642D02*
X7429352Y-23099642D01*
X7429352Y-23099642D02*
X7410304Y-23090118D01*
X7410304Y-23090118D02*
X7400781Y-23080594D01*
X7400781Y-23080594D02*
X7391257Y-23061546D01*
X7391257Y-23061546D02*
X7381733Y-23023451D01*
X7381733Y-23023451D02*
X7381733Y-22975832D01*
X7381733Y-22975832D02*
X7391257Y-22937737D01*
X7391257Y-22937737D02*
X7400781Y-22918689D01*
X7400781Y-22918689D02*
X7410304Y-22909166D01*
X7410304Y-22909166D02*
X7429352Y-22899642D01*
X7581733Y-23080594D02*
X7591257Y-23090118D01*
X7591257Y-23090118D02*
X7581733Y-23099642D01*
X7581733Y-23099642D02*
X7572209Y-23090118D01*
X7572209Y-23090118D02*
X7581733Y-23080594D01*
X7581733Y-23080594D02*
X7581733Y-23099642D01*
X7667447Y-22918689D02*
X7676971Y-22909166D01*
X7676971Y-22909166D02*
X7696019Y-22899642D01*
X7696019Y-22899642D02*
X7743638Y-22899642D01*
X7743638Y-22899642D02*
X7762685Y-22909166D01*
X7762685Y-22909166D02*
X7772209Y-22918689D01*
X7772209Y-22918689D02*
X7781733Y-22937737D01*
X7781733Y-22937737D02*
X7781733Y-22956785D01*
X7781733Y-22956785D02*
X7772209Y-22985356D01*
X7772209Y-22985356D02*
X7657924Y-23099642D01*
X7657924Y-23099642D02*
X7781733Y-23099642D01*
X7962685Y-22899642D02*
X7867447Y-22899642D01*
X7867447Y-22899642D02*
X7857924Y-22994880D01*
X7857924Y-22994880D02*
X7867447Y-22985356D01*
X7867447Y-22985356D02*
X7886495Y-22975832D01*
X7886495Y-22975832D02*
X7934114Y-22975832D01*
X7934114Y-22975832D02*
X7953162Y-22985356D01*
X7953162Y-22985356D02*
X7962685Y-22994880D01*
X7962685Y-22994880D02*
X7972209Y-23013927D01*
X7972209Y-23013927D02*
X7972209Y-23061546D01*
X7972209Y-23061546D02*
X7962685Y-23080594D01*
X7962685Y-23080594D02*
X7953162Y-23090118D01*
X7953162Y-23090118D02*
X7934114Y-23099642D01*
X7934114Y-23099642D02*
X7886495Y-23099642D01*
X7886495Y-23099642D02*
X7867447Y-23090118D01*
X7867447Y-23090118D02*
X7857924Y-23080594D01*
X8048400Y-22918689D02*
X8057924Y-22909166D01*
X8057924Y-22909166D02*
X8076971Y-22899642D01*
X8076971Y-22899642D02*
X8124590Y-22899642D01*
X8124590Y-22899642D02*
X8143638Y-22909166D01*
X8143638Y-22909166D02*
X8153162Y-22918689D01*
X8153162Y-22918689D02*
X8162685Y-22937737D01*
X8162685Y-22937737D02*
X8162685Y-22956785D01*
X8162685Y-22956785D02*
X8153162Y-22985356D01*
X8153162Y-22985356D02*
X8038876Y-23099642D01*
X8038876Y-23099642D02*
X8162685Y-23099642D01*
X8286495Y-22899642D02*
X8305543Y-22899642D01*
X8305543Y-22899642D02*
X8324590Y-22909166D01*
X8324590Y-22909166D02*
X8334114Y-22918689D01*
X8334114Y-22918689D02*
X8343638Y-22937737D01*
X8343638Y-22937737D02*
X8353162Y-22975832D01*
X8353162Y-22975832D02*
X8353162Y-23023451D01*
X8353162Y-23023451D02*
X8343638Y-23061546D01*
X8343638Y-23061546D02*
X8334114Y-23080594D01*
X8334114Y-23080594D02*
X8324590Y-23090118D01*
X8324590Y-23090118D02*
X8305543Y-23099642D01*
X8305543Y-23099642D02*
X8286495Y-23099642D01*
X8286495Y-23099642D02*
X8267447Y-23090118D01*
X8267447Y-23090118D02*
X8257924Y-23080594D01*
X8257924Y-23080594D02*
X8248400Y-23061546D01*
X8248400Y-23061546D02*
X8238876Y-23023451D01*
X8238876Y-23023451D02*
X8238876Y-22975832D01*
X8238876Y-22975832D02*
X8248400Y-22937737D01*
X8248400Y-22937737D02*
X8257924Y-22918689D01*
X8257924Y-22918689D02*
X8267447Y-22909166D01*
X8267447Y-22909166D02*
X8286495Y-22899642D01*
X8429352Y-22899642D02*
X8429352Y-22937737D01*
X8505543Y-22899642D02*
X8505543Y-22937737D01*
X8800781Y-23175832D02*
X8791257Y-23166308D01*
X8791257Y-23166308D02*
X8772209Y-23137737D01*
X8772209Y-23137737D02*
X8762686Y-23118689D01*
X8762686Y-23118689D02*
X8753162Y-23090118D01*
X8753162Y-23090118D02*
X8743638Y-23042499D01*
X8743638Y-23042499D02*
X8743638Y-23004404D01*
X8743638Y-23004404D02*
X8753162Y-22956785D01*
X8753162Y-22956785D02*
X8762686Y-22928213D01*
X8762686Y-22928213D02*
X8772209Y-22909166D01*
X8772209Y-22909166D02*
X8791257Y-22880594D01*
X8791257Y-22880594D02*
X8800781Y-22871070D01*
X8857924Y-22899642D02*
X8991257Y-22899642D01*
X8991257Y-22899642D02*
X8905543Y-23099642D01*
X9219829Y-23099642D02*
X9219829Y-22899642D01*
X9305543Y-23099642D02*
X9305543Y-22994880D01*
X9305543Y-22994880D02*
X9296019Y-22975832D01*
X9296019Y-22975832D02*
X9276971Y-22966308D01*
X9276971Y-22966308D02*
X9248400Y-22966308D01*
X9248400Y-22966308D02*
X9229352Y-22975832D01*
X9229352Y-22975832D02*
X9219829Y-22985356D01*
X9429352Y-23099642D02*
X9410305Y-23090118D01*
X9410305Y-23090118D02*
X9400781Y-23080594D01*
X9400781Y-23080594D02*
X9391257Y-23061546D01*
X9391257Y-23061546D02*
X9391257Y-23004404D01*
X9391257Y-23004404D02*
X9400781Y-22985356D01*
X9400781Y-22985356D02*
X9410305Y-22975832D01*
X9410305Y-22975832D02*
X9429352Y-22966308D01*
X9429352Y-22966308D02*
X9457924Y-22966308D01*
X9457924Y-22966308D02*
X9476971Y-22975832D01*
X9476971Y-22975832D02*
X9486495Y-22985356D01*
X9486495Y-22985356D02*
X9496019Y-23004404D01*
X9496019Y-23004404D02*
X9496019Y-23061546D01*
X9496019Y-23061546D02*
X9486495Y-23080594D01*
X9486495Y-23080594D02*
X9476971Y-23090118D01*
X9476971Y-23090118D02*
X9457924Y-23099642D01*
X9457924Y-23099642D02*
X9429352Y-23099642D01*
X9610305Y-23099642D02*
X9591257Y-23090118D01*
X9591257Y-23090118D02*
X9581733Y-23071070D01*
X9581733Y-23071070D02*
X9581733Y-22899642D01*
X9762686Y-23090118D02*
X9743638Y-23099642D01*
X9743638Y-23099642D02*
X9705543Y-23099642D01*
X9705543Y-23099642D02*
X9686495Y-23090118D01*
X9686495Y-23090118D02*
X9676971Y-23071070D01*
X9676971Y-23071070D02*
X9676971Y-22994880D01*
X9676971Y-22994880D02*
X9686495Y-22975832D01*
X9686495Y-22975832D02*
X9705543Y-22966308D01*
X9705543Y-22966308D02*
X9743638Y-22966308D01*
X9743638Y-22966308D02*
X9762686Y-22975832D01*
X9762686Y-22975832D02*
X9772210Y-22994880D01*
X9772210Y-22994880D02*
X9772210Y-23013927D01*
X9772210Y-23013927D02*
X9676971Y-23032975D01*
X9848400Y-23090118D02*
X9867448Y-23099642D01*
X9867448Y-23099642D02*
X9905543Y-23099642D01*
X9905543Y-23099642D02*
X9924591Y-23090118D01*
X9924591Y-23090118D02*
X9934114Y-23071070D01*
X9934114Y-23071070D02*
X9934114Y-23061546D01*
X9934114Y-23061546D02*
X9924591Y-23042499D01*
X9924591Y-23042499D02*
X9905543Y-23032975D01*
X9905543Y-23032975D02*
X9876971Y-23032975D01*
X9876971Y-23032975D02*
X9857924Y-23023451D01*
X9857924Y-23023451D02*
X9848400Y-23004404D01*
X9848400Y-23004404D02*
X9848400Y-22994880D01*
X9848400Y-22994880D02*
X9857924Y-22975832D01*
X9857924Y-22975832D02*
X9876971Y-22966308D01*
X9876971Y-22966308D02*
X9905543Y-22966308D01*
X9905543Y-22966308D02*
X9924591Y-22975832D01*
X10000781Y-23175832D02*
X10010305Y-23166308D01*
X10010305Y-23166308D02*
X10029352Y-23137737D01*
X10029352Y-23137737D02*
X10038876Y-23118689D01*
X10038876Y-23118689D02*
X10048400Y-23090118D01*
X10048400Y-23090118D02*
X10057924Y-23042499D01*
X10057924Y-23042499D02*
X10057924Y-23004404D01*
X10057924Y-23004404D02*
X10048400Y-22956785D01*
X10048400Y-22956785D02*
X10038876Y-22928213D01*
X10038876Y-22928213D02*
X10029352Y-22909166D01*
X10029352Y-22909166D02*
X10010305Y-22880594D01*
X10010305Y-22880594D02*
X10000781Y-22871070D01*
X10362686Y-23175832D02*
X10353162Y-23166308D01*
X10353162Y-23166308D02*
X10334114Y-23137737D01*
X10334114Y-23137737D02*
X10324591Y-23118689D01*
X10324591Y-23118689D02*
X10315067Y-23090118D01*
X10315067Y-23090118D02*
X10305543Y-23042499D01*
X10305543Y-23042499D02*
X10305543Y-23004404D01*
X10305543Y-23004404D02*
X10315067Y-22956785D01*
X10315067Y-22956785D02*
X10324591Y-22928213D01*
X10324591Y-22928213D02*
X10334114Y-22909166D01*
X10334114Y-22909166D02*
X10353162Y-22880594D01*
X10353162Y-22880594D02*
X10362686Y-22871070D01*
X10438876Y-22966308D02*
X10438876Y-23099642D01*
X10438876Y-22985356D02*
X10448400Y-22975832D01*
X10448400Y-22975832D02*
X10467448Y-22966308D01*
X10467448Y-22966308D02*
X10496019Y-22966308D01*
X10496019Y-22966308D02*
X10515067Y-22975832D01*
X10515067Y-22975832D02*
X10524591Y-22994880D01*
X10524591Y-22994880D02*
X10524591Y-23099642D01*
X10648400Y-23099642D02*
X10629352Y-23090118D01*
X10629352Y-23090118D02*
X10619829Y-23080594D01*
X10619829Y-23080594D02*
X10610305Y-23061546D01*
X10610305Y-23061546D02*
X10610305Y-23004404D01*
X10610305Y-23004404D02*
X10619829Y-22985356D01*
X10619829Y-22985356D02*
X10629352Y-22975832D01*
X10629352Y-22975832D02*
X10648400Y-22966308D01*
X10648400Y-22966308D02*
X10676972Y-22966308D01*
X10676972Y-22966308D02*
X10696019Y-22975832D01*
X10696019Y-22975832D02*
X10705543Y-22985356D01*
X10705543Y-22985356D02*
X10715067Y-23004404D01*
X10715067Y-23004404D02*
X10715067Y-23061546D01*
X10715067Y-23061546D02*
X10705543Y-23080594D01*
X10705543Y-23080594D02*
X10696019Y-23090118D01*
X10696019Y-23090118D02*
X10676972Y-23099642D01*
X10676972Y-23099642D02*
X10648400Y-23099642D01*
X10772210Y-22966308D02*
X10848400Y-22966308D01*
X10800781Y-22899642D02*
X10800781Y-23071070D01*
X10800781Y-23071070D02*
X10810305Y-23090118D01*
X10810305Y-23090118D02*
X10829352Y-23099642D01*
X10829352Y-23099642D02*
X10848400Y-23099642D01*
X11067448Y-22966308D02*
X11067448Y-23166308D01*
X11067448Y-22975832D02*
X11086495Y-22966308D01*
X11086495Y-22966308D02*
X11124591Y-22966308D01*
X11124591Y-22966308D02*
X11143638Y-22975832D01*
X11143638Y-22975832D02*
X11153162Y-22985356D01*
X11153162Y-22985356D02*
X11162686Y-23004404D01*
X11162686Y-23004404D02*
X11162686Y-23061546D01*
X11162686Y-23061546D02*
X11153162Y-23080594D01*
X11153162Y-23080594D02*
X11143638Y-23090118D01*
X11143638Y-23090118D02*
X11124591Y-23099642D01*
X11124591Y-23099642D02*
X11086495Y-23099642D01*
X11086495Y-23099642D02*
X11067448Y-23090118D01*
X11276971Y-23099642D02*
X11257924Y-23090118D01*
X11257924Y-23090118D02*
X11248400Y-23071070D01*
X11248400Y-23071070D02*
X11248400Y-22899642D01*
X11438876Y-23099642D02*
X11438876Y-22994880D01*
X11438876Y-22994880D02*
X11429352Y-22975832D01*
X11429352Y-22975832D02*
X11410305Y-22966308D01*
X11410305Y-22966308D02*
X11372210Y-22966308D01*
X11372210Y-22966308D02*
X11353162Y-22975832D01*
X11438876Y-23090118D02*
X11419829Y-23099642D01*
X11419829Y-23099642D02*
X11372210Y-23099642D01*
X11372210Y-23099642D02*
X11353162Y-23090118D01*
X11353162Y-23090118D02*
X11343638Y-23071070D01*
X11343638Y-23071070D02*
X11343638Y-23052023D01*
X11343638Y-23052023D02*
X11353162Y-23032975D01*
X11353162Y-23032975D02*
X11372210Y-23023451D01*
X11372210Y-23023451D02*
X11419829Y-23023451D01*
X11419829Y-23023451D02*
X11438876Y-23013927D01*
X11505543Y-22966308D02*
X11581733Y-22966308D01*
X11534114Y-22899642D02*
X11534114Y-23071070D01*
X11534114Y-23071070D02*
X11543638Y-23090118D01*
X11543638Y-23090118D02*
X11562686Y-23099642D01*
X11562686Y-23099642D02*
X11581733Y-23099642D01*
X11724591Y-23090118D02*
X11705543Y-23099642D01*
X11705543Y-23099642D02*
X11667448Y-23099642D01*
X11667448Y-23099642D02*
X11648400Y-23090118D01*
X11648400Y-23090118D02*
X11638876Y-23071070D01*
X11638876Y-23071070D02*
X11638876Y-22994880D01*
X11638876Y-22994880D02*
X11648400Y-22975832D01*
X11648400Y-22975832D02*
X11667448Y-22966308D01*
X11667448Y-22966308D02*
X11705543Y-22966308D01*
X11705543Y-22966308D02*
X11724591Y-22975832D01*
X11724591Y-22975832D02*
X11734114Y-22994880D01*
X11734114Y-22994880D02*
X11734114Y-23013927D01*
X11734114Y-23013927D02*
X11638876Y-23032975D01*
X11905543Y-23099642D02*
X11905543Y-22899642D01*
X11905543Y-23090118D02*
X11886495Y-23099642D01*
X11886495Y-23099642D02*
X11848400Y-23099642D01*
X11848400Y-23099642D02*
X11829352Y-23090118D01*
X11829352Y-23090118D02*
X11819829Y-23080594D01*
X11819829Y-23080594D02*
X11810305Y-23061546D01*
X11810305Y-23061546D02*
X11810305Y-23004404D01*
X11810305Y-23004404D02*
X11819829Y-22985356D01*
X11819829Y-22985356D02*
X11829352Y-22975832D01*
X11829352Y-22975832D02*
X11848400Y-22966308D01*
X11848400Y-22966308D02*
X11886495Y-22966308D01*
X11886495Y-22966308D02*
X11905543Y-22975832D01*
X11981733Y-23175832D02*
X11991257Y-23166308D01*
X11991257Y-23166308D02*
X12010305Y-23137737D01*
X12010305Y-23137737D02*
X12019829Y-23118689D01*
X12019829Y-23118689D02*
X12029352Y-23090118D01*
X12029352Y-23090118D02*
X12038876Y-23042499D01*
X12038876Y-23042499D02*
X12038876Y-23004404D01*
X12038876Y-23004404D02*
X12029352Y-22956785D01*
X12029352Y-22956785D02*
X12019829Y-22928213D01*
X12019829Y-22928213D02*
X12010305Y-22909166D01*
X12010305Y-22909166D02*
X11991257Y-22880594D01*
X11991257Y-22880594D02*
X11981733Y-22871070D01*
M02*
