M48
; DRILL file {KiCad 9.0.7} date 2026-03-10T13:56:19+0800
; FORMAT={-:-/ absolute / metric / decimal}
; #@! TF.CreationDate,2026-03-10T13:56:19+08:00
; #@! TF.GenerationSoftware,Kicad,Pcbnew,9.0.7
; #@! TF.FileFunction,Plated,1,2,PTH
FMAT,2
METRIC
; #@! TA.AperFunction,Plated,PTH,ViaDrill
T1C0.350
; #@! TA.AperFunction,Plated,PTH,ComponentDrill
T2C0.350
; #@! TA.AperFunction,Plated,PTH,ComponentDrill
T3C0.600
; #@! TA.AperFunction,Plated,PTH,ComponentDrill
T4C1.000
; #@! TA.AperFunction,Plated,PTH,ComponentDrill
T5C1.100
; #@! TA.AperFunction,Plated,PTH,ComponentDrill
T6C2.300
%
G90
G05
T1
X68.292Y-125.467
X71.442Y-126.497
X93.532Y-73.679
X97.392Y-125.592
X97.447Y-100.178
X100.542Y-126.597
X105.442Y-98.417
X108.592Y-99.197
X110.428Y-97.517
X111.13Y-101.219
X116.232Y-73.278
X117.302Y-72.078
X117.302Y-74.829
X120.157Y-76.359
X120.232Y-78.378
X123.432Y-67.128
X123.992Y-136.942
X127.142Y-138.047
X128.982Y-89.878
X131.232Y-71.928
X132.332Y-60.467
X132.793Y-59.461
X133.232Y-70.878
X134.082Y-43.017
X134.65Y-70.946
X135.282Y-67.828
X135.682Y-61.617
X136.097Y-66.728
X136.382Y-57.467
X137.732Y-54.117
X137.732Y-60.028
X138.632Y-55.317
X138.982Y-57.417
X139.532Y-50.167
X139.682Y-63.878
X139.832Y-71.728
X140.752Y-65.378
X140.982Y-66.978
X140.982Y-69.478
X141.492Y-190.042
X142.032Y-57.228
X142.232Y-49.417
X144.532Y-60.278
X144.532Y-62.928
X144.642Y-191.047
X144.832Y-52.117
X144.832Y-52.717
X144.832Y-55.778
X145.932Y-64.767
X146.282Y-71.178
X146.382Y-66.978
X146.632Y-57.617
X147.407Y-52.478
X147.421Y-53.188
X148.182Y-54.167
X149.782Y-62.767
X150.11Y-57.817
X150.532Y-60.528
X151.032Y-55.317
X151.152Y-51.777
X151.282Y-60.528
X153.182Y-69.228
X153.732Y-74.278
X154.097Y-68.327
X154.182Y-47.117
X154.182Y-61.467
X154.183Y-48.717
X154.243Y-62.214
X154.847Y-68.327
X156.182Y-57.928
X156.182Y-58.978
X157.182Y-52.657
X159.007Y-53.242
X159.132Y-73.578
X159.882Y-73.578
X159.982Y-46.917
X161.682Y-45.067
X165.582Y-67.568
X180.457Y-55.467
X180.457Y-61.293
X181.207Y-55.467
X181.207Y-61.303
X181.432Y-190.059
X181.957Y-61.328
X181.957Y-55.467
X182.707Y-55.467
X182.707Y-61.328
X183.457Y-55.467
X183.457Y-61.328
X184.207Y-55.467
X184.207Y-61.328
X184.582Y-191.088
X189.438Y-69.429
X190.822Y-157.498
X193.972Y-158.478
X196.422Y-126.458
X197.932Y-98.309
X199.582Y-127.438
X199.642Y-130.467
X201.082Y-99.288
X202.83Y-158.514
X206.227Y-178.283
X208.132Y-67.109
X209.986Y-99.178
X212.882Y-62.478
X214.48Y-174.119
X216.897Y-118.947
X217.432Y-146.388
X217.532Y-81.42
X217.642Y-175.097
X220.592Y-147.397
X220.992Y-80.87
X221.232Y-65.928
X222.692Y-115.017
X225.842Y-115.897
X244.282Y-80.32
X246.282Y-146.388
X249.432Y-147.388
X250.032Y-79.678
X251.972Y-114.808
X255.142Y-115.797
X273.482Y-79.128
X275.492Y-151.548
X278.642Y-152.547
X278.982Y-78.578
X280.282Y-42.542
X280.932Y-120.208
X283.282Y-42.542
X284.082Y-121.188
X286.282Y-42.542
X289.282Y-42.542
T2
X142.957Y-56.642
X142.957Y-58.017
X142.957Y-59.392
X144.332Y-56.642
X144.332Y-58.017
X144.332Y-59.392
X145.707Y-56.642
X145.707Y-58.017
X145.707Y-59.392
T4
X78.582Y-40.107
X78.582Y-42.647
X78.582Y-45.187
X78.582Y-47.727
T5
X215.482Y-40.667
X215.482Y-47.167
X219.982Y-40.667
X219.982Y-47.167
X225.482Y-40.667
X225.482Y-47.167
X229.982Y-40.667
X229.982Y-47.167
X235.482Y-40.667
X235.482Y-47.167
X239.982Y-40.667
X239.982Y-47.167
X248.482Y-40.667
X248.482Y-47.167
X252.982Y-40.667
X252.982Y-47.167
X258.482Y-40.667
X258.482Y-47.167
X262.982Y-40.667
X262.982Y-47.167
X268.482Y-40.667
X268.482Y-47.167
X272.982Y-40.667
X272.982Y-47.167
T6
X227.632Y-55.847
X227.632Y-68.987
T3
G00X154.112Y-38.567
M15
G01X154.112Y-37.967
M16
G05
G00X154.112Y-42.997
M15
G01X154.112Y-41.897
M16
G05
G00X162.752Y-38.567
M15
G01X162.752Y-37.967
M16
G05
G00X162.752Y-42.997
M15
G01X162.752Y-41.897
M16
G05
M30
