G04 #@! TF.GenerationSoftware,KiCad,Pcbnew,9.0.7*
G04 #@! TF.CreationDate,2026-03-10T13:56:10+08:00*
G04 #@! TF.ProjectId,Flatbox-rev8,466c6174-626f-4782-9d72-6576382e6b69,rev?*
G04 #@! TF.SameCoordinates,Original*
G04 #@! TF.FileFunction,Soldermask,Top*
G04 #@! TF.FilePolarity,Negative*
%FSLAX46Y46*%
G04 Gerber Fmt 4.6, Leading zero omitted, Abs format (unit mm)*
G04 Created by KiCad (PCBNEW 9.0.7) date 2026-03-10 13:56:10*
%MOMM*%
%LPD*%
G01*
G04 APERTURE LIST*
G04 Aperture macros list*
%AMRoundRect*
0 Rectangle with rounded corners*
0 $1 Rounding radius*
0 $2 $3 $4 $5 $6 $7 $8 $9 X,Y pos of 4 corners*
0 Add a 4 corners polygon primitive as box body*
4,1,4,$2,$3,$4,$5,$6,$7,$8,$9,$2,$3,0*
0 Add four circle primitives for the rounded corners*
1,1,$1+$1,$2,$3*
1,1,$1+$1,$4,$5*
1,1,$1+$1,$6,$7*
1,1,$1+$1,$8,$9*
0 Add four rect primitives between the rounded corners*
20,1,$1+$1,$2,$3,$4,$5,0*
20,1,$1+$1,$4,$5,$6,$7,0*
20,1,$1+$1,$6,$7,$8,$9,0*
20,1,$1+$1,$8,$9,$2,$3,0*%
%AMFreePoly0*
4,1,26,0.186777,0.480194,0.256366,0.424698,0.294986,0.344504,0.300000,0.300000,0.300000,-0.300000,0.280194,-0.386777,0.224698,-0.456366,0.144504,-0.494986,0.100000,-0.500000,-0.100000,-0.500000,-0.186777,-0.480194,-0.256366,-0.424698,-0.294986,-0.344504,-0.300000,-0.300000,-0.300000,-0.100000,-0.386777,-0.080194,-0.456366,-0.024698,-0.494986,0.055496,-0.500000,0.100000,-0.500000,0.300000,
-0.480194,0.386777,-0.424698,0.456366,-0.344504,0.494986,-0.300000,0.500000,0.100000,0.500000,0.186777,0.480194,0.186777,0.480194,$1*%
%AMFreePoly1*
4,1,26,0.386777,0.480194,0.456366,0.424698,0.494986,0.344504,0.500000,0.300000,0.500000,0.100000,0.480194,0.013223,0.424698,-0.056366,0.344504,-0.094986,0.300000,-0.100000,0.300000,-0.300000,0.280194,-0.386777,0.224698,-0.456366,0.144504,-0.494986,0.100000,-0.500000,-0.100000,-0.500000,-0.186777,-0.480194,-0.256366,-0.424698,-0.294986,-0.344504,-0.300000,-0.300000,-0.300000,0.300000,
-0.280194,0.386777,-0.224698,0.456366,-0.144504,0.494986,-0.100000,0.500000,0.300000,0.500000,0.386777,0.480194,0.386777,0.480194,$1*%
%AMFreePoly2*
4,1,37,0.474277,0.280194,0.528921,0.241421,0.578921,0.191421,0.626277,0.116056,0.637500,0.050000,0.637500,-0.050000,0.633657,-0.089018,0.629851,-0.108152,0.599986,-0.180251,0.589147,-0.196472,0.533972,-0.251647,0.517751,-0.262486,0.445652,-0.292351,0.426518,-0.296157,0.387500,-0.300000,-0.387500,-0.300000,-0.426518,-0.296157,-0.445652,-0.292351,-0.517751,-0.262486,-0.533972,-0.251647,
-0.589147,-0.196472,-0.599986,-0.180251,-0.629851,-0.108152,-0.633657,-0.089018,-0.637500,-0.050000,-0.637500,0.050000,-0.633657,0.089018,-0.629851,0.108152,-0.599986,0.180251,-0.589147,0.196472,-0.533972,0.251647,-0.517751,0.262486,-0.445652,0.292351,-0.426518,0.296157,-0.387500,0.300000,0.387500,0.300000,0.474277,0.280194,0.474277,0.280194,$1*%
%AMFreePoly3*
4,1,37,0.426518,0.296157,0.445652,0.292351,0.517751,0.262486,0.533972,0.251647,0.589147,0.196472,0.599986,0.180251,0.629851,0.108152,0.633657,0.089018,0.637500,0.050000,0.637500,-0.050000,0.617694,-0.136777,0.578921,-0.191421,0.528921,-0.241421,0.453556,-0.288777,0.387500,-0.300000,-0.387500,-0.300000,-0.426518,-0.296157,-0.445652,-0.292351,-0.517751,-0.262486,-0.533972,-0.251647,
-0.589147,-0.196472,-0.599986,-0.180251,-0.629851,-0.108152,-0.633657,-0.089018,-0.637500,-0.050000,-0.637500,0.050000,-0.633657,0.089018,-0.629851,0.108152,-0.599986,0.180251,-0.589147,0.196472,-0.533972,0.251647,-0.517751,0.262486,-0.445652,0.292351,-0.426518,0.296157,-0.387500,0.300000,0.387500,0.300000,0.426518,0.296157,0.426518,0.296157,$1*%
%AMFreePoly4*
4,1,37,0.089018,0.633657,0.108152,0.629851,0.180251,0.599986,0.196472,0.589147,0.251647,0.533972,0.262486,0.517751,0.292351,0.445652,0.296157,0.426518,0.300000,0.387500,0.300000,-0.387500,0.296157,-0.426518,0.292351,-0.445652,0.262486,-0.517751,0.251647,-0.533972,0.196472,-0.589147,0.180251,-0.599986,0.108152,-0.629851,0.089018,-0.633657,0.050000,-0.637500,-0.050000,-0.637500,
-0.089018,-0.633657,-0.108152,-0.629851,-0.180251,-0.599986,-0.196472,-0.589147,-0.251647,-0.533972,-0.262486,-0.517751,-0.292351,-0.445652,-0.296157,-0.426518,-0.300000,-0.387500,-0.300000,0.387500,-0.280194,0.474277,-0.241421,0.528921,-0.191421,0.578921,-0.116056,0.626277,-0.050000,0.637500,0.050000,0.637500,0.089018,0.633657,0.089018,0.633657,$1*%
%AMFreePoly5*
4,1,37,0.136777,0.617694,0.191421,0.578921,0.241421,0.528921,0.288777,0.453556,0.300000,0.387500,0.300000,-0.387500,0.296157,-0.426518,0.292351,-0.445652,0.262486,-0.517751,0.251647,-0.533972,0.196472,-0.589147,0.180251,-0.599986,0.108152,-0.629851,0.089018,-0.633657,0.050000,-0.637500,-0.050000,-0.637500,-0.089018,-0.633657,-0.108152,-0.629851,-0.180251,-0.599986,-0.196472,-0.589147,
-0.251647,-0.533972,-0.262486,-0.517751,-0.292351,-0.445652,-0.296157,-0.426518,-0.300000,-0.387500,-0.300000,0.387500,-0.296157,0.426518,-0.292351,0.445652,-0.262486,0.517751,-0.251647,0.533972,-0.196472,0.589147,-0.180251,0.599986,-0.108152,0.629851,-0.089018,0.633657,-0.050000,0.637500,0.050000,0.637500,0.136777,0.617694,0.136777,0.617694,$1*%
%AMFreePoly6*
4,1,37,0.426518,0.296157,0.445652,0.292351,0.517751,0.262486,0.533972,0.251647,0.589147,0.196472,0.599986,0.180251,0.629851,0.108152,0.633657,0.089018,0.637500,0.050000,0.637500,-0.050000,0.633657,-0.089018,0.629851,-0.108152,0.599986,-0.180251,0.589147,-0.196472,0.533972,-0.251647,0.517751,-0.262486,0.445652,-0.292351,0.426518,-0.296157,0.387500,-0.300000,-0.387500,-0.300000,
-0.474277,-0.280194,-0.528921,-0.241421,-0.578921,-0.191421,-0.626277,-0.116056,-0.637500,-0.050000,-0.637500,0.050000,-0.633657,0.089018,-0.629851,0.108152,-0.599986,0.180251,-0.589147,0.196472,-0.533972,0.251647,-0.517751,0.262486,-0.445652,0.292351,-0.426518,0.296157,-0.387500,0.300000,0.387500,0.300000,0.426518,0.296157,0.426518,0.296157,$1*%
%AMFreePoly7*
4,1,37,0.426518,0.296157,0.445652,0.292351,0.517751,0.262486,0.533972,0.251647,0.589147,0.196472,0.599986,0.180251,0.629851,0.108152,0.633657,0.089018,0.637500,0.050000,0.637500,-0.050000,0.633657,-0.089018,0.629851,-0.108152,0.599986,-0.180251,0.589147,-0.196472,0.533972,-0.251647,0.517751,-0.262486,0.445652,-0.292351,0.426518,-0.296157,0.387500,-0.300000,-0.387500,-0.300000,
-0.426518,-0.296157,-0.445652,-0.292351,-0.517751,-0.262486,-0.533972,-0.251647,-0.589147,-0.196472,-0.599986,-0.180251,-0.629851,-0.108152,-0.633657,-0.089018,-0.637500,-0.050000,-0.637500,0.050000,-0.617694,0.136777,-0.578921,0.191421,-0.528921,0.241421,-0.453556,0.288777,-0.387500,0.300000,0.387500,0.300000,0.426518,0.296157,0.426518,0.296157,$1*%
%AMFreePoly8*
4,1,37,0.089018,0.633657,0.108152,0.629851,0.180251,0.599986,0.196472,0.589147,0.251647,0.533972,0.262486,0.517751,0.292351,0.445652,0.296157,0.426518,0.300000,0.387500,0.300000,-0.387500,0.280194,-0.474277,0.241421,-0.528921,0.191421,-0.578921,0.116056,-0.626277,0.050000,-0.637500,-0.050000,-0.637500,-0.089018,-0.633657,-0.108152,-0.629851,-0.180251,-0.599986,-0.196472,-0.589147,
-0.251647,-0.533972,-0.262486,-0.517751,-0.292351,-0.445652,-0.296157,-0.426518,-0.300000,-0.387500,-0.300000,0.387500,-0.296157,0.426518,-0.292351,0.445652,-0.262486,0.517751,-0.251647,0.533972,-0.196472,0.589147,-0.180251,0.599986,-0.108152,0.629851,-0.089018,0.633657,-0.050000,0.637500,0.050000,0.637500,0.089018,0.633657,0.089018,0.633657,$1*%
%AMFreePoly9*
4,1,37,0.089018,0.633657,0.108152,0.629851,0.180251,0.599986,0.196472,0.589147,0.251647,0.533972,0.262486,0.517751,0.292351,0.445652,0.296157,0.426518,0.300000,0.387500,0.300000,-0.387500,0.296157,-0.426518,0.292351,-0.445652,0.262486,-0.517751,0.251647,-0.533972,0.196472,-0.589147,0.180251,-0.599986,0.108152,-0.629851,0.089018,-0.633657,0.050000,-0.637500,-0.050000,-0.637500,
-0.136777,-0.617694,-0.191421,-0.578921,-0.241421,-0.528921,-0.288777,-0.453556,-0.300000,-0.387500,-0.300000,0.387500,-0.296157,0.426518,-0.292351,0.445652,-0.262486,0.517751,-0.251647,0.533972,-0.196472,0.589147,-0.180251,0.599986,-0.108152,0.629851,-0.089018,0.633657,-0.050000,0.637500,0.050000,0.637500,0.089018,0.633657,0.089018,0.633657,$1*%
G04 Aperture macros list end*
%ADD10C,2.300000*%
%ADD11C,2.000000*%
%ADD12C,3.450000*%
%ADD13C,5.450000*%
%ADD14C,6.800000*%
%ADD15RoundRect,0.235000X-0.285000X0.235000X-0.285000X-0.235000X0.285000X-0.235000X0.285000X0.235000X0*%
%ADD16C,1.050000*%
%ADD17RoundRect,0.200000X0.300000X0.725000X-0.300000X0.725000X-0.300000X-0.725000X0.300000X-0.725000X0*%
%ADD18RoundRect,0.200000X0.150000X0.725000X-0.150000X0.725000X-0.150000X-0.725000X0.150000X-0.725000X0*%
%ADD19O,1.400000X2.500000*%
%ADD20O,1.400000X2.000000*%
%ADD21RoundRect,0.235000X0.235000X0.285000X-0.235000X0.285000X-0.235000X-0.285000X0.235000X-0.285000X0*%
%ADD22RoundRect,0.159000X-0.189000X0.159000X-0.189000X-0.159000X0.189000X-0.159000X0.189000X0.159000X0*%
%ADD23RoundRect,0.240000X-0.240000X-0.270000X0.240000X-0.270000X0.240000X0.270000X-0.240000X0.270000X0*%
%ADD24RoundRect,0.225000X0.225000X0.225000X-0.225000X0.225000X-0.225000X-0.225000X0.225000X-0.225000X0*%
%ADD25RoundRect,0.159000X0.189000X-0.159000X0.189000X0.159000X-0.189000X0.159000X-0.189000X-0.159000X0*%
%ADD26RoundRect,0.240000X0.240000X0.270000X-0.240000X0.270000X-0.240000X-0.270000X0.240000X-0.270000X0*%
%ADD27FreePoly0,90.000000*%
%ADD28RoundRect,0.200000X-0.300000X-0.100000X0.300000X-0.100000X0.300000X0.100000X-0.300000X0.100000X0*%
%ADD29RoundRect,0.200000X0.300000X0.100000X-0.300000X0.100000X-0.300000X-0.100000X0.300000X-0.100000X0*%
%ADD30FreePoly1,90.000000*%
%ADD31FreePoly0,270.000000*%
%ADD32FreePoly1,270.000000*%
%ADD33RoundRect,0.200000X-0.235000X-0.265000X0.235000X-0.265000X0.235000X0.265000X-0.235000X0.265000X0*%
%ADD34C,2.600000*%
%ADD35RoundRect,0.225000X0.225000X-0.225000X0.225000X0.225000X-0.225000X0.225000X-0.225000X-0.225000X0*%
%ADD36RoundRect,0.244000X-0.244000X-0.269000X0.244000X-0.269000X0.244000X0.269000X-0.244000X0.269000X0*%
%ADD37RoundRect,0.250000X-0.250000X0.612500X-0.250000X-0.612500X0.250000X-0.612500X0.250000X0.612500X0*%
%ADD38RoundRect,0.343750X0.343750X0.556250X-0.343750X0.556250X-0.343750X-0.556250X0.343750X-0.556250X0*%
%ADD39RoundRect,0.350000X0.350000X-0.575000X0.350000X0.575000X-0.350000X0.575000X-0.350000X-0.575000X0*%
%ADD40RoundRect,0.240000X-0.270000X0.240000X-0.270000X-0.240000X0.270000X-0.240000X0.270000X0.240000X0*%
%ADD41RoundRect,0.200000X0.530000X0.325000X-0.530000X0.325000X-0.530000X-0.325000X0.530000X-0.325000X0*%
%ADD42C,2.400000*%
%ADD43RoundRect,0.250000X0.250000X-0.750000X0.250000X0.750000X-0.250000X0.750000X-0.250000X-0.750000X0*%
%ADD44RoundRect,0.235000X-0.235000X-0.285000X0.235000X-0.285000X0.235000X0.285000X-0.235000X0.285000X0*%
%ADD45FreePoly2,0.000000*%
%ADD46RoundRect,0.150000X-0.487500X-0.150000X0.487500X-0.150000X0.487500X0.150000X-0.487500X0.150000X0*%
%ADD47FreePoly3,0.000000*%
%ADD48FreePoly4,0.000000*%
%ADD49RoundRect,0.150000X-0.150000X-0.487500X0.150000X-0.487500X0.150000X0.487500X-0.150000X0.487500X0*%
%ADD50FreePoly5,0.000000*%
%ADD51FreePoly6,0.000000*%
%ADD52FreePoly7,0.000000*%
%ADD53FreePoly8,0.000000*%
%ADD54FreePoly9,0.000000*%
%ADD55RoundRect,0.171000X1.729000X-1.729000X1.729000X1.729000X-1.729000X1.729000X-1.729000X-1.729000X0*%
%ADD56RoundRect,0.200000X-0.350000X-0.850000X0.350000X-0.850000X0.350000X0.850000X-0.350000X0.850000X0*%
%ADD57RoundRect,0.240000X0.270000X-0.240000X0.270000X0.240000X-0.270000X0.240000X-0.270000X-0.240000X0*%
%ADD58RoundRect,0.200000X-0.700000X-0.600000X0.700000X-0.600000X0.700000X0.600000X-0.700000X0.600000X0*%
%ADD59C,3.400000*%
G04 APERTURE END LIST*
D10*
X93391758Y-120217250D03*
D11*
X93891758Y-125367250D03*
D12*
X98891758Y-114317250D03*
D13*
X98891758Y-120217250D03*
D12*
X103891758Y-116417250D03*
D10*
X104391758Y-120217250D03*
X119991758Y-131567250D03*
D11*
X120491758Y-136717250D03*
D12*
X125491758Y-125667250D03*
D13*
X125491758Y-131567250D03*
D12*
X130491758Y-127767250D03*
D10*
X130991758Y-131567250D03*
X137491758Y-184667250D03*
D11*
X137991758Y-189817250D03*
D12*
X142991758Y-178767250D03*
D13*
X142991758Y-184667250D03*
D12*
X147991758Y-180867250D03*
D10*
X148491758Y-184667250D03*
X192432180Y-121078118D03*
D11*
X192932180Y-126228118D03*
D12*
X197932180Y-115178118D03*
D13*
X197932180Y-121078118D03*
D12*
X202932180Y-117278118D03*
D10*
X203432180Y-121078118D03*
X218992180Y-109548118D03*
D11*
X219492180Y-114698118D03*
D12*
X224492180Y-103648118D03*
D13*
X224492180Y-109548118D03*
D12*
X229492180Y-105748118D03*
D10*
X229992180Y-109548118D03*
X247962180Y-109428118D03*
D11*
X248462180Y-114578118D03*
D12*
X253462180Y-103528118D03*
D13*
X253462180Y-109428118D03*
D12*
X258462180Y-105628118D03*
D10*
X258962180Y-109428118D03*
X276932180Y-114828118D03*
D11*
X277432180Y-119978118D03*
D12*
X282432180Y-108928118D03*
D13*
X282432180Y-114828118D03*
D12*
X287432180Y-111028118D03*
D10*
X287932180Y-114828118D03*
X186822180Y-152118118D03*
D11*
X187322180Y-157268118D03*
D12*
X192322180Y-146218118D03*
D13*
X192322180Y-152118118D03*
D12*
X197322180Y-148318118D03*
D10*
X197822180Y-152118118D03*
X213432180Y-141008118D03*
D11*
X213932180Y-146158118D03*
D12*
X218932180Y-135108118D03*
D13*
X218932180Y-141008118D03*
D12*
X223932180Y-137208118D03*
D10*
X224432180Y-141008118D03*
X242282180Y-141008118D03*
D11*
X242782180Y-146158118D03*
D12*
X247782180Y-135108118D03*
D13*
X247782180Y-141008118D03*
D12*
X252782180Y-137208118D03*
D10*
X253282180Y-141008118D03*
X271492180Y-146168118D03*
D11*
X271992180Y-151318118D03*
D12*
X276992180Y-140268118D03*
D13*
X276992180Y-146168118D03*
D12*
X281992180Y-142368118D03*
D10*
X282492180Y-146168118D03*
D14*
X60432180Y-43916558D03*
X60432180Y-197916558D03*
X314432180Y-197916558D03*
X314432180Y-43916558D03*
D10*
X64296758Y-120097250D03*
D11*
X64796758Y-125247250D03*
D12*
X69796758Y-114197250D03*
D13*
X69796758Y-120097250D03*
D12*
X74796758Y-116297250D03*
D10*
X75296758Y-120097250D03*
D14*
X173032180Y-43916558D03*
X145782180Y-149516558D03*
D15*
X159982180Y-45156558D03*
X159982180Y-46176558D03*
D16*
X161322180Y-41916558D03*
X155542180Y-41916558D03*
D17*
X161682180Y-43361558D03*
X160882180Y-43361558D03*
D18*
X160182180Y-43361558D03*
X159682180Y-43361558D03*
X159182180Y-43361558D03*
X158682180Y-43361558D03*
X158182180Y-43361558D03*
X157682180Y-43361558D03*
X157182180Y-43361558D03*
X156682180Y-43361558D03*
D17*
X155982180Y-43361558D03*
X155182180Y-43361558D03*
D19*
X162752180Y-42446558D03*
D20*
X162752180Y-38266558D03*
D19*
X154112180Y-42446558D03*
D20*
X154112180Y-38266558D03*
D21*
X156442180Y-45216558D03*
X155422180Y-45216558D03*
D22*
X249432180Y-145488118D03*
X249432180Y-146488118D03*
X184582180Y-189159123D03*
X184582180Y-190159123D03*
D21*
X153142180Y-61266558D03*
X152122180Y-61266558D03*
D23*
X154352180Y-58978118D03*
X155312180Y-58978118D03*
D21*
X153142180Y-62366558D03*
X152122180Y-62366558D03*
D23*
X149352180Y-55316558D03*
X150312180Y-55316558D03*
D24*
X70246758Y-125477250D03*
X70246758Y-124577250D03*
X69346758Y-124577250D03*
X69346758Y-125477250D03*
D25*
X156332180Y-78315618D03*
X156332180Y-77315618D03*
D26*
X138112180Y-57466558D03*
X137152180Y-57466558D03*
D27*
X156332180Y-48666558D03*
D28*
X156332180Y-48166558D03*
D29*
X156332180Y-47666558D03*
D30*
X156332180Y-47166558D03*
D31*
X155332180Y-47166558D03*
D29*
X155332180Y-47666558D03*
D28*
X155332180Y-48166558D03*
D32*
X155332180Y-48666558D03*
D33*
X145817180Y-53416558D03*
X146847180Y-53416558D03*
D24*
X282882180Y-120208118D03*
X282882180Y-119308118D03*
X281982180Y-119308118D03*
X281982180Y-120208118D03*
D34*
X301432180Y-43916558D03*
D23*
X144682180Y-66978118D03*
X145642180Y-66978118D03*
D22*
X199582180Y-125558118D03*
X199582180Y-126558118D03*
D35*
X283282180Y-44366558D03*
X284182180Y-44366558D03*
X284182180Y-43466558D03*
X283282180Y-43466558D03*
D22*
X71446758Y-124577250D03*
X71446758Y-125577250D03*
D23*
X156222180Y-53576558D03*
X157182180Y-53576558D03*
D35*
X289282180Y-44366558D03*
X290182180Y-44366558D03*
X290182180Y-43466558D03*
X289282180Y-43466558D03*
D36*
X113152180Y-73278118D03*
X114712180Y-73278118D03*
D15*
X144232180Y-50118118D03*
X144232180Y-51138118D03*
D33*
X145817180Y-52466558D03*
X146847180Y-52466558D03*
D10*
X177432180Y-184679118D03*
D11*
X177932180Y-189829118D03*
D12*
X182932180Y-178779118D03*
D13*
X182932180Y-184679118D03*
D12*
X187932180Y-180879118D03*
D10*
X188432180Y-184679118D03*
D37*
X154682180Y-76078118D03*
X153732180Y-76078118D03*
X152782180Y-76078118D03*
X152782180Y-78353118D03*
X154682180Y-78353118D03*
D22*
X100541758Y-124697250D03*
X100541758Y-125697250D03*
D38*
X160882180Y-48766558D03*
X159007180Y-48766558D03*
D24*
X107391758Y-98417250D03*
X107391758Y-97517250D03*
X106491758Y-97517250D03*
X106491758Y-98417250D03*
D36*
X113152180Y-74478118D03*
X114712180Y-74478118D03*
D39*
X123432180Y-69591558D03*
X123432180Y-64441558D03*
X125132180Y-69591558D03*
X125132180Y-64441558D03*
D40*
X148657180Y-52486558D03*
X148657180Y-53446558D03*
D24*
X253922180Y-114808118D03*
X253922180Y-113908118D03*
X253022180Y-113908118D03*
X253022180Y-114808118D03*
X198382180Y-126458118D03*
X198382180Y-125558118D03*
X197482180Y-125558118D03*
X197482180Y-126458118D03*
D11*
X78582180Y-47726558D03*
X78582180Y-45186558D03*
X78582180Y-42646558D03*
X78582180Y-40106558D03*
D15*
X143232180Y-50128118D03*
X143232180Y-51148118D03*
D24*
X99341758Y-125597250D03*
X99341758Y-124697250D03*
X98441758Y-124697250D03*
X98441758Y-125597250D03*
D34*
X60432180Y-56916558D03*
D23*
X148077180Y-62791558D03*
X149037180Y-62791558D03*
D34*
X301432180Y-197916558D03*
D41*
X154902180Y-53576558D03*
X154902180Y-52626558D03*
X154902180Y-51676558D03*
X152702180Y-51676558D03*
X152702180Y-53576558D03*
D42*
X225482180Y-47166558D03*
X225482180Y-40666558D03*
X229982180Y-47166558D03*
X229982180Y-40666558D03*
D10*
X101582180Y-92829118D03*
D11*
X102082180Y-97979118D03*
D12*
X107082180Y-86929118D03*
D13*
X107082180Y-92829118D03*
D12*
X112082180Y-89029118D03*
D10*
X112582180Y-92829118D03*
D26*
X142432180Y-65378118D03*
X141472180Y-65378118D03*
X142662180Y-66978118D03*
X141702180Y-66978118D03*
D43*
X135727180Y-51666558D03*
X136997180Y-51666558D03*
X138267180Y-51666558D03*
X139537180Y-51666558D03*
X139537180Y-44466558D03*
X138267180Y-44466558D03*
X136997180Y-44466558D03*
X135727180Y-44466558D03*
D44*
X129062180Y-71928118D03*
X130082180Y-71928118D03*
D24*
X219382180Y-146388118D03*
X219382180Y-145488118D03*
X218482180Y-145488118D03*
X218482180Y-146388118D03*
D45*
X140894680Y-55216558D03*
D46*
X140894680Y-55616558D03*
X140894680Y-56016558D03*
X140894680Y-56416558D03*
X140894680Y-56816558D03*
X140894680Y-57216558D03*
X140894680Y-57616558D03*
X140894680Y-58016558D03*
X140894680Y-58416558D03*
X140894680Y-58816558D03*
X140894680Y-59216558D03*
X140894680Y-59616558D03*
X140894680Y-60016558D03*
X140894680Y-60416558D03*
D47*
X140894680Y-60816558D03*
D48*
X141532180Y-61454058D03*
D49*
X141932180Y-61454058D03*
X142332180Y-61454058D03*
X142732180Y-61454058D03*
X143132180Y-61454058D03*
X143532180Y-61454058D03*
X143932180Y-61454058D03*
X144332180Y-61454058D03*
X144732180Y-61454058D03*
X145132180Y-61454058D03*
X145532180Y-61454058D03*
X145932180Y-61454058D03*
X146332180Y-61454058D03*
X146732180Y-61454058D03*
D50*
X147132180Y-61454058D03*
D51*
X147769680Y-60816558D03*
D46*
X147769680Y-60416558D03*
X147769680Y-60016558D03*
X147769680Y-59616558D03*
X147769680Y-59216558D03*
X147769680Y-58816558D03*
X147769680Y-58416558D03*
X147769680Y-58016558D03*
X147769680Y-57616558D03*
X147769680Y-57216558D03*
X147769680Y-56816558D03*
X147769680Y-56416558D03*
X147769680Y-56016558D03*
X147769680Y-55616558D03*
D52*
X147769680Y-55216558D03*
D53*
X147132180Y-54579058D03*
D49*
X146732180Y-54579058D03*
X146332180Y-54579058D03*
X145932180Y-54579058D03*
X145532180Y-54579058D03*
X145132180Y-54579058D03*
X144732180Y-54579058D03*
X144332180Y-54579058D03*
X143932180Y-54579058D03*
X143532180Y-54579058D03*
X143132180Y-54579058D03*
X142732180Y-54579058D03*
X142332180Y-54579058D03*
X141932180Y-54579058D03*
D54*
X141532180Y-54579058D03*
D55*
X144332180Y-58016558D03*
D10*
X193932180Y-92929118D03*
D11*
X194432180Y-98079118D03*
D12*
X199432180Y-87029118D03*
D13*
X199432180Y-92929118D03*
D12*
X204432180Y-89129118D03*
D10*
X204932180Y-92929118D03*
D24*
X224641758Y-115017250D03*
X224641758Y-114117250D03*
X223741758Y-114117250D03*
X223741758Y-115017250D03*
D15*
X136832180Y-53656558D03*
X136832180Y-54676558D03*
D42*
X258482180Y-47166558D03*
X258482180Y-40666558D03*
X262982180Y-47166558D03*
X262982180Y-40666558D03*
D22*
X225841758Y-114117250D03*
X225841758Y-115117250D03*
D40*
X145132180Y-63766558D03*
X145132180Y-64726558D03*
D22*
X217630005Y-173219118D03*
X217630005Y-174219118D03*
D24*
X216430005Y-174119118D03*
X216430005Y-173219118D03*
X215530005Y-173219118D03*
X215530005Y-174119118D03*
D34*
X73432180Y-197916558D03*
D42*
X268482180Y-47166558D03*
X268482180Y-40666558D03*
X272982180Y-47166558D03*
X272982180Y-40666558D03*
D15*
X143932180Y-63756558D03*
X143932180Y-64776558D03*
D22*
X108591758Y-97517250D03*
X108591758Y-98517250D03*
D42*
X235482180Y-47166558D03*
X235482180Y-40666558D03*
X239982180Y-47166558D03*
X239982180Y-40666558D03*
D56*
X145632180Y-50816558D03*
X147032180Y-50816558D03*
D39*
X129082180Y-69591558D03*
X129082180Y-64441558D03*
X130782180Y-69591558D03*
X130782180Y-64441558D03*
D22*
X152732180Y-81178118D03*
X152732180Y-82178118D03*
D24*
X199882180Y-98309118D03*
X199882180Y-97409118D03*
X198982180Y-97409118D03*
X198982180Y-98309118D03*
X183382180Y-190059123D03*
X183382180Y-189159123D03*
X182482180Y-189159123D03*
X182482180Y-190059123D03*
D22*
X220582180Y-145488118D03*
X220582180Y-146488118D03*
D57*
X134082180Y-44796558D03*
X134082180Y-43836558D03*
D10*
X210480005Y-168849123D03*
D11*
X210980005Y-173999123D03*
D12*
X215980005Y-162949123D03*
D13*
X215980005Y-168849123D03*
D12*
X220980005Y-165049123D03*
D10*
X221480005Y-168849123D03*
D22*
X255122180Y-113908118D03*
X255122180Y-114908118D03*
X127141758Y-136047250D03*
X127141758Y-137047250D03*
D14*
X143532180Y-86316558D03*
D26*
X134572502Y-59461250D03*
X133612502Y-59461250D03*
D35*
X280282180Y-44366558D03*
X281182180Y-44366558D03*
X281182180Y-43466558D03*
X280282180Y-43466558D03*
D42*
X215482180Y-47166558D03*
X215482180Y-40666558D03*
X219982180Y-47166558D03*
X219982180Y-40666558D03*
D22*
X144641758Y-189147250D03*
X144641758Y-190147250D03*
D15*
X148657180Y-50606558D03*
X148657180Y-51626558D03*
D24*
X192772180Y-157498118D03*
X192772180Y-156598118D03*
X191872180Y-156598118D03*
X191872180Y-157498118D03*
D34*
X146932180Y-43916558D03*
D58*
X142482180Y-71228118D03*
X144682180Y-71228118D03*
X144682180Y-69528118D03*
X142482180Y-69528118D03*
D40*
X139532180Y-54336558D03*
X139532180Y-55296558D03*
D24*
X248232180Y-146388118D03*
X248232180Y-145488118D03*
X247332180Y-145488118D03*
X247332180Y-146388118D03*
D22*
X201082180Y-97409118D03*
X201082180Y-98409118D03*
D57*
X142232180Y-51096558D03*
X142232180Y-50136558D03*
D24*
X125941758Y-136947250D03*
X125941758Y-136047250D03*
X125041758Y-136047250D03*
X125041758Y-136947250D03*
D42*
X248482180Y-47166558D03*
X248482180Y-40666558D03*
X252982180Y-47166558D03*
X252982180Y-40666558D03*
D57*
X151172180Y-53576558D03*
X151172180Y-52616558D03*
D22*
X278642180Y-150648118D03*
X278642180Y-151648118D03*
D24*
X277442180Y-151548118D03*
X277442180Y-150648118D03*
X276542180Y-150648118D03*
X276542180Y-151548118D03*
D35*
X286282180Y-44366558D03*
X287182180Y-44366558D03*
X287182180Y-43466558D03*
X286282180Y-43466558D03*
D23*
X154352180Y-57953118D03*
X155312180Y-57953118D03*
D24*
X143441758Y-190047250D03*
X143441758Y-189147250D03*
X142541758Y-189147250D03*
X142541758Y-190047250D03*
D22*
X284082180Y-119308118D03*
X284082180Y-120308118D03*
X193972180Y-156598118D03*
X193972180Y-157598118D03*
D59*
X227632180Y-55846558D03*
X227632180Y-68986558D03*
M02*
