G04 #@! TF.GenerationSoftware,KiCad,Pcbnew,9.0.7*
G04 #@! TF.CreationDate,2026-03-10T13:56:10+08:00*
G04 #@! TF.ProjectId,Flatbox-rev8,466c6174-626f-4782-9d72-6576382e6b69,rev?*
G04 #@! TF.SameCoordinates,Original*
G04 #@! TF.FileFunction,Legend,Bot*
G04 #@! TF.FilePolarity,Positive*
%FSLAX46Y46*%
G04 Gerber Fmt 4.6, Leading zero omitted, Abs format (unit mm)*
G04 Created by KiCad (PCBNEW 9.0.7) date 2026-03-10 13:56:10*
%MOMM*%
%LPD*%
G01*
G04 APERTURE LIST*
%ADD10C,0.150000*%
%ADD11C,0.120000*%
G04 APERTURE END LIST*
D10*
X217721591Y-159276556D02*
X217816829Y-159228937D01*
X217816829Y-159228937D02*
X217959686Y-159228937D01*
X217959686Y-159228937D02*
X218102543Y-159276556D01*
X218102543Y-159276556D02*
X218197781Y-159371794D01*
X218197781Y-159371794D02*
X218245400Y-159467032D01*
X218245400Y-159467032D02*
X218293019Y-159657508D01*
X218293019Y-159657508D02*
X218293019Y-159800365D01*
X218293019Y-159800365D02*
X218245400Y-159990841D01*
X218245400Y-159990841D02*
X218197781Y-160086079D01*
X218197781Y-160086079D02*
X218102543Y-160181318D01*
X218102543Y-160181318D02*
X217959686Y-160228937D01*
X217959686Y-160228937D02*
X217864448Y-160228937D01*
X217864448Y-160228937D02*
X217721591Y-160181318D01*
X217721591Y-160181318D02*
X217673972Y-160133698D01*
X217673972Y-160133698D02*
X217673972Y-159800365D01*
X217673972Y-159800365D02*
X217864448Y-159800365D01*
X217245400Y-160228937D02*
X217245400Y-159228937D01*
X217245400Y-159228937D02*
X216864448Y-159228937D01*
X216864448Y-159228937D02*
X216769210Y-159276556D01*
X216769210Y-159276556D02*
X216721591Y-159324175D01*
X216721591Y-159324175D02*
X216673972Y-159419413D01*
X216673972Y-159419413D02*
X216673972Y-159562270D01*
X216673972Y-159562270D02*
X216721591Y-159657508D01*
X216721591Y-159657508D02*
X216769210Y-159705127D01*
X216769210Y-159705127D02*
X216864448Y-159752746D01*
X216864448Y-159752746D02*
X217245400Y-159752746D01*
X216245400Y-160228937D02*
X216245400Y-159228937D01*
X215578734Y-159228937D02*
X215388258Y-159228937D01*
X215388258Y-159228937D02*
X215293020Y-159276556D01*
X215293020Y-159276556D02*
X215197782Y-159371794D01*
X215197782Y-159371794D02*
X215150163Y-159562270D01*
X215150163Y-159562270D02*
X215150163Y-159895603D01*
X215150163Y-159895603D02*
X215197782Y-160086079D01*
X215197782Y-160086079D02*
X215293020Y-160181318D01*
X215293020Y-160181318D02*
X215388258Y-160228937D01*
X215388258Y-160228937D02*
X215578734Y-160228937D01*
X215578734Y-160228937D02*
X215673972Y-160181318D01*
X215673972Y-160181318D02*
X215769210Y-160086079D01*
X215769210Y-160086079D02*
X215816829Y-159895603D01*
X215816829Y-159895603D02*
X215816829Y-159562270D01*
X215816829Y-159562270D02*
X215769210Y-159371794D01*
X215769210Y-159371794D02*
X215673972Y-159276556D01*
X215673972Y-159276556D02*
X215578734Y-159228937D01*
X214197782Y-160228937D02*
X214769210Y-160228937D01*
X214483496Y-160228937D02*
X214483496Y-159228937D01*
X214483496Y-159228937D02*
X214578734Y-159371794D01*
X214578734Y-159371794D02*
X214673972Y-159467032D01*
X214673972Y-159467032D02*
X214769210Y-159514651D01*
X213721591Y-160228937D02*
X213531115Y-160228937D01*
X213531115Y-160228937D02*
X213435877Y-160181318D01*
X213435877Y-160181318D02*
X213388258Y-160133698D01*
X213388258Y-160133698D02*
X213293020Y-159990841D01*
X213293020Y-159990841D02*
X213245401Y-159800365D01*
X213245401Y-159800365D02*
X213245401Y-159419413D01*
X213245401Y-159419413D02*
X213293020Y-159324175D01*
X213293020Y-159324175D02*
X213340639Y-159276556D01*
X213340639Y-159276556D02*
X213435877Y-159228937D01*
X213435877Y-159228937D02*
X213626353Y-159228937D01*
X213626353Y-159228937D02*
X213721591Y-159276556D01*
X213721591Y-159276556D02*
X213769210Y-159324175D01*
X213769210Y-159324175D02*
X213816829Y-159419413D01*
X213816829Y-159419413D02*
X213816829Y-159657508D01*
X213816829Y-159657508D02*
X213769210Y-159752746D01*
X213769210Y-159752746D02*
X213721591Y-159800365D01*
X213721591Y-159800365D02*
X213626353Y-159847984D01*
X213626353Y-159847984D02*
X213435877Y-159847984D01*
X213435877Y-159847984D02*
X213340639Y-159800365D01*
X213340639Y-159800365D02*
X213293020Y-159752746D01*
X213293020Y-159752746D02*
X213245401Y-159657508D01*
X201071591Y-83176556D02*
X201166829Y-83128937D01*
X201166829Y-83128937D02*
X201309686Y-83128937D01*
X201309686Y-83128937D02*
X201452543Y-83176556D01*
X201452543Y-83176556D02*
X201547781Y-83271794D01*
X201547781Y-83271794D02*
X201595400Y-83367032D01*
X201595400Y-83367032D02*
X201643019Y-83557508D01*
X201643019Y-83557508D02*
X201643019Y-83700365D01*
X201643019Y-83700365D02*
X201595400Y-83890841D01*
X201595400Y-83890841D02*
X201547781Y-83986079D01*
X201547781Y-83986079D02*
X201452543Y-84081318D01*
X201452543Y-84081318D02*
X201309686Y-84128937D01*
X201309686Y-84128937D02*
X201214448Y-84128937D01*
X201214448Y-84128937D02*
X201071591Y-84081318D01*
X201071591Y-84081318D02*
X201023972Y-84033698D01*
X201023972Y-84033698D02*
X201023972Y-83700365D01*
X201023972Y-83700365D02*
X201214448Y-83700365D01*
X200595400Y-84128937D02*
X200595400Y-83128937D01*
X200595400Y-83128937D02*
X200214448Y-83128937D01*
X200214448Y-83128937D02*
X200119210Y-83176556D01*
X200119210Y-83176556D02*
X200071591Y-83224175D01*
X200071591Y-83224175D02*
X200023972Y-83319413D01*
X200023972Y-83319413D02*
X200023972Y-83462270D01*
X200023972Y-83462270D02*
X200071591Y-83557508D01*
X200071591Y-83557508D02*
X200119210Y-83605127D01*
X200119210Y-83605127D02*
X200214448Y-83652746D01*
X200214448Y-83652746D02*
X200595400Y-83652746D01*
X199595400Y-84128937D02*
X199595400Y-83128937D01*
X198928734Y-83128937D02*
X198738258Y-83128937D01*
X198738258Y-83128937D02*
X198643020Y-83176556D01*
X198643020Y-83176556D02*
X198547782Y-83271794D01*
X198547782Y-83271794D02*
X198500163Y-83462270D01*
X198500163Y-83462270D02*
X198500163Y-83795603D01*
X198500163Y-83795603D02*
X198547782Y-83986079D01*
X198547782Y-83986079D02*
X198643020Y-84081318D01*
X198643020Y-84081318D02*
X198738258Y-84128937D01*
X198738258Y-84128937D02*
X198928734Y-84128937D01*
X198928734Y-84128937D02*
X199023972Y-84081318D01*
X199023972Y-84081318D02*
X199119210Y-83986079D01*
X199119210Y-83986079D02*
X199166829Y-83795603D01*
X199166829Y-83795603D02*
X199166829Y-83462270D01*
X199166829Y-83462270D02*
X199119210Y-83271794D01*
X199119210Y-83271794D02*
X199023972Y-83176556D01*
X199023972Y-83176556D02*
X198928734Y-83128937D01*
X197547782Y-84128937D02*
X198119210Y-84128937D01*
X197833496Y-84128937D02*
X197833496Y-83128937D01*
X197833496Y-83128937D02*
X197928734Y-83271794D01*
X197928734Y-83271794D02*
X198023972Y-83367032D01*
X198023972Y-83367032D02*
X198119210Y-83414651D01*
X196976353Y-83557508D02*
X197071591Y-83509889D01*
X197071591Y-83509889D02*
X197119210Y-83462270D01*
X197119210Y-83462270D02*
X197166829Y-83367032D01*
X197166829Y-83367032D02*
X197166829Y-83319413D01*
X197166829Y-83319413D02*
X197119210Y-83224175D01*
X197119210Y-83224175D02*
X197071591Y-83176556D01*
X197071591Y-83176556D02*
X196976353Y-83128937D01*
X196976353Y-83128937D02*
X196785877Y-83128937D01*
X196785877Y-83128937D02*
X196690639Y-83176556D01*
X196690639Y-83176556D02*
X196643020Y-83224175D01*
X196643020Y-83224175D02*
X196595401Y-83319413D01*
X196595401Y-83319413D02*
X196595401Y-83367032D01*
X196595401Y-83367032D02*
X196643020Y-83462270D01*
X196643020Y-83462270D02*
X196690639Y-83509889D01*
X196690639Y-83509889D02*
X196785877Y-83557508D01*
X196785877Y-83557508D02*
X196976353Y-83557508D01*
X196976353Y-83557508D02*
X197071591Y-83605127D01*
X197071591Y-83605127D02*
X197119210Y-83652746D01*
X197119210Y-83652746D02*
X197166829Y-83747984D01*
X197166829Y-83747984D02*
X197166829Y-83938460D01*
X197166829Y-83938460D02*
X197119210Y-84033698D01*
X197119210Y-84033698D02*
X197071591Y-84081318D01*
X197071591Y-84081318D02*
X196976353Y-84128937D01*
X196976353Y-84128937D02*
X196785877Y-84128937D01*
X196785877Y-84128937D02*
X196690639Y-84081318D01*
X196690639Y-84081318D02*
X196643020Y-84033698D01*
X196643020Y-84033698D02*
X196595401Y-83938460D01*
X196595401Y-83938460D02*
X196595401Y-83747984D01*
X196595401Y-83747984D02*
X196643020Y-83652746D01*
X196643020Y-83652746D02*
X196690639Y-83605127D01*
X196690639Y-83605127D02*
X196785877Y-83557508D01*
X220571591Y-131226556D02*
X220666829Y-131178937D01*
X220666829Y-131178937D02*
X220809686Y-131178937D01*
X220809686Y-131178937D02*
X220952543Y-131226556D01*
X220952543Y-131226556D02*
X221047781Y-131321794D01*
X221047781Y-131321794D02*
X221095400Y-131417032D01*
X221095400Y-131417032D02*
X221143019Y-131607508D01*
X221143019Y-131607508D02*
X221143019Y-131750365D01*
X221143019Y-131750365D02*
X221095400Y-131940841D01*
X221095400Y-131940841D02*
X221047781Y-132036079D01*
X221047781Y-132036079D02*
X220952543Y-132131318D01*
X220952543Y-132131318D02*
X220809686Y-132178937D01*
X220809686Y-132178937D02*
X220714448Y-132178937D01*
X220714448Y-132178937D02*
X220571591Y-132131318D01*
X220571591Y-132131318D02*
X220523972Y-132083698D01*
X220523972Y-132083698D02*
X220523972Y-131750365D01*
X220523972Y-131750365D02*
X220714448Y-131750365D01*
X220095400Y-132178937D02*
X220095400Y-131178937D01*
X220095400Y-131178937D02*
X219714448Y-131178937D01*
X219714448Y-131178937D02*
X219619210Y-131226556D01*
X219619210Y-131226556D02*
X219571591Y-131274175D01*
X219571591Y-131274175D02*
X219523972Y-131369413D01*
X219523972Y-131369413D02*
X219523972Y-131512270D01*
X219523972Y-131512270D02*
X219571591Y-131607508D01*
X219571591Y-131607508D02*
X219619210Y-131655127D01*
X219619210Y-131655127D02*
X219714448Y-131702746D01*
X219714448Y-131702746D02*
X220095400Y-131702746D01*
X219095400Y-132178937D02*
X219095400Y-131178937D01*
X218428734Y-131178937D02*
X218238258Y-131178937D01*
X218238258Y-131178937D02*
X218143020Y-131226556D01*
X218143020Y-131226556D02*
X218047782Y-131321794D01*
X218047782Y-131321794D02*
X218000163Y-131512270D01*
X218000163Y-131512270D02*
X218000163Y-131845603D01*
X218000163Y-131845603D02*
X218047782Y-132036079D01*
X218047782Y-132036079D02*
X218143020Y-132131318D01*
X218143020Y-132131318D02*
X218238258Y-132178937D01*
X218238258Y-132178937D02*
X218428734Y-132178937D01*
X218428734Y-132178937D02*
X218523972Y-132131318D01*
X218523972Y-132131318D02*
X218619210Y-132036079D01*
X218619210Y-132036079D02*
X218666829Y-131845603D01*
X218666829Y-131845603D02*
X218666829Y-131512270D01*
X218666829Y-131512270D02*
X218619210Y-131321794D01*
X218619210Y-131321794D02*
X218523972Y-131226556D01*
X218523972Y-131226556D02*
X218428734Y-131178937D01*
X217666829Y-131178937D02*
X217047782Y-131178937D01*
X217047782Y-131178937D02*
X217381115Y-131559889D01*
X217381115Y-131559889D02*
X217238258Y-131559889D01*
X217238258Y-131559889D02*
X217143020Y-131607508D01*
X217143020Y-131607508D02*
X217095401Y-131655127D01*
X217095401Y-131655127D02*
X217047782Y-131750365D01*
X217047782Y-131750365D02*
X217047782Y-131988460D01*
X217047782Y-131988460D02*
X217095401Y-132083698D01*
X217095401Y-132083698D02*
X217143020Y-132131318D01*
X217143020Y-132131318D02*
X217238258Y-132178937D01*
X217238258Y-132178937D02*
X217523972Y-132178937D01*
X217523972Y-132178937D02*
X217619210Y-132131318D01*
X217619210Y-132131318D02*
X217666829Y-132083698D01*
X216190639Y-131178937D02*
X216381115Y-131178937D01*
X216381115Y-131178937D02*
X216476353Y-131226556D01*
X216476353Y-131226556D02*
X216523972Y-131274175D01*
X216523972Y-131274175D02*
X216619210Y-131417032D01*
X216619210Y-131417032D02*
X216666829Y-131607508D01*
X216666829Y-131607508D02*
X216666829Y-131988460D01*
X216666829Y-131988460D02*
X216619210Y-132083698D01*
X216619210Y-132083698D02*
X216571591Y-132131318D01*
X216571591Y-132131318D02*
X216476353Y-132178937D01*
X216476353Y-132178937D02*
X216285877Y-132178937D01*
X216285877Y-132178937D02*
X216190639Y-132131318D01*
X216190639Y-132131318D02*
X216143020Y-132083698D01*
X216143020Y-132083698D02*
X216095401Y-131988460D01*
X216095401Y-131988460D02*
X216095401Y-131750365D01*
X216095401Y-131750365D02*
X216143020Y-131655127D01*
X216143020Y-131655127D02*
X216190639Y-131607508D01*
X216190639Y-131607508D02*
X216285877Y-131559889D01*
X216285877Y-131559889D02*
X216476353Y-131559889D01*
X216476353Y-131559889D02*
X216571591Y-131607508D01*
X216571591Y-131607508D02*
X216619210Y-131655127D01*
X216619210Y-131655127D02*
X216666829Y-131750365D01*
X284121591Y-105176556D02*
X284216829Y-105128937D01*
X284216829Y-105128937D02*
X284359686Y-105128937D01*
X284359686Y-105128937D02*
X284502543Y-105176556D01*
X284502543Y-105176556D02*
X284597781Y-105271794D01*
X284597781Y-105271794D02*
X284645400Y-105367032D01*
X284645400Y-105367032D02*
X284693019Y-105557508D01*
X284693019Y-105557508D02*
X284693019Y-105700365D01*
X284693019Y-105700365D02*
X284645400Y-105890841D01*
X284645400Y-105890841D02*
X284597781Y-105986079D01*
X284597781Y-105986079D02*
X284502543Y-106081318D01*
X284502543Y-106081318D02*
X284359686Y-106128937D01*
X284359686Y-106128937D02*
X284264448Y-106128937D01*
X284264448Y-106128937D02*
X284121591Y-106081318D01*
X284121591Y-106081318D02*
X284073972Y-106033698D01*
X284073972Y-106033698D02*
X284073972Y-105700365D01*
X284073972Y-105700365D02*
X284264448Y-105700365D01*
X283645400Y-106128937D02*
X283645400Y-105128937D01*
X283645400Y-105128937D02*
X283264448Y-105128937D01*
X283264448Y-105128937D02*
X283169210Y-105176556D01*
X283169210Y-105176556D02*
X283121591Y-105224175D01*
X283121591Y-105224175D02*
X283073972Y-105319413D01*
X283073972Y-105319413D02*
X283073972Y-105462270D01*
X283073972Y-105462270D02*
X283121591Y-105557508D01*
X283121591Y-105557508D02*
X283169210Y-105605127D01*
X283169210Y-105605127D02*
X283264448Y-105652746D01*
X283264448Y-105652746D02*
X283645400Y-105652746D01*
X282645400Y-106128937D02*
X282645400Y-105128937D01*
X281978734Y-105128937D02*
X281788258Y-105128937D01*
X281788258Y-105128937D02*
X281693020Y-105176556D01*
X281693020Y-105176556D02*
X281597782Y-105271794D01*
X281597782Y-105271794D02*
X281550163Y-105462270D01*
X281550163Y-105462270D02*
X281550163Y-105795603D01*
X281550163Y-105795603D02*
X281597782Y-105986079D01*
X281597782Y-105986079D02*
X281693020Y-106081318D01*
X281693020Y-106081318D02*
X281788258Y-106128937D01*
X281788258Y-106128937D02*
X281978734Y-106128937D01*
X281978734Y-106128937D02*
X282073972Y-106081318D01*
X282073972Y-106081318D02*
X282169210Y-105986079D01*
X282169210Y-105986079D02*
X282216829Y-105795603D01*
X282216829Y-105795603D02*
X282216829Y-105462270D01*
X282216829Y-105462270D02*
X282169210Y-105271794D01*
X282169210Y-105271794D02*
X282073972Y-105176556D01*
X282073972Y-105176556D02*
X281978734Y-105128937D01*
X280693020Y-105462270D02*
X280693020Y-106128937D01*
X280931115Y-105081318D02*
X281169210Y-105795603D01*
X281169210Y-105795603D02*
X280550163Y-105795603D01*
X280264448Y-105128937D02*
X279645401Y-105128937D01*
X279645401Y-105128937D02*
X279978734Y-105509889D01*
X279978734Y-105509889D02*
X279835877Y-105509889D01*
X279835877Y-105509889D02*
X279740639Y-105557508D01*
X279740639Y-105557508D02*
X279693020Y-105605127D01*
X279693020Y-105605127D02*
X279645401Y-105700365D01*
X279645401Y-105700365D02*
X279645401Y-105938460D01*
X279645401Y-105938460D02*
X279693020Y-106033698D01*
X279693020Y-106033698D02*
X279740639Y-106081318D01*
X279740639Y-106081318D02*
X279835877Y-106128937D01*
X279835877Y-106128937D02*
X280121591Y-106128937D01*
X280121591Y-106128937D02*
X280216829Y-106081318D01*
X280216829Y-106081318D02*
X280264448Y-106033698D01*
X144921591Y-175176556D02*
X145016829Y-175128937D01*
X145016829Y-175128937D02*
X145159686Y-175128937D01*
X145159686Y-175128937D02*
X145302543Y-175176556D01*
X145302543Y-175176556D02*
X145397781Y-175271794D01*
X145397781Y-175271794D02*
X145445400Y-175367032D01*
X145445400Y-175367032D02*
X145493019Y-175557508D01*
X145493019Y-175557508D02*
X145493019Y-175700365D01*
X145493019Y-175700365D02*
X145445400Y-175890841D01*
X145445400Y-175890841D02*
X145397781Y-175986079D01*
X145397781Y-175986079D02*
X145302543Y-176081318D01*
X145302543Y-176081318D02*
X145159686Y-176128937D01*
X145159686Y-176128937D02*
X145064448Y-176128937D01*
X145064448Y-176128937D02*
X144921591Y-176081318D01*
X144921591Y-176081318D02*
X144873972Y-176033698D01*
X144873972Y-176033698D02*
X144873972Y-175700365D01*
X144873972Y-175700365D02*
X145064448Y-175700365D01*
X144445400Y-176128937D02*
X144445400Y-175128937D01*
X144445400Y-175128937D02*
X144064448Y-175128937D01*
X144064448Y-175128937D02*
X143969210Y-175176556D01*
X143969210Y-175176556D02*
X143921591Y-175224175D01*
X143921591Y-175224175D02*
X143873972Y-175319413D01*
X143873972Y-175319413D02*
X143873972Y-175462270D01*
X143873972Y-175462270D02*
X143921591Y-175557508D01*
X143921591Y-175557508D02*
X143969210Y-175605127D01*
X143969210Y-175605127D02*
X144064448Y-175652746D01*
X144064448Y-175652746D02*
X144445400Y-175652746D01*
X143445400Y-176128937D02*
X143445400Y-175128937D01*
X142778734Y-175128937D02*
X142588258Y-175128937D01*
X142588258Y-175128937D02*
X142493020Y-175176556D01*
X142493020Y-175176556D02*
X142397782Y-175271794D01*
X142397782Y-175271794D02*
X142350163Y-175462270D01*
X142350163Y-175462270D02*
X142350163Y-175795603D01*
X142350163Y-175795603D02*
X142397782Y-175986079D01*
X142397782Y-175986079D02*
X142493020Y-176081318D01*
X142493020Y-176081318D02*
X142588258Y-176128937D01*
X142588258Y-176128937D02*
X142778734Y-176128937D01*
X142778734Y-176128937D02*
X142873972Y-176081318D01*
X142873972Y-176081318D02*
X142969210Y-175986079D01*
X142969210Y-175986079D02*
X143016829Y-175795603D01*
X143016829Y-175795603D02*
X143016829Y-175462270D01*
X143016829Y-175462270D02*
X142969210Y-175271794D01*
X142969210Y-175271794D02*
X142873972Y-175176556D01*
X142873972Y-175176556D02*
X142778734Y-175128937D01*
X142016829Y-175128937D02*
X141397782Y-175128937D01*
X141397782Y-175128937D02*
X141731115Y-175509889D01*
X141731115Y-175509889D02*
X141588258Y-175509889D01*
X141588258Y-175509889D02*
X141493020Y-175557508D01*
X141493020Y-175557508D02*
X141445401Y-175605127D01*
X141445401Y-175605127D02*
X141397782Y-175700365D01*
X141397782Y-175700365D02*
X141397782Y-175938460D01*
X141397782Y-175938460D02*
X141445401Y-176033698D01*
X141445401Y-176033698D02*
X141493020Y-176081318D01*
X141493020Y-176081318D02*
X141588258Y-176128937D01*
X141588258Y-176128937D02*
X141873972Y-176128937D01*
X141873972Y-176128937D02*
X141969210Y-176081318D01*
X141969210Y-176081318D02*
X142016829Y-176033698D01*
X140540639Y-175462270D02*
X140540639Y-176128937D01*
X140778734Y-175081318D02*
X141016829Y-175795603D01*
X141016829Y-175795603D02*
X140397782Y-175795603D01*
X71471591Y-110533996D02*
X71566829Y-110486377D01*
X71566829Y-110486377D02*
X71709686Y-110486377D01*
X71709686Y-110486377D02*
X71852543Y-110533996D01*
X71852543Y-110533996D02*
X71947781Y-110629234D01*
X71947781Y-110629234D02*
X71995400Y-110724472D01*
X71995400Y-110724472D02*
X72043019Y-110914948D01*
X72043019Y-110914948D02*
X72043019Y-111057805D01*
X72043019Y-111057805D02*
X71995400Y-111248281D01*
X71995400Y-111248281D02*
X71947781Y-111343519D01*
X71947781Y-111343519D02*
X71852543Y-111438758D01*
X71852543Y-111438758D02*
X71709686Y-111486377D01*
X71709686Y-111486377D02*
X71614448Y-111486377D01*
X71614448Y-111486377D02*
X71471591Y-111438758D01*
X71471591Y-111438758D02*
X71423972Y-111391138D01*
X71423972Y-111391138D02*
X71423972Y-111057805D01*
X71423972Y-111057805D02*
X71614448Y-111057805D01*
X70995400Y-111486377D02*
X70995400Y-110486377D01*
X70995400Y-110486377D02*
X70614448Y-110486377D01*
X70614448Y-110486377D02*
X70519210Y-110533996D01*
X70519210Y-110533996D02*
X70471591Y-110581615D01*
X70471591Y-110581615D02*
X70423972Y-110676853D01*
X70423972Y-110676853D02*
X70423972Y-110819710D01*
X70423972Y-110819710D02*
X70471591Y-110914948D01*
X70471591Y-110914948D02*
X70519210Y-110962567D01*
X70519210Y-110962567D02*
X70614448Y-111010186D01*
X70614448Y-111010186D02*
X70995400Y-111010186D01*
X69995400Y-111486377D02*
X69995400Y-110486377D01*
X69328734Y-110486377D02*
X69138258Y-110486377D01*
X69138258Y-110486377D02*
X69043020Y-110533996D01*
X69043020Y-110533996D02*
X68947782Y-110629234D01*
X68947782Y-110629234D02*
X68900163Y-110819710D01*
X68900163Y-110819710D02*
X68900163Y-111153043D01*
X68900163Y-111153043D02*
X68947782Y-111343519D01*
X68947782Y-111343519D02*
X69043020Y-111438758D01*
X69043020Y-111438758D02*
X69138258Y-111486377D01*
X69138258Y-111486377D02*
X69328734Y-111486377D01*
X69328734Y-111486377D02*
X69423972Y-111438758D01*
X69423972Y-111438758D02*
X69519210Y-111343519D01*
X69519210Y-111343519D02*
X69566829Y-111153043D01*
X69566829Y-111153043D02*
X69566829Y-110819710D01*
X69566829Y-110819710D02*
X69519210Y-110629234D01*
X69519210Y-110629234D02*
X69423972Y-110533996D01*
X69423972Y-110533996D02*
X69328734Y-110486377D01*
X67947782Y-111486377D02*
X68519210Y-111486377D01*
X68233496Y-111486377D02*
X68233496Y-110486377D01*
X68233496Y-110486377D02*
X68328734Y-110629234D01*
X68328734Y-110629234D02*
X68423972Y-110724472D01*
X68423972Y-110724472D02*
X68519210Y-110772091D01*
X67614448Y-110486377D02*
X66995401Y-110486377D01*
X66995401Y-110486377D02*
X67328734Y-110867329D01*
X67328734Y-110867329D02*
X67185877Y-110867329D01*
X67185877Y-110867329D02*
X67090639Y-110914948D01*
X67090639Y-110914948D02*
X67043020Y-110962567D01*
X67043020Y-110962567D02*
X66995401Y-111057805D01*
X66995401Y-111057805D02*
X66995401Y-111295900D01*
X66995401Y-111295900D02*
X67043020Y-111391138D01*
X67043020Y-111391138D02*
X67090639Y-111438758D01*
X67090639Y-111438758D02*
X67185877Y-111486377D01*
X67185877Y-111486377D02*
X67471591Y-111486377D01*
X67471591Y-111486377D02*
X67566829Y-111438758D01*
X67566829Y-111438758D02*
X67614448Y-111391138D01*
X279121591Y-136426556D02*
X279216829Y-136378937D01*
X279216829Y-136378937D02*
X279359686Y-136378937D01*
X279359686Y-136378937D02*
X279502543Y-136426556D01*
X279502543Y-136426556D02*
X279597781Y-136521794D01*
X279597781Y-136521794D02*
X279645400Y-136617032D01*
X279645400Y-136617032D02*
X279693019Y-136807508D01*
X279693019Y-136807508D02*
X279693019Y-136950365D01*
X279693019Y-136950365D02*
X279645400Y-137140841D01*
X279645400Y-137140841D02*
X279597781Y-137236079D01*
X279597781Y-137236079D02*
X279502543Y-137331318D01*
X279502543Y-137331318D02*
X279359686Y-137378937D01*
X279359686Y-137378937D02*
X279264448Y-137378937D01*
X279264448Y-137378937D02*
X279121591Y-137331318D01*
X279121591Y-137331318D02*
X279073972Y-137283698D01*
X279073972Y-137283698D02*
X279073972Y-136950365D01*
X279073972Y-136950365D02*
X279264448Y-136950365D01*
X278645400Y-137378937D02*
X278645400Y-136378937D01*
X278645400Y-136378937D02*
X278264448Y-136378937D01*
X278264448Y-136378937D02*
X278169210Y-136426556D01*
X278169210Y-136426556D02*
X278121591Y-136474175D01*
X278121591Y-136474175D02*
X278073972Y-136569413D01*
X278073972Y-136569413D02*
X278073972Y-136712270D01*
X278073972Y-136712270D02*
X278121591Y-136807508D01*
X278121591Y-136807508D02*
X278169210Y-136855127D01*
X278169210Y-136855127D02*
X278264448Y-136902746D01*
X278264448Y-136902746D02*
X278645400Y-136902746D01*
X277645400Y-137378937D02*
X277645400Y-136378937D01*
X276978734Y-136378937D02*
X276788258Y-136378937D01*
X276788258Y-136378937D02*
X276693020Y-136426556D01*
X276693020Y-136426556D02*
X276597782Y-136521794D01*
X276597782Y-136521794D02*
X276550163Y-136712270D01*
X276550163Y-136712270D02*
X276550163Y-137045603D01*
X276550163Y-137045603D02*
X276597782Y-137236079D01*
X276597782Y-137236079D02*
X276693020Y-137331318D01*
X276693020Y-137331318D02*
X276788258Y-137378937D01*
X276788258Y-137378937D02*
X276978734Y-137378937D01*
X276978734Y-137378937D02*
X277073972Y-137331318D01*
X277073972Y-137331318D02*
X277169210Y-137236079D01*
X277169210Y-137236079D02*
X277216829Y-137045603D01*
X277216829Y-137045603D02*
X277216829Y-136712270D01*
X277216829Y-136712270D02*
X277169210Y-136521794D01*
X277169210Y-136521794D02*
X277073972Y-136426556D01*
X277073972Y-136426556D02*
X276978734Y-136378937D01*
X275693020Y-136712270D02*
X275693020Y-137378937D01*
X275931115Y-136331318D02*
X276169210Y-137045603D01*
X276169210Y-137045603D02*
X275550163Y-137045603D01*
X275216829Y-136474175D02*
X275169210Y-136426556D01*
X275169210Y-136426556D02*
X275073972Y-136378937D01*
X275073972Y-136378937D02*
X274835877Y-136378937D01*
X274835877Y-136378937D02*
X274740639Y-136426556D01*
X274740639Y-136426556D02*
X274693020Y-136474175D01*
X274693020Y-136474175D02*
X274645401Y-136569413D01*
X274645401Y-136569413D02*
X274645401Y-136664651D01*
X274645401Y-136664651D02*
X274693020Y-136807508D01*
X274693020Y-136807508D02*
X275264448Y-137378937D01*
X275264448Y-137378937D02*
X274645401Y-137378937D01*
X100671591Y-110733996D02*
X100766829Y-110686377D01*
X100766829Y-110686377D02*
X100909686Y-110686377D01*
X100909686Y-110686377D02*
X101052543Y-110733996D01*
X101052543Y-110733996D02*
X101147781Y-110829234D01*
X101147781Y-110829234D02*
X101195400Y-110924472D01*
X101195400Y-110924472D02*
X101243019Y-111114948D01*
X101243019Y-111114948D02*
X101243019Y-111257805D01*
X101243019Y-111257805D02*
X101195400Y-111448281D01*
X101195400Y-111448281D02*
X101147781Y-111543519D01*
X101147781Y-111543519D02*
X101052543Y-111638758D01*
X101052543Y-111638758D02*
X100909686Y-111686377D01*
X100909686Y-111686377D02*
X100814448Y-111686377D01*
X100814448Y-111686377D02*
X100671591Y-111638758D01*
X100671591Y-111638758D02*
X100623972Y-111591138D01*
X100623972Y-111591138D02*
X100623972Y-111257805D01*
X100623972Y-111257805D02*
X100814448Y-111257805D01*
X100195400Y-111686377D02*
X100195400Y-110686377D01*
X100195400Y-110686377D02*
X99814448Y-110686377D01*
X99814448Y-110686377D02*
X99719210Y-110733996D01*
X99719210Y-110733996D02*
X99671591Y-110781615D01*
X99671591Y-110781615D02*
X99623972Y-110876853D01*
X99623972Y-110876853D02*
X99623972Y-111019710D01*
X99623972Y-111019710D02*
X99671591Y-111114948D01*
X99671591Y-111114948D02*
X99719210Y-111162567D01*
X99719210Y-111162567D02*
X99814448Y-111210186D01*
X99814448Y-111210186D02*
X100195400Y-111210186D01*
X99195400Y-111686377D02*
X99195400Y-110686377D01*
X98528734Y-110686377D02*
X98338258Y-110686377D01*
X98338258Y-110686377D02*
X98243020Y-110733996D01*
X98243020Y-110733996D02*
X98147782Y-110829234D01*
X98147782Y-110829234D02*
X98100163Y-111019710D01*
X98100163Y-111019710D02*
X98100163Y-111353043D01*
X98100163Y-111353043D02*
X98147782Y-111543519D01*
X98147782Y-111543519D02*
X98243020Y-111638758D01*
X98243020Y-111638758D02*
X98338258Y-111686377D01*
X98338258Y-111686377D02*
X98528734Y-111686377D01*
X98528734Y-111686377D02*
X98623972Y-111638758D01*
X98623972Y-111638758D02*
X98719210Y-111543519D01*
X98719210Y-111543519D02*
X98766829Y-111353043D01*
X98766829Y-111353043D02*
X98766829Y-111019710D01*
X98766829Y-111019710D02*
X98719210Y-110829234D01*
X98719210Y-110829234D02*
X98623972Y-110733996D01*
X98623972Y-110733996D02*
X98528734Y-110686377D01*
X97147782Y-111686377D02*
X97719210Y-111686377D01*
X97433496Y-111686377D02*
X97433496Y-110686377D01*
X97433496Y-110686377D02*
X97528734Y-110829234D01*
X97528734Y-110829234D02*
X97623972Y-110924472D01*
X97623972Y-110924472D02*
X97719210Y-110972091D01*
X96290639Y-111019710D02*
X96290639Y-111686377D01*
X96528734Y-110638758D02*
X96766829Y-111353043D01*
X96766829Y-111353043D02*
X96147782Y-111353043D01*
X226171591Y-99976556D02*
X226266829Y-99928937D01*
X226266829Y-99928937D02*
X226409686Y-99928937D01*
X226409686Y-99928937D02*
X226552543Y-99976556D01*
X226552543Y-99976556D02*
X226647781Y-100071794D01*
X226647781Y-100071794D02*
X226695400Y-100167032D01*
X226695400Y-100167032D02*
X226743019Y-100357508D01*
X226743019Y-100357508D02*
X226743019Y-100500365D01*
X226743019Y-100500365D02*
X226695400Y-100690841D01*
X226695400Y-100690841D02*
X226647781Y-100786079D01*
X226647781Y-100786079D02*
X226552543Y-100881318D01*
X226552543Y-100881318D02*
X226409686Y-100928937D01*
X226409686Y-100928937D02*
X226314448Y-100928937D01*
X226314448Y-100928937D02*
X226171591Y-100881318D01*
X226171591Y-100881318D02*
X226123972Y-100833698D01*
X226123972Y-100833698D02*
X226123972Y-100500365D01*
X226123972Y-100500365D02*
X226314448Y-100500365D01*
X225695400Y-100928937D02*
X225695400Y-99928937D01*
X225695400Y-99928937D02*
X225314448Y-99928937D01*
X225314448Y-99928937D02*
X225219210Y-99976556D01*
X225219210Y-99976556D02*
X225171591Y-100024175D01*
X225171591Y-100024175D02*
X225123972Y-100119413D01*
X225123972Y-100119413D02*
X225123972Y-100262270D01*
X225123972Y-100262270D02*
X225171591Y-100357508D01*
X225171591Y-100357508D02*
X225219210Y-100405127D01*
X225219210Y-100405127D02*
X225314448Y-100452746D01*
X225314448Y-100452746D02*
X225695400Y-100452746D01*
X224695400Y-100928937D02*
X224695400Y-99928937D01*
X224028734Y-99928937D02*
X223838258Y-99928937D01*
X223838258Y-99928937D02*
X223743020Y-99976556D01*
X223743020Y-99976556D02*
X223647782Y-100071794D01*
X223647782Y-100071794D02*
X223600163Y-100262270D01*
X223600163Y-100262270D02*
X223600163Y-100595603D01*
X223600163Y-100595603D02*
X223647782Y-100786079D01*
X223647782Y-100786079D02*
X223743020Y-100881318D01*
X223743020Y-100881318D02*
X223838258Y-100928937D01*
X223838258Y-100928937D02*
X224028734Y-100928937D01*
X224028734Y-100928937D02*
X224123972Y-100881318D01*
X224123972Y-100881318D02*
X224219210Y-100786079D01*
X224219210Y-100786079D02*
X224266829Y-100595603D01*
X224266829Y-100595603D02*
X224266829Y-100262270D01*
X224266829Y-100262270D02*
X224219210Y-100071794D01*
X224219210Y-100071794D02*
X224123972Y-99976556D01*
X224123972Y-99976556D02*
X224028734Y-99928937D01*
X223266829Y-99928937D02*
X222647782Y-99928937D01*
X222647782Y-99928937D02*
X222981115Y-100309889D01*
X222981115Y-100309889D02*
X222838258Y-100309889D01*
X222838258Y-100309889D02*
X222743020Y-100357508D01*
X222743020Y-100357508D02*
X222695401Y-100405127D01*
X222695401Y-100405127D02*
X222647782Y-100500365D01*
X222647782Y-100500365D02*
X222647782Y-100738460D01*
X222647782Y-100738460D02*
X222695401Y-100833698D01*
X222695401Y-100833698D02*
X222743020Y-100881318D01*
X222743020Y-100881318D02*
X222838258Y-100928937D01*
X222838258Y-100928937D02*
X223123972Y-100928937D01*
X223123972Y-100928937D02*
X223219210Y-100881318D01*
X223219210Y-100881318D02*
X223266829Y-100833698D01*
X222314448Y-99928937D02*
X221647782Y-99928937D01*
X221647782Y-99928937D02*
X222076353Y-100928937D01*
X127271591Y-122033996D02*
X127366829Y-121986377D01*
X127366829Y-121986377D02*
X127509686Y-121986377D01*
X127509686Y-121986377D02*
X127652543Y-122033996D01*
X127652543Y-122033996D02*
X127747781Y-122129234D01*
X127747781Y-122129234D02*
X127795400Y-122224472D01*
X127795400Y-122224472D02*
X127843019Y-122414948D01*
X127843019Y-122414948D02*
X127843019Y-122557805D01*
X127843019Y-122557805D02*
X127795400Y-122748281D01*
X127795400Y-122748281D02*
X127747781Y-122843519D01*
X127747781Y-122843519D02*
X127652543Y-122938758D01*
X127652543Y-122938758D02*
X127509686Y-122986377D01*
X127509686Y-122986377D02*
X127414448Y-122986377D01*
X127414448Y-122986377D02*
X127271591Y-122938758D01*
X127271591Y-122938758D02*
X127223972Y-122891138D01*
X127223972Y-122891138D02*
X127223972Y-122557805D01*
X127223972Y-122557805D02*
X127414448Y-122557805D01*
X126795400Y-122986377D02*
X126795400Y-121986377D01*
X126795400Y-121986377D02*
X126414448Y-121986377D01*
X126414448Y-121986377D02*
X126319210Y-122033996D01*
X126319210Y-122033996D02*
X126271591Y-122081615D01*
X126271591Y-122081615D02*
X126223972Y-122176853D01*
X126223972Y-122176853D02*
X126223972Y-122319710D01*
X126223972Y-122319710D02*
X126271591Y-122414948D01*
X126271591Y-122414948D02*
X126319210Y-122462567D01*
X126319210Y-122462567D02*
X126414448Y-122510186D01*
X126414448Y-122510186D02*
X126795400Y-122510186D01*
X125795400Y-122986377D02*
X125795400Y-121986377D01*
X125128734Y-121986377D02*
X124938258Y-121986377D01*
X124938258Y-121986377D02*
X124843020Y-122033996D01*
X124843020Y-122033996D02*
X124747782Y-122129234D01*
X124747782Y-122129234D02*
X124700163Y-122319710D01*
X124700163Y-122319710D02*
X124700163Y-122653043D01*
X124700163Y-122653043D02*
X124747782Y-122843519D01*
X124747782Y-122843519D02*
X124843020Y-122938758D01*
X124843020Y-122938758D02*
X124938258Y-122986377D01*
X124938258Y-122986377D02*
X125128734Y-122986377D01*
X125128734Y-122986377D02*
X125223972Y-122938758D01*
X125223972Y-122938758D02*
X125319210Y-122843519D01*
X125319210Y-122843519D02*
X125366829Y-122653043D01*
X125366829Y-122653043D02*
X125366829Y-122319710D01*
X125366829Y-122319710D02*
X125319210Y-122129234D01*
X125319210Y-122129234D02*
X125223972Y-122033996D01*
X125223972Y-122033996D02*
X125128734Y-121986377D01*
X123747782Y-122986377D02*
X124319210Y-122986377D01*
X124033496Y-122986377D02*
X124033496Y-121986377D01*
X124033496Y-121986377D02*
X124128734Y-122129234D01*
X124128734Y-122129234D02*
X124223972Y-122224472D01*
X124223972Y-122224472D02*
X124319210Y-122272091D01*
X122843020Y-121986377D02*
X123319210Y-121986377D01*
X123319210Y-121986377D02*
X123366829Y-122462567D01*
X123366829Y-122462567D02*
X123319210Y-122414948D01*
X123319210Y-122414948D02*
X123223972Y-122367329D01*
X123223972Y-122367329D02*
X122985877Y-122367329D01*
X122985877Y-122367329D02*
X122890639Y-122414948D01*
X122890639Y-122414948D02*
X122843020Y-122462567D01*
X122843020Y-122462567D02*
X122795401Y-122557805D01*
X122795401Y-122557805D02*
X122795401Y-122795900D01*
X122795401Y-122795900D02*
X122843020Y-122891138D01*
X122843020Y-122891138D02*
X122890639Y-122938758D01*
X122890639Y-122938758D02*
X122985877Y-122986377D01*
X122985877Y-122986377D02*
X123223972Y-122986377D01*
X123223972Y-122986377D02*
X123319210Y-122938758D01*
X123319210Y-122938758D02*
X123366829Y-122891138D01*
X255171591Y-99611556D02*
X255266829Y-99563937D01*
X255266829Y-99563937D02*
X255409686Y-99563937D01*
X255409686Y-99563937D02*
X255552543Y-99611556D01*
X255552543Y-99611556D02*
X255647781Y-99706794D01*
X255647781Y-99706794D02*
X255695400Y-99802032D01*
X255695400Y-99802032D02*
X255743019Y-99992508D01*
X255743019Y-99992508D02*
X255743019Y-100135365D01*
X255743019Y-100135365D02*
X255695400Y-100325841D01*
X255695400Y-100325841D02*
X255647781Y-100421079D01*
X255647781Y-100421079D02*
X255552543Y-100516318D01*
X255552543Y-100516318D02*
X255409686Y-100563937D01*
X255409686Y-100563937D02*
X255314448Y-100563937D01*
X255314448Y-100563937D02*
X255171591Y-100516318D01*
X255171591Y-100516318D02*
X255123972Y-100468698D01*
X255123972Y-100468698D02*
X255123972Y-100135365D01*
X255123972Y-100135365D02*
X255314448Y-100135365D01*
X254695400Y-100563937D02*
X254695400Y-99563937D01*
X254695400Y-99563937D02*
X254314448Y-99563937D01*
X254314448Y-99563937D02*
X254219210Y-99611556D01*
X254219210Y-99611556D02*
X254171591Y-99659175D01*
X254171591Y-99659175D02*
X254123972Y-99754413D01*
X254123972Y-99754413D02*
X254123972Y-99897270D01*
X254123972Y-99897270D02*
X254171591Y-99992508D01*
X254171591Y-99992508D02*
X254219210Y-100040127D01*
X254219210Y-100040127D02*
X254314448Y-100087746D01*
X254314448Y-100087746D02*
X254695400Y-100087746D01*
X253695400Y-100563937D02*
X253695400Y-99563937D01*
X253028734Y-99563937D02*
X252838258Y-99563937D01*
X252838258Y-99563937D02*
X252743020Y-99611556D01*
X252743020Y-99611556D02*
X252647782Y-99706794D01*
X252647782Y-99706794D02*
X252600163Y-99897270D01*
X252600163Y-99897270D02*
X252600163Y-100230603D01*
X252600163Y-100230603D02*
X252647782Y-100421079D01*
X252647782Y-100421079D02*
X252743020Y-100516318D01*
X252743020Y-100516318D02*
X252838258Y-100563937D01*
X252838258Y-100563937D02*
X253028734Y-100563937D01*
X253028734Y-100563937D02*
X253123972Y-100516318D01*
X253123972Y-100516318D02*
X253219210Y-100421079D01*
X253219210Y-100421079D02*
X253266829Y-100230603D01*
X253266829Y-100230603D02*
X253266829Y-99897270D01*
X253266829Y-99897270D02*
X253219210Y-99706794D01*
X253219210Y-99706794D02*
X253123972Y-99611556D01*
X253123972Y-99611556D02*
X253028734Y-99563937D01*
X251743020Y-99897270D02*
X251743020Y-100563937D01*
X251981115Y-99516318D02*
X252219210Y-100230603D01*
X252219210Y-100230603D02*
X251600163Y-100230603D01*
X250695401Y-100563937D02*
X251266829Y-100563937D01*
X250981115Y-100563937D02*
X250981115Y-99563937D01*
X250981115Y-99563937D02*
X251076353Y-99706794D01*
X251076353Y-99706794D02*
X251171591Y-99802032D01*
X251171591Y-99802032D02*
X251266829Y-99849651D01*
X199671591Y-111326556D02*
X199766829Y-111278937D01*
X199766829Y-111278937D02*
X199909686Y-111278937D01*
X199909686Y-111278937D02*
X200052543Y-111326556D01*
X200052543Y-111326556D02*
X200147781Y-111421794D01*
X200147781Y-111421794D02*
X200195400Y-111517032D01*
X200195400Y-111517032D02*
X200243019Y-111707508D01*
X200243019Y-111707508D02*
X200243019Y-111850365D01*
X200243019Y-111850365D02*
X200195400Y-112040841D01*
X200195400Y-112040841D02*
X200147781Y-112136079D01*
X200147781Y-112136079D02*
X200052543Y-112231318D01*
X200052543Y-112231318D02*
X199909686Y-112278937D01*
X199909686Y-112278937D02*
X199814448Y-112278937D01*
X199814448Y-112278937D02*
X199671591Y-112231318D01*
X199671591Y-112231318D02*
X199623972Y-112183698D01*
X199623972Y-112183698D02*
X199623972Y-111850365D01*
X199623972Y-111850365D02*
X199814448Y-111850365D01*
X199195400Y-112278937D02*
X199195400Y-111278937D01*
X199195400Y-111278937D02*
X198814448Y-111278937D01*
X198814448Y-111278937D02*
X198719210Y-111326556D01*
X198719210Y-111326556D02*
X198671591Y-111374175D01*
X198671591Y-111374175D02*
X198623972Y-111469413D01*
X198623972Y-111469413D02*
X198623972Y-111612270D01*
X198623972Y-111612270D02*
X198671591Y-111707508D01*
X198671591Y-111707508D02*
X198719210Y-111755127D01*
X198719210Y-111755127D02*
X198814448Y-111802746D01*
X198814448Y-111802746D02*
X199195400Y-111802746D01*
X198195400Y-112278937D02*
X198195400Y-111278937D01*
X197528734Y-111278937D02*
X197338258Y-111278937D01*
X197338258Y-111278937D02*
X197243020Y-111326556D01*
X197243020Y-111326556D02*
X197147782Y-111421794D01*
X197147782Y-111421794D02*
X197100163Y-111612270D01*
X197100163Y-111612270D02*
X197100163Y-111945603D01*
X197100163Y-111945603D02*
X197147782Y-112136079D01*
X197147782Y-112136079D02*
X197243020Y-112231318D01*
X197243020Y-112231318D02*
X197338258Y-112278937D01*
X197338258Y-112278937D02*
X197528734Y-112278937D01*
X197528734Y-112278937D02*
X197623972Y-112231318D01*
X197623972Y-112231318D02*
X197719210Y-112136079D01*
X197719210Y-112136079D02*
X197766829Y-111945603D01*
X197766829Y-111945603D02*
X197766829Y-111612270D01*
X197766829Y-111612270D02*
X197719210Y-111421794D01*
X197719210Y-111421794D02*
X197623972Y-111326556D01*
X197623972Y-111326556D02*
X197528734Y-111278937D01*
X196719210Y-111374175D02*
X196671591Y-111326556D01*
X196671591Y-111326556D02*
X196576353Y-111278937D01*
X196576353Y-111278937D02*
X196338258Y-111278937D01*
X196338258Y-111278937D02*
X196243020Y-111326556D01*
X196243020Y-111326556D02*
X196195401Y-111374175D01*
X196195401Y-111374175D02*
X196147782Y-111469413D01*
X196147782Y-111469413D02*
X196147782Y-111564651D01*
X196147782Y-111564651D02*
X196195401Y-111707508D01*
X196195401Y-111707508D02*
X196766829Y-112278937D01*
X196766829Y-112278937D02*
X196147782Y-112278937D01*
X195671591Y-112278937D02*
X195481115Y-112278937D01*
X195481115Y-112278937D02*
X195385877Y-112231318D01*
X195385877Y-112231318D02*
X195338258Y-112183698D01*
X195338258Y-112183698D02*
X195243020Y-112040841D01*
X195243020Y-112040841D02*
X195195401Y-111850365D01*
X195195401Y-111850365D02*
X195195401Y-111469413D01*
X195195401Y-111469413D02*
X195243020Y-111374175D01*
X195243020Y-111374175D02*
X195290639Y-111326556D01*
X195290639Y-111326556D02*
X195385877Y-111278937D01*
X195385877Y-111278937D02*
X195576353Y-111278937D01*
X195576353Y-111278937D02*
X195671591Y-111326556D01*
X195671591Y-111326556D02*
X195719210Y-111374175D01*
X195719210Y-111374175D02*
X195766829Y-111469413D01*
X195766829Y-111469413D02*
X195766829Y-111707508D01*
X195766829Y-111707508D02*
X195719210Y-111802746D01*
X195719210Y-111802746D02*
X195671591Y-111850365D01*
X195671591Y-111850365D02*
X195576353Y-111897984D01*
X195576353Y-111897984D02*
X195385877Y-111897984D01*
X195385877Y-111897984D02*
X195290639Y-111850365D01*
X195290639Y-111850365D02*
X195243020Y-111802746D01*
X195243020Y-111802746D02*
X195195401Y-111707508D01*
X194171591Y-142276556D02*
X194266829Y-142228937D01*
X194266829Y-142228937D02*
X194409686Y-142228937D01*
X194409686Y-142228937D02*
X194552543Y-142276556D01*
X194552543Y-142276556D02*
X194647781Y-142371794D01*
X194647781Y-142371794D02*
X194695400Y-142467032D01*
X194695400Y-142467032D02*
X194743019Y-142657508D01*
X194743019Y-142657508D02*
X194743019Y-142800365D01*
X194743019Y-142800365D02*
X194695400Y-142990841D01*
X194695400Y-142990841D02*
X194647781Y-143086079D01*
X194647781Y-143086079D02*
X194552543Y-143181318D01*
X194552543Y-143181318D02*
X194409686Y-143228937D01*
X194409686Y-143228937D02*
X194314448Y-143228937D01*
X194314448Y-143228937D02*
X194171591Y-143181318D01*
X194171591Y-143181318D02*
X194123972Y-143133698D01*
X194123972Y-143133698D02*
X194123972Y-142800365D01*
X194123972Y-142800365D02*
X194314448Y-142800365D01*
X193695400Y-143228937D02*
X193695400Y-142228937D01*
X193695400Y-142228937D02*
X193314448Y-142228937D01*
X193314448Y-142228937D02*
X193219210Y-142276556D01*
X193219210Y-142276556D02*
X193171591Y-142324175D01*
X193171591Y-142324175D02*
X193123972Y-142419413D01*
X193123972Y-142419413D02*
X193123972Y-142562270D01*
X193123972Y-142562270D02*
X193171591Y-142657508D01*
X193171591Y-142657508D02*
X193219210Y-142705127D01*
X193219210Y-142705127D02*
X193314448Y-142752746D01*
X193314448Y-142752746D02*
X193695400Y-142752746D01*
X192695400Y-143228937D02*
X192695400Y-142228937D01*
X192028734Y-142228937D02*
X191838258Y-142228937D01*
X191838258Y-142228937D02*
X191743020Y-142276556D01*
X191743020Y-142276556D02*
X191647782Y-142371794D01*
X191647782Y-142371794D02*
X191600163Y-142562270D01*
X191600163Y-142562270D02*
X191600163Y-142895603D01*
X191600163Y-142895603D02*
X191647782Y-143086079D01*
X191647782Y-143086079D02*
X191743020Y-143181318D01*
X191743020Y-143181318D02*
X191838258Y-143228937D01*
X191838258Y-143228937D02*
X192028734Y-143228937D01*
X192028734Y-143228937D02*
X192123972Y-143181318D01*
X192123972Y-143181318D02*
X192219210Y-143086079D01*
X192219210Y-143086079D02*
X192266829Y-142895603D01*
X192266829Y-142895603D02*
X192266829Y-142562270D01*
X192266829Y-142562270D02*
X192219210Y-142371794D01*
X192219210Y-142371794D02*
X192123972Y-142276556D01*
X192123972Y-142276556D02*
X192028734Y-142228937D01*
X191266829Y-142228937D02*
X190647782Y-142228937D01*
X190647782Y-142228937D02*
X190981115Y-142609889D01*
X190981115Y-142609889D02*
X190838258Y-142609889D01*
X190838258Y-142609889D02*
X190743020Y-142657508D01*
X190743020Y-142657508D02*
X190695401Y-142705127D01*
X190695401Y-142705127D02*
X190647782Y-142800365D01*
X190647782Y-142800365D02*
X190647782Y-143038460D01*
X190647782Y-143038460D02*
X190695401Y-143133698D01*
X190695401Y-143133698D02*
X190743020Y-143181318D01*
X190743020Y-143181318D02*
X190838258Y-143228937D01*
X190838258Y-143228937D02*
X191123972Y-143228937D01*
X191123972Y-143228937D02*
X191219210Y-143181318D01*
X191219210Y-143181318D02*
X191266829Y-143133698D01*
X189695401Y-143228937D02*
X190266829Y-143228937D01*
X189981115Y-143228937D02*
X189981115Y-142228937D01*
X189981115Y-142228937D02*
X190076353Y-142371794D01*
X190076353Y-142371794D02*
X190171591Y-142467032D01*
X190171591Y-142467032D02*
X190266829Y-142514651D01*
X108871591Y-83333996D02*
X108966829Y-83286377D01*
X108966829Y-83286377D02*
X109109686Y-83286377D01*
X109109686Y-83286377D02*
X109252543Y-83333996D01*
X109252543Y-83333996D02*
X109347781Y-83429234D01*
X109347781Y-83429234D02*
X109395400Y-83524472D01*
X109395400Y-83524472D02*
X109443019Y-83714948D01*
X109443019Y-83714948D02*
X109443019Y-83857805D01*
X109443019Y-83857805D02*
X109395400Y-84048281D01*
X109395400Y-84048281D02*
X109347781Y-84143519D01*
X109347781Y-84143519D02*
X109252543Y-84238758D01*
X109252543Y-84238758D02*
X109109686Y-84286377D01*
X109109686Y-84286377D02*
X109014448Y-84286377D01*
X109014448Y-84286377D02*
X108871591Y-84238758D01*
X108871591Y-84238758D02*
X108823972Y-84191138D01*
X108823972Y-84191138D02*
X108823972Y-83857805D01*
X108823972Y-83857805D02*
X109014448Y-83857805D01*
X108395400Y-84286377D02*
X108395400Y-83286377D01*
X108395400Y-83286377D02*
X108014448Y-83286377D01*
X108014448Y-83286377D02*
X107919210Y-83333996D01*
X107919210Y-83333996D02*
X107871591Y-83381615D01*
X107871591Y-83381615D02*
X107823972Y-83476853D01*
X107823972Y-83476853D02*
X107823972Y-83619710D01*
X107823972Y-83619710D02*
X107871591Y-83714948D01*
X107871591Y-83714948D02*
X107919210Y-83762567D01*
X107919210Y-83762567D02*
X108014448Y-83810186D01*
X108014448Y-83810186D02*
X108395400Y-83810186D01*
X107395400Y-84286377D02*
X107395400Y-83286377D01*
X106728734Y-83286377D02*
X106538258Y-83286377D01*
X106538258Y-83286377D02*
X106443020Y-83333996D01*
X106443020Y-83333996D02*
X106347782Y-83429234D01*
X106347782Y-83429234D02*
X106300163Y-83619710D01*
X106300163Y-83619710D02*
X106300163Y-83953043D01*
X106300163Y-83953043D02*
X106347782Y-84143519D01*
X106347782Y-84143519D02*
X106443020Y-84238758D01*
X106443020Y-84238758D02*
X106538258Y-84286377D01*
X106538258Y-84286377D02*
X106728734Y-84286377D01*
X106728734Y-84286377D02*
X106823972Y-84238758D01*
X106823972Y-84238758D02*
X106919210Y-84143519D01*
X106919210Y-84143519D02*
X106966829Y-83953043D01*
X106966829Y-83953043D02*
X106966829Y-83619710D01*
X106966829Y-83619710D02*
X106919210Y-83429234D01*
X106919210Y-83429234D02*
X106823972Y-83333996D01*
X106823972Y-83333996D02*
X106728734Y-83286377D01*
X105919210Y-83381615D02*
X105871591Y-83333996D01*
X105871591Y-83333996D02*
X105776353Y-83286377D01*
X105776353Y-83286377D02*
X105538258Y-83286377D01*
X105538258Y-83286377D02*
X105443020Y-83333996D01*
X105443020Y-83333996D02*
X105395401Y-83381615D01*
X105395401Y-83381615D02*
X105347782Y-83476853D01*
X105347782Y-83476853D02*
X105347782Y-83572091D01*
X105347782Y-83572091D02*
X105395401Y-83714948D01*
X105395401Y-83714948D02*
X105966829Y-84286377D01*
X105966829Y-84286377D02*
X105347782Y-84286377D01*
X105014448Y-83286377D02*
X104347782Y-83286377D01*
X104347782Y-83286377D02*
X104776353Y-84286377D01*
X249571591Y-131326556D02*
X249666829Y-131278937D01*
X249666829Y-131278937D02*
X249809686Y-131278937D01*
X249809686Y-131278937D02*
X249952543Y-131326556D01*
X249952543Y-131326556D02*
X250047781Y-131421794D01*
X250047781Y-131421794D02*
X250095400Y-131517032D01*
X250095400Y-131517032D02*
X250143019Y-131707508D01*
X250143019Y-131707508D02*
X250143019Y-131850365D01*
X250143019Y-131850365D02*
X250095400Y-132040841D01*
X250095400Y-132040841D02*
X250047781Y-132136079D01*
X250047781Y-132136079D02*
X249952543Y-132231318D01*
X249952543Y-132231318D02*
X249809686Y-132278937D01*
X249809686Y-132278937D02*
X249714448Y-132278937D01*
X249714448Y-132278937D02*
X249571591Y-132231318D01*
X249571591Y-132231318D02*
X249523972Y-132183698D01*
X249523972Y-132183698D02*
X249523972Y-131850365D01*
X249523972Y-131850365D02*
X249714448Y-131850365D01*
X249095400Y-132278937D02*
X249095400Y-131278937D01*
X249095400Y-131278937D02*
X248714448Y-131278937D01*
X248714448Y-131278937D02*
X248619210Y-131326556D01*
X248619210Y-131326556D02*
X248571591Y-131374175D01*
X248571591Y-131374175D02*
X248523972Y-131469413D01*
X248523972Y-131469413D02*
X248523972Y-131612270D01*
X248523972Y-131612270D02*
X248571591Y-131707508D01*
X248571591Y-131707508D02*
X248619210Y-131755127D01*
X248619210Y-131755127D02*
X248714448Y-131802746D01*
X248714448Y-131802746D02*
X249095400Y-131802746D01*
X248095400Y-132278937D02*
X248095400Y-131278937D01*
X247428734Y-131278937D02*
X247238258Y-131278937D01*
X247238258Y-131278937D02*
X247143020Y-131326556D01*
X247143020Y-131326556D02*
X247047782Y-131421794D01*
X247047782Y-131421794D02*
X247000163Y-131612270D01*
X247000163Y-131612270D02*
X247000163Y-131945603D01*
X247000163Y-131945603D02*
X247047782Y-132136079D01*
X247047782Y-132136079D02*
X247143020Y-132231318D01*
X247143020Y-132231318D02*
X247238258Y-132278937D01*
X247238258Y-132278937D02*
X247428734Y-132278937D01*
X247428734Y-132278937D02*
X247523972Y-132231318D01*
X247523972Y-132231318D02*
X247619210Y-132136079D01*
X247619210Y-132136079D02*
X247666829Y-131945603D01*
X247666829Y-131945603D02*
X247666829Y-131612270D01*
X247666829Y-131612270D02*
X247619210Y-131421794D01*
X247619210Y-131421794D02*
X247523972Y-131326556D01*
X247523972Y-131326556D02*
X247428734Y-131278937D01*
X246143020Y-131612270D02*
X246143020Y-132278937D01*
X246381115Y-131231318D02*
X246619210Y-131945603D01*
X246619210Y-131945603D02*
X246000163Y-131945603D01*
X245428734Y-131278937D02*
X245333496Y-131278937D01*
X245333496Y-131278937D02*
X245238258Y-131326556D01*
X245238258Y-131326556D02*
X245190639Y-131374175D01*
X245190639Y-131374175D02*
X245143020Y-131469413D01*
X245143020Y-131469413D02*
X245095401Y-131659889D01*
X245095401Y-131659889D02*
X245095401Y-131897984D01*
X245095401Y-131897984D02*
X245143020Y-132088460D01*
X245143020Y-132088460D02*
X245190639Y-132183698D01*
X245190639Y-132183698D02*
X245238258Y-132231318D01*
X245238258Y-132231318D02*
X245333496Y-132278937D01*
X245333496Y-132278937D02*
X245428734Y-132278937D01*
X245428734Y-132278937D02*
X245523972Y-132231318D01*
X245523972Y-132231318D02*
X245571591Y-132183698D01*
X245571591Y-132183698D02*
X245619210Y-132088460D01*
X245619210Y-132088460D02*
X245666829Y-131897984D01*
X245666829Y-131897984D02*
X245666829Y-131659889D01*
X245666829Y-131659889D02*
X245619210Y-131469413D01*
X245619210Y-131469413D02*
X245571591Y-131374175D01*
X245571591Y-131374175D02*
X245523972Y-131326556D01*
X245523972Y-131326556D02*
X245428734Y-131278937D01*
X184621591Y-174976556D02*
X184716829Y-174928937D01*
X184716829Y-174928937D02*
X184859686Y-174928937D01*
X184859686Y-174928937D02*
X185002543Y-174976556D01*
X185002543Y-174976556D02*
X185097781Y-175071794D01*
X185097781Y-175071794D02*
X185145400Y-175167032D01*
X185145400Y-175167032D02*
X185193019Y-175357508D01*
X185193019Y-175357508D02*
X185193019Y-175500365D01*
X185193019Y-175500365D02*
X185145400Y-175690841D01*
X185145400Y-175690841D02*
X185097781Y-175786079D01*
X185097781Y-175786079D02*
X185002543Y-175881318D01*
X185002543Y-175881318D02*
X184859686Y-175928937D01*
X184859686Y-175928937D02*
X184764448Y-175928937D01*
X184764448Y-175928937D02*
X184621591Y-175881318D01*
X184621591Y-175881318D02*
X184573972Y-175833698D01*
X184573972Y-175833698D02*
X184573972Y-175500365D01*
X184573972Y-175500365D02*
X184764448Y-175500365D01*
X184145400Y-175928937D02*
X184145400Y-174928937D01*
X184145400Y-174928937D02*
X183764448Y-174928937D01*
X183764448Y-174928937D02*
X183669210Y-174976556D01*
X183669210Y-174976556D02*
X183621591Y-175024175D01*
X183621591Y-175024175D02*
X183573972Y-175119413D01*
X183573972Y-175119413D02*
X183573972Y-175262270D01*
X183573972Y-175262270D02*
X183621591Y-175357508D01*
X183621591Y-175357508D02*
X183669210Y-175405127D01*
X183669210Y-175405127D02*
X183764448Y-175452746D01*
X183764448Y-175452746D02*
X184145400Y-175452746D01*
X183145400Y-175928937D02*
X183145400Y-174928937D01*
X182478734Y-174928937D02*
X182288258Y-174928937D01*
X182288258Y-174928937D02*
X182193020Y-174976556D01*
X182193020Y-174976556D02*
X182097782Y-175071794D01*
X182097782Y-175071794D02*
X182050163Y-175262270D01*
X182050163Y-175262270D02*
X182050163Y-175595603D01*
X182050163Y-175595603D02*
X182097782Y-175786079D01*
X182097782Y-175786079D02*
X182193020Y-175881318D01*
X182193020Y-175881318D02*
X182288258Y-175928937D01*
X182288258Y-175928937D02*
X182478734Y-175928937D01*
X182478734Y-175928937D02*
X182573972Y-175881318D01*
X182573972Y-175881318D02*
X182669210Y-175786079D01*
X182669210Y-175786079D02*
X182716829Y-175595603D01*
X182716829Y-175595603D02*
X182716829Y-175262270D01*
X182716829Y-175262270D02*
X182669210Y-175071794D01*
X182669210Y-175071794D02*
X182573972Y-174976556D01*
X182573972Y-174976556D02*
X182478734Y-174928937D01*
X181716829Y-174928937D02*
X181097782Y-174928937D01*
X181097782Y-174928937D02*
X181431115Y-175309889D01*
X181431115Y-175309889D02*
X181288258Y-175309889D01*
X181288258Y-175309889D02*
X181193020Y-175357508D01*
X181193020Y-175357508D02*
X181145401Y-175405127D01*
X181145401Y-175405127D02*
X181097782Y-175500365D01*
X181097782Y-175500365D02*
X181097782Y-175738460D01*
X181097782Y-175738460D02*
X181145401Y-175833698D01*
X181145401Y-175833698D02*
X181193020Y-175881318D01*
X181193020Y-175881318D02*
X181288258Y-175928937D01*
X181288258Y-175928937D02*
X181573972Y-175928937D01*
X181573972Y-175928937D02*
X181669210Y-175881318D01*
X181669210Y-175881318D02*
X181716829Y-175833698D01*
X180193020Y-174928937D02*
X180669210Y-174928937D01*
X180669210Y-174928937D02*
X180716829Y-175405127D01*
X180716829Y-175405127D02*
X180669210Y-175357508D01*
X180669210Y-175357508D02*
X180573972Y-175309889D01*
X180573972Y-175309889D02*
X180335877Y-175309889D01*
X180335877Y-175309889D02*
X180240639Y-175357508D01*
X180240639Y-175357508D02*
X180193020Y-175405127D01*
X180193020Y-175405127D02*
X180145401Y-175500365D01*
X180145401Y-175500365D02*
X180145401Y-175738460D01*
X180145401Y-175738460D02*
X180193020Y-175833698D01*
X180193020Y-175833698D02*
X180240639Y-175881318D01*
X180240639Y-175881318D02*
X180335877Y-175928937D01*
X180335877Y-175928937D02*
X180573972Y-175928937D01*
X180573972Y-175928937D02*
X180669210Y-175881318D01*
X180669210Y-175881318D02*
X180716829Y-175833698D01*
X220366999Y-60678463D02*
X221176522Y-60678463D01*
X221176522Y-60678463D02*
X221271760Y-60726082D01*
X221271760Y-60726082D02*
X221319380Y-60773701D01*
X221319380Y-60773701D02*
X221366999Y-60868939D01*
X221366999Y-60868939D02*
X221366999Y-61059415D01*
X221366999Y-61059415D02*
X221319380Y-61154653D01*
X221319380Y-61154653D02*
X221271760Y-61202272D01*
X221271760Y-61202272D02*
X221176522Y-61249891D01*
X221176522Y-61249891D02*
X220366999Y-61249891D01*
X221319380Y-61678463D02*
X221366999Y-61821320D01*
X221366999Y-61821320D02*
X221366999Y-62059415D01*
X221366999Y-62059415D02*
X221319380Y-62154653D01*
X221319380Y-62154653D02*
X221271760Y-62202272D01*
X221271760Y-62202272D02*
X221176522Y-62249891D01*
X221176522Y-62249891D02*
X221081284Y-62249891D01*
X221081284Y-62249891D02*
X220986046Y-62202272D01*
X220986046Y-62202272D02*
X220938427Y-62154653D01*
X220938427Y-62154653D02*
X220890808Y-62059415D01*
X220890808Y-62059415D02*
X220843189Y-61868939D01*
X220843189Y-61868939D02*
X220795570Y-61773701D01*
X220795570Y-61773701D02*
X220747951Y-61726082D01*
X220747951Y-61726082D02*
X220652713Y-61678463D01*
X220652713Y-61678463D02*
X220557475Y-61678463D01*
X220557475Y-61678463D02*
X220462237Y-61726082D01*
X220462237Y-61726082D02*
X220414618Y-61773701D01*
X220414618Y-61773701D02*
X220366999Y-61868939D01*
X220366999Y-61868939D02*
X220366999Y-62107034D01*
X220366999Y-62107034D02*
X220414618Y-62249891D01*
X220843189Y-63011796D02*
X220890808Y-63154653D01*
X220890808Y-63154653D02*
X220938427Y-63202272D01*
X220938427Y-63202272D02*
X221033665Y-63249891D01*
X221033665Y-63249891D02*
X221176522Y-63249891D01*
X221176522Y-63249891D02*
X221271760Y-63202272D01*
X221271760Y-63202272D02*
X221319380Y-63154653D01*
X221319380Y-63154653D02*
X221366999Y-63059415D01*
X221366999Y-63059415D02*
X221366999Y-62678463D01*
X221366999Y-62678463D02*
X220366999Y-62678463D01*
X220366999Y-62678463D02*
X220366999Y-63011796D01*
X220366999Y-63011796D02*
X220414618Y-63107034D01*
X220414618Y-63107034D02*
X220462237Y-63154653D01*
X220462237Y-63154653D02*
X220557475Y-63202272D01*
X220557475Y-63202272D02*
X220652713Y-63202272D01*
X220652713Y-63202272D02*
X220747951Y-63154653D01*
X220747951Y-63154653D02*
X220795570Y-63107034D01*
X220795570Y-63107034D02*
X220843189Y-63011796D01*
X220843189Y-63011796D02*
X220843189Y-62678463D01*
X220462237Y-63630844D02*
X220414618Y-63678463D01*
X220414618Y-63678463D02*
X220366999Y-63773701D01*
X220366999Y-63773701D02*
X220366999Y-64011796D01*
X220366999Y-64011796D02*
X220414618Y-64107034D01*
X220414618Y-64107034D02*
X220462237Y-64154653D01*
X220462237Y-64154653D02*
X220557475Y-64202272D01*
X220557475Y-64202272D02*
X220652713Y-64202272D01*
X220652713Y-64202272D02*
X220795570Y-64154653D01*
X220795570Y-64154653D02*
X221366999Y-63583225D01*
X221366999Y-63583225D02*
X221366999Y-64202272D01*
D11*
X96475758Y-112808250D02*
X97412758Y-111871250D01*
X97412758Y-111871250D02*
X100159758Y-111871250D01*
X97412758Y-116663250D02*
X96391758Y-115642250D01*
X100059758Y-116663250D02*
X97412758Y-116663250D01*
X100159758Y-111871250D02*
X100562758Y-111951250D01*
X100562758Y-111951250D02*
X100904758Y-112180250D01*
X100621758Y-116768250D02*
X100059758Y-116663250D01*
X100904758Y-112180250D02*
X101437758Y-112713250D01*
X101100758Y-117067250D02*
X100621758Y-116768250D01*
X101437758Y-112713250D02*
X101437758Y-112935250D01*
X101437758Y-112935250D02*
X101524758Y-113373250D01*
X101438758Y-117520250D02*
X101100758Y-117067250D01*
X101524758Y-113373250D02*
X101768758Y-113740250D01*
X101592758Y-118078250D02*
X101438758Y-117520250D01*
X101674758Y-118376250D02*
X101592758Y-118078250D01*
X101768758Y-113740250D02*
X102135758Y-113984250D01*
X101867758Y-118634250D02*
X101674758Y-118376250D01*
X102135758Y-113984250D02*
X102573758Y-114071250D01*
X102141758Y-118804250D02*
X101867758Y-118634250D01*
X102451758Y-118863250D02*
X102141758Y-118804250D01*
X102573758Y-114071250D02*
X105373758Y-114071250D01*
X105373758Y-114071250D02*
X105700758Y-114136250D01*
X105700758Y-114136250D02*
X105983758Y-114325250D01*
X105983758Y-114325250D02*
X106172758Y-114608250D01*
X106172758Y-114608250D02*
X106257758Y-115035250D01*
X106174758Y-117921250D02*
X106537758Y-117921250D01*
X106537758Y-117921250D02*
X106537758Y-118863250D01*
X106537758Y-118863250D02*
X102451758Y-118863250D01*
X123075758Y-124158250D02*
X124012758Y-123221250D01*
X124012758Y-123221250D02*
X126759758Y-123221250D01*
X124012758Y-128013250D02*
X122991758Y-126992250D01*
X126659758Y-128013250D02*
X124012758Y-128013250D01*
X126759758Y-123221250D02*
X127162758Y-123301250D01*
X127162758Y-123301250D02*
X127504758Y-123530250D01*
X127221758Y-128118250D02*
X126659758Y-128013250D01*
X127504758Y-123530250D02*
X128037758Y-124063250D01*
X127700758Y-128417250D02*
X127221758Y-128118250D01*
X128037758Y-124063250D02*
X128037758Y-124285250D01*
X128037758Y-124285250D02*
X128124758Y-124723250D01*
X128038758Y-128870250D02*
X127700758Y-128417250D01*
X128124758Y-124723250D02*
X128368758Y-125090250D01*
X128192758Y-129428250D02*
X128038758Y-128870250D01*
X128274758Y-129726250D02*
X128192758Y-129428250D01*
X128368758Y-125090250D02*
X128735758Y-125334250D01*
X128467758Y-129984250D02*
X128274758Y-129726250D01*
X128735758Y-125334250D02*
X129173758Y-125421250D01*
X128741758Y-130154250D02*
X128467758Y-129984250D01*
X129051758Y-130213250D02*
X128741758Y-130154250D01*
X129173758Y-125421250D02*
X131973758Y-125421250D01*
X131973758Y-125421250D02*
X132300758Y-125486250D01*
X132300758Y-125486250D02*
X132583758Y-125675250D01*
X132583758Y-125675250D02*
X132772758Y-125958250D01*
X132772758Y-125958250D02*
X132857758Y-126385250D01*
X132774758Y-129271250D02*
X133137758Y-129271250D01*
X133137758Y-129271250D02*
X133137758Y-130213250D01*
X133137758Y-130213250D02*
X129051758Y-130213250D01*
X140575758Y-177258250D02*
X141512758Y-176321250D01*
X141512758Y-176321250D02*
X144259758Y-176321250D01*
X141512758Y-181113250D02*
X140491758Y-180092250D01*
X144159758Y-181113250D02*
X141512758Y-181113250D01*
X144259758Y-176321250D02*
X144662758Y-176401250D01*
X144662758Y-176401250D02*
X145004758Y-176630250D01*
X144721758Y-181218250D02*
X144159758Y-181113250D01*
X145004758Y-176630250D02*
X145537758Y-177163250D01*
X145200758Y-181517250D02*
X144721758Y-181218250D01*
X145537758Y-177163250D02*
X145537758Y-177385250D01*
X145537758Y-177385250D02*
X145624758Y-177823250D01*
X145538758Y-181970250D02*
X145200758Y-181517250D01*
X145624758Y-177823250D02*
X145868758Y-178190250D01*
X145692758Y-182528250D02*
X145538758Y-181970250D01*
X145774758Y-182826250D02*
X145692758Y-182528250D01*
X145868758Y-178190250D02*
X146235758Y-178434250D01*
X145967758Y-183084250D02*
X145774758Y-182826250D01*
X146235758Y-178434250D02*
X146673758Y-178521250D01*
X146241758Y-183254250D02*
X145967758Y-183084250D01*
X146551758Y-183313250D02*
X146241758Y-183254250D01*
X146673758Y-178521250D02*
X149473758Y-178521250D01*
X149473758Y-178521250D02*
X149800758Y-178586250D01*
X149800758Y-178586250D02*
X150083758Y-178775250D01*
X150083758Y-178775250D02*
X150272758Y-179058250D01*
X150272758Y-179058250D02*
X150357758Y-179485250D01*
X150274758Y-182371250D02*
X150637758Y-182371250D01*
X150637758Y-182371250D02*
X150637758Y-183313250D01*
X150637758Y-183313250D02*
X146551758Y-183313250D01*
X195516180Y-113669118D02*
X196453180Y-112732118D01*
X196453180Y-112732118D02*
X199200180Y-112732118D01*
X196453180Y-117524118D02*
X195432180Y-116503118D01*
X199100180Y-117524118D02*
X196453180Y-117524118D01*
X199200180Y-112732118D02*
X199603180Y-112812118D01*
X199603180Y-112812118D02*
X199945180Y-113041118D01*
X199662180Y-117629118D02*
X199100180Y-117524118D01*
X199945180Y-113041118D02*
X200478180Y-113574118D01*
X200141180Y-117928118D02*
X199662180Y-117629118D01*
X200478180Y-113574118D02*
X200478180Y-113796118D01*
X200478180Y-113796118D02*
X200565180Y-114234118D01*
X200479180Y-118381118D02*
X200141180Y-117928118D01*
X200565180Y-114234118D02*
X200809180Y-114601118D01*
X200633180Y-118939118D02*
X200479180Y-118381118D01*
X200715180Y-119237118D02*
X200633180Y-118939118D01*
X200809180Y-114601118D02*
X201176180Y-114845118D01*
X200908180Y-119495118D02*
X200715180Y-119237118D01*
X201176180Y-114845118D02*
X201614180Y-114932118D01*
X201182180Y-119665118D02*
X200908180Y-119495118D01*
X201492180Y-119724118D02*
X201182180Y-119665118D01*
X201614180Y-114932118D02*
X204414180Y-114932118D01*
X204414180Y-114932118D02*
X204741180Y-114997118D01*
X204741180Y-114997118D02*
X205024180Y-115186118D01*
X205024180Y-115186118D02*
X205213180Y-115469118D01*
X205213180Y-115469118D02*
X205298180Y-115896118D01*
X205215180Y-118782118D02*
X205578180Y-118782118D01*
X205578180Y-118782118D02*
X205578180Y-119724118D01*
X205578180Y-119724118D02*
X201492180Y-119724118D01*
X222076180Y-102139118D02*
X223013180Y-101202118D01*
X223013180Y-101202118D02*
X225760180Y-101202118D01*
X223013180Y-105994118D02*
X221992180Y-104973118D01*
X225660180Y-105994118D02*
X223013180Y-105994118D01*
X225760180Y-101202118D02*
X226163180Y-101282118D01*
X226163180Y-101282118D02*
X226505180Y-101511118D01*
X226222180Y-106099118D02*
X225660180Y-105994118D01*
X226505180Y-101511118D02*
X227038180Y-102044118D01*
X226701180Y-106398118D02*
X226222180Y-106099118D01*
X227038180Y-102044118D02*
X227038180Y-102266118D01*
X227038180Y-102266118D02*
X227125180Y-102704118D01*
X227039180Y-106851118D02*
X226701180Y-106398118D01*
X227125180Y-102704118D02*
X227369180Y-103071118D01*
X227193180Y-107409118D02*
X227039180Y-106851118D01*
X227275180Y-107707118D02*
X227193180Y-107409118D01*
X227369180Y-103071118D02*
X227736180Y-103315118D01*
X227468180Y-107965118D02*
X227275180Y-107707118D01*
X227736180Y-103315118D02*
X228174180Y-103402118D01*
X227742180Y-108135118D02*
X227468180Y-107965118D01*
X228052180Y-108194118D02*
X227742180Y-108135118D01*
X228174180Y-103402118D02*
X230974180Y-103402118D01*
X230974180Y-103402118D02*
X231301180Y-103467118D01*
X231301180Y-103467118D02*
X231584180Y-103656118D01*
X231584180Y-103656118D02*
X231773180Y-103939118D01*
X231773180Y-103939118D02*
X231858180Y-104366118D01*
X231775180Y-107252118D02*
X232138180Y-107252118D01*
X232138180Y-107252118D02*
X232138180Y-108194118D01*
X232138180Y-108194118D02*
X228052180Y-108194118D01*
X251046180Y-102019118D02*
X251983180Y-101082118D01*
X251983180Y-101082118D02*
X254730180Y-101082118D01*
X251983180Y-105874118D02*
X250962180Y-104853118D01*
X254630180Y-105874118D02*
X251983180Y-105874118D01*
X254730180Y-101082118D02*
X255133180Y-101162118D01*
X255133180Y-101162118D02*
X255475180Y-101391118D01*
X255192180Y-105979118D02*
X254630180Y-105874118D01*
X255475180Y-101391118D02*
X256008180Y-101924118D01*
X255671180Y-106278118D02*
X255192180Y-105979118D01*
X256008180Y-101924118D02*
X256008180Y-102146118D01*
X256008180Y-102146118D02*
X256095180Y-102584118D01*
X256009180Y-106731118D02*
X255671180Y-106278118D01*
X256095180Y-102584118D02*
X256339180Y-102951118D01*
X256163180Y-107289118D02*
X256009180Y-106731118D01*
X256245180Y-107587118D02*
X256163180Y-107289118D01*
X256339180Y-102951118D02*
X256706180Y-103195118D01*
X256438180Y-107845118D02*
X256245180Y-107587118D01*
X256706180Y-103195118D02*
X257144180Y-103282118D01*
X256712180Y-108015118D02*
X256438180Y-107845118D01*
X257022180Y-108074118D02*
X256712180Y-108015118D01*
X257144180Y-103282118D02*
X259944180Y-103282118D01*
X259944180Y-103282118D02*
X260271180Y-103347118D01*
X260271180Y-103347118D02*
X260554180Y-103536118D01*
X260554180Y-103536118D02*
X260743180Y-103819118D01*
X260743180Y-103819118D02*
X260828180Y-104246118D01*
X260745180Y-107132118D02*
X261108180Y-107132118D01*
X261108180Y-107132118D02*
X261108180Y-108074118D01*
X261108180Y-108074118D02*
X257022180Y-108074118D01*
X280016180Y-107419118D02*
X280953180Y-106482118D01*
X280953180Y-106482118D02*
X283700180Y-106482118D01*
X280953180Y-111274118D02*
X279932180Y-110253118D01*
X283600180Y-111274118D02*
X280953180Y-111274118D01*
X283700180Y-106482118D02*
X284103180Y-106562118D01*
X284103180Y-106562118D02*
X284445180Y-106791118D01*
X284162180Y-111379118D02*
X283600180Y-111274118D01*
X284445180Y-106791118D02*
X284978180Y-107324118D01*
X284641180Y-111678118D02*
X284162180Y-111379118D01*
X284978180Y-107324118D02*
X284978180Y-107546118D01*
X284978180Y-107546118D02*
X285065180Y-107984118D01*
X284979180Y-112131118D02*
X284641180Y-111678118D01*
X285065180Y-107984118D02*
X285309180Y-108351118D01*
X285133180Y-112689118D02*
X284979180Y-112131118D01*
X285215180Y-112987118D02*
X285133180Y-112689118D01*
X285309180Y-108351118D02*
X285676180Y-108595118D01*
X285408180Y-113245118D02*
X285215180Y-112987118D01*
X285676180Y-108595118D02*
X286114180Y-108682118D01*
X285682180Y-113415118D02*
X285408180Y-113245118D01*
X285992180Y-113474118D02*
X285682180Y-113415118D01*
X286114180Y-108682118D02*
X288914180Y-108682118D01*
X288914180Y-108682118D02*
X289241180Y-108747118D01*
X289241180Y-108747118D02*
X289524180Y-108936118D01*
X289524180Y-108936118D02*
X289713180Y-109219118D01*
X289713180Y-109219118D02*
X289798180Y-109646118D01*
X289715180Y-112532118D02*
X290078180Y-112532118D01*
X290078180Y-112532118D02*
X290078180Y-113474118D01*
X290078180Y-113474118D02*
X285992180Y-113474118D01*
X189906180Y-144709118D02*
X190843180Y-143772118D01*
X190843180Y-143772118D02*
X193590180Y-143772118D01*
X190843180Y-148564118D02*
X189822180Y-147543118D01*
X193490180Y-148564118D02*
X190843180Y-148564118D01*
X193590180Y-143772118D02*
X193993180Y-143852118D01*
X193993180Y-143852118D02*
X194335180Y-144081118D01*
X194052180Y-148669118D02*
X193490180Y-148564118D01*
X194335180Y-144081118D02*
X194868180Y-144614118D01*
X194531180Y-148968118D02*
X194052180Y-148669118D01*
X194868180Y-144614118D02*
X194868180Y-144836118D01*
X194868180Y-144836118D02*
X194955180Y-145274118D01*
X194869180Y-149421118D02*
X194531180Y-148968118D01*
X194955180Y-145274118D02*
X195199180Y-145641118D01*
X195023180Y-149979118D02*
X194869180Y-149421118D01*
X195105180Y-150277118D02*
X195023180Y-149979118D01*
X195199180Y-145641118D02*
X195566180Y-145885118D01*
X195298180Y-150535118D02*
X195105180Y-150277118D01*
X195566180Y-145885118D02*
X196004180Y-145972118D01*
X195572180Y-150705118D02*
X195298180Y-150535118D01*
X195882180Y-150764118D02*
X195572180Y-150705118D01*
X196004180Y-145972118D02*
X198804180Y-145972118D01*
X198804180Y-145972118D02*
X199131180Y-146037118D01*
X199131180Y-146037118D02*
X199414180Y-146226118D01*
X199414180Y-146226118D02*
X199603180Y-146509118D01*
X199603180Y-146509118D02*
X199688180Y-146936118D01*
X199605180Y-149822118D02*
X199968180Y-149822118D01*
X199968180Y-149822118D02*
X199968180Y-150764118D01*
X199968180Y-150764118D02*
X195882180Y-150764118D01*
X216516180Y-133599118D02*
X217453180Y-132662118D01*
X217453180Y-132662118D02*
X220200180Y-132662118D01*
X217453180Y-137454118D02*
X216432180Y-136433118D01*
X220100180Y-137454118D02*
X217453180Y-137454118D01*
X220200180Y-132662118D02*
X220603180Y-132742118D01*
X220603180Y-132742118D02*
X220945180Y-132971118D01*
X220662180Y-137559118D02*
X220100180Y-137454118D01*
X220945180Y-132971118D02*
X221478180Y-133504118D01*
X221141180Y-137858118D02*
X220662180Y-137559118D01*
X221478180Y-133504118D02*
X221478180Y-133726118D01*
X221478180Y-133726118D02*
X221565180Y-134164118D01*
X221479180Y-138311118D02*
X221141180Y-137858118D01*
X221565180Y-134164118D02*
X221809180Y-134531118D01*
X221633180Y-138869118D02*
X221479180Y-138311118D01*
X221715180Y-139167118D02*
X221633180Y-138869118D01*
X221809180Y-134531118D02*
X222176180Y-134775118D01*
X221908180Y-139425118D02*
X221715180Y-139167118D01*
X222176180Y-134775118D02*
X222614180Y-134862118D01*
X222182180Y-139595118D02*
X221908180Y-139425118D01*
X222492180Y-139654118D02*
X222182180Y-139595118D01*
X222614180Y-134862118D02*
X225414180Y-134862118D01*
X225414180Y-134862118D02*
X225741180Y-134927118D01*
X225741180Y-134927118D02*
X226024180Y-135116118D01*
X226024180Y-135116118D02*
X226213180Y-135399118D01*
X226213180Y-135399118D02*
X226298180Y-135826118D01*
X226215180Y-138712118D02*
X226578180Y-138712118D01*
X226578180Y-138712118D02*
X226578180Y-139654118D01*
X226578180Y-139654118D02*
X222492180Y-139654118D01*
X245366180Y-133599118D02*
X246303180Y-132662118D01*
X246303180Y-132662118D02*
X249050180Y-132662118D01*
X246303180Y-137454118D02*
X245282180Y-136433118D01*
X248950180Y-137454118D02*
X246303180Y-137454118D01*
X249050180Y-132662118D02*
X249453180Y-132742118D01*
X249453180Y-132742118D02*
X249795180Y-132971118D01*
X249512180Y-137559118D02*
X248950180Y-137454118D01*
X249795180Y-132971118D02*
X250328180Y-133504118D01*
X249991180Y-137858118D02*
X249512180Y-137559118D01*
X250328180Y-133504118D02*
X250328180Y-133726118D01*
X250328180Y-133726118D02*
X250415180Y-134164118D01*
X250329180Y-138311118D02*
X249991180Y-137858118D01*
X250415180Y-134164118D02*
X250659180Y-134531118D01*
X250483180Y-138869118D02*
X250329180Y-138311118D01*
X250565180Y-139167118D02*
X250483180Y-138869118D01*
X250659180Y-134531118D02*
X251026180Y-134775118D01*
X250758180Y-139425118D02*
X250565180Y-139167118D01*
X251026180Y-134775118D02*
X251464180Y-134862118D01*
X251032180Y-139595118D02*
X250758180Y-139425118D01*
X251342180Y-139654118D02*
X251032180Y-139595118D01*
X251464180Y-134862118D02*
X254264180Y-134862118D01*
X254264180Y-134862118D02*
X254591180Y-134927118D01*
X254591180Y-134927118D02*
X254874180Y-135116118D01*
X254874180Y-135116118D02*
X255063180Y-135399118D01*
X255063180Y-135399118D02*
X255148180Y-135826118D01*
X255065180Y-138712118D02*
X255428180Y-138712118D01*
X255428180Y-138712118D02*
X255428180Y-139654118D01*
X255428180Y-139654118D02*
X251342180Y-139654118D01*
X274576180Y-138759118D02*
X275513180Y-137822118D01*
X275513180Y-137822118D02*
X278260180Y-137822118D01*
X275513180Y-142614118D02*
X274492180Y-141593118D01*
X278160180Y-142614118D02*
X275513180Y-142614118D01*
X278260180Y-137822118D02*
X278663180Y-137902118D01*
X278663180Y-137902118D02*
X279005180Y-138131118D01*
X278722180Y-142719118D02*
X278160180Y-142614118D01*
X279005180Y-138131118D02*
X279538180Y-138664118D01*
X279201180Y-143018118D02*
X278722180Y-142719118D01*
X279538180Y-138664118D02*
X279538180Y-138886118D01*
X279538180Y-138886118D02*
X279625180Y-139324118D01*
X279539180Y-143471118D02*
X279201180Y-143018118D01*
X279625180Y-139324118D02*
X279869180Y-139691118D01*
X279693180Y-144029118D02*
X279539180Y-143471118D01*
X279775180Y-144327118D02*
X279693180Y-144029118D01*
X279869180Y-139691118D02*
X280236180Y-139935118D01*
X279968180Y-144585118D02*
X279775180Y-144327118D01*
X280236180Y-139935118D02*
X280674180Y-140022118D01*
X280242180Y-144755118D02*
X279968180Y-144585118D01*
X280552180Y-144814118D02*
X280242180Y-144755118D01*
X280674180Y-140022118D02*
X283474180Y-140022118D01*
X283474180Y-140022118D02*
X283801180Y-140087118D01*
X283801180Y-140087118D02*
X284084180Y-140276118D01*
X284084180Y-140276118D02*
X284273180Y-140559118D01*
X284273180Y-140559118D02*
X284358180Y-140986118D01*
X284275180Y-143872118D02*
X284638180Y-143872118D01*
X284638180Y-143872118D02*
X284638180Y-144814118D01*
X284638180Y-144814118D02*
X280552180Y-144814118D01*
X67380758Y-112688250D02*
X68317758Y-111751250D01*
X68317758Y-111751250D02*
X71064758Y-111751250D01*
X68317758Y-116543250D02*
X67296758Y-115522250D01*
X70964758Y-116543250D02*
X68317758Y-116543250D01*
X71064758Y-111751250D02*
X71467758Y-111831250D01*
X71467758Y-111831250D02*
X71809758Y-112060250D01*
X71526758Y-116648250D02*
X70964758Y-116543250D01*
X71809758Y-112060250D02*
X72342758Y-112593250D01*
X72005758Y-116947250D02*
X71526758Y-116648250D01*
X72342758Y-112593250D02*
X72342758Y-112815250D01*
X72342758Y-112815250D02*
X72429758Y-113253250D01*
X72343758Y-117400250D02*
X72005758Y-116947250D01*
X72429758Y-113253250D02*
X72673758Y-113620250D01*
X72497758Y-117958250D02*
X72343758Y-117400250D01*
X72579758Y-118256250D02*
X72497758Y-117958250D01*
X72673758Y-113620250D02*
X73040758Y-113864250D01*
X72772758Y-118514250D02*
X72579758Y-118256250D01*
X73040758Y-113864250D02*
X73478758Y-113951250D01*
X73046758Y-118684250D02*
X72772758Y-118514250D01*
X73356758Y-118743250D02*
X73046758Y-118684250D01*
X73478758Y-113951250D02*
X76278758Y-113951250D01*
X76278758Y-113951250D02*
X76605758Y-114016250D01*
X76605758Y-114016250D02*
X76888758Y-114205250D01*
X76888758Y-114205250D02*
X77077758Y-114488250D01*
X77077758Y-114488250D02*
X77162758Y-114915250D01*
X77079758Y-117801250D02*
X77442758Y-117801250D01*
X77442758Y-117801250D02*
X77442758Y-118743250D01*
X77442758Y-118743250D02*
X73356758Y-118743250D01*
X180516180Y-177270118D02*
X181453180Y-176333118D01*
X181453180Y-176333118D02*
X184200180Y-176333118D01*
X181453180Y-181125118D02*
X180432180Y-180104118D01*
X184100180Y-181125118D02*
X181453180Y-181125118D01*
X184200180Y-176333118D02*
X184603180Y-176413118D01*
X184603180Y-176413118D02*
X184945180Y-176642118D01*
X184662180Y-181230118D02*
X184100180Y-181125118D01*
X184945180Y-176642118D02*
X185478180Y-177175118D01*
X185141180Y-181529118D02*
X184662180Y-181230118D01*
X185478180Y-177175118D02*
X185478180Y-177397118D01*
X185478180Y-177397118D02*
X185565180Y-177835118D01*
X185479180Y-181982118D02*
X185141180Y-181529118D01*
X185565180Y-177835118D02*
X185809180Y-178202118D01*
X185633180Y-182540118D02*
X185479180Y-181982118D01*
X185715180Y-182838118D02*
X185633180Y-182540118D01*
X185809180Y-178202118D02*
X186176180Y-178446118D01*
X185908180Y-183096118D02*
X185715180Y-182838118D01*
X186176180Y-178446118D02*
X186614180Y-178533118D01*
X186182180Y-183266118D02*
X185908180Y-183096118D01*
X186492180Y-183325118D02*
X186182180Y-183266118D01*
X186614180Y-178533118D02*
X189414180Y-178533118D01*
X189414180Y-178533118D02*
X189741180Y-178598118D01*
X189741180Y-178598118D02*
X190024180Y-178787118D01*
X190024180Y-178787118D02*
X190213180Y-179070118D01*
X190213180Y-179070118D02*
X190298180Y-179497118D01*
X190215180Y-182383118D02*
X190578180Y-182383118D01*
X190578180Y-182383118D02*
X190578180Y-183325118D01*
X190578180Y-183325118D02*
X186492180Y-183325118D01*
X104666180Y-85420118D02*
X105603180Y-84483118D01*
X105603180Y-84483118D02*
X108350180Y-84483118D01*
X105603180Y-89275118D02*
X104582180Y-88254118D01*
X108250180Y-89275118D02*
X105603180Y-89275118D01*
X108350180Y-84483118D02*
X108753180Y-84563118D01*
X108753180Y-84563118D02*
X109095180Y-84792118D01*
X108812180Y-89380118D02*
X108250180Y-89275118D01*
X109095180Y-84792118D02*
X109628180Y-85325118D01*
X109291180Y-89679118D02*
X108812180Y-89380118D01*
X109628180Y-85325118D02*
X109628180Y-85547118D01*
X109628180Y-85547118D02*
X109715180Y-85985118D01*
X109629180Y-90132118D02*
X109291180Y-89679118D01*
X109715180Y-85985118D02*
X109959180Y-86352118D01*
X109783180Y-90690118D02*
X109629180Y-90132118D01*
X109865180Y-90988118D02*
X109783180Y-90690118D01*
X109959180Y-86352118D02*
X110326180Y-86596118D01*
X110058180Y-91246118D02*
X109865180Y-90988118D01*
X110326180Y-86596118D02*
X110764180Y-86683118D01*
X110332180Y-91416118D02*
X110058180Y-91246118D01*
X110642180Y-91475118D02*
X110332180Y-91416118D01*
X110764180Y-86683118D02*
X113564180Y-86683118D01*
X113564180Y-86683118D02*
X113891180Y-86748118D01*
X113891180Y-86748118D02*
X114174180Y-86937118D01*
X114174180Y-86937118D02*
X114363180Y-87220118D01*
X114363180Y-87220118D02*
X114448180Y-87647118D01*
X114365180Y-90533118D02*
X114728180Y-90533118D01*
X114728180Y-90533118D02*
X114728180Y-91475118D01*
X114728180Y-91475118D02*
X110642180Y-91475118D01*
X197016180Y-85520118D02*
X197953180Y-84583118D01*
X197953180Y-84583118D02*
X200700180Y-84583118D01*
X197953180Y-89375118D02*
X196932180Y-88354118D01*
X200600180Y-89375118D02*
X197953180Y-89375118D01*
X200700180Y-84583118D02*
X201103180Y-84663118D01*
X201103180Y-84663118D02*
X201445180Y-84892118D01*
X201162180Y-89480118D02*
X200600180Y-89375118D01*
X201445180Y-84892118D02*
X201978180Y-85425118D01*
X201641180Y-89779118D02*
X201162180Y-89480118D01*
X201978180Y-85425118D02*
X201978180Y-85647118D01*
X201978180Y-85647118D02*
X202065180Y-86085118D01*
X201979180Y-90232118D02*
X201641180Y-89779118D01*
X202065180Y-86085118D02*
X202309180Y-86452118D01*
X202133180Y-90790118D02*
X201979180Y-90232118D01*
X202215180Y-91088118D02*
X202133180Y-90790118D01*
X202309180Y-86452118D02*
X202676180Y-86696118D01*
X202408180Y-91346118D02*
X202215180Y-91088118D01*
X202676180Y-86696118D02*
X203114180Y-86783118D01*
X202682180Y-91516118D02*
X202408180Y-91346118D01*
X202992180Y-91575118D02*
X202682180Y-91516118D01*
X203114180Y-86783118D02*
X205914180Y-86783118D01*
X205914180Y-86783118D02*
X206241180Y-86848118D01*
X206241180Y-86848118D02*
X206524180Y-87037118D01*
X206524180Y-87037118D02*
X206713180Y-87320118D01*
X206713180Y-87320118D02*
X206798180Y-87747118D01*
X206715180Y-90633118D02*
X207078180Y-90633118D01*
X207078180Y-90633118D02*
X207078180Y-91575118D01*
X207078180Y-91575118D02*
X202992180Y-91575118D01*
X213564005Y-161440123D02*
X214501005Y-160503123D01*
X214501005Y-160503123D02*
X217248005Y-160503123D01*
X214501005Y-165295123D02*
X213480005Y-164274123D01*
X217148005Y-165295123D02*
X214501005Y-165295123D01*
X217248005Y-160503123D02*
X217651005Y-160583123D01*
X217651005Y-160583123D02*
X217993005Y-160812123D01*
X217710005Y-165400123D02*
X217148005Y-165295123D01*
X217993005Y-160812123D02*
X218526005Y-161345123D01*
X218189005Y-165699123D02*
X217710005Y-165400123D01*
X218526005Y-161345123D02*
X218526005Y-161567123D01*
X218526005Y-161567123D02*
X218613005Y-162005123D01*
X218527005Y-166152123D02*
X218189005Y-165699123D01*
X218613005Y-162005123D02*
X218857005Y-162372123D01*
X218681005Y-166710123D02*
X218527005Y-166152123D01*
X218763005Y-167008123D02*
X218681005Y-166710123D01*
X218857005Y-162372123D02*
X219224005Y-162616123D01*
X218956005Y-167266123D02*
X218763005Y-167008123D01*
X219224005Y-162616123D02*
X219662005Y-162703123D01*
X219230005Y-167436123D02*
X218956005Y-167266123D01*
X219540005Y-167495123D02*
X219230005Y-167436123D01*
X219662005Y-162703123D02*
X222462005Y-162703123D01*
X222462005Y-162703123D02*
X222789005Y-162768123D01*
X222789005Y-162768123D02*
X223072005Y-162957123D01*
X223072005Y-162957123D02*
X223261005Y-163240123D01*
X223261005Y-163240123D02*
X223346005Y-163667123D01*
X223263005Y-166553123D02*
X223626005Y-166553123D01*
X223626005Y-166553123D02*
X223626005Y-167495123D01*
X223626005Y-167495123D02*
X219540005Y-167495123D01*
X214532180Y-60906558D02*
X218742180Y-60906558D01*
X218742180Y-60906558D02*
X218742180Y-63926558D01*
X218742180Y-63926558D02*
X214532180Y-63926558D01*
X222512180Y-58066558D02*
X223802180Y-58066558D01*
X223802180Y-55756558D02*
X223802180Y-58066558D01*
X223802180Y-55756558D02*
X225872180Y-55756558D01*
X223802180Y-66766558D02*
X223802180Y-69076558D01*
X223802180Y-69076558D02*
X225872180Y-69076558D01*
X223812180Y-59746558D02*
X223812180Y-60566558D01*
X223812180Y-62246558D02*
X223812180Y-62586558D01*
X223812180Y-64266558D02*
X223812180Y-65086558D01*
X229392180Y-69076558D02*
X237502180Y-69076558D01*
X237502180Y-54986558D02*
X238022180Y-54986558D01*
X237502180Y-55756558D02*
X229392180Y-55756558D01*
X237502180Y-55756558D02*
X237502180Y-54986558D01*
X237502180Y-69846558D02*
X237502180Y-69076558D01*
X238022180Y-54986558D02*
X238022180Y-69846558D01*
X238022180Y-69846558D02*
X237502180Y-69846558D01*
M02*
